<svg width="20" height="20" viewBox="0 0 20 20" fill="none" xmlns="http://www.w3.org/2000/svg">
<g clip-path="url(#clip0_159_7633)">
<path fill-rule="evenodd" clip-rule="evenodd" d="M6.221 0.887031C7.1985 0.842031 7.51016 0.832031 10.0002 0.832031C12.4902 0.832031 12.8018 0.842865 13.7785 0.887031C14.7552 0.931198 15.4218 1.08703 16.0052 1.31286C16.616 1.5437 17.1702 1.90453 17.6285 2.3712C18.0952 2.8287 18.4552 3.38203 18.6852 3.9937C18.9118 4.57703 19.0668 5.2437 19.1118 6.2187C19.1568 7.19786 19.1668 7.50953 19.1668 9.9987C19.1668 12.4887 19.156 12.8004 19.1118 13.7779C19.0677 14.7529 18.9118 15.4195 18.6852 16.0029C18.4552 16.6146 18.0946 17.1689 17.6285 17.627C17.1702 18.0937 16.616 18.4537 16.0052 18.6837C15.4218 18.9104 14.7552 19.0654 13.7802 19.1104C12.8018 19.1554 12.4902 19.1654 10.0002 19.1654C7.51016 19.1654 7.1985 19.1545 6.221 19.1104C5.246 19.0662 4.57933 18.9104 3.996 18.6837C3.38426 18.4537 2.83001 18.0931 2.37183 17.627C1.90548 17.1693 1.54459 16.6153 1.31433 16.0037C1.0885 15.4204 0.933496 14.7537 0.888496 13.7787C0.843496 12.7995 0.833496 12.4879 0.833496 9.9987C0.833496 7.5087 0.844329 7.19703 0.888496 6.22036C0.932663 5.2437 1.0885 4.57703 1.31433 3.9937C1.54493 3.3821 1.90609 2.82813 2.37266 2.37036C2.8302 1.90412 3.38389 1.54323 3.99516 1.31286C4.5785 1.08703 5.24516 0.932031 6.22016 0.887031H6.221ZM13.7043 2.53703C12.7377 2.49286 12.4477 2.4837 10.0002 2.4837C7.55266 2.4837 7.26266 2.49286 6.296 2.53703C5.40183 2.57786 4.91683 2.72703 4.5935 2.85286C4.166 3.01953 3.86016 3.21703 3.53933 3.53786C3.2352 3.83374 3.00115 4.19393 2.85433 4.59203C2.7285 4.91536 2.57933 5.40036 2.5385 6.29453C2.49433 7.2612 2.48516 7.5512 2.48516 9.9987C2.48516 12.4462 2.49433 12.7362 2.5385 13.7029C2.57933 14.597 2.7285 15.082 2.85433 15.4054C3.001 15.8029 3.23516 16.1637 3.53933 16.4595C3.83516 16.7637 4.196 16.9979 4.5935 17.1445C4.91683 17.2704 5.40183 17.4195 6.296 17.4604C7.26266 17.5045 7.55183 17.5137 10.0002 17.5137C12.4485 17.5137 12.7377 17.5045 13.7043 17.4604C14.5985 17.4195 15.0835 17.2704 15.4068 17.1445C15.8343 16.9779 16.1402 16.7804 16.461 16.4595C16.7652 16.1637 16.9993 15.8029 17.146 15.4054C17.2718 15.082 17.421 14.597 17.4618 13.7029C17.506 12.7362 17.5152 12.4462 17.5152 9.9987C17.5152 7.5512 17.506 7.2612 17.4618 6.29453C17.421 5.40036 17.2718 4.91536 17.146 4.59203C16.9793 4.16453 16.7818 3.8587 16.461 3.53786C16.1651 3.23376 15.8049 2.99971 15.4068 2.85286C15.0835 2.72703 14.5985 2.57786 13.7043 2.53703ZM8.82933 12.8245C9.48321 13.0967 10.2113 13.1335 10.8893 12.9285C11.5672 12.7235 12.153 12.2895 12.5465 11.7006C12.94 11.1117 13.1169 10.4044 13.0469 9.69962C12.9769 8.99481 12.6643 8.33617 12.1627 7.8362C11.8429 7.51659 11.4562 7.27187 11.0304 7.11965C10.6047 6.96743 10.1505 6.9115 9.70057 6.95588C9.25063 7.00026 8.81612 7.14385 8.42833 7.37631C8.04054 7.60877 7.70912 7.92432 7.45791 8.30024C7.20671 8.67616 7.04199 9.1031 6.97559 9.55033C6.9092 9.99756 6.94279 10.4539 7.07395 10.8866C7.2051 11.3193 7.43056 11.7175 7.7341 12.0526C8.03763 12.3877 8.41168 12.6514 8.82933 12.8245ZM6.6685 6.66703C7.10602 6.22951 7.62543 5.88245 8.19708 5.64567C8.76873 5.40888 9.38141 5.28701 10.0002 5.28701C10.6189 5.28701 11.2316 5.40888 11.8032 5.64567C12.3749 5.88245 12.8943 6.22951 13.3318 6.66703C13.7693 7.10455 14.1164 7.62396 14.3532 8.19561C14.59 8.76726 14.7119 9.37995 14.7119 9.9987C14.7119 10.6174 14.59 11.2301 14.3532 11.8018C14.1164 12.3734 13.7693 12.8928 13.3318 13.3304C12.4482 14.214 11.2498 14.7104 10.0002 14.7104C8.75054 14.7104 7.55211 14.214 6.6685 13.3304C5.78488 12.4468 5.28847 11.2483 5.28847 9.9987C5.28847 8.74908 5.78488 7.55064 6.6685 6.66703ZM15.7568 5.9887C15.8652 5.88642 15.952 5.76343 16.0121 5.62701C16.0721 5.49059 16.1042 5.3435 16.1063 5.19447C16.1085 5.04544 16.0808 4.89749 16.0247 4.75937C15.9687 4.62126 15.8855 4.49579 15.7801 4.3904C15.6747 4.285 15.5493 4.20183 15.4112 4.1458C15.273 4.08976 15.1251 4.06201 14.9761 4.06418C14.827 4.06636 14.6799 4.09841 14.5435 4.15844C14.4071 4.21848 14.2841 4.30528 14.1818 4.4137C13.9829 4.62456 13.874 4.90463 13.8782 5.19447C13.8825 5.48431 13.9995 5.7611 14.2045 5.96607C14.4094 6.17104 14.6862 6.28805 14.9761 6.29228C15.2659 6.29651 15.546 6.18761 15.7568 5.9887Z" fill="#081735"/>
</g>
<defs>
<clipPath id="clip0_159_7633">
<rect width="20" height="20" fill="white"/>
</clipPath>
</defs>
</svg>
