<svg width="16" height="17" viewBox="0 0 16 17" fill="none" xmlns="http://www.w3.org/2000/svg">
<path d="M10.3576 5.46442L5.64349 10.1784C5.31805 10.5039 5.31805 11.0315 5.64349 11.3569C5.96892 11.6824 6.49657 11.6824 6.82199 11.3569L11.5361 6.64293C12.5123 5.66662 12.5123 4.08371 11.5361 3.10739C10.5597 2.13108 8.97682 2.13108 8.00049 3.10739L3.28647 7.82144C1.65928 9.44861 1.65928 12.0868 3.28647 13.714C4.91365 15.3412 7.55182 15.3412 9.17899 13.714L13.8931 8.99994L15.0716 10.1784L10.3576 14.8925C8.07949 17.1705 4.38602 17.1705 2.10796 14.8925C-0.170101 12.6144 -0.170101 8.92103 2.10796 6.64293L6.82199 1.92888C8.44916 0.3017 11.0874 0.3017 12.7146 1.92888C14.3417 3.55607 14.3417 6.19425 12.7146 7.82144L8.00049 12.5355C7.02424 13.5118 5.44129 13.5118 4.46498 12.5355C3.48867 11.5592 3.48867 9.97627 4.46498 8.99994L9.17899 4.28591L10.3576 5.46442Z" fill="#667085"/>
</svg>
