<svg width="15" height="17" viewBox="0 0 15 17" fill="none" xmlns="http://www.w3.org/2000/svg">
<path fill-rule="evenodd" clip-rule="evenodd" d="M7.38667 10.5136L7.49959 10.5136L7.75218 10.5145C9.68277 10.5272 14.0947 10.7222 14.0947 13.7126C14.0947 16.6833 9.83656 16.8771 7.78227 16.8897L7.02116 16.8897C5.09046 16.877 0.677673 16.6822 0.677673 13.6956C0.677673 10.7211 5.09046 10.5271 7.02116 10.5145L7.27376 10.5136C7.31294 10.5136 7.35061 10.5136 7.38667 10.5136ZM7.38667 12.0136C5.01067 12.0136 2.17767 12.3056 2.17767 13.6956C2.17767 15.0542 4.84158 15.3718 7.16951 15.3898L7.38667 15.3906C9.76267 15.3906 12.5947 15.0996 12.5947 13.7126C12.5947 12.3086 9.76267 12.0136 7.38667 12.0136ZM7.38667 0.0996094C9.90667 0.0996094 11.9557 2.14961 11.9557 4.66861C11.9557 7.18761 9.90667 9.23761 7.38667 9.23761H7.35967C6.13967 9.23361 4.99667 8.75561 4.14067 7.89161C3.28267 7.02861 2.81367 5.88261 2.81863 4.66561C2.81863 2.14961 4.86767 0.0996094 7.38667 0.0996094ZM7.38667 1.59961C5.69467 1.59961 4.31865 2.97661 4.31865 4.66861C4.31567 5.48861 4.62967 6.25561 5.20467 6.83461C5.77967 7.41361 6.54567 7.73461 7.36167 7.73761L7.38667 8.48761V7.73761C9.07867 7.73761 10.4557 6.36161 10.4557 4.66861C10.4557 2.97661 9.07867 1.59961 7.38667 1.59961Z" fill="#8F95B2"/>
</svg>
