<svg width="20" height="20" viewBox="0 0 20 20" fill="none" xmlns="http://www.w3.org/2000/svg">
<path d="M4.16667 16.668C4.16667 17.11 4.34226 17.5339 4.65482 17.8465C4.96738 18.159 5.39131 18.3346 5.83333 18.3346H14.1667C14.6087 18.3346 15.0326 18.159 15.3452 17.8465C15.6577 17.5339 15.8333 17.11 15.8333 16.668V6.66797H17.5V5.0013H14.1667V3.33464C14.1667 2.89261 13.9911 2.46868 13.6785 2.15612C13.3659 1.84356 12.942 1.66797 12.5 1.66797H7.5C7.05797 1.66797 6.63405 1.84356 6.32149 2.15612C6.00893 2.46868 5.83333 2.89261 5.83333 3.33464V5.0013H2.5V6.66797H4.16667V16.668ZM7.5 3.33464H12.5V5.0013H7.5V3.33464ZM6.66667 6.66797H14.1667V16.668H5.83333V6.66797H6.66667Z" fill="#081735"/>
<path d="M7.5 8.33203H9.16667V14.9987H7.5V8.33203ZM10.8333 8.33203H12.5V14.9987H10.8333V8.33203Z" fill="#081735"/>
</svg>
