<svg width="20" height="20" viewBox="0 0 20 20" fill="none" xmlns="http://www.w3.org/2000/svg">
<path fill-rule="evenodd" clip-rule="evenodd" d="M14.1471 0C14.5717 0 14.9164 0.312557 14.9164 0.697671L14.9168 1.48633C16.4144 1.57945 17.6581 2.04469 18.5384 2.84473C19.4994 3.72008 20.0051 4.97867 20 6.48844V14.9749C20 18.0744 17.8297 20 14.3374 20H5.66254C2.17025 20 0 18.0475 0 14.9042V6.48658C0 3.56305 1.93543 1.68645 5.09197 1.48665L5.0926 0.697671C5.0926 0.312557 5.43721 0 5.86182 0C6.28644 0 6.63105 0.312557 6.63105 0.697671L6.63074 1.46883H13.3774L13.3779 0.697671C13.3779 0.312557 13.7225 0 14.1471 0ZM18.4615 8.28275H1.53846V14.9042C1.53846 17.2912 3.00307 18.6047 5.66254 18.6047H14.3374C16.9969 18.6047 18.4615 17.3154 18.4615 14.9749L18.4615 8.28275ZM14.5653 14.136C14.9899 14.136 15.3345 14.4486 15.3345 14.8337C15.3345 15.2188 14.9899 15.5314 14.5653 15.5314C14.1407 15.5314 13.7919 15.2188 13.7919 14.8337C13.7919 14.4486 14.1314 14.136 14.556 14.136H14.5653ZM10.014 14.136C10.4386 14.136 10.7832 14.4486 10.7832 14.8337C10.7832 15.2188 10.4386 15.5314 10.014 15.5314C9.5894 15.5314 9.24068 15.2188 9.24068 14.8337C9.24068 14.4486 9.58017 14.136 10.0048 14.136H10.014ZM5.45321 14.136C5.87782 14.136 6.22244 14.4486 6.22244 14.8337C6.22244 15.2188 5.87782 15.5314 5.45321 15.5314C5.0286 15.5314 4.67885 15.2188 4.67885 14.8337C4.67885 14.4486 5.01937 14.136 5.44398 14.136H5.45321ZM14.5653 10.5205C14.9899 10.5205 15.3345 10.8331 15.3345 11.2182C15.3345 11.6033 14.9899 11.9159 14.5653 11.9159C14.1407 11.9159 13.7919 11.6033 13.7919 11.2182C13.7919 10.8331 14.1314 10.5205 14.556 10.5205H14.5653ZM10.014 10.5205C10.4386 10.5205 10.7832 10.8331 10.7832 11.2182C10.7832 11.6033 10.4386 11.9159 10.014 11.9159C9.5894 11.9159 9.24068 11.6033 9.24068 11.2182C9.24068 10.8331 9.58017 10.5205 10.0048 10.5205H10.014ZM5.45321 10.5205C5.87782 10.5205 6.22244 10.8331 6.22244 11.2182C6.22244 11.6033 5.87782 11.9159 5.45321 11.9159C5.0286 11.9159 4.67885 11.6033 4.67885 11.2182C4.67885 10.8331 5.01937 10.5205 5.44398 10.5205H5.45321ZM13.3774 2.86417H6.63074L6.63105 3.75905C6.63105 4.14417 6.28644 4.45672 5.86182 4.45672C5.43721 4.45672 5.0926 4.14417 5.0926 3.75905L5.09205 2.88529C2.79439 3.06035 1.53846 4.32357 1.53846 6.48658V6.88741H18.4615L18.4615 6.48658C18.4656 5.33774 18.1251 4.44472 17.4492 3.83077C16.8558 3.29106 15.9885 2.96873 14.9172 2.88574L14.9164 3.75905C14.9164 4.14417 14.5717 4.45672 14.1471 4.45672C13.7225 4.45672 13.3779 4.14417 13.3779 3.75905L13.3774 2.86417Z" fill="#8F95B2"/>
</svg>
