<svg width="16" height="16" viewBox="0 0 16 16" fill="none" xmlns="http://www.w3.org/2000/svg">
<path d="M8 0.6875C3.968 0.6875 0.6875 3.968 0.6875 8C0.6875 12.032 3.968 15.3125 8 15.3125C12.032 15.3125 15.3125 12.032 15.3125 8C15.3125 3.968 12.032 0.6875 8 0.6875ZM8 1.8125C11.4239 1.8125 14.1875 4.57606 14.1875 8C14.1875 11.4239 11.4239 14.1875 8 14.1875C4.57606 14.1875 1.8125 11.4239 1.8125 8C1.8125 4.57606 4.57606 1.8125 8 1.8125ZM5.87375 5.06375L5.06375 5.87375L7.19225 8L5.06487 10.1263L5.87488 10.9362L8 8.80831L10.1263 10.9346L10.9362 10.1263L8.80831 8L10.9346 5.87375L10.1263 5.06375L8 7.19225L5.87375 5.06487V5.06375Z" fill="white"/>
</svg>
