<svg width="12" height="12" viewBox="0 0 12 12" fill="none" xmlns="http://www.w3.org/2000/svg">
<path d="M7.17391 2.06862L9.92911 4.82382L4.30251 10.4511C4.15918 10.5942 3.98651 10.7046 3.79641 10.7745L3.68091 10.8116L0.842413 11.5858C0.787429 11.601 0.729576 11.6025 0.673887 11.5901C0.618199 11.5778 0.566363 11.5521 0.522891 11.5152C0.479418 11.4783 0.445625 11.4313 0.424454 11.3783C0.403282 11.3254 0.395373 11.268 0.401414 11.2113L0.412614 11.1553L1.18681 8.31752C1.24001 8.12152 1.33521 7.93952 1.46541 7.78552L1.54731 7.69592L7.17391 2.06792V2.06862ZM8.27151 0.971721C8.62877 0.61509 9.11051 0.411059 9.61524 0.402617C10.12 0.394174 10.6083 0.581979 10.9772 0.926462C11.3462 1.27094 11.5671 1.74521 11.5933 2.24932C11.6195 2.75344 11.449 3.24804 11.1177 3.62892L11.0267 3.72692L10.424 4.32892L7.66881 1.57372L8.27151 0.971721Z" fill="white"/>
</svg>
