<svg width="21" height="20" viewBox="0 0 21 20" fill="none" xmlns="http://www.w3.org/2000/svg">
<path d="M13.5837 13.3327C14.9644 13.3327 16.0837 14.4519 16.0837 15.8327C16.0837 17.2134 14.9644 18.3327 13.5837 18.3327C12.2029 18.3327 11.0837 17.2134 11.0837 15.8327C11.0837 14.4519 12.2029 13.3327 13.5837 13.3327ZM5.25033 9.99935C7.09128 9.99935 8.58366 11.4918 8.58366 13.3327C8.58366 15.1736 7.09128 16.666 5.25033 16.666C3.40938 16.666 1.91699 15.1736 1.91699 13.3327C1.91699 11.4918 3.40938 9.99935 5.25033 9.99935ZM13.5837 14.9993C13.1234 14.9993 12.7503 15.3724 12.7503 15.8327C12.7503 16.2929 13.1234 16.666 13.5837 16.666C14.0439 16.666 14.417 16.2929 14.417 15.8327C14.417 15.3724 14.0439 14.9993 13.5837 14.9993ZM5.25033 11.666C4.32985 11.666 3.58366 12.4122 3.58366 13.3327C3.58366 14.2532 4.32985 14.9993 5.25033 14.9993C6.1708 14.9993 6.91699 14.2532 6.91699 13.3327C6.91699 12.4122 6.1708 11.666 5.25033 11.666ZM12.3337 1.66602C14.865 1.66602 16.917 3.71804 16.917 6.24935C16.917 8.78068 14.865 10.8327 12.3337 10.8327C9.80233 10.8327 7.75033 8.78068 7.75033 6.24935C7.75033 3.71804 9.80233 1.66602 12.3337 1.66602ZM12.3337 3.33268C10.7228 3.33268 9.41699 4.63852 9.41699 6.24935C9.41699 7.86018 10.7228 9.16602 12.3337 9.16602C13.9445 9.16602 15.2503 7.86018 15.2503 6.24935C15.2503 4.63852 13.9445 3.33268 12.3337 3.33268Z" fill="#525866"/>
</svg>
