<svg width="20" height="20" viewBox="0 0 20 20" fill="none" xmlns="http://www.w3.org/2000/svg">
<path d="M2.38248 2.39822L12.8581 0.901701C13.0859 0.86916 13.2969 1.02745 13.3295 1.25526C13.3322 1.27478 13.3337 1.29447 13.3337 1.31418V18.6867C13.3337 18.9168 13.1471 19.1034 12.917 19.1034C12.8972 19.1034 12.8776 19.1019 12.8581 19.0991L2.38248 17.6026C1.97193 17.544 1.66699 17.1924 1.66699 16.7777V3.22318C1.66699 2.80847 1.97193 2.45687 2.38248 2.39822ZM3.33366 3.94593V16.055L11.667 17.2455V2.75544L3.33366 3.94593ZM14.167 15.8338H16.667V4.16709H14.167V2.50043H17.5003C17.9606 2.50043 18.3337 2.87353 18.3337 3.33376V16.6671C18.3337 17.1274 17.9606 17.5005 17.5003 17.5005H14.167V15.8338ZM8.50032 10.0005L10.8337 13.3338H8.83366L7.50032 11.429L6.16698 13.3338H4.16699L6.50032 10.0005L4.16699 6.66709H6.16698L7.50032 8.57187L8.83366 6.66709H10.8337L8.50032 10.0005Z" fill="#525866"/>
</svg>
