<svg width="24" height="23" viewBox="0 0 24 23" fill="none" xmlns="http://www.w3.org/2000/svg">
<path d="M11.9961 6.45731C13.4162 6.45731 14.5675 5.30604 14.5675 3.88588C14.5675 2.46572 13.4162 1.31445 11.9961 1.31445C10.5759 1.31445 9.42462 2.46572 9.42462 3.88588C9.42462 5.30604 10.5759 6.45731 11.9961 6.45731Z" stroke="#8F95B2" strokeWidth="1.71429" strokeLinecap="round" strokeLinejoin="round"/>
<path d="M3.42464 21.885C4.8448 21.885 5.99607 20.7338 5.99607 19.3136C5.99607 17.8935 4.8448 16.7422 3.42464 16.7422C2.00448 16.7422 0.85321 17.8935 0.85321 19.3136C0.85321 20.7338 2.00448 21.885 3.42464 21.885Z" stroke="#8F95B2" strokeWidth="1.71429" strokeLinecap="round" strokeLinejoin="round"/>
<path d="M11.9961 21.885C13.4162 21.885 14.5675 20.7338 14.5675 19.3136C14.5675 17.8935 13.4162 16.7422 11.9961 16.7422C10.5759 16.7422 9.42462 17.8935 9.42462 19.3136C9.42462 20.7338 10.5759 21.885 11.9961 21.885Z" stroke="#8F95B2" strokeWidth="1.71429" strokeLinecap="round" strokeLinejoin="round"/>
<path d="M20.5675 21.885C21.9877 21.885 23.139 20.7338 23.139 19.3136C23.139 17.8935 21.9877 16.7422 20.5675 16.7422C19.1474 16.7422 17.9961 17.8935 17.9961 19.3136C17.9961 20.7338 19.1474 21.885 20.5675 21.885Z" stroke="#8F95B2" strokeWidth="1.71429" strokeLinecap="round" strokeLinejoin="round"/>
<path d="M3.42462 16.7427V13.3142C3.42462 12.8595 3.60523 12.4235 3.92672 12.102C4.24822 11.7805 4.68425 11.5999 5.13891 11.5999H18.8532C19.3078 11.5999 19.7439 11.7805 20.0654 12.102C20.3869 12.4235 20.5675 12.8595 20.5675 13.3142V16.7427M11.996 6.45703V16.7427" stroke="#8F95B2" strokeWidth="1.71429" strokeLinecap="round" strokeLinejoin="round"/>
</svg>
