<svg xmlns="http://www.w3.org/2000/svg" width="21" height="20" viewBox="0 0 21 20" fill="none">
<path d="M7.75033 2.04752V3.81728C5.30713 4.80626 3.58366 7.20153 3.58366 9.99935C3.58366 13.6813 6.56843 16.666 10.2503 16.666C13.0482 16.666 15.4434 14.9425 16.4324 12.4993H18.2022C17.1402 15.8803 13.9817 18.3327 10.2503 18.3327C5.64795 18.3327 1.91699 14.6017 1.91699 9.99935C1.91699 6.26798 4.3694 3.10941 7.75033 2.04752ZM10.2503 1.66602C14.8527 1.66602 18.5837 5.39697 18.5837 9.99935C18.5837 10.2806 18.5697 10.5586 18.5425 10.8327H9.41699V1.70717C9.69108 1.67995 9.96908 1.66602 10.2503 1.66602ZM11.0837 3.38426V9.16602H16.8654C16.4894 6.15042 14.0992 3.7603 11.0837 3.38426Z" fill="#ffffff"/>
</svg>