<svg width="20" height="20" viewBox="0 0 20 20" fill="none" xmlns="http://www.w3.org/2000/svg">
<path d="M9.99984 18.2917H14.1665V16.625H9.99984C6.38317 16.625 3.33317 13.575 3.33317 9.95833C3.33317 6.34167 6.38317 3.29167 9.99984 3.29167C13.6165 3.29167 16.6665 6.34167 16.6665 9.95833V11.15C16.6665 11.8083 16.0748 12.4583 15.4165 12.4583C14.7582 12.4583 14.1665 11.8083 14.1665 11.15V9.95833C14.1665 7.65833 12.2998 5.79167 9.99984 5.79167C7.69984 5.79167 5.83317 7.65833 5.83317 9.95833C5.83317 12.2583 7.69984 14.125 9.99984 14.125C11.1498 14.125 12.1998 13.6583 12.9498 12.9C13.4915 13.6417 14.4248 14.125 15.4165 14.125C17.0582 14.125 18.3332 12.7917 18.3332 11.15V9.95833C18.3332 5.35833 14.5998 1.625 9.99984 1.625C5.39984 1.625 1.6665 5.35833 1.6665 9.95833C1.6665 14.5583 5.39984 18.2917 9.99984 18.2917ZM9.99984 12.4583C8.6165 12.4583 7.49984 11.3417 7.49984 9.95833C7.49984 8.575 8.6165 7.45833 9.99984 7.45833C11.3832 7.45833 12.4998 8.575 12.4998 9.95833C12.4998 11.3417 11.3832 12.4583 9.99984 12.4583Z" fill="#081735"/>
</svg>
