<svg width="21" height="20" viewBox="0 0 21 20" fill="none" xmlns="http://www.w3.org/2000/svg">
<path d="M10.2503 18.3327C5.64795 18.3327 1.91699 14.6017 1.91699 9.99935C1.91699 5.39697 5.64795 1.66602 10.2503 1.66602C14.8527 1.66602 18.5837 5.39697 18.5837 9.99935C18.5837 14.6017 14.8527 18.3327 10.2503 18.3327ZM10.2503 16.666C13.9322 16.666 16.917 13.6813 16.917 9.99935C16.917 6.31745 13.9322 3.33268 10.2503 3.33268C6.56842 3.33268 3.58366 6.31745 3.58366 9.99935C3.58366 13.6813 6.56842 16.666 10.2503 16.666ZM9.41699 5.83268H11.0837V7.49935H9.41699V5.83268ZM9.41699 9.16601H11.0837V14.166H9.41699V9.16601Z" fill="#525866"/>
</svg>
