<svg width="23" height="17" viewBox="0 0 23 17" fill="none" xmlns="http://www.w3.org/2000/svg">
<path fill-rule="evenodd" clip-rule="evenodd" d="M11.3867 10.5136L11.4996 10.5136L11.7522 10.5145C13.6828 10.5272 18.0947 10.7222 18.0947 13.7126C18.0947 16.6833 13.8365 16.8771 11.7823 16.8897L11.0211 16.8897C9.09045 16.877 4.67766 16.6822 4.67766 13.6956C4.67766 10.7211 9.09045 10.5271 11.0211 10.5145L11.2737 10.5136C11.3129 10.5136 11.3506 10.5136 11.3867 10.5136ZM11.3867 12.0136C9.01066 12.0136 6.17766 12.3056 6.17766 13.6956C6.17766 15.0542 8.84157 15.3718 11.1695 15.3898L11.3867 15.3906C13.7627 15.3906 16.5947 15.0996 16.5947 13.7126C16.5947 12.3086 13.7627 12.0136 11.3867 12.0136ZM19.3403 10.1078C21.7633 10.4708 22.2723 11.6088 22.2723 12.4998C22.2723 13.0438 22.0583 14.0368 20.6283 14.5818C20.5403 14.6148 20.4503 14.6308 20.3613 14.6308C20.0593 14.6308 19.7743 14.4468 19.6603 14.1478C19.5123 13.7608 19.7073 13.3268 20.0943 13.1798C20.7723 12.9218 20.7723 12.6368 20.7723 12.4998C20.7723 12.0618 20.2153 11.7558 19.1173 11.5918C18.7083 11.5298 18.4253 11.1488 18.4863 10.7378C18.5473 10.3278 18.9273 10.0548 19.3403 10.1078ZM4.28606 10.7378C4.34706 11.1488 4.06406 11.5298 3.65506 11.5918C2.55706 11.7558 2.00006 12.0618 2.00006 12.4998C2.00006 12.6368 2.00006 12.9208 2.67906 13.1798C3.06606 13.3268 3.26106 13.7608 3.11306 14.1478C2.99906 14.4468 2.71406 14.6308 2.41206 14.6308C2.32306 14.6308 2.23306 14.6148 2.14506 14.5818C0.714061 14.0358 0.500061 13.0428 0.500061 12.4998C0.500061 11.6098 1.00906 10.4708 3.43306 10.1078C3.84606 10.0558 4.22406 10.3278 4.28606 10.7378ZM11.3867 0.0996094C13.9067 0.0996094 15.9557 2.14961 15.9557 4.66861C15.9557 7.18761 13.9067 9.23761 11.3867 9.23761H11.3597C10.1397 9.23361 8.99666 8.75561 8.14066 7.89161C7.28266 7.02861 6.81366 5.88261 6.81862 4.66561C6.81862 2.14961 8.86766 0.0996094 11.3867 0.0996094ZM11.3867 1.59961C9.69466 1.59961 8.31864 2.97661 8.31864 4.66861C8.31566 5.48861 8.62966 6.25561 9.20466 6.83461C9.77966 7.41361 10.5457 7.73461 11.3617 7.73761L11.3867 8.48761V7.73761C13.0787 7.73761 14.4557 6.36161 14.4557 4.66861C14.4557 2.97661 13.0787 1.59961 11.3867 1.59961ZM17.5757 1.07911C19.3337 1.36811 20.6107 2.87211 20.6107 4.65511C20.6067 6.45011 19.2657 7.99011 17.4907 8.23911C17.4557 8.24411 17.4207 8.24611 17.3867 8.24611C17.0187 8.24611 16.6977 7.97511 16.6447 7.60011C16.5877 7.18911 16.8727 6.81011 17.2837 6.75311C18.3237 6.60711 19.1087 5.70511 19.1107 4.65311C19.1107 3.61011 18.3627 2.72811 17.3317 2.55911C16.9237 2.49211 16.6467 2.10611 16.7137 1.69711C16.7817 1.28811 17.1647 1.01411 17.5757 1.07911ZM6.05966 1.69711C6.12666 2.10611 5.84966 2.49211 5.44166 2.55911C4.41066 2.72811 3.66266 3.61011 3.66266 4.65511C3.66466 5.70511 4.44966 6.60811 5.48866 6.75311C5.89966 6.81011 6.18466 7.18911 6.12766 7.60011C6.07466 7.97511 5.75366 8.24611 5.38566 8.24611C5.35166 8.24611 5.31666 8.24411 5.28166 8.23911C3.50666 7.99011 2.16666 6.45011 2.16266 4.65711C2.16266 2.87211 3.43966 1.36811 5.19766 1.07911C5.61866 1.01311 5.99166 1.29011 6.05966 1.69711Z" fill="#8F95B2"/>
</svg>
