<svg width="16" height="20" viewBox="0 0 16 20" fill="none" xmlns="http://www.w3.org/2000/svg">
<path d="M1.33325 3.33341V16.6667C1.33325 17.1088 1.50885 17.5327 1.82141 17.8453C2.13397 18.1578 2.55789 18.3334 2.99992 18.3334H12.9999C13.4419 18.3334 13.8659 18.1578 14.1784 17.8453C14.491 17.5327 14.6666 17.1088 14.6666 16.6667V6.95175C14.6666 6.72971 14.6222 6.50992 14.536 6.30529C14.4499 6.10065 14.3237 5.91528 14.1649 5.76008L10.4649 2.14175C10.1536 1.8373 9.73539 1.6668 9.29992 1.66675H2.99992C2.55789 1.66675 2.13397 1.84234 1.82141 2.1549C1.50885 2.46746 1.33325 2.89139 1.33325 3.33341V3.33341Z" stroke="#8F95B2" stroke-width="2" stroke-linecap="round" stroke-linejoin="round"/>
<path d="M5.5 10.8335H10.5" stroke="#8F95B2" stroke-width="2" stroke-linecap="round" stroke-linejoin="round"/>
<path d="M5.5 14.1667H8" stroke="#8F95B2" stroke-width="2" stroke-linecap="round" stroke-linejoin="round"/>
<path d="M9.6665 1.66675V5.00008C9.6665 5.44211 9.8421 5.86603 10.1547 6.17859C10.4672 6.49115 10.8911 6.66675 11.3332 6.66675H14.6665" stroke="#8F95B2" stroke-width="2" stroke-linejoin="round"/>
</svg>
