<svg width="22" height="19" viewBox="0 0 22 19" fill="none" xmlns="http://www.w3.org/2000/svg">
<path d="M15.4961 0.599609V2.84961H6.49609V0.599609H0.496094V6.59961H6.49609V4.34961H11.7633C11.2677 4.99513 10.9981 5.78575 10.9961 6.59961V12.5996C10.9953 13.1961 10.758 13.7679 10.3362 14.1897C9.91442 14.6115 9.34259 14.8488 8.74609 14.8496H6.49609V12.5996H0.496094V18.5996H6.49609V16.3496H8.74609C9.74029 16.3484 10.6934 15.9529 11.3964 15.2499C12.0994 14.5469 12.4949 13.5938 12.4961 12.5996V6.59961C12.4959 6.30427 12.5539 6.01178 12.6667 5.73886C12.7796 5.46593 12.9451 5.21792 13.1539 5.00898C13.3626 4.80003 13.6105 4.63426 13.8833 4.52112C14.1561 4.40799 14.4485 4.34971 14.7438 4.34961H15.4961V6.59961H21.4961V0.599609H15.4961ZM4.99609 5.09961H1.99609V2.09961H4.99609V5.09961ZM4.99609 17.0996H1.99609V14.0996H4.99609V17.0996ZM19.9961 5.09961H16.9961V2.09961H19.9961V5.09961Z" fill="#8F95B2"/>
</svg>
