<svg width="20" height="20" viewBox="0 0 20 20" fill="none" xmlns="http://www.w3.org/2000/svg">
<path d="M17.5 16.6663C17.5 17.1265 17.1269 17.4996 16.6667 17.4996H3.33333C2.8731 17.4996 2.5 17.1265 2.5 16.6663V7.90719C2.5 7.65003 2.61873 7.40728 2.82172 7.2494L9.48842 2.06421C9.78933 1.83016 10.2107 1.83016 10.5116 2.06421L17.1782 7.2494C17.3812 7.40728 17.5 7.65003 17.5 7.90719V16.6663Z" fill="#525866"/>
<rect x="10" y="10" width="10" height="10" rx="5" fill="white"/>
<g clip-path="url(#clip0_1122_6461)">
<path d="M18.4247 14.5813L17.9828 15.0233L17.7618 14.8023L16.436 16.1281L16.215 17.233L15.7731 17.6749L14.4472 16.3491L12.9004 17.8959L12.4585 17.454L14.0053 15.9072L12.6795 14.5813L13.1214 14.1394L14.2263 13.9184L15.5521 12.5926L15.3311 12.3716L15.7731 11.9297L18.4247 14.5813Z" fill="#525866"/>
</g>
<defs>
<clipPath id="clip0_1122_6461">
<rect width="7.5" height="7.5" fill="white" transform="translate(11.4521 11.4014)"/>
</clipPath>
</defs>
</svg>
