<svg width="22" height="22" viewBox="0 0 22 22" fill="none" xmlns="http://www.w3.org/2000/svg">
<path d="M13.2461 10.5996V9.09961H18.6243L16.9046 7.37986L17.9651 6.31936L21.4961 9.84961L17.9651 13.3799L16.9046 12.3194L18.6243 10.5996H13.2461ZM11.7461 7.59961H10.2461V2.97061L8.52634 4.69036L7.46584 3.62986L10.9961 0.0996094L14.5263 3.62986L13.4658 4.69036L11.7461 2.97061V7.59961ZM11.7461 13.6754V12.0996C11.7451 11.3043 11.4287 10.5418 10.8663 9.97939C10.3039 9.41699 9.54144 9.1006 8.74609 9.09961H3.36709L5.08684 7.37986L4.02634 6.31936L0.496094 9.84961L4.02634 13.3799L5.08684 12.3194L3.36709 10.5996H8.74609C9.1438 10.6 9.5251 10.7582 9.80632 11.0394C10.0875 11.3206 10.2457 11.7019 10.2461 12.0996V13.6754C9.33556 13.8612 8.52648 14.3785 7.9757 15.1271C7.42492 15.8756 7.17168 16.8019 7.26508 17.7265C7.35849 18.6511 7.79188 19.5081 8.48123 20.1313C9.17058 20.7545 10.0668 21.0996 10.9961 21.0996C11.9254 21.0996 12.8216 20.7545 13.511 20.1313C14.2003 19.5081 14.6337 18.6511 14.7271 17.7265C14.8205 16.8019 14.5673 15.8756 14.0165 15.1271C13.4657 14.3785 12.6566 13.8612 11.7461 13.6754ZM10.9961 19.5996C10.5511 19.5996 10.1161 19.4676 9.74606 19.2204C9.37605 18.9732 9.08766 18.6218 8.91736 18.2106C8.74707 17.7995 8.70251 17.3471 8.78933 16.9107C8.87614 16.4742 9.09044 16.0733 9.4051 15.7586C9.71977 15.444 10.1207 15.2297 10.5571 15.1428C10.9936 15.056 11.446 15.1006 11.8571 15.2709C12.2683 15.4412 12.6197 15.7296 12.8669 16.0996C13.1141 16.4696 13.2461 16.9046 13.2461 17.3496C13.2455 17.9462 13.0083 18.5181 12.5864 18.9399C12.1646 19.3618 11.5926 19.599 10.9961 19.5996Z" fill="#8F95B2"/>
</svg>
