<svg width="14" height="14" viewBox="0 0 14 14" fill="none" xmlns="http://www.w3.org/2000/svg">
<path d="M2.33366 7.00008C2.33366 4.42275 4.423 2.33341 7.00033 2.33341C9.57767 2.33341 11.667 4.42275 11.667 7.00008C11.667 9.57742 9.57767 11.6667 7.00033 11.6667C4.423 11.6667 2.33366 9.57742 2.33366 7.00008ZM7.00033 1.16675C3.77866 1.16675 1.16699 3.77842 1.16699 7.00008C1.16699 10.2217 3.77866 12.8334 7.00033 12.8334C10.222 12.8334 12.8337 10.2217 12.8337 7.00008C12.8337 3.77842 10.222 1.16675 7.00033 1.16675ZM10.1836 5.51673L9.35868 4.69177L6.41699 7.63347L4.78781 6.00427L3.96284 6.82922L6.41699 9.28337L10.1836 5.51673Z" fill="#667085"/>
</svg>
