<svg width="20" height="20" viewBox="0 0 20 20" fill="none" xmlns="http://www.w3.org/2000/svg">
<path d="M3.3335 18.333C3.3335 14.6511 6.31826 11.6663 10.0002 11.6663C13.6821 11.6663 16.6668 14.6511 16.6668 18.333H15.0002C15.0002 15.5716 12.7616 13.333 10.0002 13.333C7.23874 13.333 5.00016 15.5716 5.00016 18.333H3.3335ZM10.0002 10.833C7.23766 10.833 5.00016 8.59551 5.00016 5.83301C5.00016 3.07051 7.23766 0.833008 10.0002 0.833008C12.7627 0.833008 15.0002 3.07051 15.0002 5.83301C15.0002 8.59551 12.7627 10.833 10.0002 10.833ZM10.0002 9.16634C11.8418 9.16634 13.3335 7.67467 13.3335 5.83301C13.3335 3.99134 11.8418 2.49967 10.0002 2.49967C8.1585 2.49967 6.66683 3.99134 6.66683 5.83301C6.66683 7.67467 8.1585 9.16634 10.0002 9.16634Z" fill="#525866"/>
</svg>
