<svg width="17" height="13" viewBox="0 0 17 13" fill="none" xmlns="http://www.w3.org/2000/svg">
<path d="M8.43726 8.4375C9.6799 8.4375 10.6873 7.43014 10.6873 6.1875C10.6873 4.94486 9.6799 3.9375 8.43726 3.9375C7.19462 3.9375 6.18726 4.94486 6.18726 6.1875C6.18726 7.43014 7.19462 8.4375 8.43726 8.4375Z" fill="#83BF6E"/>
<path d="M16.841 5.99625C16.1794 4.28493 15.0309 2.80497 13.5373 1.7393C12.0438 0.673625 10.2707 0.0689473 8.43726 0C6.6038 0.0689473 4.83073 0.673625 3.33719 1.7393C1.84364 2.80497 0.695101 4.28493 0.0335107 5.99625C-0.0111702 6.11984 -0.0111702 6.25516 0.0335107 6.37875C0.695101 8.09007 1.84364 9.57003 3.33719 10.6357C4.83073 11.7014 6.6038 12.3061 8.43726 12.375C10.2707 12.3061 12.0438 11.7014 13.5373 10.6357C15.0309 9.57003 16.1794 8.09007 16.841 6.37875C16.8857 6.25516 16.8857 6.11984 16.841 5.99625ZM8.43726 9.84375C7.71412 9.84375 7.00723 9.62931 6.40596 9.22756C5.80469 8.82581 5.33606 8.25478 5.05933 7.58669C4.78259 6.91859 4.71019 6.18344 4.85127 5.4742C4.99234 4.76496 5.34057 4.11348 5.8519 3.60214C6.36324 3.09081 7.01472 2.74258 7.72396 2.6015C8.43321 2.46043 9.16836 2.53283 9.83645 2.80957C10.5045 3.0863 11.0756 3.55493 11.4773 4.1562C11.8791 4.75746 12.0935 5.46436 12.0935 6.1875C12.092 7.15674 11.7063 8.08586 11.021 8.77122C10.3356 9.45657 9.4065 9.84226 8.43726 9.84375Z" fill="#83BF6E"/>
</svg>
