<svg width="24" height="24" viewBox="0 0 24 24" fill="none" xmlns="http://www.w3.org/2000/svg">
  <path d="M16.1625 4.0197L14.8125 5.3697C13.9229 4.99253 12.9663 4.79877 12 4.8C8.022 4.8 4.8 8.022 4.8 12C4.8 15.978 8.022 19.2 12 19.2C15.978 19.2 19.2 15.978 19.2 12C19.2012 11.0337 19.0075 10.0771 18.6303 9.1875L19.9803 7.8375C20.6521 9.12203 21.002 10.5504 21 12C21 16.968 16.968 21 12 21C7.032 21 3 16.968 3 12C3 7.032 7.032 3 12 3C13.5012 3 14.9169 3.369 16.1625 4.0197ZM17.7276 4.9998L19.0002 6.2724L12 13.2726L10.7274 12L17.7276 4.9998Z"
    fill="#A0A0A0"/>
</svg>