<svg width="18" height="18" viewBox="0 0 18 18" fill="none" xmlns="http://www.w3.org/2000/svg">
<path d="M9 0.666667C13.6023 0.666667 17.3333 4.39762 17.3333 9C17.3333 13.6023 13.6023 17.3333 9 17.3333C4.39762 17.3333 0.666664 13.6023 0.666664 9C0.666664 4.39762 4.39762 0.666667 9 0.666667ZM9 2.33333C5.3181 2.33333 2.33333 5.3181 2.33333 9C2.33333 12.6819 5.3181 15.6667 9 15.6667C12.6819 15.6667 15.6667 12.6819 15.6667 9C15.6667 5.3181 12.6819 2.33333 9 2.33333ZM12.1941 5.11457C12.3914 4.97607 12.6597 4.99938 12.8302 5.16984C13.0002 5.33987 13.0222 5.60796 12.8822 5.80348C11.0658 8.34125 10.0663 9.70142 9.88391 9.88392C9.39575 10.372 8.60425 10.372 8.11608 9.88392C7.628 9.39575 7.628 8.60425 8.11608 8.11608C8.42716 7.80508 9.7865 6.80457 12.1941 5.11457ZM13.5833 8.16667C14.0436 8.16667 14.4167 8.53975 14.4167 9C14.4167 9.46025 14.0436 9.83333 13.5833 9.83333C13.1231 9.83333 12.75 9.46025 12.75 9C12.75 8.53975 13.1231 8.16667 13.5833 8.16667ZM4.41666 8.16667C4.8769 8.16667 5.25 8.53975 5.25 9C5.25 9.46025 4.8769 9.83333 4.41666 9.83333C3.95643 9.83333 3.58333 9.46025 3.58333 9C3.58333 8.53975 3.95643 8.16667 4.41666 8.16667ZM6.34835 5.16984C6.67378 5.49527 6.67378 6.02292 6.34835 6.34835C6.02291 6.67378 5.49527 6.67378 5.16984 6.34835C4.8444 6.02292 4.8444 5.49527 5.16984 5.16984C5.49527 4.8444 6.02291 4.8444 6.34835 5.16984ZM9 3.58333C9.46025 3.58333 9.83333 3.95643 9.83333 4.41667C9.83333 4.8769 9.46025 5.25 9 5.25C8.53975 5.25 8.16666 4.8769 8.16666 4.41667C8.16666 3.95643 8.53975 3.58333 9 3.58333Z" fill="white"/>
</svg>
