<svg width="20" height="20" viewBox="0 0 20 20" fill="none" xmlns="http://www.w3.org/2000/svg">
  <path d="M13.854 2.60983L12.6039 3.85991C11.804 3.52044 10.924 3.33268 9.99996 3.33268C6.31663 3.33268 3.33329 6.31602 3.33329 9.99935C3.33329 13.6827 6.31663 16.666 9.99996 16.666C13.6833 16.666 16.6666 13.6827 16.6666 9.99935C16.6666 9.07535 16.4789 8.19532 16.1394 7.39544L17.3895 6.14537C17.9923 7.29812 18.3333 8.60918 18.3333 9.99935C18.3333 14.5993 14.6 18.3327 9.99996 18.3327C5.39996 18.3327 1.66663 14.5993 1.66663 9.99935C1.66663 5.39935 5.39996 1.66602 9.99996 1.66602C11.3901 1.66602 12.7012 2.007 13.854 2.60983ZM15.3033 3.51754L16.4818 4.69605L9.99996 11.1778L8.82146 9.99935L15.3033 3.51754Z"
    fill="#3A495C"/>
</svg>