<svg width="24" height="24" viewBox="0 0 24 24" fill="none" xmlns="http://www.w3.org/2000/svg">
  <path d="M10.2 3C10.6968 3 11.1 3.4032 11.1 3.9V7.5C11.1 7.9968 10.6968 8.4 10.2 8.4H8.39999V10.2H12.9V9.3C12.9 8.8032 13.3032 8.4 13.8 8.4H19.2C19.6968 8.4 20.1 8.8032 20.1 9.3V12.9C20.1 13.3968 19.6968 13.8 19.2 13.8H13.8C13.3032 13.8 12.9 13.3968 12.9 12.9V12H8.39999V17.4H12.9V16.5C12.9 16.0032 13.3032 15.6 13.8 15.6H19.2C19.6968 15.6 20.1 16.0032 20.1 16.5V20.1C20.1 20.5968 19.6968 21 19.2 21H13.8C13.3032 21 12.9 20.5968 12.9 20.1V19.2H7.49999C7.00319 19.2 6.59999 18.7968 6.59999 18.3V8.4H4.79999C4.30319 8.4 3.89999 7.9968 3.89999 7.5V3.9C3.89999 3.4032 4.30319 3 4.79999 3H10.2ZM18.3 17.4H14.7V19.2H18.3V17.4ZM18.3 10.2H14.7V12H18.3V10.2ZM9.29999 4.8H5.69999V6.6H9.29999V4.8Z"
    fill="#A0A0A0"/>
</svg>