<svg width="24" height="24" viewBox="0 0 24 24" fill="none" xmlns="http://www.w3.org/2000/svg">
  <path d="M20.1 19.1997C20.1 19.4384 20.0052 19.6673 19.8364 19.8361C19.6676 20.0048 19.4387 20.0997 19.2 20.0997H4.79999C4.5613 20.0997 4.33238 20.0048 4.1636 19.8361C3.99482 19.6673 3.89999 19.4384 3.89999 19.1997V9.74066C3.8999 9.60351 3.93115 9.46815 3.99136 9.34493C4.05157 9.2217 4.13914 9.11387 4.24739 9.02966L11.4474 3.42986C11.6054 3.30696 11.7998 3.24023 12 3.24023C12.2002 3.24023 12.3946 3.30696 12.5526 3.42986L19.7526 9.02966C19.8608 9.11387 19.9484 9.2217 20.0086 9.34493C20.0688 9.46815 20.1001 9.60351 20.1 9.74066V19.1997ZM18.3 18.2997V10.1799L12 5.28026L5.69999 10.1799V18.2997H18.3Z"
    fill="#A0A0A0"/>
</svg>