<svg width="24" height="24" viewBox="0 0 24 24" fill="none" xmlns="http://www.w3.org/2000/svg">
  <path d="M20.1 19.2H21.9V21H2.10001V19.2H3.90001V3.9C3.90001 3.66131 3.99483 3.43239 4.16361 3.2636C4.33239 3.09482 4.56131 3 4.80001 3H19.2C19.4387 3 19.6676 3.09482 19.8364 3.2636C20.0052 3.43239 20.1 3.66131 20.1 3.9V19.2ZM18.3 19.2V4.8H5.70001V19.2H18.3ZM8.40001 11.1H11.1V12.9H8.40001V11.1ZM8.40001 7.5H11.1V9.3H8.40001V7.5ZM8.40001 14.7H11.1V16.5H8.40001V14.7ZM12.9 14.7H15.6V16.5H12.9V14.7ZM12.9 11.1H15.6V12.9H12.9V11.1ZM12.9 7.5H15.6V9.3H12.9V7.5Z"
    fill="#A0A0A0"/>
</svg>