<svg width="20" height="20" viewBox="0 0 20 20" fill="none" xmlns="http://www.w3.org/2000/svg">
  <path d="M10.0041 18.3346C5.40174 18.3346 1.67078 14.6037 1.67078 10.0013C1.67078 5.39893 5.40174 1.66797 10.0041 1.66797C14.6065 1.66797 18.3375 5.39893 18.3375 10.0013C18.3375 14.6037 14.6065 18.3346 10.0041 18.3346ZM10.0041 16.6679C13.686 16.6679 16.6708 13.6832 16.6708 10.0013C16.6708 6.3194 13.686 3.33464 10.0041 3.33464C6.32221 3.33464 3.33744 6.3194 3.33744 10.0013C3.33744 13.6832 6.32221 16.6679 10.0041 16.6679ZM7.08744 11.6679H11.6708C11.9009 11.6679 12.0875 11.4814 12.0875 11.2513C12.0875 11.0212 11.9009 10.8346 11.6708 10.8346H8.33746C7.18685 10.8346 6.25411 9.90193 6.25411 8.75126C6.25411 7.6007 7.18685 6.66797 8.33746 6.66797H9.17079V5.0013H10.8375V6.66797H12.9208V8.33459H8.33746C8.10733 8.33459 7.92078 8.52118 7.92078 8.75126C7.92078 8.98143 8.10733 9.16793 8.33746 9.16793H11.6708C12.8214 9.16793 13.7541 10.1007 13.7541 11.2513C13.7541 12.4019 12.8214 13.3346 11.6708 13.3346H10.8375V15.0013H9.17079V13.3346H7.08744V11.6679Z"
    fill="#3A495C"/>
</svg>