<svg width="24" height="24" viewBox="0 0 24 24" fill="none" xmlns="http://www.w3.org/2000/svg">
  <path d="M19.2 21H4.79999C4.5613 21 4.33238 20.9052 4.1636 20.7364C3.99482 20.5676 3.89999 20.3387 3.89999 20.1V3.9C3.89999 3.66131 3.99482 3.43239 4.1636 3.2636C4.33238 3.09482 4.5613 3 4.79999 3H19.2C19.4387 3 19.6676 3.09482 19.8364 3.2636C20.0052 3.43239 20.1 3.66131 20.1 3.9V20.1C20.1 20.3387 20.0052 20.5676 19.8364 20.7364C19.6676 20.9052 19.4387 21 19.2 21ZM18.3 19.2V4.8H5.69999V19.2H18.3ZM8.39999 7.5H15.6V9.3H8.39999V7.5ZM8.39999 11.1H15.6V12.9H8.39999V11.1ZM8.39999 14.7H12.9V16.5H8.39999V14.7Z"
    fill="#A0A0A0"/>
</svg>