<svg width="24" height="24" viewBox="0 0 24 24" fill="none" xmlns="http://www.w3.org/2000/svg">
  <path fill-rule="evenodd"
    clip-rule="evenodd"
    d="M12.7 7.69981H9.19997V6.79981C9.19997 6.30301 8.79677 5.89981 8.29997 5.89981H2.89997C2.40317 5.89981 1.99997 6.30301 1.99997 6.79981V10.3998C1.99997 10.8966 2.40317 11.2998 2.89997 11.2998H8.29997C8.79677 11.2998 9.19997 10.8966 9.19997 10.3998V9.49981H12.7V14.8998H9.19997V13.9998C9.19997 13.503 8.79677 13.0998 8.29997 13.0998H2.89997C2.40317 13.0998 1.99997 13.503 1.99997 13.9998V17.5998C1.99997 18.0966 2.40317 18.4998 2.89997 18.4998H8.29997C8.79677 18.4998 9.19997 18.0966 9.19997 17.5998V16.6998H13.6C14.0968 16.6998 14.5 16.2966 14.5 15.7998V9.5H16.6V11.3C16.6 11.7968 17.0032 12.2 17.5 12.2H21.1C21.5968 12.2 22 11.7968 22 11.3V5.9C22 5.4032 21.5968 5 21.1 5H17.5C17.0032 5 16.6 5.4032 16.6 5.9V7.7L14.5 7.69981H12.7ZM7.39997 14.8998H3.79997V16.6998H7.39997V14.8998ZM7.39997 7.69981H3.79997V9.49981H7.39997V7.69981ZM20.2 10.4V6.8H18.4V10.4H20.2Z"
    fill="#A0A0A0"/>
</svg>