<svg width="24" height="24" viewBox="0 0 24 24" fill="none" xmlns="http://www.w3.org/2000/svg">
  <path d="M5.70001 7C5.9387 7 6.16762 7.09482 6.3364 7.2636C6.50518 7.43239 6.60001 7.66131 6.60001 7.9C8.01403 7.89792 9.38729 8.37364 10.497 9.25H12.45C13.6488 9.25 14.727 9.7711 15.4677 10.5991L18.3 10.6C19.1507 10.5998 19.9841 10.8407 20.7035 11.2948C21.4229 11.749 21.9988 12.3978 22.3644 13.1659C20.2359 15.9748 16.7898 17.8 12.9 17.8C10.389 17.8 8.26501 17.2573 6.54601 16.3078C6.48305 16.4816 6.36802 16.6317 6.21662 16.7376C6.06522 16.8436 5.88481 16.9003 5.70001 16.9H3.00001C2.76131 16.9 2.53239 16.8052 2.36361 16.6364C2.19483 16.4676 2.10001 16.2387 2.10001 16V7.9C2.10001 7.66131 2.19483 7.43239 2.36361 7.2636C2.53239 7.09482 2.76131 7 3.00001 7H5.70001ZM6.60091 9.7L6.60001 14.2189L6.64051 14.2486C8.25601 15.3826 10.3602 16 12.9 16C15.6036 16 18.1191 14.9596 19.9515 13.183L20.0712 13.0633L19.9632 12.9733C19.5382 12.6405 19.0231 12.4429 18.4845 12.4063L18.3 12.4L16.3992 12.3991C16.4649 12.6889 16.5 12.9904 16.5 13.3V14.2H8.40001V12.4L14.511 12.3991L14.4804 12.3289C14.3079 11.9685 14.0426 11.6605 13.7117 11.4365C13.3808 11.2126 12.9963 11.0807 12.5976 11.0545L12.45 11.05H9.81301C9.39479 10.6223 8.89525 10.2825 8.34378 10.0506C7.7923 9.81878 7.19913 9.69957 6.60091 9.7ZM4.80001 8.8H3.90001V15.1H4.80001V8.8Z"
    fill="#A0A0A0"/>
</svg>