<svg width="24" height="24" viewBox="0 0 24 24" fill="none" xmlns="http://www.w3.org/2000/svg">
  <path d="M2 21.0353C2 19.1065 2.76623 17.2566 4.13013 15.8927C5.49403 14.5288 7.34388 13.7626 9.27272 13.7626C11.2016 13.7626 13.0514 14.5288 14.4153 15.8927C15.7792 17.2566 16.5454 19.1065 16.5454 21.0353H14.7273C14.7273 19.5887 14.1526 18.2013 13.1297 17.1784C12.1067 16.1554 10.7194 15.5808 9.27272 15.5808C7.82609 15.5808 6.4387 16.1554 5.41578 17.1784C4.39285 18.2013 3.81818 19.5887 3.81818 21.0353H2ZM9.27272 12.8535C6.25909 12.8535 3.81818 10.4126 3.81818 7.39895C3.81818 4.38532 6.25909 1.94441 9.27272 1.94441C12.2864 1.94441 14.7273 4.38532 14.7273 7.39895C14.7273 10.4126 12.2864 12.8535 9.27272 12.8535ZM9.27272 11.0353C11.2818 11.0353 12.9091 9.40804 12.9091 7.39895C12.9091 5.38986 11.2818 3.76259 9.27272 3.76259C7.26363 3.76259 5.63636 5.38986 5.63636 7.39895C5.63636 9.40804 7.26363 11.0353 9.27272 11.0353ZM20.68 1.74805C21.5511 3.50425 22.0029 5.43858 22 7.39895C22 9.42895 21.5245 11.348 20.68 13.0499L19.1845 11.9626C19.8438 10.5316 20.1841 8.97447 20.1818 7.39895C20.1818 5.76986 19.8245 4.2235 19.1845 2.83532L20.68 1.74805ZM17.6782 3.92986C18.1322 5.03001 18.3651 6.2088 18.3636 7.39895C18.3651 8.5891 18.1322 9.7679 17.6782 10.868L16.1536 9.75895C16.4138 8.99935 16.5462 8.20187 16.5454 7.39895C16.5465 6.59609 16.4144 5.79861 16.1545 5.03895L17.6782 3.92986Z"
    fill="#A0A0A0"/>
</svg>