<svg width="20" height="20" viewBox="0 0 20 20" fill="none" xmlns="http://www.w3.org/2000/svg">
<g clip-path="url(#clip0_1_14)">
<path d="M16.667 14.167H18.3337V15.8337H1.66699V14.167H3.33366V8.33366C3.33366 4.65176 6.31843 1.66699 10.0003 1.66699C13.6822 1.66699 16.667 4.65176 16.667 8.33366V14.167ZM15.0003 14.167V8.33366C15.0003 5.57223 12.7617 3.33366 10.0003 3.33366C7.2389 3.33366 5.00033 5.57223 5.00033 8.33366V14.167H15.0003ZM7.50033 17.5003H12.5003V19.167H7.50033V17.5003Z" fill="white"/>
<path d="M18 5C19.6569 5 21 3.65685 21 2C21 0.343146 19.6569 -1 18 -1C16.3431 -1 15 0.343146 15 2C15 3.65685 16.3431 5 18 5Z" fill="white" stroke="#666B77" stroke-width="2"/>
</g>
<defs>
<clipPath id="clip0_1_14">
<rect width="20" height="20" fill="white"/>
</clipPath>
</defs>
</svg>
