<svg width="20" height="20" viewBox="0 0 20 20" fill="none" xmlns="http://www.w3.org/2000/svg">
<g clip-path="url(#clip0_1_9)">
<path d="M16.667 14.167H18.3337V15.8337H1.66699V14.167H3.33366V8.33366C3.33366 4.65176 6.31843 1.66699 10.0003 1.66699C13.6822 1.66699 16.667 4.65176 16.667 8.33366V14.167ZM15.0003 14.167V8.33366C15.0003 5.57223 12.7617 3.33366 10.0003 3.33366C7.2389 3.33366 5.00033 5.57223 5.00033 8.33366V14.167H15.0003ZM7.50033 17.5003H12.5003V19.167H7.50033V17.5003Z" fill="#525866"/>
<g filter="url(#filter0_d_1_9)">
<path d="M20 2C20 3.10457 19.1046 4 18 4C16.8954 4 16 3.10457 16 2C16 0.89543 16.8954 0 18 0C19.1046 0 20 0.89543 20 2Z" fill="#DF1C41"/>
<path d="M18 5C19.6569 5 21 3.65685 21 2C21 0.343146 19.6569 -1 18 -1C16.3431 -1 15 0.343146 15 2C15 3.65685 16.3431 5 18 5Z" stroke="white" stroke-width="2"/>
</g>
</g>
<defs>
<filter id="filter0_d_1_9" x="12" y="-3" width="12" height="12" filterUnits="userSpaceOnUse" color-interpolation-filters="sRGB">
<feFlood flood-opacity="0" result="BackgroundImageFix"/>
<feColorMatrix in="SourceAlpha" type="matrix" values="0 0 0 0 0 0 0 0 0 0 0 0 0 0 0 0 0 0 127 0" result="hardAlpha"/>
<feOffset dy="1"/>
<feGaussianBlur stdDeviation="1"/>
<feComposite in2="hardAlpha" operator="out"/>
<feColorMatrix type="matrix" values="0 0 0 0 0.894118 0 0 0 0 0.898039 0 0 0 0 0.905882 0 0 0 0.24 0"/>
<feBlend mode="normal" in2="BackgroundImageFix" result="effect1_dropShadow_1_9"/>
<feBlend mode="normal" in="SourceGraphic" in2="effect1_dropShadow_1_9" result="shape"/>
</filter>
<clipPath id="clip0_1_9">
<rect width="20" height="20" fill="white"/>
</clipPath>
</defs>
</svg>
