<svg width="21" height="20" viewBox="0 0 21 20" fill="none" xmlns="http://www.w3.org/2000/svg">
<path d="M10.7493 1.66675C15.3517 1.66675 19.0827 5.39771 19.0827 10.0001C19.0827 14.6024 15.3517 18.3334 10.7493 18.3334C6.14697 18.3334 2.41602 14.6024 2.41602 10.0001C2.41602 5.39771 6.14697 1.66675 10.7493 1.66675ZM10.7493 3.33341C7.06745 3.33341 4.08268 6.31818 4.08268 10.0001C4.08268 13.682 7.06745 16.6667 10.7493 16.6667C14.4313 16.6667 17.416 13.682 17.416 10.0001C17.416 6.31818 14.4313 3.33341 10.7493 3.33341ZM13.9434 6.11465C14.1408 5.97615 14.409 5.99946 14.5795 6.16992C14.7495 6.33995 14.7716 6.60804 14.6316 6.80356C12.8152 9.34133 11.8157 10.7015 11.6333 10.884C11.1451 11.3721 10.3536 11.3721 9.86543 10.884C9.37735 10.3958 9.37735 9.60433 9.86543 9.11616C10.1765 8.80516 11.5358 7.80466 13.9434 6.11465ZM15.3327 9.16675C15.7929 9.16675 16.166 9.53983 16.166 10.0001C16.166 10.4603 15.7929 10.8334 15.3327 10.8334C14.8724 10.8334 14.4993 10.4603 14.4993 10.0001C14.4993 9.53983 14.8724 9.16675 15.3327 9.16675ZM6.16601 9.16675C6.62625 9.16675 6.99935 9.53983 6.99935 10.0001C6.99935 10.4603 6.62625 10.8334 6.16601 10.8334C5.70578 10.8334 5.33268 10.4603 5.33268 10.0001C5.33268 9.53983 5.70578 9.16675 6.16601 9.16675ZM8.0977 6.16992C8.42313 6.49536 8.42313 7.023 8.0977 7.34843C7.77226 7.67386 7.24462 7.67386 6.91919 7.34843C6.59375 7.023 6.59375 6.49536 6.91919 6.16992C7.24462 5.84448 7.77226 5.84448 8.0977 6.16992ZM10.7493 4.58341C11.2096 4.58341 11.5827 4.95651 11.5827 5.41675C11.5827 5.87698 11.2096 6.25008 10.7493 6.25008C10.2891 6.25008 9.91601 5.87698 9.91601 5.41675C9.91601 4.95651 10.2891 4.58341 10.7493 4.58341Z" fill="#525866"/>
</svg>
