<svg width="12" height="13" viewBox="0 0 12 13" fill="none" xmlns="http://www.w3.org/2000/svg">
  <path d="M5.70001 9.12186L9.39801 5.42386C8.77584 5.1641 8.21079 4.78457 7.73501 4.30686C7.25708 3.83097 6.87737 3.26575 6.61751 2.64336L2.91951 6.34136C2.63101 6.62986 2.48651 6.77436 2.36251 6.93336C2.21606 7.121 2.09049 7.32403 1.98801 7.53886C1.90151 7.72086 1.83701 7.91486 1.70801 8.30186L1.02701 10.3434C0.995666 10.4368 0.991016 10.5372 1.01358 10.6332C1.03615 10.7291 1.08503 10.8169 1.15475 10.8866C1.22446 10.9563 1.31223 11.0052 1.4082 11.0278C1.50417 11.0504 1.60454 11.0457 1.69801 11.0144L3.73951 10.3334C4.12701 10.2044 4.32051 10.1399 4.50251 10.0534C4.71751 9.95086 4.92051 9.82536 5.10801 9.67886C5.26701 9.55486 5.41151 9.41036 5.70001 9.12186ZM10.424 4.39786C10.7927 4.02915 10.9999 3.52906 10.9999 3.00761C10.9999 2.48617 10.7927 1.98608 10.424 1.61736C10.0553 1.24865 9.5552 1.0415 9.03376 1.0415C8.51231 1.0415 8.01223 1.24865 7.64351 1.61736L7.20001 2.06086L7.21901 2.11636C7.43756 2.74172 7.79522 3.30932 8.26501 3.77636C8.74602 4.26021 9.33349 4.62492 9.98051 4.84136L10.424 4.39786Z"
    fill="black"/>
</svg>