<svg width="28" height="27" viewBox="0 0 28 27" fill="none" xmlns="http://www.w3.org/2000/svg">
<path d="M21.875 12.375H6.125C4.88236 12.375 3.875 13.3824 3.875 14.625V22.5C3.875 23.7426 4.88236 24.75 6.125 24.75H21.875C23.1176 24.75 24.125 23.7426 24.125 22.5V14.625C24.125 13.3824 23.1176 12.375 21.875 12.375Z" stroke="#5172E7" stroke-width="1.575" stroke-linecap="round" stroke-linejoin="round"/>
<path d="M8.375 12.375V7.875C8.375 6.38316 8.96763 4.95242 10.0225 3.89752C11.0774 2.84263 12.5082 2.25 14 2.25C15.4918 2.25 16.9226 2.84263 17.9775 3.89752C19.0324 4.95242 19.625 6.38316 19.625 7.875V12.375" stroke="#5172E7" stroke-width="1.575" stroke-linecap="round" stroke-linejoin="round"/>
</svg>
