<svg width="24" height="24" viewBox="0 0 24 24" fill="none" xmlns="http://www.w3.org/2000/svg">
<path d="M17.4 4.8H16.68C16.56 4.32 16.44 3.96 16.2 3.6L16.68 3.12C16.92 2.88 16.92 2.52 16.68 2.28L15.84 1.44C15.6 1.2 15.24 1.2 15 1.44L14.4 1.92C14.04 1.68 13.56 1.56 13.2 1.44V0.6C13.2 0.24 12.96 0 12.6 0H11.4C11.04 0 10.8 0.24 10.8 0.6V1.32C10.32 1.44 9.96 1.56 9.6 1.8L9 1.32C8.76 1.08 8.4 1.08 8.16 1.32L7.32 2.16C7.08 2.4 7.08 2.76 7.32 3L7.92 3.6C7.68 3.96 7.44 4.32 7.32 4.8H6.6C6.24 4.8 6 5.04 6 5.4V6.6C6 6.96 6.24 7.2 6.6 7.2H7.32C7.44 7.68 7.56 8.04 7.8 8.4L7.32 9C7.08 9.24 7.08 9.6 7.32 9.84L8.16 10.68C8.4 10.92 8.76 10.92 9 10.68L9.48 10.2C9.84 10.44 10.32 10.56 10.68 10.68V11.4C10.68 11.76 10.92 12 11.28 12H12.48C12.84 12 13.08 11.76 13.08 11.4V10.68H13.2C13.68 10.56 14.04 10.44 14.4 10.2L14.88 10.68C15.12 10.92 15.48 10.92 15.72 10.68L16.56 9.84C16.8 9.6 16.8 9.24 16.56 9L16.08 8.4C16.32 8.04 16.44 7.56 16.56 7.2H17.28C17.76 7.2 18 6.96 18 6.6V5.4C18 5.04 17.76 4.8 17.4 4.8ZM12 9C10.32 9 9 7.68 9 6C9 4.32 10.32 3 12 3C13.68 3 15 4.32 15 6C15 7.68 13.68 9 12 9ZM10.44 15.96L5.64 11.16C5.16 10.68 4.44 10.68 3.96 11.16C3.72 11.4 3.6 11.64 3.6 12C3.6 12.36 3.72 12.6 3.96 12.84L6.12 15L5.4 15.72L2.4 12.72V7.2C2.4 6.48 1.92 6 1.2 6C0.48 6 0 6.48 0 7.2V13.2C0 13.56 0.12 13.8 0.36 14.04L4.8 18.48V20.4H3.6V24H10.8V16.8C10.8 16.44 10.68 16.2 10.44 15.96ZM22.8 6C22.08 6 21.6 6.48 21.6 7.2V12.72L18.6 15.72L17.88 15L20.04 12.84C20.28 12.6 20.4 12.24 20.4 12C20.4 11.64 20.28 11.4 20.04 11.16C19.56 10.68 18.84 10.68 18.36 11.16L13.56 15.96C13.32 16.2 13.2 16.44 13.2 16.8V24H20.4V20.4H19.2V18.48L23.64 14.04C23.88 13.8 24 13.56 24 13.2V7.2C24 6.48 23.52 6 22.8 6Z" fill="white"/>
</svg>
