<svg width="20" height="20" viewBox="0 0 20 20" fill="none" xmlns="http://www.w3.org/2000/svg">
  <path d="M6.25 3.75H13.75V5H6.25V3.75ZM6.25 6.25H13.75V7.5H6.25V6.25ZM6.25 15H10V16.25H6.25V15ZM6.25 8.75H10V10H6.25V8.75Z"
    fill="#8F95B2"/>
  <path d="M15 18.75H5C4.66858 18.7497 4.35083 18.6179 4.11648 18.3835C3.88213 18.1492 3.75033 17.8314 3.75 17.5V2.5C3.75033 2.16858 3.88213 1.85083 4.11648 1.61648C4.35083 1.38213 4.66858 1.25033 5 1.25H15C15.3314 1.25033 15.6492 1.38213 15.8835 1.61648C16.1179 1.85083 16.2497 2.16858 16.25 2.5V17.5C16.2497 17.8314 16.1179 18.1492 15.8835 18.3835C15.6492 18.6179 15.3314 18.7497 15 18.75ZM5 2.5V17.5H15V2.5H5Z"
    fill="#8F95B2"/>
</svg>