<svg width="24" height="24" viewBox="0 0 24 24" fill="none" xmlns="http://www.w3.org/2000/svg">
<path d="M3.9 3.90039H20.1C20.3387 3.90039 20.5676 3.99521 20.7364 4.16399C20.9052 4.33278 21 4.5617 21 4.80039V19.2004C21 19.4391 20.9052 19.668 20.7364 19.8368C20.5676 20.0056 20.3387 20.1004 20.1 20.1004H3.9C3.66131 20.1004 3.43239 20.0056 3.2636 19.8368C3.09482 19.668 3 19.4391 3 19.2004V4.80039C3 4.5617 3.09482 4.33278 3.2636 4.16399C3.43239 3.99521 3.66131 3.90039 3.9 3.90039ZM4.8 5.70039V18.3004H19.2V5.70039H4.8ZM7.5 12.9004H9.3V16.5004H7.5V12.9004ZM11.1 7.50039H12.9V16.5004H11.1V7.50039ZM14.7 10.2004H16.5V16.5004H14.7V10.2004Z" fill="#A0A0A0"/>
</svg>
