<svg width="20" height="20" viewBox="0 0 20 20" fill="none" xmlns="http://www.w3.org/2000/svg">
  <path d="M4.54575 12.4993L0.833252 15.416V2.49935C0.833252 2.27834 0.921049 2.06637 1.07733 1.91009C1.23361 1.75381 1.44557 1.66602 1.66659 1.66602H14.1666C14.3876 1.66602 14.5996 1.75381 14.7558 1.91009C14.9121 2.06637 14.9999 2.27834 14.9999 2.49935V12.4993H4.54575ZM3.96909 10.8327H13.3333V3.33268H2.49992V11.9868L3.96909 10.8327ZM6.66658 14.166H15.1974L16.6666 15.3202V6.66602H17.4999C17.7209 6.66602 17.9329 6.75381 18.0892 6.91009C18.2455 7.06637 18.3333 7.27834 18.3333 7.49935V18.7493L14.6208 15.8327H7.49992C7.2789 15.8327 7.06694 15.7449 6.91066 15.5886C6.75438 15.4323 6.66658 15.2204 6.66658 14.9993V14.166Z"
    fill="#525866"/>
</svg>