<svg width="24" height="25" viewBox="0 0 24 25" fill="none" xmlns="http://www.w3.org/2000/svg">
  <g clip-path="url(#clip0_71_2661)">
    <path d="M11.9961 7.45731C13.4162 7.45731 14.5675 6.30604 14.5675 4.88588C14.5675 3.46572 13.4162 2.31445 11.9961 2.31445C10.5759 2.31445 9.42462 3.46572 9.42462 4.88588C9.42462 6.30604 10.5759 7.45731 11.9961 7.45731Z"
      stroke="#8F95B2"
      stroke-width="1.71429"
      stroke-linecap="round"
      stroke-linejoin="round"/>
    <path d="M3.42464 22.885C4.8448 22.885 5.99607 21.7338 5.99607 20.3136C5.99607 18.8935 4.8448 17.7422 3.42464 17.7422C2.00448 17.7422 0.85321 18.8935 0.85321 20.3136C0.85321 21.7338 2.00448 22.885 3.42464 22.885Z"
      stroke="#8F95B2"
      stroke-width="1.71429"
      stroke-linecap="round"
      stroke-linejoin="round"/>
    <path d="M11.9961 22.885C13.4162 22.885 14.5675 21.7338 14.5675 20.3136C14.5675 18.8935 13.4162 17.7422 11.9961 17.7422C10.5759 17.7422 9.42462 18.8935 9.42462 20.3136C9.42462 21.7338 10.5759 22.885 11.9961 22.885Z"
      stroke="#8F95B2"
      stroke-width="1.71429"
      stroke-linecap="round"
      stroke-linejoin="round"/>
    <path d="M20.5675 22.885C21.9877 22.885 23.139 21.7338 23.139 20.3136C23.139 18.8935 21.9877 17.7422 20.5675 17.7422C19.1474 17.7422 17.9961 18.8935 17.9961 20.3136C17.9961 21.7338 19.1474 22.885 20.5675 22.885Z"
      stroke="#8F95B2"
      stroke-width="1.71429"
      stroke-linecap="round"
      stroke-linejoin="round"/>
    <path d="M3.42462 17.7427V14.3142C3.42462 13.8595 3.60523 13.4235 3.92672 13.102C4.24822 12.7805 4.68425 12.5999 5.13891 12.5999H18.8532C19.3078 12.5999 19.7439 12.7805 20.0654 13.102C20.3869 13.4235 20.5675 13.8595 20.5675 14.3142V17.7427M11.996 7.45703V17.7427"
      stroke="#8F95B2"
      stroke-width="1.71429"
      stroke-linecap="round"
      stroke-linejoin="round"/>
  </g>
  <defs>
    <clipPath id="clip0_71_2661">
      <rect width="24" height="24" fill="white" transform="translate(-0.00390625 0.599609)"/>
    </clipPath>
  </defs>
</svg>