<svg width="12" height="12" viewBox="0 0 12 12" fill="none" xmlns="http://www.w3.org/2000/svg">
<path d="M5.67577 0.241722C8.74701 0.241722 11.2519 2.74664 11.2519 5.81788C11.2519 8.91091 8.74701 11.394 5.67577 11.394C2.58274 11.394 0.0996094 8.91091 0.0996094 5.81788C0.0996094 2.74664 2.58274 0.241722 5.67577 0.241722ZM5.67577 10.3485C8.1589 10.3485 10.2064 8.3228 10.2064 5.81788C10.2064 3.33475 8.1589 1.28725 5.67577 1.28725C3.17085 1.28725 1.14514 3.33475 1.14514 5.81788C1.14514 8.3228 3.17085 10.3485 5.67577 10.3485ZM6.54704 7.56043C6.83021 7.56043 7.06981 7.80003 7.06981 8.0832C7.06981 8.38814 6.83021 8.60596 6.54704 8.60596H4.80449C4.49955 8.60596 4.28173 8.38814 4.28173 8.0832C4.28173 7.80003 4.49955 7.56043 4.80449 7.56043H5.153V6.16639H4.97875C4.6738 6.16639 4.45598 5.94857 4.45598 5.64363C4.45598 5.36046 4.6738 5.12086 4.97875 5.12086H5.67577C5.95893 5.12086 6.19853 5.36046 6.19853 5.64363V7.56043H6.54704ZM5.67577 4.42384C5.28369 4.42384 4.97875 4.11889 4.97875 3.72682C4.97875 3.35653 5.28369 3.0298 5.67577 3.0298C6.04606 3.0298 6.37279 3.35653 6.37279 3.72682C6.37279 4.11889 6.04606 4.42384 5.67577 4.42384Z" fill="#B2B2B2"/>
</svg>
