<svg width="16" height="16" viewBox="0 0 16 16" fill="none" xmlns="http://www.w3.org/2000/svg">
  <path d="M5 8L7.25 10.25L11 6.5"
    stroke="#6D9980"
    stroke-width="1.5"
    stroke-linecap="round"
    stroke-linejoin="round"/>
  <path d="M1.25 8C1.25 7.11358 1.42459 6.23583 1.76381 5.41689C2.10303 4.59794 2.60023 3.85382 3.22703 3.22703C3.85382 2.60023 4.59794 2.10303 5.41689 1.76381C6.23583 1.42459 7.11358 1.25 8 1.25C8.88642 1.25 9.76417 1.42459 10.5831 1.76381C11.4021 2.10303 12.1462 2.60023 12.773 3.22703C13.3998 3.85382 13.897 4.59794 14.2362 5.41689C14.5754 6.23583 14.75 7.11358 14.75 8C14.75 9.79021 14.0388 11.5071 12.773 12.773C11.5071 14.0388 9.79021 14.75 8 14.75C6.20979 14.75 4.4929 14.0388 3.22703 12.773C1.96116 11.5071 1.25 9.79021 1.25 8V8Z"
    stroke="#6D9980"
    stroke-width="1.5"
    stroke-linecap="round"/>
</svg>