<svg width="11" height="11" viewBox="0 0 11 11" fill="none" xmlns="http://www.w3.org/2000/svg">
<path d="M0.435547 5.41341C0.435547 2.76301 2.57842 0.601331 5.24762 0.601331C7.89802 0.601331 10.0597 2.76301 10.0597 5.41341C10.0597 8.0826 7.89802 10.2255 5.24762 10.2255C2.57842 10.2255 0.435547 8.0826 0.435547 5.41341ZM7.4093 4.58633C7.61606 4.37956 7.61606 4.06001 7.4093 3.85324C7.20253 3.64647 6.88297 3.64647 6.67621 3.85324L4.64611 5.88333L3.80024 5.05626C3.59347 4.84949 3.27392 4.84949 3.06715 5.05626C2.86038 5.26303 2.86038 5.58258 3.06715 5.78935L4.27017 6.99237C4.47694 7.19914 4.79649 7.19914 5.00326 6.99237L7.4093 4.58633Z" fill="#EB6E46"/>
</svg>
