<svg width="20" height="20" viewBox="0 0 20 20" fill="none" xmlns="http://www.w3.org/2000/svg">
  <path fill-rule="evenodd"
    clip-rule="evenodd"
    d="M10.0013 0C12.6746 0 15.187 1.03936 17.074 2.92733C20.9746 6.82795 20.9746 13.1739 17.074 17.0745C15.1618 18.9876 12.5872 20 9.979 20C8.55721 20 7.12612 19.6995 5.78714 19.0797C5.39261 18.9216 5.0232 18.7727 4.75801 18.7727C4.45281 18.7745 4.04247 18.916 3.64608 19.0528C2.83283 19.3319 1.82045 19.6799 1.0714 18.9337C0.325149 18.1865 0.669431 17.1769 0.946717 16.3646C1.0835 15.9645 1.224 15.5513 1.224 15.2387C1.224 14.9819 1.10025 14.6543 0.910428 14.1826C-0.832384 10.4187 -0.0265774 5.88257 2.9296 2.92826C4.81663 1.04029 7.32803 0 10.0013 0ZM10.0023 1.39574C7.70116 1.39574 5.53963 2.29087 3.91592 3.91551C1.37195 6.45762 0.679666 10.361 2.19172 13.6298C2.40945 14.1686 2.61974 14.6934 2.61974 15.2387C2.61974 15.783 2.43271 16.3311 2.26802 16.8149C2.13216 17.2132 1.92653 17.8143 2.05866 17.9464C2.18799 18.0804 2.79281 17.8692 3.192 17.7324C3.6712 17.5686 4.21461 17.3807 4.75336 17.3769C5.29305 17.3769 5.80203 17.5816 6.34078 17.7985C9.64124 19.3245 13.5447 18.6303 16.0877 16.0882C19.443 12.731 19.443 7.26994 16.0877 3.91458C14.463 2.28994 12.3024 1.39574 10.0023 1.39574ZM13.6748 9.45631C14.1885 9.45631 14.6053 9.87224 14.6053 10.3868C14.6053 10.9014 14.1885 11.3173 13.6748 11.3173C13.1612 11.3173 12.7406 10.9014 12.7406 10.3868C12.7406 9.87224 13.1528 9.45631 13.6665 9.45631H13.6748ZM9.94467 9.45631C10.4583 9.45631 10.8752 9.87224 10.8752 10.3868C10.8752 10.9014 10.4583 11.3173 9.94467 11.3173C9.43104 11.3173 9.01046 10.9014 9.01046 10.3868C9.01046 9.87224 9.42173 9.45631 9.9363 9.45631H9.94467ZM6.21414 9.45631C6.72777 9.45631 7.14463 9.87224 7.14463 10.3868C7.14463 10.9014 6.72777 11.3173 6.21414 11.3173C5.70051 11.3173 5.27993 10.9014 5.27993 10.3868C5.27993 9.87224 5.69213 9.45631 6.20577 9.45631H6.21414Z"
    fill="#0f121b"/>
</svg>