<svg width="22" height="18" viewBox="0 0 22 18" fill="none" xmlns="http://www.w3.org/2000/svg">
<path d="M7.21365 13.3972C8.29579 12.6726 9.59954 12.25 11 12.25C12.4005 12.25 13.7042 12.6726 14.7864 13.3972C15.8749 14.126 16.25 15.3957 16.25 16.5C16.25 16.9142 15.9142 17.25 15.5 17.25H6.5C6.08579 17.25 5.75 16.9142 5.75 16.5C5.75 15.3957 6.12515 14.126 7.21365 13.3972Z" fill="white"/>
<path d="M7.75 8C7.75 6.20507 9.20507 4.75 11 4.75C12.7949 4.75 14.25 6.20507 14.25 8C14.25 9.79493 12.7949 11.25 11 11.25C9.20507 11.25 7.75 9.79493 7.75 8Z" fill="white"/>
<path d="M13.75 3.5C13.75 1.98122 14.9812 0.75 16.5 0.75C18.0188 0.75 19.25 1.98122 19.25 3.5C19.25 5.01878 18.0188 6.25 16.5 6.25C14.9812 6.25 13.75 5.01878 13.75 3.5Z" fill="white"/>
<path d="M2.75 3.5C2.75 1.98122 3.98122 0.75 5.5 0.75C7.01878 0.75 8.25 1.98122 8.25 3.5C8.25 5.01878 7.01878 6.25 5.5 6.25C3.98122 6.25 2.75 5.01878 2.75 3.5Z" fill="white"/>
<path d="M6.54682 7.34845C6.51597 7.56118 6.5 7.77872 6.5 8C6.5 9.41758 7.15548 10.6821 8.17989 11.5069C7.6532 11.7034 7.15246 11.9533 6.68468 12.25H1.5C1.08579 12.25 0.75 11.9142 0.75 11.5C0.75 10.4263 1.07 9.16256 2.05401 8.42134C3.02988 7.68626 4.21666 7.25 5.5 7.25C5.85725 7.25 6.20701 7.28381 6.54682 7.34845Z" fill="white"/>
<path d="M15.3153 12.25H20.5C20.9142 12.25 21.25 11.9142 21.25 11.5C21.25 10.4263 20.93 9.16256 19.9459 8.42134C18.9701 7.68626 17.7833 7.25 16.5 7.25C16.1427 7.25 15.793 7.28381 15.4531 7.34845C15.484 7.56118 15.5 7.77872 15.5 8C15.5 9.41758 14.8445 10.6821 13.8201 11.5069C14.3468 11.7034 14.8475 11.9533 15.3153 12.25Z" fill="white"/>
</svg>
