<svg width="25" height="25" viewBox="0 0 25 25" fill="none" xmlns="http://www.w3.org/2000/svg">
<path d="M8.97501 3.5853C10.6273 2.86177 11.4534 2.5 12.332 2.5C13.2107 2.5 14.0368 2.86177 15.689 3.5853L17.3939 4.33185C20.0193 5.48154 21.332 6.05639 21.332 7C21.332 7.94361 20.0193 8.51846 17.3939 9.66815L15.6891 10.4147C14.0368 11.1382 13.2107 11.5 12.332 11.5C11.4534 11.5 10.6273 11.1382 8.97501 10.4147L7.2702 9.66815C4.64475 8.51846 3.33203 7.94361 3.33203 7C3.33203 6.05639 4.64475 5.48154 7.27019 4.33185L8.97501 3.5853Z" stroke="#5172E7" stroke-width="1.4" stroke-linecap="round" stroke-linejoin="round"/>
<path d="M21.332 7V18C21.332 18.9436 20.0193 19.5185 17.3939 20.6682L15.689 21.4147C14.0368 22.1382 13.2107 22.5 12.332 22.5C11.4534 22.5 10.6273 22.1382 8.97501 21.4147L7.2702 20.6682C4.64475 19.5185 3.33203 18.9436 3.33203 18V7" stroke="#5172E7" stroke-width="1.4" stroke-linecap="round" stroke-linejoin="round"/>
<path d="M21.332 13L12.332 17.5L3.33203 13.5" stroke="#5172E7" stroke-width="1.4" stroke-linecap="round" stroke-linejoin="round"/>
<path d="M12.332 22.5V11.5" stroke="#5172E7" stroke-width="1.4" stroke-linecap="round" stroke-linejoin="round"/>
<path d="M16.832 20.5V9.5L7.33203 4.5" stroke="#5172E7" stroke-width="1.4" stroke-linecap="round" stroke-linejoin="round"/>
<path d="M7.83203 20.5V9.5L17.332 4.5" stroke="#5172E7" stroke-width="1.4" stroke-linecap="round" stroke-linejoin="round"/>
</svg>
