<svg width="16" height="16" viewBox="0 0 16 16" fill="none" xmlns="http://www.w3.org/2000/svg">
<path d="M6.00065 0.666992V2.00033H10.0006V0.666992H11.334V2.00033H14.0006C14.3688 2.00033 14.6673 2.29881 14.6673 2.66699V13.3337C14.6673 13.7019 14.3688 14.0003 14.0006 14.0003H2.00065C1.63246 14.0003 1.33398 13.7019 1.33398 13.3337V2.66699C1.33398 2.29881 1.63246 2.00033 2.00065 2.00033H4.66732V0.666992H6.00065ZM13.334 7.33366H2.66732V12.667H13.334V7.33366ZM4.66732 3.33366H2.66732V6.00032H13.334V3.33366H11.334V4.66699H10.0006V3.33366H6.00065V4.66699H4.66732V3.33366Z" fill="#667085"/>
</svg>
