<svg width="17" height="17" viewBox="0 0 17 17" fill="none" xmlns="http://www.w3.org/2000/svg">
  <path fill-rule="evenodd"
    clip-rule="evenodd"
    d="M11.4789 0C11.8235 0 12.1031 0.253608 12.1031 0.566089L12.1035 1.206C13.3186 1.28156 14.3278 1.65905 15.042 2.30821C15.8218 3.01846 16.232 4.03968 16.2279 5.2647V12.1506C16.2279 14.6655 14.467 16.228 11.6333 16.228H4.59457C1.76093 16.228 0 14.6437 0 12.0932V5.26319C0 2.89105 1.57041 1.36838 4.13161 1.20626L4.13212 0.566089C4.13212 0.253608 4.41174 0 4.75627 0C5.1008 0 5.38042 0.253608 5.38042 0.566089L5.38017 1.19181H10.8544L10.8548 0.566089C10.8548 0.253608 11.1344 0 11.4789 0ZM14.9796 6.72061H1.2483V12.0932C1.2483 14.03 2.43668 15.0958 4.59457 15.0958H11.6333C13.7912 15.0958 14.9796 14.0496 14.9796 12.1506L14.9796 6.72061ZM11.8182 11.4699C12.1628 11.4699 12.4424 11.7235 12.4424 12.036C12.4424 12.3485 12.1628 12.6021 11.8182 12.6021C11.4737 12.6021 11.1908 12.3485 11.1908 12.036C11.1908 11.7235 11.4662 11.4699 11.8107 11.4699H11.8182ZM8.12535 11.4699C8.46988 11.4699 8.74949 11.7235 8.74949 12.036C8.74949 12.3485 8.46988 12.6021 8.12535 12.6021C7.78081 12.6021 7.49787 12.3485 7.49787 12.036C7.49787 11.7235 7.77332 11.4699 8.11786 11.4699H8.12535ZM4.42472 11.4699C4.76925 11.4699 5.04887 11.7235 5.04887 12.036C5.04887 12.3485 4.76925 12.6021 4.42472 12.6021C4.08019 12.6021 3.79641 12.3485 3.79641 12.036C3.79641 11.7235 4.0727 11.4699 4.41723 11.4699H4.42472ZM11.8182 8.53632C12.1628 8.53632 12.4424 8.78992 12.4424 9.1024C12.4424 9.41489 12.1628 9.66849 11.8182 9.66849C11.4737 9.66849 11.1908 9.41489 11.1908 9.1024C11.1908 8.78992 11.4662 8.53632 11.8107 8.53632H11.8182ZM8.12535 8.53632C8.46988 8.53632 8.74949 8.78992 8.74949 9.1024C8.74949 9.41489 8.46988 9.66849 8.12535 9.66849C7.78081 9.66849 7.49787 9.41489 7.49787 9.1024C7.49787 8.78992 7.77332 8.53632 8.11786 8.53632H8.12535ZM4.42472 8.53632C4.76925 8.53632 5.04887 8.78992 5.04887 9.1024C5.04887 9.41489 4.76925 9.66849 4.42472 9.66849C4.08019 9.66849 3.79641 9.41489 3.79641 9.1024C3.79641 8.78992 4.0727 8.53632 4.41723 8.53632H4.42472ZM10.8544 2.32398H5.38017L5.38042 3.05009C5.38042 3.36257 5.1008 3.61617 4.75627 3.61617C4.41174 3.61617 4.13212 3.36257 4.13212 3.05009L4.13168 2.34112C2.26736 2.48316 1.2483 3.50813 1.2483 5.26319V5.58843H14.9796L14.9796 5.26319C14.9829 4.33103 14.7066 3.60644 14.1582 3.10828C13.6768 2.67036 12.973 2.40882 12.1038 2.34148L12.1031 3.05009C12.1031 3.36257 11.8235 3.61617 11.4789 3.61617C11.1344 3.61617 10.8548 3.36257 10.8548 3.05009L10.8544 2.32398Z"
    fill="#8F95B2"/>
</svg>