<svg width="20" height="20" viewBox="0 0 20 20" fill="none" xmlns="http://www.w3.org/2000/svg">
<path d="M3.02148 7.75C3.23575 7.74999 3.43332 7.75044 3.59863 7.76172C3.77616 7.77386 3.97159 7.80066 4.16992 7.88281C4.59868 8.06042 4.93957 8.40132 5.11719 8.83008C5.19934 9.02841 5.22614 9.22385 5.23828 9.40137C5.24956 9.56668 5.25001 9.76426 5.25 9.97852V17.0215C5.25001 17.2357 5.24956 17.4333 5.23828 17.5986C5.22615 17.7762 5.19934 17.9716 5.11719 18.1699C4.93958 18.5987 4.59868 18.9396 4.16992 19.1172C3.97159 19.1993 3.77616 19.2261 3.59863 19.2383C3.43331 19.2496 3.23576 19.25 3.02148 19.25H2.97852C2.76424 19.25 2.56669 19.2496 2.40137 19.2383C2.22385 19.2261 2.02841 19.1993 1.83008 19.1172C1.40132 18.9396 1.06042 18.5987 0.882813 18.1699C0.800658 17.9716 0.773855 17.7762 0.761719 17.5986C0.750438 17.4333 0.749987 17.2358 0.75 17.0215V9.97852C0.749987 9.76424 0.750438 9.56669 0.761719 9.40137C0.773856 9.22385 0.800661 9.02841 0.882813 8.83008C1.06043 8.40132 1.40132 8.06042 1.83008 7.88281C2.02841 7.80066 2.22385 7.77386 2.40137 7.76172C2.56668 7.75044 2.76426 7.74999 2.97852 7.75H3.02148ZM10 9.75098C10.2142 9.75097 10.4333 9.75044 10.5986 9.76172C10.7762 9.77385 10.9716 9.80163 11.1699 9.88379C11.5986 10.0614 11.9396 10.4023 12.1172 10.8311C12.1993 11.0294 12.2262 11.2248 12.2383 11.4023C12.2496 11.5676 12.25 11.7643 12.25 11.9785V17.0215C12.25 17.2357 12.2496 17.4333 12.2383 17.5986C12.2261 17.7762 12.1993 17.9716 12.1172 18.1699C11.9396 18.5987 11.5987 18.9396 11.1699 19.1172C10.9716 19.1993 10.7762 19.2261 10.5986 19.2383C10.4334 19.2496 10.1927 19.25 9.97852 19.25C9.76424 19.25 9.56669 19.2496 9.40137 19.2383C9.22385 19.2261 9.02841 19.1993 8.83008 19.1172C8.40132 18.9396 8.06042 18.5987 7.88281 18.1699C7.80066 17.9716 7.77386 17.7762 7.76172 17.5986C7.75044 17.4333 7.74999 17.2358 7.75 17.0215V11.9785C7.74999 11.7643 7.75044 11.5676 7.76172 11.4023C7.77383 11.2248 7.8007 11.0294 7.88281 10.8311C8.0604 10.4023 8.40138 10.0614 8.83008 9.88379C9.02843 9.80163 9.22384 9.77385 9.40137 9.76172C9.56668 9.75044 9.78575 9.75097 10 9.75098ZM17.0215 5.75C17.2357 5.74999 17.4324 5.75044 17.5977 5.76172C17.7752 5.77383 17.9706 5.80069 18.1689 5.88281C18.5977 6.0604 18.9386 6.40137 19.1162 6.83008C19.1984 7.02843 19.2261 7.22383 19.2383 7.40137C19.2496 7.56668 19.249 7.76426 19.249 7.97852V17.0215C19.249 17.2357 19.2496 17.4333 19.2383 17.5986C19.2261 17.7762 19.1984 17.9716 19.1162 18.1699C18.9386 18.5986 18.5977 18.9396 18.1689 19.1172C17.9706 19.1993 17.7752 19.2262 17.5977 19.2383C17.4324 19.2496 17.2357 19.25 17.0215 19.25H16.9775C16.7634 19.25 16.5666 19.2496 16.4014 19.2383C16.2238 19.2262 16.0284 19.1993 15.8301 19.1172C15.4014 18.9396 15.0605 18.5986 14.8828 18.1699C14.8007 17.9716 14.7729 17.7762 14.7607 17.5986C14.7495 17.4333 14.749 17.2358 14.749 17.0215V7.97852C14.749 7.76424 14.7495 7.56669 14.7607 7.40137C14.7729 7.22384 14.8007 7.02842 14.8828 6.83008C15.0605 6.40139 15.4014 6.06039 15.8301 5.88281C16.0284 5.80072 16.2238 5.77383 16.4014 5.76172C16.5666 5.75045 16.7634 5.74999 16.9775 5.75H17.0215ZM17 0.75C17.8284 0.75 18.5 1.42157 18.5 2.25C18.5 3.07843 17.8284 3.75 17 3.75C16.724 3.75 16.4663 3.67399 16.2441 3.54395L11.499 6.25488C11.4964 7.08106 10.8268 7.75 10 7.75C9.29731 7.75 8.70876 7.2665 8.5459 6.61426L4.04004 5.32812C3.77025 5.58844 3.40451 5.75 3 5.75C2.17157 5.75 1.5 5.07843 1.5 4.25C1.5 3.42157 2.17157 2.75 3 2.75C3.70261 2.75 4.29018 3.23362 4.45313 3.88574L8.95703 5.17285C9.22701 4.91139 9.59448 4.75 10 4.75C10.275 4.75 10.5323 4.82489 10.7539 4.9541L15.5 2.24121C15.5047 1.41683 16.1745 0.75 17 0.75Z" fill="white"/>
</svg>
