<svg width="24" height="24" viewBox="0 0 24 24" fill="none" xmlns="http://www.w3.org/2000/svg">
  <path d="M21.2857 4H2.71429C2.3192 4 2 4.3192 2 4.71429V19C2 19.3951 2.3192 19.7143 2.71429 19.7143H21.2857C21.6808 19.7143 22 19.3951 22 19V4.71429C22 4.3192 21.6808 4 21.2857 4ZM20.3929 6.47321V18.1071H3.60714V6.47321L2.99107 5.9933L3.8683 4.86607L4.82366 5.60938H19.1786L20.1339 4.86607L21.0112 5.9933L20.3929 6.47321ZM19.1786 5.60714L12 11.1875L4.82143 5.60714L3.86607 4.86384L2.98884 5.99107L3.60491 6.47098L11.2299 12.3996C11.4492 12.5699 11.719 12.6624 11.9967 12.6624C12.2743 12.6624 12.5441 12.5699 12.7634 12.3996L20.3929 6.47321L21.0089 5.9933L20.1317 4.86607L19.1786 5.60714Z"
    fill="#8E59FF"/>
</svg>