<svg width="24" height="24" viewBox="0 0 24 24" fill="none" xmlns="http://www.w3.org/2000/svg">
<path d="M11.9492 1.75C14.0204 1.74999 15.7465 1.75005 17.0244 1.90527C18.3303 2.06392 19.3755 2.39441 20.2344 3.12793C20.4633 3.32348 20.6765 3.53668 20.8721 3.76563C21.6056 4.62447 21.9361 5.66971 22.0947 6.97559C22.25 8.25346 22.25 9.97956 22.25 12.0508C22.25 14.1222 22.25 15.7464 22.0947 17.0244C21.9361 18.3303 21.6056 19.3755 20.8721 20.2344C20.6765 20.4633 20.4633 20.6765 20.2344 20.8721C19.3755 21.6056 18.3303 21.9361 17.0244 22.0947C15.7464 22.25 14.1222 22.25 12.0508 22.25C9.97956 22.25 8.25346 22.25 6.97559 22.0947C5.66971 21.9361 4.62447 21.6056 3.76563 20.8721C3.53668 20.6765 3.32348 20.4633 3.12793 20.2344C2.39441 19.3755 2.06392 18.3303 1.90527 17.0244C1.75004 15.7464 1.74999 14.1222 1.75 12.0508C1.74999 9.97956 1.75005 8.25346 1.90527 6.97559C2.06392 5.66971 2.39441 4.62447 3.12793 3.76563C3.32348 3.53669 3.53669 3.32348 3.76563 3.12793C4.62447 2.39441 5.66971 2.06392 6.97559 1.90527C8.25356 1.75004 9.87778 1.74999 11.9492 1.75ZM13.001 5.35547C12.4939 5.12861 11.8912 5.26788 11.5254 5.76074L7.52637 11.1504C7.20752 11.5801 7.18997 12.1087 7.3457 12.5176C7.50039 12.9234 7.89747 13.3594 8.51465 13.3594H10.2227V17.3896C10.2227 17.9393 10.5199 18.4301 10.999 18.6445C11.5059 18.8711 12.1079 18.7318 12.4736 18.2393L16.4727 12.8496C16.7915 12.4199 16.81 11.8913 16.6543 11.4824C16.4996 11.0766 16.1025 10.6407 15.4854 10.6406H13.7764V6.61035C13.7764 6.06065 13.4801 5.5699 13.001 5.35547Z" fill="white"/>
</svg>
