<svg width="20" height="20" viewBox="0 0 20 20" fill="none" xmlns="http://www.w3.org/2000/svg">
  <path d="M11.2867 3.19787C11.1438 2.91256 10.9243 2.67265 10.6528 2.50499C10.3812 2.33733 10.0684 2.24854 9.74933 2.24854C9.43022 2.24854 9.11741 2.33733 8.8459 2.50499C8.57438 2.67265 8.35488 2.91256 8.21195 3.19787L2.43205 14.7577C2.30045 15.0199 2.23811 15.3114 2.25098 15.6045C2.26386 15.8976 2.35151 16.1825 2.50559 16.4321C2.65968 16.6818 2.87508 16.8879 3.13131 17.0308C3.38753 17.1737 3.67606 17.2486 3.96943 17.2485H15.5292C15.8226 17.2486 16.1111 17.1737 16.3674 17.0308C16.6236 16.8879 16.839 16.6818 16.9931 16.4321C17.1472 16.1825 17.2348 15.8976 17.2477 15.6045C17.2605 15.3114 17.1982 15.0199 17.0666 14.7577L11.2867 3.19787ZM16.1078 15.8719C16.0512 15.9636 15.9725 16.0396 15.8789 16.0929C15.7853 16.1463 15.6798 16.1753 15.5721 16.1772H3.96943C3.85857 16.1784 3.74928 16.151 3.65216 16.0975C3.55504 16.044 3.4734 15.9664 3.41518 15.872C3.35695 15.7777 3.32412 15.6699 3.31987 15.5591C3.31561 15.4483 3.34009 15.3383 3.39091 15.2398L9.1708 3.67997C9.22488 3.57294 9.30758 3.48301 9.40972 3.42018C9.51185 3.35735 9.62942 3.32408 9.74933 3.32408C9.86924 3.32408 9.98681 3.35735 10.0889 3.42018C10.1911 3.48301 10.2738 3.57294 10.3279 3.67997L16.1078 15.2398C16.1577 15.3386 16.1814 15.4486 16.1767 15.5593C16.172 15.67 16.1391 15.7776 16.081 15.8719H16.1078Z"
    fill="#0049C6"/>
  <path d="M9.74936 7.0708C9.60729 7.0708 9.47104 7.12724 9.37058 7.2277C9.27012 7.32815 9.21368 7.4644 9.21368 7.60647V11.8918C9.21368 12.0339 9.27012 12.1702 9.37058 12.2706C9.47104 12.3711 9.60729 12.4275 9.74936 12.4275C9.89143 12.4275 10.0277 12.3711 10.1281 12.2706C10.2286 12.1702 10.285 12.0339 10.285 11.8918V7.60647C10.285 7.4644 10.2286 7.32815 10.1281 7.2277C10.0277 7.12724 9.89143 7.0708 9.74936 7.0708ZM9.74936 13.4989C9.64341 13.4989 9.53984 13.5303 9.45175 13.5891C9.36366 13.648 9.295 13.7317 9.25446 13.8295C9.21392 13.9274 9.20331 14.0351 9.22398 14.139C9.24465 14.2429 9.29566 14.3384 9.37058 14.4133C9.44549 14.4882 9.54094 14.5392 9.64485 14.5599C9.74876 14.5806 9.85647 14.57 9.95435 14.5294C10.0522 14.4889 10.1359 14.4202 10.1948 14.3321C10.2536 14.244 10.285 14.1405 10.285 14.0345C10.285 13.8925 10.2286 13.7562 10.1281 13.6558C10.0277 13.5553 9.89143 13.4989 9.74936 13.4989Z"
    fill="#0049C6"/>
</svg>