<svg width="19" height="18" viewBox="0 0 19 18" fill="none" xmlns="http://www.w3.org/2000/svg">
  <path d="M10.25 6L8.75 6L8.75 12.75L6.5 12.75L9.5 16.5L12.5 12.75L10.25 12.75L10.25 6Z"
    fill="#0f121b"/>
  <path d="M14.75 1.5L4.25 1.5C3.42275 1.5 2.75 2.17275 2.75 3L2.75 9.75C2.75 10.5772 3.42275 11.25 4.25 11.25L7.25 11.25L7.25 9.75L4.25 9.75L4.25 3L14.75 3L14.75 9.75L11.75 9.75L11.75 11.25L14.75 11.25C15.5773 11.25 16.25 10.5773 16.25 9.75L16.25 3C16.25 2.17275 15.5773 1.5 14.75 1.5Z"
    fill="#0f121b"/>
</svg>