<svg width="27" height="28" viewBox="0 0 27 28" fill="none" xmlns="http://www.w3.org/2000/svg">
<path d="M16.3503 10.7789L10.6578 16.4714C9.92656 15.7402 9.47656 14.7389 9.47656 13.6252C9.47656 11.3977 11.2766 9.59766 13.5041 9.59766C14.6178 9.59766 15.6191 10.0477 16.3503 10.7789Z" stroke="#5172E7" stroke-width="1.575" stroke-linecap="round" stroke-linejoin="round"/>
<path d="M20.0478 6.61678C18.0791 5.13178 15.8291 4.32178 13.5003 4.32178C9.52906 4.32178 5.82781 6.66178 3.25156 10.7118C2.23906 12.298 2.23906 14.9643 3.25156 16.5505C4.14031 17.9455 5.17531 19.1493 6.30031 20.1168" stroke="#5172E7" stroke-width="1.575" stroke-linecap="round" stroke-linejoin="round"/>
<path d="M9.47656 22.0959C10.7591 22.6359 12.1203 22.9284 13.5041 22.9284C17.4753 22.9284 21.1766 20.5884 23.7528 16.5384C24.7653 14.9521 24.7653 12.2859 23.7528 10.6996C23.3816 10.1146 22.9766 9.5634 22.5603 9.0459" stroke="#5172E7" stroke-width="1.575" stroke-linecap="round" stroke-linejoin="round"/>
<path d="M17.4498 14.4116C17.1573 15.9979 15.8636 17.2916 14.2773 17.5841" stroke="#5172E7" stroke-width="1.575" stroke-linecap="round" stroke-linejoin="round"/>
<path d="M10.6538 16.4707L2.25 24.8745" stroke="#5172E7" stroke-width="1.575" stroke-linecap="round" stroke-linejoin="round"/>
<path d="M24.7514 2.375L16.3477 10.7788" stroke="#5172E7" stroke-width="1.575" stroke-linecap="round" stroke-linejoin="round"/>
</svg>
