<svg width="22" height="22" viewBox="0 0 22 22" fill="none" xmlns="http://www.w3.org/2000/svg">
<path d="M11.0508 0.75C13.1222 0.74999 14.7464 0.750036 16.0244 0.905274C17.3303 1.06392 18.3755 1.39441 19.2344 2.12793C19.4633 2.32348 19.6765 2.53669 19.8721 2.76563C20.6056 3.62447 20.9361 4.66971 21.0947 5.97559C21.25 7.25356 21.25 8.87778 21.25 10.9492V11.0508C21.25 13.1222 21.25 14.7464 21.0947 16.0244C20.9361 17.3303 20.6056 18.3755 19.8721 19.2344C19.6765 19.4633 19.4633 19.6765 19.2344 19.8721C18.3755 20.6056 17.3303 20.9361 16.0244 21.0947C14.7464 21.25 13.1222 21.25 11.0508 21.25H10.9492C8.87778 21.25 7.25356 21.25 5.97559 21.0947C4.66971 20.9361 3.62447 20.6056 2.76563 19.8721C2.53669 19.6765 2.32348 19.4633 2.12793 19.2344C1.39441 18.3755 1.06392 17.3303 0.905274 16.0244C0.750036 14.7464 0.74999 13.1222 0.75 11.0508V10.9492C0.74999 8.87778 0.750036 7.25356 0.905274 5.97559C1.06392 4.66971 1.39441 3.62447 2.12793 2.76563C2.32348 2.53669 2.53669 2.32348 2.76563 2.12793C3.62447 1.39441 4.66971 1.06392 5.97559 0.905274C7.25356 0.750036 8.87778 0.74999 10.9492 0.75H11.0508ZM11 5.25C10.5858 5.25 10.25 5.58579 10.25 6V6.42383C9.63494 6.52849 9.07033 6.76094 8.6123 7.09668C7.97354 7.56506 7.5 8.27474 7.5 9.12793C7.50003 9.87843 7.76965 10.5724 8.45801 11.0332C9.08216 11.4509 9.95237 11.6064 11 11.6064C11.9582 11.6064 12.5277 11.7505 12.8418 11.9541C13.0877 12.1135 13.25 12.3544 13.25 12.873C13.2499 13.3085 13.0713 13.5779 12.7373 13.7773C12.3576 14.004 11.7608 14.1387 11 14.1387C10.3002 14.1387 9.70018 13.9469 9.29688 13.6758C8.88931 13.4017 8.75016 13.1039 8.75 12.873C8.75 12.4588 8.41421 12.123 8 12.123C7.58579 12.123 7.25 12.4588 7.25 12.873C7.25016 13.7555 7.7824 14.4654 8.45996 14.9209C8.96056 15.2574 9.57861 15.4867 10.25 15.585V16C10.25 16.4142 10.5858 16.75 11 16.75C11.4142 16.75 11.75 16.4142 11.75 16V15.6006C12.3866 15.5325 12.9975 15.3688 13.5059 15.0654C14.2573 14.6168 14.7499 13.8774 14.75 12.873C14.75 11.9515 14.412 11.1841 13.6582 10.6953C12.9723 10.2508 12.0418 10.1064 11 10.1064C10.0478 10.1064 9.54282 9.95405 9.29199 9.78613C9.10559 9.66125 9.00003 9.49076 9 9.12793C9 8.86746 9.14249 8.56807 9.49902 8.30664C9.85511 8.04558 10.3834 7.86133 11 7.86133C11.6166 7.86133 12.1449 8.04558 12.501 8.30664C12.8575 8.56807 13 8.86746 13 9.12793C13.0001 9.54208 13.3358 9.87793 13.75 9.87793C14.1642 9.87793 14.4999 9.54208 14.5 9.12793C14.5 8.27474 14.0265 7.56506 13.3877 7.09668C12.9297 6.76094 12.3651 6.52849 11.75 6.42383V6C11.75 5.58579 11.4142 5.25 11 5.25Z" fill="white"/>
</svg>
