<svg width="25" height="26" viewBox="0 0 25 26" fill="none" xmlns="http://www.w3.org/2000/svg">
  <path d="M24.9881 13.0322C24.9881 11.984 24.903 11.219 24.7189 10.4258H12.749V15.157H19.7751C19.6335 16.3328 18.8686 18.1035 17.1687 19.2934L17.1448 19.4518L20.9295 22.3837L21.1917 22.4099C23.5998 20.1858 24.9881 16.9136 24.9881 13.0322Z"
    fill="#4285F4"/>
  <path d="M12.749 25.4971C16.1912 25.4971 19.081 24.3638 21.1917 22.409L17.1687 19.2925C16.0921 20.0433 14.6472 20.5674 12.749 20.5674C9.37764 20.5674 6.51621 18.3435 5.49619 15.2695L5.34668 15.2822L1.41133 18.3278L1.35986 18.4709C3.45635 22.6355 7.7627 25.4971 12.749 25.4971Z"
    fill="#34A853"/>
  <path d="M5.49619 15.2713C5.22705 14.478 5.07129 13.628 5.07129 12.7498C5.07129 11.8715 5.22705 11.0216 5.48203 10.2283L5.4749 10.0594L1.49023 6.96484L1.35986 7.02686C0.495801 8.75508 0 10.6958 0 12.7498C0 14.8038 0.495801 16.7444 1.35986 18.4727L5.49619 15.2713Z"
    fill="#FBBC05"/>
  <path d="M12.749 4.92959C15.143 4.92959 16.7578 5.96367 17.6786 6.82783L21.2767 3.31475C19.0669 1.26074 16.1912 0 12.749 0C7.76269 0 3.45635 2.86143 1.35986 7.02607L5.48203 10.2275C6.51621 7.15361 9.37764 4.92959 12.749 4.92959Z"
    fill="#EB4335"/>
</svg>