<svg width="22" height="20" viewBox="0 0 22 20" fill="none" xmlns="http://www.w3.org/2000/svg">
<path fill-rule="evenodd" clip-rule="evenodd" d="M11.0008 1.74382L10.9564 1.70846C10.587 1.4164 10.0473 1.0509 9.36436 0.758757C7.97861 0.165925 6.0204 -0.11242 3.78838 1.08156C1.00586 2.57003 -0.359727 6.13312 0.514185 9.80263C1.39816 13.5144 4.53903 17.3369 10.7378 19.6518L11.0008 19.75L11.2638 19.6518C17.4626 17.3369 20.6034 13.5144 21.4874 9.80263C22.3612 6.13312 20.9956 2.57004 18.2131 1.08157C15.9811 -0.112409 14.0229 0.165929 12.6372 0.758764C11.9543 1.05091 11.4146 1.41641 11.0451 1.70847L11.0008 1.74382ZM10.002 6V9H7.00195V11H10.002V14H12.002V11H15.002V9H12.002V6H10.002Z" fill="white"/>
</svg>
