<svg width="20" height="20" viewBox="0 0 20 20" fill="none" xmlns="http://www.w3.org/2000/svg">
  <path d="M10.0462 17.7227C9.45546 17.7223 8.86666 17.6546 8.29123 17.5208C6.72387 17.1575 5.30916 16.3137 4.24472 15.1072C3.18028 13.9007 2.51927 12.3919 2.35404 10.7915C2.34144 10.6678 2.3785 10.5441 2.45706 10.4478C2.53562 10.3514 2.64925 10.2902 2.77294 10.2776C2.89664 10.265 3.02028 10.302 3.11666 10.3806C3.21303 10.4591 3.27425 10.5728 3.28685 10.6965C3.40471 11.8413 3.81206 12.9374 4.47053 13.8813C5.129 14.8252 6.01692 15.586 7.05065 16.092C8.08437 16.598 9.22989 16.8325 10.3793 16.7735C11.5287 16.7145 12.6441 16.3638 13.6206 15.7546C15.1459 14.8028 16.2307 13.284 16.6362 11.5324C17.0417 9.78074 16.7348 7.93977 15.7829 6.41444C14.8311 4.88911 13.3123 3.80438 11.5607 3.39886C9.80908 2.99334 7.96811 3.30026 6.44279 4.2521L4.25466 5.61772C4.14924 5.6818 4.0228 5.70174 3.90278 5.67321C3.78275 5.64467 3.67881 5.56997 3.61351 5.46531C3.5482 5.36064 3.52678 5.23445 3.55391 5.11409C3.58104 4.99374 3.65452 4.88894 3.75841 4.82241L5.94654 3.45678C6.95972 2.82543 8.10556 2.43775 9.29395 2.32426C10.4823 2.21077 11.6808 2.37454 12.7952 2.80271C13.9096 3.23088 14.9094 3.91177 15.7161 4.7918C16.5227 5.67184 17.1142 6.72704 17.4439 7.87438C17.7737 9.02173 17.8327 10.2299 17.6164 11.404C17.4001 12.578 16.9144 13.6859 16.1974 14.6404C15.4804 15.5949 14.5518 16.37 13.4845 16.9048C12.4172 17.4396 11.2403 17.7195 10.0465 17.7224L10.0462 17.7227Z"
    fill="#0049C6"/>
  <path d="M4.00658 5.68916C3.93106 5.68908 3.85666 5.67078 3.78973 5.63579C3.72279 5.6008 3.6653 5.55016 3.62213 5.48819C3.57896 5.42621 3.5514 5.35473 3.54178 5.27982C3.53217 5.2049 3.54078 5.12877 3.5669 5.05791L4.80627 1.70103C4.84937 1.58442 4.93703 1.4897 5.04996 1.43772C5.10588 1.41198 5.16632 1.39751 5.22783 1.39513C5.28934 1.39275 5.35072 1.4025 5.40846 1.42384C5.4662 1.44518 5.51917 1.47769 5.56435 1.5195C5.60953 1.56131 5.64603 1.61161 5.67177 1.66753C5.69751 1.72345 5.71198 1.78389 5.71436 1.8454C5.71674 1.90691 5.70699 1.96829 5.68565 2.02603L4.44658 5.38228C4.41347 5.47226 4.35357 5.54992 4.27495 5.60479C4.19633 5.65967 4.10246 5.68911 4.00658 5.68916Z"
    fill="#0049C6"/>
  <path d="M7.56717 6.05085C7.5512 6.05084 7.53524 6.05001 7.51936 6.04835L3.95936 5.68648C3.89717 5.68148 3.83662 5.66411 3.78123 5.6354C3.72585 5.6067 3.67675 5.56722 3.63682 5.5193C3.59689 5.47137 3.56692 5.41595 3.54868 5.3563C3.53044 5.29664 3.52429 5.23395 3.5306 5.17188C3.5369 5.10982 3.55552 5.04964 3.58538 4.99487C3.61524 4.9401 3.65574 4.89184 3.70449 4.85292C3.75324 4.81399 3.80927 4.7852 3.86929 4.76821C3.92931 4.75122 3.99213 4.74638 4.05404 4.75398L7.61373 5.11648C7.73254 5.12951 7.84189 5.18743 7.91942 5.27841C7.99694 5.36938 8.03678 5.48654 8.03079 5.60591C8.02481 5.72529 7.97344 5.83787 7.88721 5.92063C7.80097 6.00339 7.68638 6.05009 7.56686 6.05117L7.56717 6.05085ZM6.66998 13.7987C6.57733 13.7986 6.48678 13.771 6.40977 13.7195C6.33276 13.668 6.27275 13.5948 6.2373 13.5092C6.20186 13.4236 6.19257 13.3295 6.21063 13.2386C6.22868 13.1477 6.27326 13.0642 6.33873 12.9987L9.53123 9.80585V6.59242C9.53123 6.4681 9.58062 6.34887 9.66852 6.26096C9.75643 6.17305 9.87566 6.12367 9.99998 6.12367C10.1243 6.12367 10.2435 6.17305 10.3314 6.26096C10.4193 6.34887 10.4687 6.4681 10.4687 6.59242V9.99992C10.4686 10.1242 10.4192 10.2433 10.3312 10.3312L7.00123 13.6615C6.9578 13.7051 6.90617 13.7397 6.84933 13.7633C6.79248 13.7869 6.73153 13.799 6.66998 13.799V13.7987Z"
    fill="#0049C6"/>
</svg>