<svg width="12" height="12" viewBox="0 0 12 12" fill="none" xmlns="http://www.w3.org/2000/svg">
<path d="M5.41699 8.91675H6.58366V5.41675H5.41699V8.91675ZM6.00033 4.25008C6.1656 4.25008 6.30414 4.19418 6.41595 4.08237C6.52776 3.97057 6.58366 3.83203 6.58366 3.66675C6.58366 3.50147 6.52776 3.36293 6.41595 3.25112C6.30414 3.13932 6.1656 3.08341 6.00033 3.08341C5.83505 3.08341 5.69651 3.13932 5.5847 3.25112C5.47289 3.36293 5.41699 3.50147 5.41699 3.66675C5.41699 3.83203 5.47289 3.97057 5.5847 4.08237C5.69651 4.19418 5.83505 4.25008 6.00033 4.25008ZM6.00033 11.8334C5.19338 11.8334 4.43505 11.6803 3.72533 11.374C3.0156 11.0678 2.39824 10.6522 1.87324 10.1272C1.34824 9.60216 0.932617 8.9848 0.626367 8.27508C0.320117 7.56536 0.166992 6.80703 0.166992 6.00008C0.166992 5.19314 0.320117 4.4348 0.626367 3.72508C0.932617 3.01536 1.34824 2.398 1.87324 1.873C2.39824 1.348 3.0156 0.932373 3.72533 0.626123C4.43505 0.319873 5.19338 0.166748 6.00033 0.166748C6.80727 0.166748 7.5656 0.319873 8.27532 0.626123C8.98505 0.932373 9.60241 1.348 10.1274 1.873C10.6524 2.398 11.068 3.01536 11.3743 3.72508C11.6805 4.4348 11.8337 5.19314 11.8337 6.00008C11.8337 6.80703 11.6805 7.56536 11.3743 8.27508C11.068 8.9848 10.6524 9.60216 10.1274 10.1272C9.60241 10.6522 8.98505 11.0678 8.27532 11.374C7.5656 11.6803 6.80727 11.8334 6.00033 11.8334ZM6.00033 10.6667C7.3031 10.6667 8.40658 10.2147 9.31074 9.3105C10.2149 8.40633 10.667 7.30286 10.667 6.00008C10.667 4.6973 10.2149 3.59383 9.31074 2.68966C8.40658 1.7855 7.3031 1.33341 6.00033 1.33341C4.69755 1.33341 3.59408 1.7855 2.68991 2.68966C1.78574 3.59383 1.33366 4.6973 1.33366 6.00008C1.33366 7.30286 1.78574 8.40633 2.68991 9.3105C3.59408 10.2147 4.69755 10.6667 6.00033 10.6667Z" fill="#344054"/>
</svg>
