<svg width="22" height="22" viewBox="0 0 22 22" fill="none" xmlns="http://www.w3.org/2000/svg">
<path fill-rule="evenodd" clip-rule="evenodd" d="M10.9953 3.99997C10.4455 3.99997 9.99976 4.44768 9.99976 4.99997C9.99976 5.55225 10.4455 5.99997 10.9953 5.99997H11.0042C11.554 5.99997 11.9998 5.55225 11.9998 4.99997C11.9998 4.44768 11.554 3.99997 11.0042 3.99997H10.9953Z" fill="white"/>
<path d="M14.8152 0.749972C15.7016 0.749922 16.4662 0.749768 17.0778 0.832003C17.7332 0.920166 18.3613 1.11933 18.8708 1.62888C19.3803 2.13845 19.5795 2.76647 19.6677 3.42185C19.7499 4.03351 19.7498 4.79806 19.7497 5.68454V13.291C19.751 13.3422 19.7568 13.3679 19.779 13.414L19.7898 13.4336L20.1657 14.165C20.8896 15.5009 21.3767 16.565 21.6023 17.4482C21.8343 18.3571 21.8069 19.1492 21.4128 19.8652C20.9721 20.6657 20.1847 20.9779 19.3015 21.1162C18.4479 21.2498 17.3093 21.25 15.9128 21.25H6.08664C4.69018 21.25 3.55159 21.2498 2.69796 21.1162C1.81474 20.9779 1.02735 20.6657 0.586635 19.8652C0.192511 19.1492 0.165172 18.3571 0.397182 17.4482C0.622715 16.565 1.10982 15.5009 1.83371 14.165L2.20968 13.4336L2.22042 13.414C2.24265 13.3679 2.24843 13.3422 2.24972 13.291V5.68454C2.24967 4.79806 2.24952 4.03351 2.33175 3.42185C2.4199 2.76646 2.61908 2.13845 3.12863 1.62888C3.63818 1.11932 4.26623 0.920163 4.9216 0.832003C5.53326 0.749768 6.2978 0.749922 7.18429 0.749972H14.8152ZM7.24972 2.74997C6.2787 2.74997 5.65069 2.75224 5.1882 2.81443C4.75473 2.87274 4.61879 2.96684 4.54269 3.04294C4.46659 3.11906 4.37248 3.25498 4.31417 3.68845C4.25199 4.15095 4.24972 4.7789 4.24972 5.74997V12.1504C4.24972 12.4329 4.24983 12.5743 4.33761 12.6621C4.42548 12.7499 4.56746 12.75 4.85031 12.75H17.1491C17.432 12.75 17.574 12.7499 17.6618 12.6621C17.7496 12.5742 17.7497 12.4329 17.7497 12.1504V5.74997C17.7497 4.7789 17.7474 4.15095 17.6853 3.68845C17.627 3.25503 17.5329 3.11907 17.4568 3.04294C17.3807 2.96684 17.2447 2.87274 16.8112 2.81443C16.3488 2.75225 15.7207 2.74997 14.7497 2.74997H7.24972Z" fill="white"/>
</svg>
