<svg width="24" height="24" viewBox="0 0 24 24" fill="none" xmlns="http://www.w3.org/2000/svg">
  <path fill-rule="evenodd"
    clip-rule="evenodd"
    d="M12.0008 8.79916C10.2335 8.79916 8.80116 10.2322 8.80116 11.9994C8.80116 13.7667 10.2335 15.1997 12.0008 15.1997C13.7681 15.1997 15.2012 13.7667 15.2012 11.9994C15.2012 10.2322 13.7681 8.79916 12.0008 8.79916ZM12.0008 16.9289C9.27811 16.9289 7.07109 14.722 7.07109 11.9994C7.07109 9.27685 9.27811 7.06993 12.0008 7.06993C14.7234 7.06993 16.9305 9.27685 16.9305 11.9994C16.9305 14.722 14.7234 16.9289 12.0008 16.9289ZM16.1675 7.51457C16.041 7.32507 15.9735 7.10232 15.9736 6.87447C15.9738 6.56907 16.0953 6.27625 16.3113 6.06034C16.5273 5.84443 16.8202 5.72308 17.1256 5.72293H17.1261C17.3539 5.72302 17.5766 5.79068 17.766 5.91734C17.9554 6.044 18.103 6.22397 18.1901 6.43451C18.2773 6.64504 18.3 6.87668 18.2554 7.10013C18.2109 7.32358 18.1011 7.5288 17.9399 7.68985C17.7787 7.85089 17.5734 7.96053 17.3499 8.00489C17.1264 8.04925 16.8948 8.02634 16.6843 7.93907C16.4738 7.85179 16.294 7.70406 16.1675 7.51457ZM6.33939 19.4833C6.67748 19.6151 7.18622 19.771 8.12222 19.8136C9.13387 19.8601 9.43701 19.8694 12.0008 19.8694C14.5645 19.8694 14.8685 19.8601 15.8805 19.8136C16.8165 19.771 17.3254 19.6151 17.6633 19.4833C18.1115 19.3089 18.4318 19.1007 18.7676 18.7653C19.1034 18.4298 19.3112 18.11 19.4857 17.6618C19.6166 17.3237 19.7733 16.815 19.8159 15.879C19.8625 14.8663 19.8718 14.5632 19.8718 11.9995C19.8718 9.43583 19.8625 9.1327 19.8159 8.11994C19.7734 7.18398 19.6175 6.6751 19.4857 6.33718C19.3112 5.88898 19.1038 5.56872 18.7676 5.23295C18.4313 4.89718 18.1115 4.68859 17.6633 4.51487C17.3244 4.38431 16.8165 4.22725 15.8805 4.18463C14.8677 4.13886 14.5634 4.1288 12.0008 4.1288C9.43816 4.1288 9.13418 4.13809 8.12222 4.18463C7.18622 4.22718 6.67732 4.38308 6.33939 4.51487C5.8904 4.68859 5.5709 4.89672 5.23512 5.23295C4.89933 5.56918 4.6915 5.88898 4.51701 6.33718C4.38644 6.6761 4.22938 7.18398 4.18675 8.11994C4.14098 9.1327 4.13092 9.43583 4.13092 11.9995C4.13092 14.5632 4.14021 14.8671 4.18675 15.879C4.2293 16.815 4.38521 17.3239 4.51701 17.6618C4.69074 18.11 4.89887 18.4295 5.23512 18.7653C5.57136 19.101 5.89117 19.3089 6.33939 19.4833ZM5.71245 2.90345C6.32234 2.66614 7.02071 2.50409 8.04273 2.45755C9.0669 2.41024 9.39439 2.39941 12.0015 2.39941C14.6087 2.39941 14.936 2.41101 15.9596 2.45755C16.9808 2.50332 17.6788 2.66614 18.2899 2.90345C18.9203 3.14852 19.4563 3.47646 19.9898 4.01075C20.5232 4.54505 20.8513 5.08012 21.0971 5.71134C21.3344 6.32121 21.4965 7.01947 21.543 8.04153C21.5896 9.06512 21.6004 9.39236 21.6004 11.9994C21.6004 14.6065 21.5896 14.9329 21.543 15.9573C21.4972 16.9793 21.3344 17.6772 21.0971 18.2875C20.8513 18.9187 20.5241 19.4546 19.9898 19.9881C19.4554 20.5215 18.9203 20.8496 18.2891 21.0954C17.6788 21.3327 16.9809 21.4947 15.9588 21.5413C14.9352 21.5886 14.6079 21.5994 12.0008 21.5994C9.39362 21.5994 9.0669 21.5878 8.04273 21.5413C7.02071 21.4947 6.32349 21.3327 5.71245 21.0954C5.08082 20.8496 4.54604 20.5213 4.0118 19.9881C3.47755 19.4548 3.14953 18.9187 2.90445 18.2875C2.66713 17.6772 2.50507 16.9794 2.45853 15.9573C2.41122 14.9337 2.40039 14.6065 2.40039 11.9994C2.40039 9.39236 2.41122 9.06512 2.45853 8.04153C2.50507 7.01955 2.66713 6.32159 2.90445 5.71134C3.14953 5.07973 3.47748 4.54421 4.0118 4.01075C4.54611 3.4773 5.08082 3.14852 5.71245 2.90345Z"
    fill="white"/>
</svg>