<svg width="25" height="25" viewBox="0 0 25 25" fill="none" xmlns="http://www.w3.org/2000/svg">
  <path fill-rule="evenodd"
    clip-rule="evenodd"
    d="M12.3867 14.5136L12.4996 14.5136L12.7522 14.5145C14.6828 14.5272 19.0947 14.7222 19.0947 17.7126C19.0947 20.6833 14.8365 20.8771 12.7823 20.8897L12.0211 20.8897C10.0904 20.877 5.67766 20.6822 5.67766 17.6956C5.67766 14.7211 10.0904 14.5271 12.0211 14.5145L12.2737 14.5136C12.3129 14.5136 12.3506 14.5136 12.3867 14.5136ZM12.3867 16.0136C10.0107 16.0136 7.17766 16.3056 7.17766 17.6956C7.17766 19.0542 9.84157 19.3718 12.1695 19.3898L12.3867 19.3906C14.7627 19.3906 17.5947 19.0996 17.5947 17.7126C17.5947 16.3086 14.7627 16.0136 12.3867 16.0136ZM20.3403 14.1078C22.7633 14.4708 23.2723 15.6088 23.2723 16.4998C23.2723 17.0438 23.0583 18.0368 21.6283 18.5818C21.5403 18.6148 21.4503 18.6308 21.3613 18.6308C21.0593 18.6308 20.7743 18.4468 20.6603 18.1478C20.5123 17.7608 20.7073 17.3268 21.0943 17.1798C21.7723 16.9218 21.7723 16.6368 21.7723 16.4998C21.7723 16.0618 21.2153 15.7558 20.1173 15.5918C19.7083 15.5298 19.4253 15.1488 19.4863 14.7378C19.5473 14.3278 19.9273 14.0548 20.3403 14.1078ZM5.28606 14.7378C5.34706 15.1488 5.06406 15.5298 4.65506 15.5918C3.55706 15.7558 3.00006 16.0618 3.00006 16.4998C3.00006 16.6368 3.00006 16.9208 3.67906 17.1798C4.06606 17.3268 4.26106 17.7608 4.11306 18.1478C3.99906 18.4468 3.71406 18.6308 3.41206 18.6308C3.32306 18.6308 3.23306 18.6148 3.14506 18.5818C1.71406 18.0358 1.50006 17.0428 1.50006 16.4998C1.50006 15.6098 2.00906 14.4708 4.43306 14.1078C4.84606 14.0558 5.22406 14.3278 5.28606 14.7378ZM12.3867 4.09961C14.9067 4.09961 16.9557 6.14961 16.9557 8.66861C16.9557 11.1876 14.9067 13.2376 12.3867 13.2376H12.3597C11.1397 13.2336 9.99666 12.7556 9.14066 11.8916C8.28266 11.0286 7.81366 9.88261 7.81862 8.66561C7.81862 6.14961 9.86766 4.09961 12.3867 4.09961ZM12.3867 5.59961C10.6947 5.59961 9.31864 6.97661 9.31864 8.66861C9.31566 9.48861 9.62966 10.2556 10.2047 10.8346C10.7797 11.4136 11.5457 11.7346 12.3617 11.7376L12.3867 12.4876V11.7376C14.0787 11.7376 15.4557 10.3616 15.4557 8.66861C15.4557 6.97661 14.0787 5.59961 12.3867 5.59961ZM18.5757 5.07911C20.3337 5.36811 21.6107 6.87211 21.6107 8.65511C21.6067 10.4501 20.2657 11.9901 18.4907 12.2391C18.4557 12.2441 18.4207 12.2461 18.3867 12.2461C18.0187 12.2461 17.6977 11.9751 17.6447 11.6001C17.5877 11.1891 17.8727 10.8101 18.2837 10.7531C19.3237 10.6071 20.1087 9.70511 20.1107 8.65311C20.1107 7.61011 19.3627 6.72811 18.3317 6.55911C17.9237 6.49211 17.6467 6.10611 17.7137 5.69711C17.7817 5.28811 18.1647 5.01411 18.5757 5.07911ZM7.05966 5.69711C7.12666 6.10611 6.84966 6.49211 6.44166 6.55911C5.41066 6.72811 4.66266 7.61011 4.66266 8.65511C4.66466 9.70511 5.44966 10.6081 6.48866 10.7531C6.89966 10.8101 7.18466 11.1891 7.12766 11.6001C7.07466 11.9751 6.75366 12.2461 6.38566 12.2461C6.35166 12.2461 6.31666 12.2441 6.28166 12.2391C4.50666 11.9901 3.16666 10.4501 3.16266 8.65711C3.16266 6.87211 4.43966 5.36811 6.19766 5.07911C6.61866 5.01311 6.99166 5.29011 7.05966 5.69711Z"
    fill="#8F95B2"/>
</svg>