<svg width="24" height="24" viewBox="0 0 24 24" fill="none" xmlns="http://www.w3.org/2000/svg">
  <path d="M2.40039 4.95255C2.40039 4.33478 2.61661 3.82513 3.04904 3.4236C3.48147 3.02205 4.04364 2.82129 4.73553 2.82129C5.41507 2.82129 5.96486 3.01896 6.38495 3.41434C6.81737 3.82205 7.03359 4.35331 7.03359 5.00815C7.03359 5.60119 6.82356 6.09539 6.40348 6.49076C5.97105 6.89848 5.40271 7.10234 4.69846 7.10234H4.67993C4.00038 7.10234 3.45059 6.89848 3.03051 6.49076C2.61042 6.08304 2.40039 5.5703 2.40039 4.95255ZM2.64132 21.1687V8.78882H6.7556V21.1687H2.64132ZM9.03514 21.1687H13.1494V14.256C13.1494 13.8235 13.1988 13.4899 13.2977 13.2552C13.4707 12.8351 13.7332 12.4799 14.0853 12.1896C14.4375 11.8992 14.8791 11.754 15.4104 11.754C16.7942 11.754 17.4861 12.6869 17.4861 14.5525V21.1687H21.6004V14.0706C21.6004 12.2421 21.168 10.8552 20.3031 9.91005C19.4382 8.96488 18.2954 8.49229 16.8745 8.49229C15.2807 8.49229 14.039 9.178 13.1494 10.5494V10.5865H13.1309L13.1494 10.5494V8.78882H9.03514C9.05984 9.18418 9.0722 10.4135 9.0722 12.4768C9.0722 14.5401 9.05984 17.4374 9.03514 21.1687Z"
    fill="white"/>
</svg>