<svg width="20" height="20" viewBox="0 0 20 20" fill="none" xmlns="http://www.w3.org/2000/svg">
  <path d="M10.0002 1.66797C7.70266 1.66797 5.8335 3.53714 5.8335 5.83464V7.5013H5.00016C4.081 7.5013 3.3335 8.2488 3.3335 9.16797V16.668C3.3335 17.5871 4.081 18.3346 5.00016 18.3346H15.0002C15.9193 18.3346 16.6668 17.5871 16.6668 16.668V9.16797C16.6668 8.2488 15.9193 7.5013 15.0002 7.5013H14.1668V5.83464C14.1668 3.53714 12.2977 1.66797 10.0002 1.66797ZM7.50016 5.83464C7.50016 4.4563 8.62183 3.33464 10.0002 3.33464C11.3785 3.33464 12.5002 4.4563 12.5002 5.83464V7.5013H7.50016V5.83464ZM15.0018 16.668H10.8335V14.7696C11.3293 14.4805 11.6668 13.9488 11.6668 13.3346C11.6668 12.4155 10.9193 11.668 10.0002 11.668C9.081 11.668 8.3335 12.4155 8.3335 13.3346C8.3335 13.948 8.671 14.4805 9.16683 14.7696V16.668H5.00016V9.16797H15.0002L15.0018 16.668Z"
    fill="#081735"/>
</svg>