<svg width="22" height="19" viewBox="0 0 22 19" fill="none" xmlns="http://www.w3.org/2000/svg">
  <path d="M19.9961 0.599609H1.99609C1.46566 0.599609 0.956953 0.810323 0.58188 1.1854C0.206807 1.56047 -0.00390625 2.06918 -0.00390625 2.59961V5.59961H1.99609V2.59961H19.9961V16.5996H12.9961V18.5996H19.9961C20.5265 18.5996 21.0352 18.3889 21.4103 18.0138C21.7854 17.6388 21.9961 17.13 21.9961 16.5996V2.59961C21.9961 2.06918 21.7854 1.56047 21.4103 1.1854C21.0352 0.810323 20.5265 0.599609 19.9961 0.599609ZM-0.00390625 15.5996V18.5996H2.99609C2.99609 17.804 2.68002 17.0409 2.11741 16.4783C1.5548 15.9157 0.791743 15.5996 -0.00390625 15.5996ZM-0.00390625 11.5996V13.5996C0.652703 13.5996 1.30288 13.7289 1.90951 13.9802C2.51614 14.2315 3.06733 14.5998 3.53163 15.0641C3.99592 15.5284 4.36422 16.0796 4.61549 16.6862C4.86677 17.2928 4.99609 17.943 4.99609 18.5996H6.99609C6.99609 16.7431 6.2586 14.9626 4.94584 13.6499C3.63309 12.3371 1.85261 11.5996 -0.00390625 11.5996ZM-0.00390625 7.59961V9.59961C1.17799 9.59961 2.34831 9.8324 3.44024 10.2847C4.53218 10.737 5.52433 11.3999 6.36005 12.2356C7.19578 13.0714 7.85872 14.0635 8.31101 15.1555C8.7633 16.2474 8.99609 17.4177 8.99609 18.5996H10.9961C10.9961 12.5196 6.06609 7.59961 -0.00390625 7.59961ZM9.99609 8.68961V10.6896L13.4961 12.5996L16.9961 10.6896V8.68961L13.4961 10.5996L9.99609 8.68961ZM13.4961 3.59961L7.99609 6.59961L13.4961 9.59961L18.9961 6.59961L13.4961 3.59961Z"
    fill="#8F95B2"/>
</svg>