<svg width="24" height="25" viewBox="0 0 24 25" fill="none" xmlns="http://www.w3.org/2000/svg">
  <path d="M16.4961 3.59961V5.84961H7.49609V3.59961H1.49609V9.59961H7.49609V7.34961H12.7633C12.2677 7.99513 11.9981 8.78575 11.9961 9.59961V15.5996C11.9953 16.1961 11.758 16.7679 11.3362 17.1897C10.9144 17.6115 10.3426 17.8488 9.74609 17.8496H7.49609V15.5996H1.49609V21.5996H7.49609V19.3496H9.74609C10.7403 19.3484 11.6934 18.9529 12.3964 18.2499C13.0994 17.5469 13.4949 16.5938 13.4961 15.5996V9.59961C13.4959 9.30427 13.5539 9.01178 13.6667 8.73886C13.7796 8.46593 13.9451 8.21792 14.1539 8.00898C14.3626 7.80003 14.6105 7.63426 14.8833 7.52112C15.1561 7.40799 15.4485 7.34971 15.7438 7.34961H16.4961V9.59961H22.4961V3.59961H16.4961ZM5.99609 8.09961H2.99609V5.09961H5.99609V8.09961ZM5.99609 20.0996H2.99609V17.0996H5.99609V20.0996ZM20.9961 8.09961H17.9961V5.09961H20.9961V8.09961Z"
    fill="#8F95B2"/>
</svg>