<svg width="130" height="131" viewBox="0 0 130 131" fill="none" xmlns="http://www.w3.org/2000/svg">
<circle cx="65.0007" cy="65.447" r="65.0007" fill="white" fill-opacity="0.5" style="fill:white;fill-opacity:0.5;"/>
<rect x="17.7266" y="18.1748" width="94.5465" height="94.5465" rx="47.2733" fill="white" style="fill:white;fill-opacity:1;"/>
<path d="M72.1211 52.9481C72.1211 50.6469 73.9866 48.7814 76.2877 48.7814C78.5889 48.7814 80.4544 50.6469 80.4544 52.9481V77.9481C80.4544 80.2492 78.5889 82.1147 76.2877 82.1147C73.9866 82.1147 72.1211 80.2492 72.1211 77.9481V52.9481Z" fill="#5172E7" style="fill:#5172E7;fill:color(display-p3 0.3176 0.4471 0.9059);fill-opacity:1;"/>
<path d="M55.4544 52.9481C55.4544 50.6469 57.3199 48.7814 59.6211 48.7814C61.9223 48.7814 63.7877 50.6469 63.7877 52.9481V77.9481C63.7877 80.2492 61.9223 82.1147 59.6211 82.1147C57.3199 82.1147 55.4544 80.2492 55.4544 77.9481V52.9481Z" fill="#5172E7" style="fill:#5172E7;fill:color(display-p3 0.3176 0.4471 0.9059);fill-opacity:1;"/>
</svg>
