<svg width="22" height="22" viewBox="0 0 22 22" fill="none" xmlns="http://www.w3.org/2000/svg">
<path fill-rule="evenodd" clip-rule="evenodd" d="M16.6125 10.6035L14.4631 9.95868L15.0378 8.04303L17.1872 8.68785C17.2044 8.69301 17.2216 8.69815 17.2387 8.70327C17.8812 8.89601 18.4437 9.06471 18.8902 9.25735C19.3727 9.4655 19.8165 9.73999 20.1574 10.1981C20.4982 10.6563 20.6336 11.1602 20.6944 11.6821C20.7506 12.1652 20.7505 12.7524 20.7505 13.4233L20.7505 21.0009H18.7505V13.477C18.7505 12.7366 18.7489 12.267 18.7078 11.9133C18.6696 11.5855 18.6073 11.4653 18.5528 11.392C18.4982 11.3187 18.401 11.2245 18.098 11.0938C17.771 10.9527 17.3217 10.8162 16.6125 10.6035Z" fill="white"/>
<path d="M15.0002 21.7501C15.4145 21.7501 15.7502 21.4143 15.7502 21.0001L15.7502 7.1261C15.7503 6.40466 15.7502 5.80038 15.6946 5.30969C15.6358 4.7918 15.5083 4.32027 15.1995 3.89758C14.8885 3.47225 14.4788 3.21191 14.0051 3.00989C13.5608 2.82042 12.9963 2.65657 12.3293 2.46301L7.22778 0.982544C6.1135 0.659069 5.19471 0.392834 4.45728 0.294067C3.68495 0.19067 2.9523 0.247412 2.32739 0.73938C1.70937 1.22604 1.46665 1.92658 1.35669 2.71106C1.25051 3.46873 1.25022 4.45369 1.25024 5.6593L1.25024 21.0001C1.25024 21.4143 1.58603 21.7501 2.00024 21.7501H15.0002ZM7.00024 7.75012C6.58606 7.75012 6.25028 7.4143 6.25024 7.00012C6.25024 6.58591 6.58603 6.25012 7.00024 6.25012L10.0002 6.25012C10.4145 6.25012 10.7502 6.58591 10.7502 7.00012C10.7502 7.4143 10.4144 7.75012 10.0002 7.75012L7.00024 7.75012ZM7.00024 11.7501C6.58606 11.7501 6.25028 11.4143 6.25024 11.0001C6.25024 10.5859 6.58603 10.2501 7.00024 10.2501L10.0002 10.2501C10.4145 10.2501 10.7502 10.5859 10.7502 11.0001C10.7502 11.4143 10.4144 11.7501 10.0002 11.7501L7.00024 11.7501ZM5.25024 16.9552C5.25019 16.5224 5.24982 16.1256 5.29321 15.8029C5.341 15.4474 5.45394 15.0718 5.76294 14.7628C6.07195 14.4538 6.44751 14.3409 6.80298 14.2931C7.12575 14.2497 7.52258 14.2501 7.95532 14.2501H9.04517C9.47792 14.2501 9.87474 14.2497 10.1975 14.2931C10.553 14.3409 10.9285 14.4538 11.2375 14.7628C11.5466 15.0718 11.6595 15.4474 11.7073 15.8029C11.7507 16.1256 11.7503 16.5224 11.7502 16.9552V21.0001H10.2502V17.0001C10.2502 16.5077 10.2483 16.2138 10.22 16.0031C10.207 15.9065 10.1918 15.8578 10.1829 15.8361C10.1609 15.827 10.0936 15.7933 9.99732 15.7804C9.78661 15.7521 9.49268 15.7501 9.00024 15.7501H8.00024C7.5078 15.7501 7.21388 15.7521 7.00317 15.7804C6.90662 15.7934 6.85796 15.8085 6.83618 15.8175C6.82706 15.8396 6.79345 15.9069 6.78052 16.0031C6.75222 16.2138 6.75024 16.5077 6.75024 17.0001L6.75024 21.0001H5.25024L5.25024 16.9552Z" fill="white"/>
<path fill-rule="evenodd" clip-rule="evenodd" d="M0.000244141 20.7501C0.000244141 20.1978 0.447959 19.7501 1.00024 19.7501L21.0002 19.7501C21.5525 19.7501 22.0002 20.1978 22.0002 20.7501C22.0002 21.3023 21.5525 21.7501 21.0002 21.7501L1.00024 21.7501C0.447959 21.7501 0.000244141 21.3023 0.000244141 20.7501Z" fill="white"/>
</svg>
