<svg width="24" height="25" viewBox="0 0 24 25" fill="none" xmlns="http://www.w3.org/2000/svg">
  <path d="M12 15.9076L12.708 15.1996L10.613 13.0996H15.308V12.0996H10.613L12.708 9.99961L12 9.29161L8.692 12.5996L12 15.9076ZM5.615 20.5996C5.16833 20.5996 4.78733 20.4423 4.472 20.1276C4.15733 19.8129 4 19.4319 4 18.9846V6.21461C4 5.76794 4.15733 5.38694 4.472 5.07161C4.78667 4.75694 5.16767 4.59961 5.615 4.59961H10.315C10.2243 4.08961 10.3467 3.62861 10.682 3.21661C11.0173 2.80528 11.4567 2.59961 12 2.59961C12.5567 2.59961 13.0027 2.80528 13.338 3.21661C13.6727 3.62861 13.7883 4.08961 13.685 4.59961H18.385C18.8317 4.59961 19.2127 4.75694 19.528 5.07161C19.8427 5.38628 20 5.76728 20 6.21461V18.9846C20 19.4313 19.8427 19.8123 19.528 20.1276C19.2133 20.4423 18.8323 20.5996 18.385 20.5996H5.615ZM5.615 19.5996H18.385C18.5383 19.5996 18.6793 19.5356 18.808 19.4076C18.936 19.2789 19 19.1379 19 18.9846V6.21461C19 6.06128 18.936 5.92028 18.808 5.79161C18.6793 5.66361 18.5383 5.59961 18.385 5.59961H5.615C5.46167 5.59961 5.32067 5.66361 5.192 5.79161C5.064 5.92028 5 6.06128 5 6.21461V18.9846C5 19.1379 5.064 19.2789 5.192 19.4076C5.32067 19.5356 5.46167 19.5996 5.615 19.5996ZM12 5.04161C12.2167 5.04161 12.3957 4.97094 12.537 4.82961C12.6783 4.68828 12.7493 4.50894 12.75 4.29161C12.75 4.07494 12.679 3.89594 12.537 3.75461C12.395 3.61328 12.216 3.54228 12 3.54161C11.7833 3.54161 11.6043 3.61261 11.463 3.75461C11.3217 3.89661 11.2507 4.07561 11.25 4.29161C11.25 4.50828 11.321 4.68761 11.463 4.82961C11.605 4.97161 11.784 5.04228 12 5.04161Z"
    fill="#8F95B2"/>
</svg>