<svg width="24" height="24" viewBox="0 0 24 24" fill="none" xmlns="http://www.w3.org/2000/svg">
<path d="M8.23282 2.38745L8.58928 1.25L7.4096 1.42091C2.85146 2.08131 1.2796 5.77516 1.03336 7.77733C0.767935 9.93548 2.07765 11.9518 4.08415 12.522C3.94652 10.9052 3.98497 9.41527 4.13681 8.07861L5.62722 8.24792C5.47814 9.56032 5.44562 11.0421 5.60328 12.664C7.58044 12.4829 9.21475 10.8886 9.46979 8.8149C9.55022 8.16097 9.41886 7.54633 9.23523 6.99318C9.10629 6.60473 8.93295 6.19805 8.7709 5.81785C8.70996 5.67487 8.6506 5.5356 8.59581 5.4025C8.172 4.37282 7.90148 3.44473 8.23282 2.38745Z" fill="white"/>
<path d="M8.32265 17.5396C7.90817 17.9978 7.49968 18.4864 7.09941 19.0061C6.24755 16.7264 5.78993 14.5958 5.60213 12.664C5.31269 12.6905 5.0159 12.6867 4.71501 12.6497C4.49777 12.6229 4.28679 12.5799 4.08301 12.522C4.28671 14.9149 4.87613 17.5857 6.05457 20.4487L6.06805 20.4432C5.73726 20.9377 5.414 21.4555 5.09969 21.9969L6.39691 22.75C7.23468 21.307 8.13509 20.0474 9.06699 18.963C8.88698 18.7181 8.72459 18.4509 8.58264 18.1619C8.48287 17.9588 8.39633 17.751 8.32265 17.5396Z" fill="white"/>
<path d="M9.06767 18.9635C10.7034 17.06 12.4361 15.6962 14.0972 14.8279L13.4023 13.4985C11.7073 14.3846 9.96799 15.7221 8.32316 17.5403C7.39712 14.8847 8.5014 11.6619 10.9186 10.0214C12.0649 9.24346 13.8821 8.45444 15.9335 8.41465C18.0169 8.37424 20.3048 9.11007 22.3049 11.3257L23.0005 12.0962L22.0505 12.5146C20.5652 13.1687 19.7094 14.4408 18.9023 15.9078C18.794 16.1046 18.6848 16.3082 18.5743 16.5144C18.2892 17.0464 17.995 17.5951 17.6838 18.0863C17.2446 18.7796 16.7199 19.4472 16.0156 19.9252C13.623 21.549 10.6581 21.1264 9.06767 18.9635Z" fill="white"/>
</svg>
