<svg width="16" height="16" viewBox="0 0 16 16" fill="none" xmlns="http://www.w3.org/2000/svg">
  <path fill-rule="evenodd"
    clip-rule="evenodd"
    d="M7.36612 1.63086C3.99866 1.63086 1.2688 4.30043 1.2688 7.59352C1.2688 10.8866 3.99866 13.5562 7.36612 13.5562C8.80637 13.5562 10.13 13.0678 11.1733 12.2513L13.1551 14.1843L13.2079 14.2287C13.3919 14.3618 13.6527 14.3467 13.8192 14.1834C14.0024 14.0039 14.002 13.7131 13.8183 13.534L11.8598 11.6237C12.8556 10.5625 13.4634 9.1474 13.4634 7.59352C13.4634 4.30043 10.7336 1.63086 7.36612 1.63086ZM7.36613 2.54927C10.2149 2.54927 12.5243 4.80765 12.5243 7.59351C12.5243 10.3794 10.2149 12.6378 7.36613 12.6378C4.51736 12.6378 2.20796 10.3794 2.20796 7.59351C2.20796 4.80765 4.51736 2.54927 7.36613 2.54927Z"
    fill="#081735"/>
</svg>