<svg width="18" height="19" viewBox="0 0 18 19" fill="none" xmlns="http://www.w3.org/2000/svg">
  <path d="M9 5.55023C9.98134 5.55023 10.9225 5.94006 11.6164 6.63398C12.3103 7.32789 12.7002 8.26904 12.7002 9.25038C12.7002 10.2317 12.3103 11.1729 11.6164 11.8668C10.9225 12.5607 9.98134 12.9505 9 12.9505C8.01866 12.9505 7.07751 12.5607 6.3836 11.8668C5.68968 11.1729 5.29985 10.2317 5.29985 9.25038C5.29985 8.26904 5.68968 7.32789 6.3836 6.63398C7.07751 5.94006 8.01866 5.55023 9 5.55023ZM9 7.4003C8.50933 7.4003 8.03876 7.59522 7.6918 7.94218C7.34484 8.28913 7.14992 8.75971 7.14992 9.25038C7.14992 9.74105 7.34484 10.2116 7.6918 10.5586C8.03876 10.9055 8.50933 11.1005 9 11.1005C9.49067 11.1005 9.96124 10.9055 10.3082 10.5586C10.6552 10.2116 10.8501 9.74105 10.8501 9.25038C10.8501 8.75971 10.6552 8.28913 10.3082 7.94218C9.96124 7.59522 9.49067 7.4003 9 7.4003ZM7.14992 18.5008C6.91866 18.5008 6.72441 18.3343 6.6874 18.1122L6.34514 15.6609C5.76237 15.4296 5.26285 15.1151 4.78183 14.7451L2.47848 15.6794C2.27497 15.7534 2.02521 15.6794 1.91421 15.4759L0.0641343 12.2753C-0.0561206 12.0717 -0.000618205 11.822 0.175139 11.6832L2.12697 10.1477L2.06222 9.25038L2.12697 8.32534L0.175139 6.81753C-0.000618205 6.67877 -0.0561206 6.42901 0.0641343 6.2255L1.91421 3.02487C2.02521 2.82137 2.27497 2.73811 2.47848 2.82137L4.78183 3.7464C5.26285 3.38564 5.76237 3.07113 6.34514 2.83987L6.6874 0.388516C6.72441 0.166507 6.91866 0 7.14992 0H10.8501C11.0813 0 11.2756 0.166507 11.3126 0.388516L11.6549 2.83987C12.2376 3.07113 12.7372 3.38564 13.2182 3.7464L15.5215 2.82137C15.725 2.73811 15.9748 2.82137 16.0858 3.02487L17.9359 6.2255C18.0561 6.42901 18.0006 6.67877 17.8249 6.81753L15.873 8.32534L15.9378 9.25038L15.873 10.1754L17.8249 11.6832C18.0006 11.822 18.0561 12.0717 17.9359 12.2753L16.0858 15.4759C15.9748 15.6794 15.725 15.7626 15.5215 15.6794L13.2182 14.7544C12.7372 15.1151 12.2376 15.4296 11.6549 15.6609L11.3126 18.1122C11.2756 18.3343 11.0813 18.5008 10.8501 18.5008H7.14992ZM8.30622 1.85008L7.96396 4.26442C6.85391 4.49568 5.87337 5.08771 5.16109 5.91099L2.93175 4.94895L2.23797 6.1515L4.1898 7.58531C3.81979 8.6676 3.81979 9.8424 4.1898 10.9154L2.22872 12.3585L2.9225 13.5611L5.17034 12.599C5.88262 13.413 6.85391 14.0051 7.95471 14.2271L8.29697 16.6507H9.70303L10.0453 14.2363C11.1461 14.0051 12.1174 13.413 12.8297 12.599L15.0775 13.5611L15.7713 12.3585L13.8102 10.9247C14.1802 9.8424 14.1802 8.6676 13.8102 7.58531L15.762 6.1515L15.0682 4.94895L12.8389 5.91099C12.1266 5.08771 11.1461 4.49568 10.036 4.27367L9.69378 1.85008H8.30622Z"
    fill="#8F95B2"/>
</svg>