<svg width="20" height="20" viewBox="0 0 20 20" fill="none" xmlns="http://www.w3.org/2000/svg">
<path d="M14.2436 12.1208L13.1831 11.0603L14.2436 9.99976C14.5221 9.72118 14.7431 9.39045 14.8939 9.02646C15.0447 8.66248 15.1223 8.27236 15.1223 7.87838C15.1223 7.48441 15.0447 7.09429 14.8939 6.7303C14.7431 6.36632 14.5221 6.03559 14.2436 5.75701C13.965 5.47843 13.6342 5.25744 13.2703 5.10667C12.9063 4.95591 12.5162 4.87831 12.1222 4.87831C11.7282 4.87831 11.3381 4.95591 10.9741 5.10667C10.6101 5.25744 10.2794 5.47843 10.0008 5.75701L8.9403 6.81751L7.8798 5.75701L8.9403 4.69651C9.78654 3.86395 10.9275 3.3995 12.1146 3.40433C13.3017 3.40917 14.4388 3.88289 15.2782 4.72232C16.1177 5.56174 16.5914 6.69886 16.5962 7.88597C16.6011 9.07309 16.1366 10.214 15.3041 11.0603L14.2436 12.1208ZM12.1218 14.2425L11.0613 15.303C10.6447 15.7265 10.1484 16.0632 9.60095 16.2939C9.05354 16.5246 8.46587 16.6446 7.87184 16.647C7.27781 16.6494 6.68918 16.5342 6.13991 16.308C5.59063 16.0818 5.09158 15.7491 4.67154 15.329C4.25149 14.909 3.91877 14.4099 3.69256 13.8607C3.46635 13.3114 3.35113 12.7228 3.35355 12.1287C3.35597 11.5347 3.47598 10.947 3.70665 10.3996C3.93733 9.85219 4.2741 9.35587 4.69755 8.93926L5.75805 7.87876L6.81855 8.93926L5.75805 9.99976C5.47947 10.2783 5.25849 10.6091 5.10772 10.9731C4.95695 11.337 4.87935 11.7272 4.87935 12.1211C4.87935 12.5151 4.95695 12.9052 5.10772 13.2692C5.25849 13.6332 5.47947 13.9639 5.75805 14.2425C6.03664 14.5211 6.36736 14.7421 6.73135 14.8928C7.09533 15.0436 7.48545 15.1212 7.87943 15.1212C8.2734 15.1212 8.66352 15.0436 9.02751 14.8928C9.39149 14.7421 9.72222 14.5211 10.0008 14.2425L11.0613 13.182L12.1218 14.2425ZM12.1218 6.81751L13.1831 7.87876L7.8798 13.1813L6.81855 12.1208L12.1218 6.81826V6.81751Z" fill="#525866"/>
</svg>
