<svg width="20" height="20" viewBox="0 0 20 20" fill="none" xmlns="http://www.w3.org/2000/svg">
  <path d="M16.875 3.75H15.625C15.5421 3.75002 15.4627 3.78295 15.4041 3.84156L14.375 4.87063L13.75 4.24563V0.9375C13.75 0.85462 13.7171 0.775134 13.6585 0.716529C13.5999 0.657924 13.5204 0.625 13.4375 0.625H12.1875C12.1046 0.625018 12.0252 0.657953 11.9666 0.716562L10.9375 1.74563L9.90844 0.716562C9.84985 0.657953 9.77037 0.625018 9.6875 0.625H8.4375C8.35463 0.625018 8.27515 0.657953 8.21656 0.716562L7.1875 1.74563L6.15844 0.716562C6.09985 0.657953 6.02037 0.625018 5.9375 0.625H4.6875C4.60463 0.625018 4.52515 0.657953 4.46656 0.716562L3.4375 1.74563L2.40844 0.716562C2.34985 0.657953 2.27037 0.625018 2.1875 0.625H0.9375C0.85462 0.625 0.775134 0.657924 0.716529 0.716529C0.657924 0.775134 0.625 0.85462 0.625 0.9375V15.9375C0.625 16.0204 0.657924 16.0999 0.716529 16.1585C0.775134 16.2171 0.85462 16.25 0.9375 16.25H2.1875C2.27037 16.25 2.34985 16.217 2.40844 16.1584L3.4375 15.1294L4.0625 15.7544V19.0625C4.0625 19.1454 4.09542 19.2249 4.15403 19.2835C4.21263 19.3421 4.29212 19.375 4.375 19.375H5.625C5.70787 19.375 5.78735 19.342 5.84594 19.2834L6.875 18.2544L7.90406 19.2834C7.96265 19.342 8.04213 19.375 8.125 19.375H9.375C9.45787 19.375 9.53735 19.342 9.59594 19.2834L10.625 18.2544L11.6541 19.2834C11.7127 19.342 11.7921 19.375 11.875 19.375H13.125C13.2079 19.375 13.2873 19.342 13.3459 19.2834L14.375 18.2544L15.4041 19.2834C15.4627 19.342 15.5421 19.375 15.625 19.375H16.875C16.9579 19.375 17.0374 19.3421 17.096 19.2835C17.1546 19.2249 17.1875 19.1454 17.1875 19.0625V4.0625C17.1875 3.97962 17.1546 3.90013 17.096 3.84153C17.0374 3.78292 16.9579 3.75 16.875 3.75ZM3.21656 14.4666L2.05813 15.625H1.25V1.25H2.05813L3.21656 2.40844C3.27517 2.46702 3.35464 2.49993 3.4375 2.49993C3.52036 2.49993 3.59983 2.46702 3.65844 2.40844L4.81687 1.25H5.80813L6.96656 2.40844C7.02516 2.46702 7.10464 2.49993 7.1875 2.49993C7.27036 2.49993 7.34984 2.46702 7.40844 2.40844L8.56687 1.25H9.55813L10.7166 2.40844C10.7752 2.46702 10.8546 2.49993 10.9375 2.49993C11.0204 2.49993 11.0998 2.46702 11.1584 2.40844L12.3169 1.25H13.125V15.625H12.3169L11.1584 14.4666C11.0998 14.408 11.0204 14.3751 10.9375 14.3751C10.8546 14.3751 10.7752 14.408 10.7166 14.4666L9.55813 15.625H8.56687L7.40844 14.4666C7.34984 14.408 7.27036 14.3751 7.1875 14.3751C7.10464 14.3751 7.02516 14.408 6.96656 14.4666L5.80813 15.625H4.81687L3.65844 14.4666C3.59983 14.408 3.52036 14.3751 3.4375 14.3751C3.35464 14.3751 3.27517 14.408 3.21656 14.4666ZM16.5625 18.75H15.7544L14.5959 17.5916C14.5373 17.533 14.4579 17.5001 14.375 17.5001C14.2921 17.5001 14.2127 17.533 14.1541 17.5916L12.9956 18.75H12.0044L10.8459 17.5916C10.7873 17.533 10.7079 17.5001 10.625 17.5001C10.5421 17.5001 10.4627 17.533 10.4041 17.5916L9.24563 18.75H8.25437L7.09594 17.5916C7.03734 17.533 6.95786 17.5001 6.875 17.5001C6.79214 17.5001 6.71266 17.533 6.65406 17.5916L5.49563 18.75H4.6875V16.25H5.9375C6.02037 16.25 6.09985 16.217 6.15844 16.1584L7.1875 15.1294L8.21656 16.1584C8.27515 16.217 8.35463 16.25 8.4375 16.25H9.6875C9.77037 16.25 9.84985 16.217 9.90844 16.1584L10.9375 15.1294L11.9666 16.1584C12.0252 16.217 12.1046 16.25 12.1875 16.25H13.4375C13.5204 16.25 13.5999 16.2171 13.6585 16.1585C13.7171 16.0999 13.75 16.0204 13.75 15.9375V5.12937L14.1541 5.53344C14.2127 5.59202 14.2921 5.62493 14.375 5.62493C14.4579 5.62493 14.5373 5.59202 14.5959 5.53344L15.7544 4.375H16.5625V18.75Z"
    fill="#8F95B2"/>
  <path d="M4.6875 9.375V6.5625H5.625V5.9375H3.125V6.5625H4.0625V9.375H4.6875Z" fill="#8F95B2"/>
  <path d="M8.4375 9.375V7.5C8.43755 7.45152 8.42631 7.4037 8.40469 7.36031L7.77969 6.11031C7.75373 6.05836 7.71381 6.01468 7.66441 5.98415C7.615 5.95363 7.55807 5.93747 7.5 5.9375H6.875C6.81693 5.93747 6.76 5.95363 6.71059 5.98415C6.66119 6.01468 6.62127 6.05836 6.59531 6.11031L5.97031 7.36031C5.94869 7.4037 5.93745 7.45152 5.9375 7.5V9.375H6.5625V8.4375H7.8125V9.375H8.4375ZM6.5625 7.8125V7.57375L7.06813 6.5625H7.30688L7.8125 7.57375V7.8125H6.5625ZM11.25 6.5625V5.9375H10.625C10.5645 5.93749 10.5054 5.95503 10.4547 5.98797C10.404 6.02092 10.3639 6.06787 10.3394 6.12312L10 6.88688L9.66062 6.12312C9.63608 6.06787 9.59603 6.02092 9.54533 5.98797C9.49463 5.95503 9.43546 5.93749 9.375 5.9375H8.75V6.5625H9.17188L9.65812 7.65625L9.17188 8.75H8.75V9.375H9.375C9.43546 9.37501 9.49463 9.35747 9.54533 9.32453C9.59603 9.29158 9.63608 9.24463 9.66062 9.18937L10 8.42562L10.3394 9.18937C10.3639 9.24463 10.404 9.29158 10.4547 9.32453C10.5054 9.35747 10.5645 9.37501 10.625 9.375H11.25V8.75H10.8281L10.3419 7.65625L10.8281 6.5625H11.25Z"
    fill="#8F95B2"/>
  <path d="M11.875 10H2.5V10.625H11.875V10Z" fill="#8F95B2"/>
  <path d="M11.875 4.6875H2.5V5.3125H11.875V4.6875Z" fill="#8F95B2"/>
</svg>