<svg width="22" height="20" viewBox="0 0 22 20" fill="none" xmlns="http://www.w3.org/2000/svg">
<path d="M10.9998 0.75C15.418 0.75 18.9998 4.33172 18.9998 8.75V10.0137C19.2433 10.1535 19.4257 10.3383 19.5584 10.4902C19.6326 10.5752 19.9013 10.9142 19.905 10.9189C20.361 11.4728 20.7299 11.921 21.0037 12.3096C21.2863 12.7108 21.5006 13.0932 21.6189 13.5264C21.7934 14.1654 21.7934 14.8346 21.6189 15.4736C21.4558 16.0706 21.1272 16.5849 20.7996 17.0137C20.6012 17.2732 20.361 17.5524 20.1492 17.7979C20.0332 17.9322 19.781 18.2324 19.781 18.2324C19.54 18.5265 19.3021 18.8172 18.9851 18.9951C18.6362 19.1909 18.2339 19.2752 17.8367 19.2432C17.479 19.2142 17.1371 19.0577 16.7742 18.8916C16.4179 18.7324 15.5974 18.3651 15.3416 17.6084C15.2486 17.3331 15.2491 17.0385 15.2498 16.7646V12.2354C15.2491 11.9615 15.2486 11.6669 15.3416 11.3916C15.5974 10.6349 16.4179 10.2676 16.7742 10.1084C16.8502 10.0736 16.9253 10.0387 16.9998 10.0059V8.75C16.9998 5.43629 14.3135 2.75 10.9998 2.75C7.68606 2.75 4.99976 5.43629 4.99976 8.75V10.0059C5.07424 10.0387 5.14934 10.0736 5.22535 10.1084C5.58158 10.2676 6.40213 10.6349 6.65797 11.3916C6.75097 11.6669 6.75044 11.9615 6.74976 12.2354V16.7646C6.75044 17.0385 6.75097 17.3331 6.65797 17.6084C6.40213 18.3651 5.58158 18.7324 5.22535 18.8916C4.86244 19.0577 4.52055 19.2142 4.16285 19.2432C3.76563 19.2752 3.36334 19.1909 3.01441 18.9951C2.69745 18.8172 2.45954 18.5265 2.21851 18.2324C2.21851 18.2324 1.96631 17.9322 1.85035 17.7979C1.63851 17.5524 1.39829 17.2732 1.19996 17.0137C0.872305 16.5849 0.543718 16.0706 0.380623 15.4736C0.206133 14.8346 0.206134 14.1654 0.380623 13.5264C0.498952 13.0932 0.713268 12.7108 0.995857 12.3096C1.26959 11.921 1.63849 11.4728 2.09449 10.9189C2.09826 10.9142 2.36695 10.5752 2.44117 10.4902C2.57385 10.3383 2.75626 10.1535 2.99976 10.0137V8.75C2.99976 4.33172 6.58149 0.75 10.9998 0.75Z" fill="white"/>
</svg>
