<svg width="24" height="25" viewBox="0 0 24 25" fill="none" xmlns="http://www.w3.org/2000/svg">
  <path d="M14.2461 12.5996V11.0996H19.6243L17.9046 9.37986L18.9651 8.31936L22.4961 11.8496L18.9651 15.3799L17.9046 14.3194L19.6243 12.5996H14.2461ZM12.7461 9.59961H11.2461V4.97061L9.52634 6.69036L8.46584 5.62986L11.9961 2.09961L15.5263 5.62986L14.4658 6.69036L12.7461 4.97061V9.59961ZM12.7461 15.6754V14.0996C12.7451 13.3043 12.4287 12.5418 11.8663 11.9794C11.3039 11.417 10.5414 11.1006 9.74609 11.0996H4.36709L6.08684 9.37986L5.02634 8.31936L1.49609 11.8496L5.02634 15.3799L6.08684 14.3194L4.36709 12.5996H9.74609C10.1438 12.6 10.5251 12.7582 10.8063 13.0394C11.0875 13.3206 11.2457 13.7019 11.2461 14.0996V15.6754C10.3356 15.8612 9.52648 16.3785 8.9757 17.1271C8.42492 17.8756 8.17168 18.8019 8.26508 19.7265C8.35849 20.6511 8.79188 21.5081 9.48123 22.1313C10.1706 22.7545 11.0668 23.0996 11.9961 23.0996C12.9254 23.0996 13.8216 22.7545 14.511 22.1313C15.2003 21.5081 15.6337 20.6511 15.7271 19.7265C15.8205 18.8019 15.5673 17.8756 15.0165 17.1271C14.4657 16.3785 13.6566 15.8612 12.7461 15.6754ZM11.9961 21.5996C11.5511 21.5996 11.1161 21.4676 10.7461 21.2204C10.376 20.9732 10.0877 20.6218 9.91736 20.2106C9.74707 19.7995 9.70251 19.3471 9.78933 18.9107C9.87614 18.4742 10.0904 18.0733 10.4051 17.7586C10.7198 17.444 11.1207 17.2297 11.5571 17.1428C11.9936 17.056 12.446 17.1006 12.8571 17.2709C13.2683 17.4412 13.6197 17.7296 13.8669 18.0996C14.1141 18.4696 14.2461 18.9046 14.2461 19.3496C14.2455 19.9462 14.0083 20.5181 13.5864 20.9399C13.1646 21.3618 12.5926 21.599 11.9961 21.5996Z"
    fill="#8F95B2"/>
</svg>