<svg width="16" height="16" viewBox="0 0 16 16" fill="none" xmlns="http://www.w3.org/2000/svg">
  <g clip-path="url(#clip0_159_4080)">
    <path d="M2.85725 10.2902C4.11961 10.2902 5.14296 9.26683 5.14296 8.00446C5.14296 6.7421 4.11961 5.71875 2.85725 5.71875C1.59488 5.71875 0.571533 6.7421 0.571533 8.00446C0.571533 9.26683 1.59488 10.2902 2.85725 10.2902Z"
      stroke="black"
      stroke-width="0.714286"
      stroke-linecap="round"
      stroke-linejoin="round"/>
    <path d="M13.1429 5.14565C14.4053 5.14565 15.4286 4.1223 15.4286 2.85993C15.4286 1.59757 14.4053 0.574219 13.1429 0.574219C11.8805 0.574219 10.8572 1.59757 10.8572 2.85993C10.8572 4.1223 11.8805 5.14565 13.1429 5.14565Z"
      stroke="black"
      stroke-width="0.714286"
      stroke-linecap="round"
      stroke-linejoin="round"/>
    <path d="M13.1429 15.4308C14.4053 15.4308 15.4286 14.4075 15.4286 13.1451C15.4286 11.8827 14.4053 10.8594 13.1429 10.8594C11.8805 10.8594 10.8572 11.8827 10.8572 13.1451C10.8572 14.4075 11.8805 15.4308 13.1429 15.4308Z"
      stroke="black"
      stroke-width="0.714286"
      stroke-linecap="round"
      stroke-linejoin="round"/>
    <path d="M4.23999 6.18925L10.9257 3.41211M4.23999 9.82354L10.9257 12.6007"
      stroke="black"
      stroke-width="0.714286"
      stroke-linecap="round"
      stroke-linejoin="round"/>
  </g>
  <defs>
    <clipPath id="clip0_159_4080">
      <rect width="16" height="16" fill="white"/>
    </clipPath>
  </defs>
</svg>