<svg width="24" height="25" viewBox="0 0 24 25" fill="none" xmlns="http://www.w3.org/2000/svg">
  <path d="M20.9961 3.59961H2.99609C2.46566 3.59961 1.95695 3.81032 1.58188 4.1854C1.20681 4.56047 0.996094 5.06918 0.996094 5.59961V8.59961H2.99609V5.59961H20.9961V19.5996H13.9961V21.5996H20.9961C21.5265 21.5996 22.0352 21.3889 22.4103 21.0138C22.7854 20.6388 22.9961 20.13 22.9961 19.5996V5.59961C22.9961 5.06918 22.7854 4.56047 22.4103 4.1854C22.0352 3.81032 21.5265 3.59961 20.9961 3.59961ZM0.996094 18.5996V21.5996H3.99609C3.99609 20.804 3.68002 20.0409 3.11741 19.4783C2.5548 18.9157 1.79174 18.5996 0.996094 18.5996ZM0.996094 14.5996V16.5996C1.6527 16.5996 2.30288 16.7289 2.90951 16.9802C3.51614 17.2315 4.06733 17.5998 4.53163 18.0641C4.99592 18.5284 5.36422 19.0796 5.61549 19.6862C5.86677 20.2928 5.99609 20.943 5.99609 21.5996H7.99609C7.99609 19.7431 7.2586 17.9626 5.94584 16.6499C4.63309 15.3371 2.85261 14.5996 0.996094 14.5996ZM0.996094 10.5996V12.5996C2.17799 12.5996 3.34831 12.8324 4.44024 13.2847C5.53218 13.737 6.52433 14.3999 7.36005 15.2356C8.19578 16.0714 8.85872 17.0635 9.31101 18.1555C9.7633 19.2474 9.99609 20.4177 9.99609 21.5996H11.9961C11.9961 15.5196 7.06609 10.5996 0.996094 10.5996ZM10.9961 11.6896V13.6896L14.4961 15.5996L17.9961 13.6896V11.6896L14.4961 13.5996L10.9961 11.6896ZM14.4961 6.59961L8.99609 9.59961L14.4961 12.5996L19.9961 9.59961L14.4961 6.59961Z"
    fill="#8F95B2"/>
</svg>