<svg width="24" height="24" viewBox="0 0 24 24" fill="none" xmlns="http://www.w3.org/2000/svg">
  <path d="M21.6004 6.04294C20.8943 6.35579 20.1358 6.56719 19.3384 6.66274C20.1519 6.1757 20.7759 5.40279 21.0702 4.48278C20.3092 4.93435 19.4661 5.26243 18.569 5.43831C17.8502 4.67392 16.827 4.19531 15.6939 4.19531C13.5191 4.19531 11.7552 5.95921 11.7552 8.13578C11.7553 8.43742 11.7893 8.7381 11.8566 9.03214C8.58168 8.86721 5.68043 7.29863 3.73727 4.91575C3.39907 5.49921 3.20455 6.1757 3.20455 6.89613C3.20455 8.26258 3.9005 9.46928 4.95661 10.1754C4.33111 10.1554 3.71941 9.98642 3.17242 9.68237V9.7331C3.17242 11.6416 4.5296 13.2339 6.3324 13.5958C5.99412 13.6871 5.64523 13.7331 5.29485 13.7328C5.04604 13.733 4.79776 13.7098 4.55329 13.6634C5.05472 15.2278 6.50915 16.3676 8.23331 16.3981C6.88456 17.4551 5.18579 18.085 3.34069 18.085C3.02275 18.085 2.70903 18.0664 2.40039 18.03C4.14402 19.1488 6.21403 19.7999 8.43792 19.7999C15.6846 19.7999 19.6462 13.7978 19.6462 8.59239C19.6462 8.42329 19.642 8.25245 19.6344 8.08335C20.4039 7.52693 21.0719 6.8344 21.5987 6.04546L21.6004 6.04294Z"
    fill="white"/>
</svg>