<svg width="21" height="20" viewBox="0 0 21 20" fill="none" xmlns="http://www.w3.org/2000/svg">
<g clip-path="url(#clip0_1764_5697)">
<path d="M16.918 14.167H18.5846V15.8337H1.91797V14.167H3.58464V8.33366C3.58464 4.65176 6.5694 1.66699 10.2513 1.66699C13.9332 1.66699 16.918 4.65176 16.918 8.33366V14.167ZM15.2513 14.167V8.33366C15.2513 5.57223 13.0127 3.33366 10.2513 3.33366C7.48988 3.33366 5.2513 5.57223 5.2513 8.33366V14.167H15.2513ZM7.7513 17.5003H12.7513V19.167H7.7513V17.5003Z" fill="#525866"/>
<g filter="url(#filter0_d_1764_5697)">
<path d="M20.25 2C20.25 3.10457 19.3546 4 18.25 4C17.1454 4 16.25 3.10457 16.25 2C16.25 0.89543 17.1454 0 18.25 0C19.3546 0 20.25 0.89543 20.25 2Z" fill="#DF1C41"/>
<path d="M18.25 5C19.9069 5 21.25 3.65685 21.25 2C21.25 0.343146 19.9069 -1 18.25 -1C16.5931 -1 15.25 0.343146 15.25 2C15.25 3.65685 16.5931 5 18.25 5Z" stroke="white" stroke-width="2"/>
</g>
</g>
<defs>
<filter id="filter0_d_1764_5697" x="12.25" y="-3" width="12" height="12" filterUnits="userSpaceOnUse" color-interpolation-filters="sRGB">
<feFlood flood-opacity="0" result="BackgroundImageFix"/>
<feColorMatrix in="SourceAlpha" type="matrix" values="0 0 0 0 0 0 0 0 0 0 0 0 0 0 0 0 0 0 127 0" result="hardAlpha"/>
<feOffset dy="1"/>
<feGaussianBlur stdDeviation="1"/>
<feComposite in2="hardAlpha" operator="out"/>
<feColorMatrix type="matrix" values="0 0 0 0 0.894118 0 0 0 0 0.898039 0 0 0 0 0.905882 0 0 0 0.24 0"/>
<feBlend mode="normal" in2="BackgroundImageFix" result="effect1_dropShadow_1764_5697"/>
<feBlend mode="normal" in="SourceGraphic" in2="effect1_dropShadow_1764_5697" result="shape"/>
</filter>
<clipPath id="clip0_1764_5697">
<rect width="20" height="20" fill="white" transform="translate(0.25)"/>
</clipPath>
</defs>
</svg>
