<svg width="64" height="64" viewBox="0 0 64 64" fill="none" xmlns="http://www.w3.org/2000/svg">
  <path d="M44.3158 9.88011C44.3658 9.57211 44.4877 9.28025 44.6718 9.02828C44.9828 8.61363 45.1225 8.37926 44.7665 8.09983C44.4104 7.82039 43.7433 7.03166 43.7298 6.52236C43.7401 6.61574 43.7288 6.71023 43.6968 6.79854C43.6647 6.88684 43.6128 6.9666 43.545 7.03166C43.4955 7.08155 43.4428 7.12821 43.3873 7.17138C42.8465 7.52743 42.4453 7.31109 41.8729 7.17138C41.6506 7.09538 41.421 7.04251 41.1879 7.01363C40.8949 7.01363 40.6966 7.26151 40.3856 7.33813C39.705 7.5094 39.0335 7.05871 38.3574 6.92349C38.0149 6.84237 37.6769 6.92349 37.3343 6.86039C36.9738 6.73411 36.6266 6.57259 36.2977 6.37815C35.7569 6.17984 34.1929 5.54433 33.7738 6.22489C33.5574 6.58095 33.9135 7.04518 33.7422 7.41476C33.3726 8.208 31.98 7.30659 31.4346 7.248C30.7721 7.1849 30.6639 6.54941 30.1681 6.1618C29.9718 5.99235 29.7456 5.86091 29.5011 5.77419C29.1396 5.74488 28.7764 5.74488 28.4149 5.77419C28.1561 5.80755 27.8931 5.7653 27.6577 5.6525C27.4176 5.56118 27.1891 5.44165 26.9772 5.29644C26.5265 4.84574 27.0538 4.42658 27.2566 4.05701C27.518 3.57926 26.9321 3.49814 27.1304 3.05195C27.1935 2.8942 27.4414 2.69588 27.3197 2.49306C27.198 2.29025 26.9456 2.3849 26.7924 2.37138C26.5874 2.33252 26.3789 2.3159 26.1704 2.32181C25.9721 2.32181 25.7828 2.448 25.598 2.448C25.1473 2.448 24.7777 2.20011 24.3315 2.26321C23.7862 2.33983 23.2318 2.448 22.6729 2.52462C22.1306 2.5944 21.5932 2.69827 21.0639 2.8356C20.3202 3.03391 19.7614 3.49814 19.0177 3.63786C18.3992 3.82046 17.7602 3.92493 17.1157 3.94884C16.5569 3.91729 16.1062 3.56123 15.5653 3.90377C15.2273 4.10208 15.2543 4.27335 15.0876 4.58434C14.8949 4.85806 14.659 5.09857 14.389 5.29644C13.7879 5.66493 13.3545 6.25361 13.1811 6.93701C13.0743 7.29442 12.8948 7.62587 12.6538 7.91054C12.4374 8.18997 12.3157 8.54603 12.0994 8.81195C11.8691 9.05317 11.6205 9.27618 11.3557 9.47898C11.1079 9.72687 10.7969 9.88012 10.5355 10.0965C10.3462 10.2542 10.1929 10.4525 9.99012 10.5922C9.83542 10.6793 9.67591 10.7575 9.51237 10.8266C9.34531 10.9474 9.2081 11.1049 9.11124 11.2869C9.01437 11.4689 8.96041 11.6707 8.95349 11.8767C8.95349 12.5573 8.53885 12.9314 8.13322 13.4272C7.95544 13.6419 7.84838 13.9064 7.82673 14.1843C7.76363 14.5719 7.48419 14.7748 7.37602 15.1128C7.32386 15.2972 7.31502 15.4912 7.35021 15.6796C7.38539 15.8681 7.46364 16.0458 7.57885 16.199C7.72955 16.5051 7.82853 16.8341 7.8718 17.1725C7.96346 17.543 8.01484 17.9223 8.02504 18.3038C8.02476 18.7496 7.90825 19.1877 7.68701 19.5748C7.48107 19.9208 7.32909 20.2962 7.23631 20.688C7.15518 21.0441 7.28138 21.1658 7.43462 21.4767C7.56527 21.78 7.58755 22.119 7.49772 22.4367C7.40307 22.919 7.59237 23.0857 7.94843 23.4148C8.11969 23.568 8.30447 23.7077 8.47574 23.8655C8.64701 24.0232 8.80025 24.2531 8.98504 24.4198C9.24828 24.6373 9.48299 24.8872 9.68363 25.1635C9.89996 25.5196 9.77828 25.9252 10.0712 26.2497C10.3778 26.5078 10.7231 26.7162 11.0943 26.8672C11.3838 27.0213 11.6207 27.2583 11.7749 27.5477C11.9701 27.8228 12.1987 28.0726 12.4555 28.2914C13.0414 28.8503 13.447 29.5759 14.389 29.3911C14.7566 29.285 15.1061 29.1239 15.4256 28.9134C15.7419 28.7083 16.1045 28.5859 16.4803 28.5573C17.0842 28.5257 17.625 28.9584 18.229 28.8322C18.9184 28.6802 19.5809 28.4249 20.1941 28.075C20.9242 27.7055 21.6814 27.3629 22.5512 27.5793C23.3084 27.7641 23.074 28.8052 23.7276 29.1612C24.0583 29.347 24.43 29.4477 24.8093 29.4542C25.1267 29.4179 25.4482 29.444 25.7557 29.5308C25.9285 29.6266 26.0717 29.7681 26.1694 29.9398C26.2672 30.1115 26.3159 30.3068 26.3101 30.5043C26.3417 30.91 26.4498 31.3246 26.4498 31.7438C26.4076 32.0991 26.3197 32.4475 26.1884 32.7804C26.1417 33.1056 26.0694 33.4266 25.9721 33.7404C25.8381 33.9753 25.7828 34.247 25.8143 34.5156C25.8895 34.7797 26.0051 35.0305 26.1569 35.2593C26.3303 35.4867 26.5334 35.6898 26.7608 35.8632C26.9821 36.0829 27.1841 36.3212 27.3648 36.5753C27.8441 37.2055 28.2254 37.9045 28.496 38.6486C28.5862 39.0362 28.5276 39.4418 28.6493 39.8249C28.7607 40.1277 28.9123 40.4142 29.1 40.6767C29.2635 40.9138 29.3659 41.1876 29.3982 41.4738C29.4304 41.76 29.3914 42.0498 29.2848 42.3173C29.2243 42.5397 29.1079 42.7429 28.9467 42.9077C28.7439 43.1872 28.5456 43.4801 28.3428 43.7731C28.0634 44.1607 28.1264 44.6114 28.0814 45.0621C28.0183 45.6796 27.6622 46.2519 27.6622 46.8874C27.6622 47.7077 28.1895 48.3567 28.6042 49.0238C28.8446 49.3998 29.1192 49.7529 29.4245 50.0784C29.7028 50.3087 29.895 50.6264 29.9698 50.9798C30.078 51.71 29.7039 52.3725 29.7219 53.0846C29.7756 53.4061 29.8695 53.7195 30.0014 54.0176C30.1506 54.7198 30.4108 55.3938 30.7721 56.0142C31.2228 56.7083 31.7817 57.3122 32.1242 58.0874C32.309 58.5381 32.9445 59.1872 32.5118 59.6829C32.291 59.9443 31.9845 60.0841 32.1828 60.4717C32.3383 60.6694 32.5415 60.8245 32.7732 60.9224C32.9521 61.04 33.1182 61.176 33.269 61.328C33.7197 61.6841 34.2741 61.2469 34.7383 61.0486C35.4684 60.7376 36.3203 61.1702 37.0774 60.9719C37.3388 60.9088 37.5867 60.7691 37.8662 60.6925C38.5534 60.5559 39.1654 60.1687 39.5834 59.6063C39.7335 59.306 39.863 58.9958 39.971 58.6779C40.1551 58.4022 40.3748 58.1522 40.6245 57.9342C41.0752 57.4565 41.6746 57.177 42.0622 56.6362C42.2738 56.2978 42.4262 55.9259 42.5129 55.5364C42.6031 55.2255 42.7428 54.946 42.8194 54.635C42.9907 53.9364 43.0673 53.3641 43.7208 53.0396C44.2932 52.7736 44.8341 52.6204 44.8521 51.9083C44.8701 51.1962 44.4329 50.4525 44.6673 49.7719C44.8341 49.2897 45.3163 48.9021 45.6273 48.501C45.8935 48.114 46.2225 47.7743 46.6008 47.4959C47.1803 47.0975 47.6789 46.5928 48.0701 46.0086C48.2355 45.8105 48.389 45.6028 48.5298 45.3866C48.6635 45.1191 48.7518 44.8312 48.7912 44.5348C48.8544 43.9837 48.8544 43.4272 48.7912 42.8762C48.8243 42.575 48.8076 42.2705 48.7417 41.9748C48.62 41.6818 48.2188 41.6187 48.0611 41.2942C47.9685 41.0551 47.9064 40.8052 47.8763 40.5505C47.8247 40.0028 47.8505 39.4505 47.9529 38.91C48.0295 38.4007 47.6735 37.9364 47.7546 37.4091C47.9044 36.9012 48.1341 36.4205 48.4352 35.9849C48.6966 35.4891 48.9625 34.9798 49.2104 34.4841C49.3795 34.0624 49.6505 33.6892 49.9991 33.3979C50.3338 33.1657 50.6489 32.9064 50.9411 32.6226C51.3809 32.0372 51.8793 31.4981 52.4284 31.0136C53.109 30.6306 53.7188 30.1337 54.2312 29.5443C54.4296 29.2649 54.6008 28.9855 54.7856 28.6925C54.9044 28.5372 55.0085 28.3713 55.0966 28.1967C55.1597 28.0255 55.1417 27.8407 55.1912 27.6694C55.3818 27.2086 55.6094 26.7639 55.8718 26.3398C56.206 25.5674 56.41 24.745 56.4757 23.906C56.5343 23.4914 56.4757 22.5539 55.8087 22.9641C55.5743 23.0857 55.4662 23.3336 55.2363 23.4734C54.9978 23.5819 54.7361 23.6299 54.4746 23.6131C53.4876 23.6131 52.6042 23.906 51.6442 23.9872C51.3963 24.0142 51.2701 24.0773 51.0853 23.9376C50.9163 23.8074 50.7648 23.6559 50.6346 23.4869C50.3417 23.0677 50.265 22.5134 49.9856 22.0626C49.7796 21.6767 49.5414 21.3088 49.2735 20.9629C48.9455 20.6752 48.5926 20.4173 48.2188 20.1922C47.9614 20.0537 47.7559 19.8355 47.6329 19.5703C47.385 18.8581 47.5067 18.2407 46.7811 17.8215C46.478 17.6768 46.2161 17.4583 46.0194 17.186C45.8797 16.875 46.0194 16.519 45.9879 16.181C45.8803 15.8137 45.7416 15.4564 45.5732 15.1128C45.5085 14.7704 45.3768 14.4441 45.1856 14.1528C45.0008 13.9184 44.798 13.7021 44.6132 13.4542C44.2945 12.9647 44.0443 12.434 43.8695 11.8767C43.6667 11.381 43.6983 10.8987 43.3287 10.466C42.8847 10.012 42.5381 9.47219 42.3101 8.87955C42.2335 8.63166 42.265 8.3387 42.576 8.37025C42.887 8.4018 42.9456 8.68124 43.0267 8.89758C43.1079 9.11392 43.2881 9.46998 43.4414 9.73139C43.6442 10.1055 43.7208 9.96575 44.0183 9.8711C44.1072 9.83947 44.2043 9.83947 44.2932 9.8711L44.3158 9.88011ZM54.1501 44.4852C54.0696 44.8002 53.9232 45.0945 53.7204 45.3485C53.5176 45.6026 53.2631 45.8107 52.9738 45.959C52.4464 46.2069 51.7794 46.297 51.3602 46.7793C51.1804 47.0436 51.0562 47.3417 50.995 47.6554C50.9338 47.9692 50.9369 48.2921 51.0042 48.6046C51.0988 49.1635 51.1935 49.781 50.8194 50.2632C50.558 50.6012 50.1073 51.0655 50.247 51.5297C50.3236 51.7776 50.4814 51.9173 50.5084 52.1967C50.5355 52.4762 50.5084 52.679 50.54 52.9088C50.5671 53.1303 50.6597 53.3386 50.8058 53.5072C50.9519 53.6758 51.1449 53.797 51.3602 53.8553C51.9056 53.9455 52.4284 54.0401 52.8656 53.621C53.3028 53.2018 53.3614 52.4762 53.5281 51.8722C53.6228 51.5297 53.7174 51.2052 53.8076 50.8356C53.8868 50.4806 54.0238 50.141 54.2132 49.8305C54.6279 49.177 54.691 48.4784 55.0019 47.7843C55.4177 46.8981 55.6243 45.9282 55.6059 44.9494C55.5914 44.5983 55.5119 44.2529 55.3715 43.9308C55.2634 43.6334 55.0921 42.9708 54.736 43.2503C54.44 43.6061 54.2385 44.0308 54.1501 44.4852Z"
    fill="white"/>
</svg>