<svg width="65" height="64" viewBox="0 0 65 64" fill="none" xmlns="http://www.w3.org/2000/svg">
  <g clip-path="url(#clip0_764_3623)">
    <path d="M45.6194 12.2667L46.8591 12.3442L46.4676 13.2488L44.7386 13.5072L44.5428 12.6027L45.6194 12.2667ZM41.9003 38.7307L42.2918 38.0846L42.2592 37.9554L39.9103 36.4306L39.5188 36.6373L38.7033 35.8103L37.9529 35.862L39.7472 34.2597L41.6067 33.3552L41.5415 32.1147L40.889 32.063V32.0372L40.8564 31.9596L41.2152 31.3394V30.8483L40.0734 30.745L39.8777 29.6854L39.1274 29.246H37.5941L37.7572 28.3415L37.431 27.7212L38.0182 26.1448L37.2026 25.4212L37.1373 24.6975L35.5062 24.6458L35.18 22.7334L33.875 22.5267L32.668 21.8289L31.3957 21.6738L30.417 20.6659L30.3843 19.5546L29.2099 19.7097L27.6114 20.5367L26.3717 20.5108L25.3604 20.5625L25.4582 19.3479L24.8058 19.7355L23.8271 19.7872L22.0654 17.9006L22.9463 17.0219L23.142 16.0657L25.1973 15.3162L26.0128 15.3679L26.5022 13.2229L25.915 12.2667L26.1107 10.8453H27.7419L28.5574 10.561L28.9815 11.2071L30.2539 11.6464L31.6566 10.9487L32.407 10.3026L31.7219 10.2509L31.1673 9.11375L34.136 8.907L34.919 8.18338L35.6693 8.26091L36.0934 9.1396L35.6367 10.0958L35.8977 10.7161L36.8111 11.2329L38.4423 10.6127L39.0621 10.6644L39.5515 10.225L40.8564 10.3801L42.4549 10.4835L43.6946 9.06207L44.2818 9.19128L44.6733 10.4835L45.4236 10.8711L45.4889 12.1375L43.9882 12.4993L44.7059 13.5072L46.0761 13.6364L47.5441 12.551L50.1866 13.1712L50.5129 14.205L51.4589 13.869L53.4489 14.36L55.0149 14.3083L56.4829 14.9544L57.7552 15.8848L59.3211 16.0657L60.0388 17.6163L59.5495 19.167L58.0162 20.3816L56.907 21.8289L56.0262 22.2941L56.124 24.3357L55.8631 25.7571L55.3737 26.1706L55.3085 27.101L53.9709 28.8067L54.0688 29.1427L53.0248 29.9438H50.8065L48.2945 31.0034L47.4463 31.5461L46.6633 32.4507L46.8591 33.5619L46.5328 34.4923L45.5215 35.2418L45.0322 36.0946L44.1513 35.8879L43.923 36.6373L43.1726 37.1801L42.7812 38.343L42.0634 38.8857L41.9003 38.8082V38.7307Z"
      fill="white"
      stroke="white"
      stroke-width="0.233725"/>
    <path d="M34.7558 3.86691L34.6905 4.38379L34.2338 4.28041L34.0381 3.94445L34.7558 3.86691Z"
      fill="white"
      stroke="white"
      stroke-width="0.233725"/>
    <path d="M22.751 57.2864L23.8928 57.7516L23.2077 58.1134L22.2943 57.3639L22.751 57.2864ZM21.0872 51.7042L21.6092 52.5312L21.6418 53.7975L20.5326 53.4874L21.2177 53.1256L20.5 52.7379L20.5652 51.9626L21.0872 51.7042ZM22.5553 46.5613L22.3595 47.4916L21.3482 47.7501L21.8702 47.1557L22.0333 46.1478L22.5553 46.5613ZM27.2856 56.5369V58.7853H27.2204L27.2856 58.8112V58.8887L26.0133 58.7853L25.4261 59.2247L24.7084 58.2426L25.524 57.519L25.6545 58.2943L26.9594 58.4235L25.9155 58.0617L25.5566 56.9246L26.5353 56.356L27.2856 56.5369ZM25.5892 26.2739L26.0133 26.1964L26.4374 25.6278L26.9594 26.765L27.4814 27.1526L27.1551 27.9279L27.7097 28.5999L28.0033 29.8404H28.6884L28.5579 30.7966L27.3509 31.4168L27.6119 33.1484L27.1225 33.3293L26.3069 34.3889L25.3935 37.0249L26.1764 38.5755L25.5892 40.1003V40.9015L24.9694 41.2633L24.8063 42.3229L25.1325 43.2016L24.6105 43.4083L24.0886 45.0365L24.2843 46.277L23.8928 47.1298L24.3495 47.9827L23.9907 48.758L24.7084 49.2748L24.1212 51.1356L23.5013 51.8075L23.7623 52.221L22.49 53.4098L22.8815 54.6245L23.7297 54.5211L23.5992 55.4257L24.1212 55.865L26.0133 55.8908L27.4814 56.2527L26.7963 56.0976L25.263 56.6403L24.9694 57.7516L22.8815 57.1572L23.0772 56.7437L21.968 56.6145L21.7071 56.0201L22.3921 56.1234L22.229 55.1414L21.0546 54.6503L21.8376 54.3144L21.7071 52.4795L21.3808 51.6008L21.8376 50.6963L20.7284 50.567L21.6744 49.4041L22.0985 49.9726L22.8489 49.2748L22.6858 48.8614L21.7071 48.8097L22.229 47.8534L22.49 48.758L23.5666 46.2511L23.1099 45.7343L22.3269 45.9669L22.1638 45.2691L22.8162 43.9252L22.4248 42.3487L22.8489 41.8577L23.4035 40.4621L23.7949 40.0745L24.6105 37.7227L24.3822 35.9136L24.7084 35.6552L24.48 34.8282L25.0999 33.7428L25.524 31.9079L25.3935 30.073L25.9155 28.7291L25.5892 26.2739ZM28.6558 58.9921L29.3409 59.3022L27.3182 59.173L28.8189 60L28.1012 59.9742L27.1225 59.2247L26.1764 59.4573L26.0459 59.0696L28.4274 58.9404H28.5906L28.6558 58.9921Z"
      fill="white"
      stroke="white"
      stroke-width="0.233725"/>
    <path d="M17.4326 11.0523L17.5305 10.4837L18.3787 10.0702L19.0964 9.21735L18.868 8.72632V7.12401L18.3134 6.63298L19.0312 6.09026L18.8354 5.5217L19.2269 5.62507L20.5318 4.92729L20.6297 4.07445L21.9999 3.4542L22.7828 3.50589L24.5119 2.6272L24.675 3.06654L24.0551 3.22161L23.1417 4.17782L23.0438 5.05651L23.6636 5.75429L23.9246 6.73635L25.8494 6.81389L26.5019 7.48582L28.394 7.40829L28.0352 8.70048L28.5898 9.52748L28.0678 9.94098L28.6876 10.3286L28.9812 11.2073L28.5571 10.5612L27.7415 10.8455H26.1104L25.9146 12.2669L26.5019 13.2231L26.0125 15.3682L25.2622 15.0322L25.9146 14.2052L24.9686 13.8175L23.6636 14.0243L22.8807 13.8434L22.4566 13.0939L20.8581 12.2152L19.8794 11.8017L18.7375 11.6467L17.4326 11.0523Z"
      fill="white"
      stroke="white"
      stroke-width="0.233725"/>
    <path d="M27.2849 58.8109L27.3501 58.8884H27.2849V58.8109ZM40.8887 32.0626L41.5412 32.1143L41.6065 33.3548L39.7469 34.2593L37.9527 35.8617L37.3981 37.3089V37.7741L37.0392 39.3506L38.442 40.3585L38.181 40.7203L38.8661 41.6248L37.9853 42.7361L36.5499 43.2013L34.8208 43.4597L33.6464 43.408L33.3854 45.1654L31.95 45.4238L30.906 45.0103L30.7429 46.1475L31.1997 46.5868L32.0152 46.2767L32.1457 46.8969L31.3628 46.6643V47.1037L30.4819 47.7498L30.221 49.0161L29.6337 48.9903L28.5572 49.5847L28.2636 50.1016L29.0791 50.9286L29.8621 50.9802V51.9365L28.3288 52.8927L28.0026 53.8489L27.0565 54.1849L26.7629 54.8568L27.4806 56.2524L26.0126 55.8906L24.1204 55.8647L23.5984 55.4254L23.7289 54.5208L22.8807 54.6242L22.4893 53.4096L23.7616 52.2207L23.5006 51.8072L24.1204 51.1353L24.7076 49.2746L23.9899 48.7577L24.3488 47.9824L23.8921 47.1295L24.2835 46.2767L24.0878 45.0362L24.6098 43.408L25.1317 43.2013L24.8055 42.3226L24.9686 41.263L25.5885 40.9012V40.1L26.1757 38.5752L25.3927 37.0246L26.3062 34.3886L27.1218 33.329L27.6111 33.1481L27.3501 31.4165L28.5572 30.7963L28.6877 29.8401L29.6011 29.0131L31.1997 29.349L31.4606 29.8918L31.8521 29.194L33.0918 29.3749L34.6903 30.6412L35.6038 30.7963L38.0179 31.9593L37.0066 33.484L39.7469 33.5874L40.693 32.9413L40.8887 32.0626ZM27.2849 58.7851V56.5366L27.4806 57.2344L28.5898 58.0097L29.9926 58.6558L31.1997 58.9143L29.3075 59.0693L28.655 58.9918L28.4267 58.9401L27.2849 58.7851Z"
      fill="white"
      stroke="white"
      stroke-width="0.233725"/>
    <path d="M20.8593 12.2144L22.4578 13.0931L22.8819 13.8426L23.6649 14.0235L24.9698 13.8168L25.9159 14.2044L25.2634 15.0314L26.0137 15.3674L25.1982 15.3157L23.1429 16.0652L22.9472 17.0214L22.0663 17.9001L23.828 19.7867L24.8067 19.735L25.4591 19.3473L25.3613 20.562L26.3726 20.5103L27.2534 21.7249L26.8293 22.6295L27.0577 23.0171L26.5683 24.0767L25.9485 24.3093L26.8293 24.6194L26.8946 24.5936L26.9598 24.6194L26.8293 24.8262L26.8946 24.8779L26.3073 25.4464L26.4378 25.6273L26.0137 26.1959L25.5896 26.2734L24.5131 25.4464L20.9571 23.9475L19.8806 22.9396L19.9458 22.371L18.5756 20.7946L17.2707 18.4169L16.3246 17.3315L15.2155 16.7888L15.085 15.3674L15.9658 14.7213L15.8027 15.264L17.2055 15.9618L17.8906 14.7213L19.4891 14.101L20.5657 13.3257L20.8593 12.2144Z"
      fill="white"
      stroke="white"
      stroke-width="0.233725"/>
    <path d="M35.6364 5.59946L36.5172 6.03881L38.3767 7.5119L38.3115 7.95124L37.5285 8.95915L39.0618 10.6648L38.442 10.6131L36.8108 11.2334L35.8974 10.7165L35.6364 10.0963L36.0931 9.14006L35.669 8.26137L34.9187 8.18384L34.2988 7.64112L34.4619 7.15009L35.3754 6.71074L35.147 6.19387L35.6364 5.59946Z"
      fill="white"
      stroke="white"
      stroke-width="0.233725"/>
    <path d="M42.2597 37.9548L41.803 38.3425L41.9009 38.7301V38.8077L42.064 38.8852L41.6725 39.4538L40.5307 39.9189H39.3563L37.7251 39.5054L37.2031 39.0661L37.3989 37.7739V37.3087L37.9535 35.8615L38.7038 35.8098L39.5194 36.6368L39.9109 36.43L42.2597 37.9548Z"
      fill="white"
      stroke="white"
      stroke-width="0.233725"/>
    <path d="M26.8286 24.6195V24.4903L26.9591 24.6195L26.8939 24.5936L26.8286 24.6195ZM26.4371 25.6274L26.3066 25.4465L26.8939 24.8779L27.3506 24.697L26.5676 24.0768L27.057 23.0172L26.8286 22.6295L27.2527 21.725L26.3719 20.5103L27.6116 20.5362L29.2101 19.7092L30.3845 19.5541L30.4172 20.6654L31.3959 21.6733L32.6682 21.8284L33.8752 22.5261L35.1802 22.7329L35.5064 24.6453L37.1375 24.697L37.2028 25.4206L38.0184 26.1443L37.4312 27.7207L36.5177 27.0229L33.9405 27.3072L33.4511 28.0309L33.0923 29.3747L31.8526 29.1938L31.4611 29.8916L31.2001 29.3489L29.6016 29.0129L28.6881 29.8399H28.003L27.7094 28.5994L27.1548 27.9275L27.4811 27.1522L26.9591 26.7645L26.4371 25.6274Z"
      fill="white"
      stroke="white"
      stroke-width="0.233725"/>
    <path d="M40.8569 10.3798L39.5519 10.2247L39.0626 10.6641L37.5293 8.95838L38.3123 7.95047L38.6059 7.56281L41.4441 7.69203L41.281 8.07969L40.9874 8.41566L41.4441 9.50109L40.8569 10.3798Z"
      fill="white"
      stroke="white"
      stroke-width="0.233725"/>
    <path d="M41.2159 30.8485L41.0855 31.1586L40.8571 31.9597L40.8897 32.0373V32.0631L40.694 32.9418L39.7479 33.5879L37.0076 33.4845L38.0189 31.9597L35.6048 30.7968L34.6913 30.6417L33.0928 29.3754L33.4516 28.0315L33.941 27.3079L36.5182 27.0236L37.4317 27.7214L37.7579 28.3416L37.5948 29.2461H39.1281L39.8784 29.6855L40.0741 30.7451L41.2159 30.8485Z"
      fill="white"
      stroke="white"
      stroke-width="0.233725"/>
    <path d="M15.9657 14.7224L16.5203 14.1797L15.4111 13.9212V12.965L16.2267 12.1122L16.1941 11.5953L17.4338 11.0526L18.7387 11.647L19.8805 11.802L20.8592 12.2155L20.5656 13.3268L19.489 14.1021L17.8905 14.7224L17.2054 15.9629L15.8026 15.2651L15.9657 14.7224Z"
      fill="white"
      stroke="white"
      stroke-width="0.233725"/>
    <path d="M24.6751 3.06539L24.1205 3.24629L24.4467 3.94407L23.9248 4.64186L24.512 5.23626L24.9687 4.69354L24.4467 3.86654L25.8169 3.37551H27.0566L27.97 4.15082L29.5686 3.99576L31.0366 4.43511L31.8522 4.02161L33.0266 3.91823L33.4834 4.46095L34.8862 4.97782L34.7883 5.33964L35.6365 5.59807L35.1472 6.19248L35.3755 6.70935L34.4621 7.1487L34.2989 7.63973L34.9188 8.18245L34.1358 8.90607L31.1671 9.11282L31.7217 10.2499L32.4068 10.3016L31.6565 10.9477L30.2537 11.6455L28.9814 11.2062L28.6878 10.3275L28.0679 9.93982L28.5899 9.52632L28.0353 8.69932L28.3941 7.40714L26.502 7.48467L25.8495 6.81273L23.9248 6.7352L23.6638 5.75314L23.0439 5.05536L23.1418 4.17667L24.0553 3.22045L24.6751 3.06539Z"
      fill="white"
      stroke="white"
      stroke-width="0.233725"/>
  </g>
  <defs>
    <clipPath id="clip0_764_3623">
      <rect width="64" height="64" fill="white" transform="translate(0.713867)"/>
    </clipPath>
  </defs>
</svg>