<svg width="65" height="64" viewBox="0 0 65 64" fill="none" xmlns="http://www.w3.org/2000/svg">
<g clip-path="url(#clip0_764_3670)">
<path d="M60.4386 21.5995L60.4686 21.5095L60.7087 21.6895L60.5887 21.7495L60.4386 21.5995ZM53.2375 33.2413L52.6374 33.5714L51.6772 33.4214L52.9674 31.9211L54.6777 31.6811L55.7279 31.8611L57.1081 29.7908L56.8381 30.4809L57.9782 30.1509L58.1883 29.4007L59.0284 29.1607L59.5385 27.9305L59.3285 27.3904L59.8385 25.8902L60.1686 26.3402L60.7687 26.0102L61.3388 27.8405L60.4986 28.9207L60.4686 29.9408L60.0186 31.081L60.2886 31.6211L59.4785 32.4312L59.3585 31.8311L57.9482 32.6412L56.448 32.7613L56.7781 33.0913L55.9379 33.7814L55.1278 33.4814L55.4278 32.7013L53.9276 32.8513L53.2375 33.2113L53.7476 33.3914L54.3477 32.8513L54.7677 33.0613L54.3477 34.1115L53.9576 33.8114L52.9074 34.6216L52.6674 33.9014L53.2375 33.2413ZM50.087 34.1715L49.877 33.2713L50.477 34.0515L51.0471 33.5114L52.1573 33.7814L52.4274 34.4115L51.7973 35.9718L50.8071 36.0918L50.7771 34.5616L50.087 34.1715ZM60.1686 25.3201L59.7185 25.7702L59.4185 24.4199L59.9586 23.6398L60.7987 23.6698L61.2488 21.2994L62.929 22.7997L64.0392 23.2197L64.4293 23.8498L63.2591 24.0899L62.419 25.2001L61.1587 24.4799L59.7785 24.84L60.1686 25.3201Z" fill="white" stroke="white" stroke-width="0.568153"/>
<path d="M31.6337 47.5234L32.4438 46.7433L33.404 46.5933L33.704 47.0133L33.1939 47.9435L32.5338 48.3936L31.6337 48.0935V47.5234ZM14.0209 39.8722L13.9609 39.2421L13.3308 39.3621L11.9505 39.1221L11.4405 39.3321L10.6303 38.942L9.73019 38.0119L9.25012 38.1019L7.95991 36.9917L6.99976 37.1118L4.98944 36.0016L4.65938 34.8314L5.64954 34.6214L5.01944 33.8112L5.13946 33.0011L4.56937 32.7011L4.1493 31.8609L3.75924 31.8909L3.21916 31.7109L2.52905 30.8708L1.23884 30.3007L1.08882 30.2107L1.53889 30.0906L1.44887 28.7704L0.60874 28.7104L0.428711 27.8103L0.728759 27.1802L2.13898 26.5801L2.259 26.9401L3.21916 26.25L4.38934 26.13L4.62938 25.8L6.27964 24.9298L6.81973 23.8797L6.18963 21.8393L8.13994 21.2992L8.80004 19.4389L10.3303 19.859L10.9904 19.589L11.2604 18.0587L12.6107 17.2786L12.7907 17.2486L13.0607 17.1886L13.1807 17.8487L14.1709 18.5388L15.3111 18.9289L15.9412 20.1291L15.7912 21.6593L18.1315 21.9293L19.7818 22.6495L20.6819 24.3597L25.3627 24.5698L25.7227 24.9298L27.223 25.3799L28.5432 25.4099L29.9234 24.8098L32.3538 24.6298L34.5441 23.3096L34.0941 22.4694L34.6042 21.7793L36.0144 22.1694L36.8545 21.4493L37.8747 21.3893L38.6848 20.4291L40.185 19.979L41.4452 20.1291L41.6253 19.769L40.4251 18.5688H39.705H39.645L39.4949 18.7788L38.0247 18.8689L37.7246 18.3888L38.7748 16.4385L39.735 16.7985L41.0252 16.2284L40.9652 15.8084L41.8053 14.2781L42.4054 13.738L41.7453 12.9879L42.4654 12.3578L44.6257 11.9978L46.8161 12.7179L48.9164 16.7685L50.0566 16.8885L51.3468 18.2087L51.5569 18.8989L52.8171 18.8689L54.5273 18.0887L54.8874 18.8689L54.3173 19.3789L54.1073 20.4891L53.1471 21.8093L52.9071 21.5393L52.397 21.6293L51.4668 22.0494L51.7369 22.9195L51.4968 24.2097L51.1068 24.5698L50.4767 24.0897L50.3567 24.6598L48.8864 25.1399L48.9764 25.8L47.6262 25.4699L47.0561 26.28L45.6159 27.1202L43.9056 27.8403L42.7354 28.5604L42.8855 27.8703L43.7556 26.7001L42.7654 26.28L42.1053 27.0302L41.2952 27.3602L40.8451 28.0803L39.735 28.1703L40.005 29.1605H40.6951L41.2352 30.2107L42.3754 29.4905L43.1255 29.9106H44.1157L42.3754 30.9008L41.0252 32.311L41.9553 33.0611L42.4954 34.6814L43.3355 35.4015L43.4856 36.4216L42.5854 36.7817L43.8456 37.4718L43.1255 37.9819L43.1855 38.912L42.5854 39.2421L41.2352 41.1624L41.5052 41.7025L40.6951 41.9725L38.5948 44.0129L37.0645 44.1329L36.5545 44.703L36.0444 43.9228L35.9844 44.763L33.434 45.4831L32.7439 46.5033L32.5938 45.3631L31.4236 45.003L31.0336 45.3631L29.7434 44.5529L29.9234 44.1929L28.6332 43.6228L27.433 44.4029L26.1128 44.1629L25.7827 44.5229L25.2727 44.643L25.4227 45.6931L24.9426 45.3031L24.0725 45.4231L23.8624 44.853L23.1423 44.733L23.4724 43.8928L22.9023 43.7728L22.6623 42.9327L21.7921 43.1727L21.8521 42.0025L22.7523 41.2224L22.7223 39.6322L21.7021 38.732L21.5221 39.0321L20.4719 37.9219L19.7218 38.2219L19.1217 37.9519L17.3514 39.3021L16.4513 39.4521L15.2211 38.882L14.0209 39.8722Z" fill="white" stroke="white" stroke-width="0.568153"/>
<path d="M39.7351 51.1543H39.7051" stroke="url(#paint0_linear_764_3670)" stroke-width="0.568153"/>
<path d="M51.2571 24.8108L50.297 25.591L50.357 26.3711L48.4067 27.5113L48.3466 28.1114L49.1568 28.6814L48.1066 29.0115L47.6565 29.4916L46.6964 29.2815L46.4863 29.6416L45.9763 28.7715L46.5764 27.9613L45.6162 27.1212L47.0564 26.2811L47.6265 25.4709L48.9767 25.801L48.8867 25.1409L50.357 24.6608L50.477 24.0907L51.1071 24.5708L51.1971 24.6908L51.2571 24.8108Z" fill="white" stroke="white" stroke-width="0.568153"/>
<path d="M47.6561 29.4909L48.1061 29.0108L49.1563 28.6807L50.0264 30.0609L50.1465 31.8312L49.3963 32.6414L48.8863 32.4313L48.3762 32.9414L47.416 32.7614L47.6561 29.4909Z" fill="white" stroke="white" stroke-width="0.568153"/>
<path d="M39.4948 18.7801L39.8248 18.6901L39.7048 18.57H40.4249L41.6251 19.7702L41.4451 20.1303L40.1849 19.9803L38.6846 20.4303L37.8745 21.3905L36.8543 21.4505L36.0142 22.1706L34.604 21.7806L34.0939 22.4707L34.544 23.3108L32.3536 24.631L29.9232 24.811L28.543 25.4111L27.2228 25.3811L25.7226 24.9311L25.3625 24.571L20.6818 24.361L19.7816 22.6507L18.1314 21.9306L15.791 21.6605L15.941 20.1303L15.3109 18.9301L14.1707 18.54L13.1806 17.8499L13.0605 17.1898L17.1112 15.2095L18.7915 15.5696L19.0915 16.1997L21.5519 16.5297L22.392 15.6296L21.942 15.0595L22.9321 13.7393L25.8726 14.6994L25.9326 15.5096L27.1628 16.0796L28.663 15.6896L30.9734 16.3197L31.5135 17.0098L33.4638 17.2198L35.5341 16.7097L36.6443 15.8996L37.6045 16.3497L38.7746 16.4397L37.7245 18.39L38.0245 18.8701L39.4948 18.7801Z" fill="white" stroke="white" stroke-width="0.568153"/>
<path d="M4.14987 31.8619L3.45976 32.252L3.21973 31.7119L3.75981 31.8919L4.14987 31.8619Z" fill="white" stroke="white" stroke-width="0.568153"/>
</g>
<defs>
<linearGradient id="paint0_linear_764_3670" x1="nan" y1="nan" x2="nan" y2="nan" gradientUnits="userSpaceOnUse">
<stop stop-opacity="0"/>
<stop offset="0.5" stop-color="#808080" stop-opacity="0.1"/>
<stop offset="1" stop-color="#808080" stop-opacity="0.1"/>
</linearGradient>
<clipPath id="clip0_764_3670">
<rect width="64" height="64" fill="white" transform="translate(0.428711)"/>
</clipPath>
</defs>
</svg>
