<svg width="65" height="64" viewBox="0 0 65 64" fill="none" xmlns="http://www.w3.org/2000/svg">
<g clip-path="url(#clip0_764_3681)">
<path d="M53.582 61.001H52.2023L51.0348 59.1967L50.0796 56.331L50.1857 55.1635L49.1243 54.4205L52.5207 56.4371L55.6517 55.4288L55.7578 57.6577L55.2802 60.3642L54.5373 59.6743L53.582 61.001ZM52.4146 15.9993L52.8922 18.3343L57.0845 20.6162L57.8806 23.4819L59.791 24.2249L59.8971 25.6577L61.4892 26.6129L62.6036 28.3642L63.8242 28.0458L63.2935 29.3725L64.0895 32.0789L64.1426 34.5731L62.4975 40.729L61.33 41.525L58.7296 46.8318L58.4643 49.6975L55.8109 50.3343L52.9452 51.9794L50.5041 51.5549L50.6102 50.4404L48.3283 52.1917L46.524 51.2895L43.8175 50.7589L42.3316 49.1668L42.1194 47.0441L41.1641 46.195L37.5555 47.1502L38.5638 46.2481L38.0331 45.0806L39.6252 41.9496H38.723L35.8573 45.1336L35.1675 43.2763L33.7346 42.0026L33.5223 40.7821L30.4975 40.0391L28.7993 39.0308L25.4029 39.4023L22.6965 40.4637L20.9983 40.3575L17.7081 42.0026L16.8059 43.3824L11.2338 43.3293L8.73959 45.0806L6.72301 45.3459L4.9187 44.9214L3.32666 43.5947L4.44109 42.2149V39.3492L3.32666 36.855V35.6345L2.05303 33.2995L1.78769 31.9197L0.142578 29.3194L1.04473 28.8948L1.94689 30.4869L2.05303 29.3725L0.88553 27.2497L1.25701 24.0126L4.86563 21.5184L7.67823 20.8816L12.7197 19.2365L14.8955 16.7953L14.6832 15.3625L15.9038 14.3011L16.859 15.787L16.9121 13.6113L18.1857 13.8766L18.2388 12.1254L19.2471 11.1171L21.6351 10.5333L22.1658 9.68423L24.1293 11.2763L26.4643 11.86L25.9867 10.7987L28.4809 6.87162L27.048 6.65935L27.5787 5.70413L29.2238 5.75719L29.2769 7.4023L31.1874 7.19003L31.0812 5.43879L31.9834 6.50015L34.9552 7.4023L37.184 6.65935L37.8739 7.4023L36.2819 9.73729L35.592 11.5947L37.2902 12.9214L41.1641 14.7788L42.7562 16.1055L44.0829 15.6809L45.3565 11.9131L45.2504 7.82685L45.8341 7.03083L46.0995 4.11209L46.8424 4.96117L48.2752 9.73729L48.9651 10.9579L49.8142 10.4272L51.1409 11.6477L51.2471 13.8766L52.4146 15.9993Z" fill="white" stroke="white" stroke-width="1.00487"/>
</g>
<defs>
<clipPath id="clip0_764_3681">
<rect width="64" height="64" fill="white" transform="translate(0.142578)"/>
</clipPath>
</defs>
</svg>
