<svg width="65" height="64" viewBox="0 0 65 64" fill="none" xmlns="http://www.w3.org/2000/svg">
  <g clip-path="url(#clip0_764_3685)">
    <path d="M33.8833 32.6994L34.3498 33.1037L34.0699 33.1348L33.6656 32.9482L33.8833 32.6994ZM33.0437 32.7927L33.1992 32.8549H33.0748L32.8882 32.6683L33.0437 32.7927ZM35.065 32.6372L34.7541 32.7927L34.723 32.6683L34.8784 32.6061L35.065 32.6372ZM32.5461 32.5439L32.7638 32.6994L32.7016 32.8238L32.515 32.7616L32.5461 32.5439ZM33.5101 32.7305L33.4168 32.9793L33.3235 32.8549L33.6034 32.4506L33.5101 32.7305ZM35.1272 31.7354L34.5364 33.0415L33.7278 31.7976L34.7851 31.2067L35.1272 31.7354ZM32.204 32.886L31.6443 32.7616L31.4888 32.7927L30.9912 30.6469L32.5461 29.9006L33.2925 29.0609L32.9815 30.1805L33.6034 30.7713L33.1992 31.2378L33.479 32.3573L32.3284 32.1085L32.204 32.886Z"
      fill="white"
      stroke="white"
      stroke-width="0.588851"/>
    <path d="M28.6277 34.6276L28.3167 34.752L28.3478 34.6898L28.7209 34.5965L28.6277 34.6276ZM26.5752 37.2087H26.9484H27.3837L27.0106 37.3953L26.5752 37.2087ZM30.1203 34.8764L29.9649 36.1514L29.374 36.649L29.0319 37.9551L28.1301 37.0843L27.4148 37.2087L27.0417 36.8978L28.1923 35.2496L29.4673 34.4721L30.1203 34.8764Z"
      fill="white"
      stroke="white"
      stroke-width="0.588851"/>
    <path d="M31.488 32.7929L31.6435 32.7618L32.2032 32.8862L34.0691 34.0368L35.0331 33.3216L36.0905 33.1972L36.4325 33.8503L36.6191 34.0057L36.588 34.0368V34.0679L36.4636 33.9436L36.6502 34.3167L36.5258 35.3741L37.0234 35.7161L37.1789 37.8308L35.0331 38.3905L34.9087 39.168L36.246 40.3497L35.2508 41.0961L35.5307 41.8424L34.7222 41.5936L33.6337 41.9668L32.452 41.7802L31.8612 41.4692L31.9855 41.6247L31.3014 41.718H30.4928L31.0526 40.1009L29.3422 39.5101L29.4977 39.1058L29.1556 38.7326L29.3733 38.4838L29.0312 37.9552L29.3733 36.6491L29.9642 36.1515L30.1197 34.8765L30.2752 34.2856L31.3947 34.5033L31.799 34.0679L31.488 32.7929Z"
      fill="white"/>
    <path d="M31.9855 41.6247V41.6558M31.9855 41.6247L31.8612 41.4692L32.452 41.7802L33.6337 41.9668L34.7222 41.5936L35.5307 41.8424L35.2508 41.0961L36.246 40.3497L34.9087 39.168L35.0331 38.3905L37.1789 37.8308L37.0234 35.7161L36.5258 35.3741L36.6502 34.3167L36.4636 33.9436L36.588 34.0679V34.0368L36.6191 34.0057L36.4325 33.8503L36.0905 33.1972L35.0331 33.3216L34.0691 34.0368L32.2032 32.8862L31.6435 32.7618L31.488 32.7929L31.799 34.0679L31.3947 34.5033L30.2752 34.2856L30.1197 34.8765L29.9642 36.1515L29.3733 36.6491L29.0312 37.9552L29.3733 38.4838L29.1556 38.7326L29.4977 39.1058L29.3422 39.5101L31.0526 40.1009L30.4928 41.718H31.3014L31.9855 41.6247Z"
      stroke="white"
      stroke-width="0.588851"/>
    <path d="M29.0322 37.9554L29.3743 38.4841L29.1566 38.7328L28.7834 39.0127L28.8456 39.417L27.3218 38.8883L25.8291 37.5511L26.3889 37.2401L26.5754 37.209L27.0108 37.3956L27.384 37.209L27.4462 37.2712L27.4151 37.209L28.1303 37.0847L29.0322 37.9554Z"
      fill="white"
      stroke="white"
      stroke-width="0.588851"/>
    <path d="M16.8718 22.7487L17.3071 23.153L17.276 23.2773L16.8096 22.9353L16.8718 22.7487Z"
      fill="white"
      stroke="white"
      stroke-width="0.588851"/>
    <path d="M32.2357 47.3468L31.987 48.7773L31.6138 48.5597L31.5205 47.4401L32.2357 47.3468ZM30.4321 46.0718L30.401 46.1029L30.3699 46.134L30.3388 46.1029L30.3077 46.1651L29.126 46.8804L27.1357 46.3517L26.2961 47.0359L26.4205 47.5956L25.8296 47.72L25.332 47.5956H25.3009L25.0832 47.5334V47.409H24.8034L23.4662 47.3157L21.8491 46.5383L22.1289 46.3206L22.5332 43.5218L21.6625 42.3712L20.885 41.8425L19.1747 41.1584L19.1436 40.5675L20.6363 40.2254L21.0094 40.6297L22.2222 40.4742L21.7247 39.1992L23.2796 39.7279L23.6838 39.2303L24.9278 38.6083L24.9589 37.7998L25.8296 37.551L27.3223 38.8882L28.8461 39.4169L29.0016 39.5413L29.3436 39.5102L31.054 40.101L30.4943 41.7181L29.1571 42.8998L29.2504 43.2419L29.3126 43.1486L29.3747 43.1175L29.7479 43.0864V43.3974L29.9656 43.6462L29.5924 44.5791L30.4321 46.0718Z"
      fill="white"
      stroke="white"
      stroke-width="0.588851"/>
    <path d="M16.6556 53.2859L15.194 53.4414L15.4117 52.2286L14.7275 51.6688L15.4739 49.3987L15.4117 48.1237H17.4331L17.7751 48.559L17.091 49.1499L17.0599 51.3268L16.6556 53.2859Z"
      fill="white"
      stroke="white"
      stroke-width="0.588851"/>
    <path d="M20.7909 55.2454L20.822 55.2765L20.7909 55.3076L20.7598 55.2454H20.7909ZM18.5207 54.6235H18.5829L18.5518 54.6857L18.5207 54.6546V54.6235ZM18.5518 54.3747L17.8055 54.2192L17.4945 53.535L16.6549 53.2863L17.0591 51.3271L17.0902 49.1502L17.7744 48.5594L17.4323 48.124H15.411L14.9756 46.7868L16.1884 46.1027L16.7793 46.3514L20.2 46.3825L21.8482 46.538L23.4653 47.3155L24.8025 47.4088L24.8958 47.5954L25.0824 47.5332L25.3001 47.5954V47.5643V47.5332L25.3312 47.5954L25.8287 47.7197L26.4196 47.5954L26.4818 48.124L25.3934 48.8704L24.3982 49.1191L23.1854 50.7984L23.7141 51.607L23.0299 52.0423L22.8433 52.8198L21.9415 53.0997L21.5994 53.7216L19.3915 53.7838L18.5829 54.3747H18.5518Z"
      fill="white"
      stroke="white"
      stroke-width="0.588851"/>
    <path d="M20.5108 27.5056L20.573 27.63L20.4486 27.6611L20.3243 27.5367L20.5108 27.5056ZM20.6352 27.1635L20.6041 27.3812L20.7596 27.4123L20.3864 27.3501L20.6352 27.1635ZM20.8218 27.0703L20.6663 26.9148L21.0395 27.1014L20.9151 27.1947L20.8218 27.0703ZM22.5322 25.5465L22.3145 26.1995L22.2834 25.733L21.9724 25.5776L22.5322 25.5465ZM22.6255 25.1422L22.8121 25.1733L22.4078 25.2666L22.47 24.9867L22.6255 25.1422ZM22.781 24.8934L22.7188 25.08L22.5944 25.0489L22.6255 24.8934H22.781ZM16.9657 29.1849L16.9346 28.4697L17.712 28.0343L17.6187 28.6563L16.9657 29.1849ZM18.5828 54.3742L18.5517 54.4053V54.3742H18.5828ZM16.8102 32.5746L17.712 32.2636L18.3962 33.1032L17.712 33.7874H16.748L15.9395 33.352L16.8102 32.5746ZM17.8986 29.6203L18.8937 27.8788L20.6974 27.8477L19.7334 28.8117L20.2621 29.0916L21.7237 29.1538L21.8791 29.4337L20.573 31.2685L22.0035 31.8904L22.3767 33.1343L23.434 33.7874L23.8072 35.0624L23.4962 35.3112L25.0511 35.4978L24.9578 36.3374L24.1493 37.0527L24.7401 37.488L23.745 37.9545L20.3243 38.11L18.4895 38.6387L19.6712 37.3947H20.6663L19.4535 36.6795L18.5828 36.5862L19.609 36.0886L19.6401 34.9069L20.5419 34.6892L20.8529 33.6941L20.1377 33.2898L20.3554 32.7923L19.4224 32.7612L19.4846 33.4142L18.7694 32.8545L19.2358 32.0148L18.2718 30.8331L17.4011 30.5221L18.1474 30.3355L17.2456 29.4337L17.8986 29.6203Z"
      fill="white"
      stroke="white"
      stroke-width="0.588851"/>
    <path d="M47.753 55.4317L46.3224 55.6494L45.2029 55.2762L45.8249 55.0275L47.753 55.4317ZM48.9658 54.3122L49.5255 54.0634L49.4011 54.4055L49.1213 54.6543L48.9658 54.3122ZM48.5926 53.8768L48.3438 53.8146L48.5615 53.597L48.5304 53.7213L48.5926 53.8768ZM48.3127 53.3793L48.4371 53.4726L48.3438 53.5348L48.3749 53.4415L48.3127 53.3793ZM46.7578 53.5037L47.0688 53.2549L47.0999 53.4726L46.9133 53.8457L46.7578 53.5037ZM47.784 52.8195L47.5353 52.9439L47.4731 52.9128L47.5664 52.7884L47.784 52.8195ZM48.3749 52.664L48.4682 52.7262L48.2194 52.7884L48.0328 52.664H48.3749ZM47.5664 51.7933L47.6286 52.1043L47.4731 52.0421L47.3487 51.7933H47.5664ZM46.9755 50.2384L46.7889 50.2695L46.9755 49.7408H47.1932L46.9755 50.2384ZM42.9017 49.5231L42.8395 49.4298V49.3987L42.9017 49.3365H42.995L43.7102 49.0567L44.6432 48.8079L46.1048 48.5591L46.7889 48.9012L47.784 48.4036L48.0639 48.7457L47.5353 49.4609L46.6023 49.1811L45.3584 49.5231L46.0115 50.0829L44.3944 49.7408L44.3322 50.2073L46.9444 53.0372L45.6072 52.1043L45.7005 52.7573L44.923 52.4463L44.4566 52.8817L44.8919 54.0634L43.6791 53.7835L43.2127 52.1665L41.9688 50.6116L42.3108 50.4561L42.9017 49.5231ZM47.9084 51.078L48.0639 51.2957L47.8773 51.389L47.3487 51.1402L47.8151 51.0158H47.8773L47.9084 51.078Z"
      fill="white"/>
    <path d="M42.9017 49.5231L42.995 49.4298M42.9017 49.5231L42.8395 49.4298V49.3987L42.9017 49.3365H42.995L43.7102 49.0567L44.6432 48.8079L46.1048 48.5591L46.7889 48.9012L47.784 48.4036L48.0639 48.7457L47.5353 49.4609L46.6023 49.1811L45.3584 49.5231L46.0115 50.0829L44.3944 49.7408L44.3322 50.2073L46.9444 53.0372L45.6072 52.1043L45.7005 52.7573L44.923 52.4463L44.4566 52.8817L44.8919 54.0634L43.6791 53.7835L43.2127 52.1665L41.9688 50.6116L42.3108 50.4561L42.9017 49.5231ZM47.753 55.4317L46.3224 55.6494L45.2029 55.2762L45.8249 55.0275L47.753 55.4317ZM48.9658 54.3122L49.5255 54.0634L49.4011 54.4055L49.1213 54.6543L48.9658 54.3122ZM48.5926 53.8768L48.3438 53.8146L48.5615 53.597L48.5304 53.7213L48.5926 53.8768ZM48.3127 53.3793L48.4371 53.4726L48.3438 53.5348L48.3749 53.4415L48.3127 53.3793ZM46.7578 53.5037L47.0688 53.2549L47.0999 53.4726L46.9133 53.8457L46.7578 53.5037ZM47.784 52.8195L47.5353 52.9439L47.4731 52.9128L47.5664 52.7884L47.784 52.8195ZM48.3749 52.664L48.4682 52.7262L48.2194 52.7884L48.0328 52.664H48.3749ZM47.5664 51.7933L47.6286 52.1043L47.4731 52.0421L47.3487 51.7933H47.5664ZM46.9755 50.2384L46.7889 50.2695L46.9755 49.7408H47.1932L46.9755 50.2384ZM47.9084 51.078L48.0639 51.2957L47.8773 51.389L47.3487 51.1402L47.8151 51.0158H47.8773L47.9084 51.078Z"
      stroke="white"
      stroke-width="0.588851"/>
    <path d="M47.4421 50.0828L47.2867 50.145L47.1934 50.1139L47.411 49.9895L47.4421 50.0828ZM49.3391 48.0925L50.3653 48.9321L48.9037 49.1809L48.5928 49.5852L47.5354 49.4608L48.0641 48.7456L47.7842 48.4035L48.4684 47.9992L49.3391 48.0925ZM64.8569 50.6425L64.1106 50.9535L64.2972 52.4462L64.7947 53.3169L62.9289 53.0993L62.5868 53.348L62.4624 53.1304L60.1923 53.7523L58.7618 53.5657L57.3002 53.659L56.6471 54.623L56.7093 53.5657L56.0873 53.9389L55.3721 53.7212L53.755 54.4987L53.0398 53.97L51.8269 53.5968L51.5471 54.281L50.894 54.4054L49.619 53.4102L48.5928 53.0993L48.6239 52.4151L47.722 52.1352L48.4684 51.4822L47.9086 51.0779L47.8153 51.0157L47.5976 50.8602L48.1574 49.834L50.3964 49.8029L50.4586 48.901L52.3245 49.0876L54.2526 48.0614L56.6782 48.3724L58.1398 49.1498L59.8813 49.0565L60.5343 49.2742L61.8094 48.6212L62.9911 48.5279L63.5819 49.0565L63.7996 50.145L64.8258 50.5803L64.8569 50.6425Z"
      fill="white"
      stroke="white"
      stroke-width="0.588851"/>
    <path d="M42.684 10.744L42.4974 10.8684L42.3108 10.7751L42.4974 10.5575L42.684 10.744ZM41.9376 10.8995L41.7199 10.8062L41.5333 10.5264L42.0931 10.744L41.9376 10.8995ZM44.4254 10.3087L44.7364 10.5264L44.2077 10.4642L44.2388 10.3087H44.4254ZM45.1718 9.9044L45.3273 10.1532L44.8297 10.4642L44.5809 10.2465L45.1718 9.9044ZM45.4828 9.74891L45.7626 9.9044L45.4206 10.0599L45.2962 9.78L45.4828 9.74891ZM45.0785 9.53122L44.7986 9.96659L43.9279 10.1221L44.301 9.74891L45.0785 9.53122ZM45.7004 9.25134L45.7315 9.40683L45.5761 9.34464L45.6072 9.22024L45.7004 9.25134ZM47.1931 9.00256L47.4419 9.25134L47.0688 9.37573L46.8511 9.18915L47.1931 9.00256ZM40.4138 11.677L41.0047 11.6459L42.0931 11.0239L42.4352 11.3038L42.4974 11.2727H42.5596L42.5907 11.1794L42.7462 11.0239L42.6529 10.9617L42.8394 10.8995H42.8705L43.4303 10.4331H43.4925V10.4642L43.5547 10.4953L43.5858 10.4331L44.7053 10.5885L46.198 9.62452L47.4108 9.50012L46.6334 10.091L46.6956 10.8062L48.1261 9.34464L47.9706 10.3398L48.9346 9.09585L51.1737 9.74891L52.1688 10.4642L51.3292 10.8062L50.023 10.6507L51.9511 11.2416L51.1426 11.988L50.2096 12.5166L50.5828 11.8325L49.2456 10.8062L47.5041 11.4593L47.162 12.7654L46.4468 13.2941L45.5761 12.8587L44.1767 13.0453L43.4925 12.1434L42.5285 12.5166L41.9376 13.605L40.2583 13.3252L40.0095 14.227L39.4809 14.0093L38.3925 15.0977L38.6412 15.6575L36.8998 17.1191V18.3319L36.0912 19.4203L36.3711 20.2911L35.1894 20.3533L34.5674 21.3484L34.8473 22.7789L34.7229 23.5875L35.376 24.085L34.8162 24.6137L35.0339 25.8265L34.443 26.1686L34.0388 27.3814L33.168 27.0393L31.3332 28.3765L30.4936 28.6875L29.5296 28.5631L28.3167 27.1948L28.721 25.9198L27.7881 24.5204L28.4411 23.8362L27.9436 23.432L28.6277 22.7167L29.9338 22.157L29.8716 21.8771L31.582 21.2551L30.6802 21.1618L31.6131 20.571L32.8259 21.2862L34.0699 20.6021L32.6394 21.0063L32.2973 20.6332L33.8522 19.0783L34.6296 18.674L34.754 18.0831L36.029 15.8441L37.8949 14.5691L37.1485 14.4447L38.6723 13.8227L38.3614 13.5428L39.4187 13.0142L39.0144 12.4855L39.512 11.7081L40.4138 11.677L41.0669 11.2105L41.0358 10.6818L41.44 11.1794L40.4138 11.677ZM51.2048 11.2105L51.0804 11.0861L50.9249 11.3349L51.267 11.2416L51.2048 11.2105ZM36.7443 13.0764L37.7394 12.7654L38.3614 12.0501L38.7967 13.0453L37.926 13.6983L35.8735 14.0715L35.9668 13.7916L37.5839 13.4496L36.7443 13.0764Z"
      fill="white"/>
    <path d="M40.4138 11.677L41.0047 11.6459L42.0931 11.0239L42.4352 11.3038L42.4974 11.2727H42.5596L42.5907 11.1794L42.7462 11.0239L42.6529 10.9617L42.8394 10.8995H42.8705L43.4303 10.4331H43.4925V10.4642L43.5547 10.4953L43.5858 10.4331L44.7053 10.5885L46.198 9.62452L47.4108 9.50012L46.6334 10.091L46.6956 10.8062L48.1261 9.34464L47.9706 10.3398L48.9346 9.09585L51.1737 9.74891L52.1688 10.4642L51.3292 10.8062L50.023 10.6507L51.9511 11.2416L51.1426 11.988L50.2096 12.5166L50.5828 11.8325L49.2456 10.8062L47.5041 11.4593L47.162 12.7654L46.4468 13.2941L45.5761 12.8587L44.1767 13.0453L43.4925 12.1434L42.5285 12.5166L41.9376 13.605L40.2583 13.3252L40.0095 14.227L39.4809 14.0093L38.3925 15.0977L38.6412 15.6575L36.8998 17.1191V18.3319L36.0912 19.4203L36.3711 20.2911L35.1894 20.3533L34.5674 21.3484L34.8473 22.7789L34.7229 23.5875L35.376 24.085L34.8162 24.6137L35.0339 25.8265L34.443 26.1686L34.0388 27.3814L33.168 27.0393L31.3332 28.3765L30.4936 28.6875L29.5296 28.5631L28.3167 27.1948L28.721 25.9198L27.7881 24.5204L28.4411 23.8362L27.9436 23.432L28.6277 22.7167L29.9338 22.157L29.8716 21.8771L31.582 21.2551L30.6802 21.1618L31.6131 20.571L32.8259 21.2862L34.0699 20.6021L32.6394 21.0063L32.2973 20.6332L33.8522 19.0783L34.6296 18.674L34.754 18.0831L36.029 15.8441L37.8949 14.5691L37.1485 14.4447L38.6723 13.8227L38.3614 13.5428L39.4187 13.0142L39.0144 12.4855L39.512 11.7081L40.4138 11.677ZM40.4138 11.677L41.0669 11.2105L41.0358 10.6818L41.44 11.1794L40.4138 11.677ZM42.684 10.744L42.4974 10.8684L42.3108 10.7751L42.4974 10.5575L42.684 10.744ZM41.9376 10.8995L41.7199 10.8062L41.5333 10.5264L42.0931 10.744L41.9376 10.8995ZM44.4254 10.3087L44.7364 10.5264L44.2077 10.4642L44.2388 10.3087H44.4254ZM45.1718 9.9044L45.3273 10.1532L44.8297 10.4642L44.5809 10.2465L45.1718 9.9044ZM45.4828 9.74891L45.7626 9.9044L45.4206 10.0599L45.2962 9.78001L45.4828 9.74891ZM45.0785 9.53122L44.7986 9.96659L43.9279 10.1221L44.301 9.74891L45.0785 9.53122ZM45.7004 9.25134L45.7315 9.40683L45.5761 9.34464L45.6072 9.22024L45.7004 9.25134ZM47.1931 9.00256L47.4419 9.25134L47.0688 9.37573L46.8511 9.18915L47.1931 9.00256ZM51.2048 11.2105L51.0804 11.0861L50.9249 11.3349L51.267 11.2416L51.2048 11.2105ZM36.7443 13.0764L37.7394 12.7654L38.3614 12.0501L38.7967 13.0453L37.926 13.6983L35.8735 14.0715L35.9668 13.7916L37.5839 13.4496L36.7443 13.0764Z"
      stroke="white"
      stroke-width="0.588851"/>
    <path d="M42.5275 25.8269L42.4964 25.9824L42.2165 26.0446L42.3409 25.9202L42.5275 25.8269ZM42.1232 25.8891L42.2165 25.8269L42.1232 26.0446L41.9677 25.9513L42.1232 25.8891ZM42.2787 25.6403L41.9988 25.8891L41.5635 25.6403L42.0299 25.5159L42.2787 25.6403ZM43.3982 25.7025V25.7647H43.7403L43.3361 25.858L43.3982 25.7025ZM44.2068 26.0135V25.7336L44.58 25.858L44.269 26.1689L44.2068 26.0135ZM43.1495 25.2049L43.1806 25.3293L43.1495 25.4848L43.1184 25.3293L43.1495 25.2049ZM43.1184 21.3177L43.2117 21.4732L43.0873 21.5354L42.9629 21.411L43.1184 21.3177ZM46.4458 18.7055L46.2282 18.861L46.166 18.7677L46.2593 18.7055H46.4458ZM43.6159 25.3915L43.4293 25.3293L43.0873 23.2146L43.3361 21.4732L44.1446 21.2866L46.3525 19.0164L46.819 19.0786L46.8501 18.0524L45.7928 17.5548L45.3263 16.6219L45.6373 16.0621L45.1086 15.0048L45.3263 14.2274L42.5275 12.517L43.4915 12.1438L44.1757 13.0457L45.5751 12.8591L46.4458 13.2944L47.1611 12.7658L47.5032 11.4597L49.2446 10.8066L50.5819 11.8328L50.2087 12.517L49.7422 13.3255L49.9599 13.8542L51.2038 14.6627L50.3331 15.9999L51.0794 17.1195L50.7995 18.8299L51.7014 20.2604L51.1727 20.6646L52.6343 21.9085L52.3233 22.4683L50.4575 24.272L49.1514 25.236L45.4196 26.0446L44.1757 25.5781L44.2379 25.547H44.0824L43.7092 25.4226L43.8025 25.4848L43.7714 25.5781L43.6159 25.4537V25.3915Z"
      fill="white"
      stroke="white"
      stroke-width="0.588851"/>
    <path d="M40.4453 27.4128V27.2573H40.5697L40.4453 27.4128ZM44.0215 18.1767V17.9901L44.1459 18.0523V18.1767H44.0215ZM45.7941 17.5548L43.6795 17.9901L42.9953 19.2962L43.4307 19.6383L42.6843 20.478L41.0672 21.5042L39.9477 22.4993L39.2947 24.0542L39.4813 24.956L40.041 25.1737L41.0983 26.3554L40.5075 27.164L38.9526 27.9103L38.6416 28.8744L38.9215 30.1805L39.2636 29.5896L40.1965 29.714L40.7874 28.8433L40.7563 29.7451H39.2325L38.7038 31.0512L37.0556 31.1756L36.5892 32.1396H35.4696L34.9099 30.1494L34.1324 28.7811H34.2568L34.319 28.6567H34.1013L34.1324 28.75L33.8525 28.2524L34.0391 27.3817L34.4434 26.1689L35.0343 25.8268L34.8166 24.614L35.3763 24.0853L34.7233 23.5877L34.8477 22.7792L34.5678 21.3487L35.1897 20.3536L36.3715 20.2914L36.0916 19.4206L36.9001 18.3322V17.1194L38.6416 15.6578L38.3928 15.098L39.4813 14.0096L40.0099 14.2273L40.2587 13.3254L41.938 13.6053L42.5288 12.5169L45.3276 14.2273L45.11 15.0047L45.6386 16.0621L45.3276 16.6218L45.7941 17.5548ZM34.3812 28.3768L34.0391 28.5012L34.1324 28.5945L34.3812 28.5634V28.3768Z"
      fill="white"
      stroke="white"
      stroke-width="0.588851"/>
    <path d="M44.3938 27.9416L44.7359 28.2214L43.9895 28.5324L43.6475 28.0349L44.3938 27.9416ZM45.0469 27.8794L44.9225 28.0038L44.767 27.9105L44.8914 27.8172L45.0469 27.8794ZM44.9225 27.3196H45.0469L45.078 27.4129H44.8603L44.9225 27.3196ZM44.456 27.3507L44.767 27.5995L44.2694 27.7861L43.834 27.4751L44.456 27.3507ZM49.0585 27.3818L48.3743 27.6617L48.9963 28.719L48.903 28.9678L48.7475 29.341L47.939 29.3721L46.8194 28.6257L45.9176 28.9056L45.2024 27.9727L45.1713 27.0708L47.4725 26.5111L49.3384 26.7288L49.4317 26.7599L49.4939 26.8842L49.4317 26.9153H49.3384L49.4006 26.9464H49.3073L49.1829 27.1641L49.0585 27.3818Z"
      fill="white"/>
    <path d="M49.4006 26.9464L49.3384 26.9153H49.4317L49.4939 26.8842L49.4317 26.7599L49.3384 26.7288L47.4725 26.5111L45.1713 27.0708L45.2024 27.9727L45.9176 28.9056L46.8194 28.6257L47.939 29.3721L48.7475 29.341L48.903 28.9678L48.9963 28.719L48.3743 27.6617L49.0585 27.3818L49.1829 27.1641L49.3073 26.9464H49.4006ZM49.4006 26.9464H49.4317M44.3938 27.9416L44.7359 28.2214L43.9895 28.5324L43.6475 28.0349L44.3938 27.9416ZM45.0469 27.8794L44.9225 28.0038L44.767 27.9105L44.8914 27.8172L45.0469 27.8794ZM44.9225 27.3196H45.0469L45.078 27.4129H44.8603L44.9225 27.3196ZM44.456 27.3507L44.767 27.5995L44.2694 27.7861L43.834 27.4751L44.456 27.3507Z"
      stroke="white"
      stroke-width="0.588851"/>
    <path d="M34.9095 52.5085L37.926 52.1353L37.5217 52.664L37.4285 53.8457L36.8687 53.6902L34.9095 52.5085ZM32.204 48.9633L32.5772 49.7097L32.3284 51.1713L31.2711 51.389L31.3333 49.9585L31.0845 49.3054L32.204 48.9633ZM30.4314 46.0712L29.5918 44.5785L29.965 43.6456L30.9601 43.2724L31.6443 43.4901L32.7016 43.148L33.137 42.5572L34.754 42.3084L34.9406 42.7749L36.1534 42.9615L35.8425 43.2413L36.1534 44.0188L35.687 43.8322L34.7229 44.3609L34.9406 45.6048L36.0601 46.3822L36.4955 47.4084L37.4907 48.1548L38.2992 48.1237L38.2059 48.6524L40.1029 49.5542L40.5693 50.114L39.2321 49.7097L38.7346 50.6115L39.3254 50.9225L38.3303 52.4774L38.4547 51.5756L37.926 50.1762L36.1534 48.9011L35.5315 48.9322L33.8211 47.5017L32.826 45.8225L31.5821 45.356L30.4314 46.0712ZM35.0028 45.9468V45.8536L34.9717 45.8847L34.9406 45.9158L35.0028 45.9468Z"
      fill="white"
      stroke="white"
      stroke-width="0.588851"/>
    <path d="M36.6826 54.5304L36.9003 54.6237V54.748L36.7759 54.6859L36.6826 54.5304Z"
      fill="white"
      stroke="white"
      stroke-width="0.588851"/>
    <path d="M35.0026 45.9473L34.9404 45.9162L34.9715 45.8851L35.0026 45.854V45.9473Z"
      fill="white"
      stroke="white"
      stroke-width="0.588851"/>
    <path d="M40.5696 47.627L39.9165 47.1605L39.7921 47.0983L39.9787 47.1605L40.5074 47.4715V47.5337L40.5696 47.627ZM36.0293 44.144L37.6464 44.2062L37.9263 43.3354L38.7348 42.9934L39.5123 43.6153L40.9428 43.6464L41.0671 44.5483L41.0361 44.8592L39.108 44.3928L38.0507 44.5172L38.4549 45.6056L39.7299 47.0361L38.8903 46.8184L37.211 45.6367V44.6105L36.4025 44.9214L36.0293 44.144Z"
      fill="white"
      stroke="white"
      stroke-width="0.588851"/>
    <path d="M16.8099 32.5749L15.9392 33.3524L16.7477 33.7878H17.7118L17.9605 35.2494L17.6185 36.1823L16.4989 36.3378L15.4727 36.9597L14.4465 37.1152L13.8867 36.5555L15.255 34.8451L14.2599 34.7207L14.4154 33.5079L15.5349 33.6012L15.8459 32.4506L16.8099 32.5749Z"
      fill="white"
      stroke="white"
      stroke-width="0.588851"/>
    <path d="M48.7479 29.3411L48.9967 30.243L49.4632 31.1759L48.9656 31.6424L48.0327 31.7979L46.4467 30.7716L46.0424 31.0204L43.8967 30.8027L42.9326 31.2692V30.243L43.5546 29.2789L44.3631 29.0612L45.3582 30.0875L45.9802 29.7454L45.918 28.9058L46.8198 28.6259L47.9394 29.3722L48.7479 29.3411Z"
      fill="white"
      stroke="white"
      stroke-width="0.588851"/>
    <path d="M43.1196 32.3259L43.0263 31.7661L42.933 31.2686L43.897 30.8021L46.0428 31.0198L46.447 30.771L48.033 31.7972L48.1885 32.2637L47.38 32.7302L47.0068 33.5387L45.9806 34.0674L45.172 34.0052L45.1409 33.7253L44.519 33.4765L44.5501 32.7924L43.1196 32.3259ZM42.8086 32.2948L42.9641 32.0149L42.8708 32.2948H42.8086Z"
      fill="white"
      stroke="white"
      stroke-width="0.588851"/>
    <path d="M36.0294 44.1439V44.0817L36.1538 44.0195L35.8428 43.242L36.1538 42.9621L36.9001 43.1176L38.3617 42.5579H38.5172L38.7349 42.9932L37.9263 43.3353L37.6464 44.2061L36.0294 44.1439Z"
      fill="white"
      stroke="white"
      stroke-width="0.588851"/>
    <path d="M39.7923 47.0975L39.699 47.0353H39.7301L38.4551 45.6048L38.0508 44.5164L39.1081 44.392L41.0362 44.8585L41.3783 44.8274L41.2228 46.3823L40.5386 46.9731L40.5075 47.4707L39.9788 47.1597L39.7923 47.0975Z"
      fill="white"
      stroke="white"
      stroke-width="0.588851"/>
    <path d="M30.3688 46.1339L30.3377 46.165H30.3066L30.3377 46.1028L30.3688 46.1339Z"
      fill="white"
      stroke="white"
      stroke-width="0.588851"/>
    <path d="M41.3776 47.969V47.8135L41.4087 47.7202L41.6886 47.347L41.9996 47.4714L42.4039 47.8446L42.4661 48.2178L42.3728 48.5598L42.5282 49.0885L42.5593 49.2751H42.6215H42.7148H42.8081V49.3062L42.8392 49.3373L42.777 49.4306L42.8392 49.3995V49.4306L42.9014 49.5239L42.3106 50.4568L41.9685 50.6123L41.3154 49.555L41.3776 48.2489L41.3465 48.1245L41.3776 47.969Z"
      fill="white"/>
    <path d="M42.8392 49.3062L42.8081 49.2751M42.8081 49.2751H42.7148H42.6215H42.5593L42.5282 49.0885L42.3728 48.5598L42.4661 48.2178L42.4039 47.8446L41.9996 47.4714L41.6886 47.347L41.4087 47.7202L41.3776 47.8135V47.969L41.3465 48.1245L41.3776 48.2489L41.3154 49.555L41.9685 50.6123L42.3106 50.4568L42.9014 49.5239M42.8081 49.2751V49.3062L42.8392 49.3373L42.777 49.4306L42.8392 49.3995V49.4306L42.9014 49.5239M42.9014 49.5239H42.8703M41.3776 47.7513V47.7824"
      stroke="white"
      stroke-width="0.588851"/>
    <path d="M41.2223 46.383L41.3778 44.8281L41.0357 44.8592L41.0668 44.5482L40.9424 43.6464L41.5332 43.3665L42.1863 43.4287L43.3369 44.5482L43.2436 44.9525L44.4253 45.5744L44.1144 46.072L44.6741 46.8494L44.1144 47.7202H43.7412L43.3991 47.8135L43.5857 47.347L42.6528 46.6629L42.2796 47.1604L41.5954 46.7561L41.2223 46.383Z"
      fill="white"
      stroke="white"
      stroke-width="0.588851"/>
    <path d="M41.2221 46.3822L41.5953 46.7554L42.2794 47.1596L41.9684 47.284L41.9995 47.4706L41.6886 47.3462L41.4087 47.7194L41.3776 47.7505V47.7816H41.1599L41.3776 47.9682L41.3465 48.1237L41.3776 48.248L40.8178 47.7816L40.569 47.6261L40.5068 47.5328V47.4706L40.5379 46.973L41.2221 46.3822Z"
      fill="white"
      stroke="white"
      stroke-width="0.588851"/>
    <path d="M43.9277 40.7543L44.0832 40.4433L44.3009 39.9768L44.3942 39.4171L45.7314 38.2042L45.296 37.0225L46.0113 36.5872L47.2863 36.525L48.6546 36.9292L50.5516 37.2091L51.6711 36.9603L52.0443 36.3384L52.8217 36.3073L54.6876 35.9963L55.2474 36.7426L55.0297 37.3335L55.8693 37.3957L56.398 38.453L58.0462 38.3597L59.6632 39.0439L60.534 39.7591L60.1297 40.35L60.1919 41.4384L59.3212 41.4073L58.7614 42.2781L56.6157 42.8067L55.6205 43.3665L56.3358 44.5793L54.8431 45.4189L53.8169 43.9884L54.6565 43.6464L52.7906 43.3043L53.3193 43.0244L52.262 42.8378L51.018 44.0195L50.8626 44.4549L50.0851 44.4238L49.5253 44.175L50.2095 43.0555L51.2668 43.1488L50.365 41.7805L50.4894 41.4073L49.1211 40.7232L48.0637 40.9409L46.8198 41.3451L44.6119 41.314L44.3631 41.1274L43.9277 40.7543ZM51.2979 43.1488L51.5778 43.4598L51.64 43.3976L51.3601 43.1177L51.2979 43.1488ZM54.8742 43.4598L55.776 43.9573L55.6205 43.522L55.0297 43.2421L54.8742 43.4598Z"
      fill="white"
      stroke="white"
      stroke-width="0.588851"/>
    <path d="M44.3014 39.9764L44.0838 40.4428L43.9283 40.7538L42.4045 40.6294L41.8758 41.0959L39.9477 41.5312L39.3258 41.2203L39.0459 40.816L39.1392 40.5361L40.1965 39.9453L40.8807 39.4477L43.6484 39.6032L44.3014 39.9764Z"
      fill="white"
      stroke="white"
      stroke-width="0.588851"/>
    <path d="M49.8674 46.1337L49.0588 47.5953L49.3387 48.0928L48.468 47.9995L47.7838 48.4038L46.7887 48.9014L46.1045 48.5593L44.6429 48.8081L44.7362 48.3727L44.1143 47.7196L44.674 46.8489L44.1143 46.0715L44.4252 45.5739L45.0161 45.9782L46.9131 46.227L48.4369 45.6361L49.8674 46.1337Z"
      fill="white"
      stroke="white"
      stroke-width="0.588851"/>
    <path d="M32.2966 42.0911L32.3588 42.2776L32.3277 42.3398H32.2344L32.2966 42.0911Z"
      fill="white"
      stroke="white"
      stroke-width="0.588851"/>
    <path d="M32.328 42.3397L32.3591 42.2775L32.2969 42.091L32.3902 41.9355L32.328 41.8111L32.4213 41.8422L32.4524 41.78L33.6341 41.9666L34.7225 41.5934L35.5311 41.8422L35.2512 41.0958L36.2463 40.3495L37.0548 40.5361L37.3036 40.1007L39.1384 40.5361L39.0451 40.8159L39.325 41.2202L38.7963 41.5312L38.361 42.5574L36.8994 43.1172L36.153 42.9617L34.9402 42.7751L34.7536 42.3086L33.1365 42.5574L32.8255 42.5885L32.328 42.3397Z"
      fill="white"
      stroke="white"
      stroke-width="0.588851"/>
    <path d="M43.9278 40.7544L44.3632 41.1276L44.612 41.3141L43.8035 41.8428L42.9949 43.2422L42.1864 43.4288L41.5333 43.3666L40.9424 43.6465L39.5119 43.6154L38.7345 42.9934L38.5168 42.5581H38.3613L38.7967 41.5318L39.3254 41.2209L39.9473 41.5318L41.8754 41.0965L42.404 40.63L43.9278 40.7544Z"
      fill="white"
      stroke="white"
      stroke-width="0.588851"/>
    <path d="M44.4256 45.5735L43.2439 44.9516L43.3371 44.5473L42.1865 43.4278L42.9951 43.2412L43.8036 41.8418L44.6122 41.3131L46.8201 41.3442L48.064 40.9399L48.4061 41.0332L49.5567 42.8369L49.5256 44.1741L50.0854 44.4229L50.8628 44.454L49.9299 45.4802L49.8677 46.1333L48.4372 45.6357L46.9134 46.2266L45.0164 45.9778L44.4256 45.5735Z"
      fill="white"
      stroke="white"
      stroke-width="0.588851"/>
    <path d="M29.343 39.5099L29.0009 39.541L28.8454 39.4166L28.7832 39.0124L29.1564 38.7325L29.4985 39.1056L29.343 39.5099Z"
      fill="white"
      stroke="white"
      stroke-width="0.588851"/>
    <path d="M24.8027 47.4091H25.0826V47.5335L24.896 47.5957L24.8027 47.4091Z"
      fill="white"
      stroke="white"
      stroke-width="0.588851"/>
    <path d="M31.9862 41.6251V41.6562L32.266 41.8428L32.3282 41.8117L32.3904 41.9361L32.2971 42.0916L32.2349 42.3404H32.3282L32.8258 42.5892L33.1368 42.5581L32.7014 43.1489L31.6441 43.491L30.9599 43.2733L29.9648 43.6465L29.7471 43.3977V43.0867L29.5916 42.9623L29.3739 43.1178L29.2495 43.2422L29.1562 42.9001L30.4935 41.7184H31.302L31.9862 41.6251Z"
      fill="white"
      stroke="white"
      stroke-width="0.588851"/>
    <path d="M42.4663 48.2178L42.4041 47.8446L41.9998 47.4714L41.9688 47.2848L42.2797 47.1604L42.6529 46.6629L43.5858 47.347L43.3993 47.8135L42.9639 47.8446L42.4663 48.2178Z"
      fill="white"
      stroke="white"
      stroke-width="0.588851"/>
    <path d="M41.5963 33.3527L41.3786 33.5704L41.7207 33.3838L44.4573 33.4771H44.5195L45.1414 33.7259L45.1725 34.0058L45.5146 35.5918L44.8616 36.0582L45.2969 37.0223L45.7323 38.204L44.3951 39.4168L44.3018 39.9766L43.6488 39.6034L40.881 39.4479L40.6323 38.9814L38.642 38.1418L37.1804 37.8308L37.0249 35.7162L36.5273 35.3741L36.6517 34.3168L36.9938 34.1302L36.5895 34.068V34.0369L36.6206 34.0058L38.3932 33.5704L38.7975 33.2283L40.4146 32.8552L40.6634 33.3838L41.5963 33.3527Z"
      fill="white"
      stroke="white"
      stroke-width="0.588851"/>
    <path d="M44.1145 47.7198L44.7365 48.3729L44.6432 48.8083L43.7103 49.057L42.995 49.3369L42.8395 49.1503V49.3058L42.8084 49.2747H42.7151H42.6218L42.7151 49.057L42.5285 49.0881L42.373 48.5595L42.4663 48.2174L42.9639 47.8442L43.3993 47.8131L43.7414 47.7198H44.1145Z"
      fill="white"
      stroke="white"
      stroke-width="0.588851"/>
    <path d="M40.88 39.4477L40.1958 39.9453L39.1385 40.5361L37.3037 40.1008L37.0549 40.5361L36.2464 40.3495L34.9092 39.1678L35.0336 38.3904L37.1793 37.8306L38.6409 38.1416L40.6312 38.9812L40.88 39.4477Z"
      fill="white"
      stroke="white"
      stroke-width="0.588851"/>
    <path d="M49.5251 44.1748L49.5562 42.8376L48.4056 41.0339L48.0635 40.9406L49.1208 40.7229L50.4891 41.4071L50.3647 41.7803L51.2666 43.1486L50.2092 43.0553L49.5251 44.1748Z"
      fill="white"
      stroke="white"
      stroke-width="0.588851"/>
    <path d="M1.29279 18.9854L3.34525 18.7677L3.18976 18.208L2.10134 17.9281L0.857422 18.0525L1.60377 17.6482L1.85255 16.9951L2.78549 17.1817L2.6611 16.5909L3.81172 17.3061L3.65623 17.9592L4.21599 18.2702L4.93124 17.1195L6.61052 17.0262L7.26358 17.3372L8.28981 16.9951L8.22761 16.5287L9.93799 17.2128L9.78251 17.7104L10.7776 18.0214L11.0264 18.7055L10.0624 19.7007L7.10809 20.7269L6.20625 21.1934L4.86904 20.9757L3.93611 20.4781L2.53671 20.5403L3.46964 19.7318L2.78549 19.1098L1.29279 18.9854Z"
      fill="white"
      stroke="white"
      stroke-width="0.588851"/>
  </g>
  <defs>
    <clipPath id="clip0_764_3685">
      <rect width="64" height="64" fill="white" transform="translate(0.857422)"/>
    </clipPath>
  </defs>
</svg>