<svg width="65" height="64" viewBox="0 0 65 64" fill="none" xmlns="http://www.w3.org/2000/svg">
  <g clip-path="url(#clip0_764_3733)">
    <path d="M52.8685 38.1078L52.8123 38.164V37.9954H52.9809L52.8685 38.1078ZM52.5314 36.6469L53.0371 36.085L52.8685 37.4335L52.6437 37.3212L52.5314 36.6469ZM45.7324 49.0086L50.7333 47.2667L51.8009 43.8392L51.0704 42.5468L52.0818 38.7259L53.0371 38.5573L54.3294 40.3554L57.0265 41.0859L58.7684 43.3896L55.2285 47.7162L55.4532 48.8962L53.4866 49.6829L52.9809 50.8067L51.4638 50.9752L50.7895 52.38L47.5867 52.998L46.9686 51.8743L45.7324 49.0086Z"
      fill="white"
      stroke="white"
      stroke-width="1.06397"/>
    <path d="M2.29913 10.4067L2.01818 10.5191L1.84961 10.4629L2.24294 10.2381L2.29913 10.4067ZM5.72669 6.81055L7.58094 8.32767L4.94003 8.77718L4.37814 9.50765L2.46769 9.28289L3.42292 7.99053L2.91721 7.37244L4.15338 6.64198L5.72669 6.81055ZM33.7653 11.4181L32.4167 11.98L32.7539 14.6771L33.6529 16.2504L30.2815 15.8571L29.6634 16.3066L29.4387 15.9133L25.3368 17.037L22.7521 16.6999L20.1112 16.8685L18.9312 18.6104L19.0436 16.6999L17.9198 17.3742L16.6275 16.9809L13.7056 18.3856L12.4132 17.4304L10.2219 16.7561L9.71615 17.9923L8.53617 18.217L6.23239 16.419L4.37814 15.8571L4.43433 14.6209L2.80483 14.1152L4.15338 12.9352L3.14197 12.2047L2.9734 12.0924L2.58007 11.8114L3.59149 9.95716L7.63713 9.90097L7.74951 8.27148L11.1209 8.60861L14.6046 6.75436L18.9874 7.31625L21.6283 8.72099L24.7749 8.55242L25.9549 8.94575L28.2587 7.76577L30.3939 7.5972L31.4615 8.55242L31.8548 10.5191L33.7091 11.3057L33.7653 11.4181Z"
      fill="white"
      stroke="white"
      stroke-width="1.06397"/>
    <path d="M43.2037 36.3115L43.4284 36.4238L43.3722 37.1543L43.1475 36.761L43.2037 36.3115Z"
      fill="white"
      stroke="white"
      stroke-width="1.06397"/>
    <path d="M15.2775 20.3511V20.2949H15.3337L15.2775 20.3511ZM15.7832 20.2387L15.8956 20.4073H15.5584L15.3899 20.2387H15.5584H15.727H15.7832ZM15.3337 20.3511H15.3899V20.4073L15.3337 20.3511ZM15.2213 20.4073L15.0527 20.6883L14.0975 21.0254L13.7604 20.913L13.648 20.9692L12.8613 20.2387L13.367 20.014L13.4232 20.0702L13.4794 19.9578L13.5356 20.014H13.5918H14.7718L15.2213 20.3511V20.4073Z"
      fill="white"
      stroke="white"
      stroke-width="1.06397"/>
    <path d="M34.1013 8.66507L34.0451 8.72126L33.989 8.60888H34.1013V8.66507ZM34.4385 8.83364H34.3823V8.77745L34.4385 8.83364ZM34.888 9.5641V9.45173H35.0004L34.9442 9.5641H34.888ZM33.7642 11.4184L33.708 11.306L35.3937 11.6431L35.9556 12.9355L34.7756 12.6545L33.7642 11.4184ZM36.4613 6.97939L38.6527 8.38412L40.0574 7.09176L41.7431 9.50792L40.5069 13.7783L39.1022 13.0479L38.9898 11.306L36.5737 12.9355L35.1127 10.6879L35.6746 10.2946L34.0451 8.21556L36.5737 8.66507L36.4613 6.97939Z"
      fill="white"
      stroke="white"
      stroke-width="1.06397"/>
    <path d="M39.7765 32.2086L40.5632 33.9505L42.6422 35.58V37.2095L43.766 38.9513L44.0469 39.2885L44.4402 39.1761L44.5526 39.738L45.0021 39.8504L46.6878 42.1541L51.0706 42.5475L51.8011 43.8398L50.7335 47.2674L45.7326 49.0093L40.9565 49.6274L39.327 50.414L38.0908 52.2683L34.3261 51.6502L31.0109 51.8187L30.3929 53.4482L27.752 49.515L27.3024 48.1102L25.1672 46.4807L24.212 44.9636V42.8284L23.1444 40.6932L21.6273 39.7942L21.1216 38.2209L17.7502 33.1076L16.6826 32.9952L17.3007 30.7477L19.155 31.0286L22.3578 28.6687L20.6721 26.8706L24.3244 25.6906L26.4596 26.0839L29.2129 27.6011L33.5395 31.0286L36.6299 31.1972L38.147 31.4219L39.7765 32.2086Z"
      fill="white"
      stroke="white"
      stroke-width="1.06397"/>
    <path d="M45.7324 49.008L46.9686 51.8736L47.5867 52.9974L46.1257 54.7393L41.6867 56.2564L40.2258 57.4364L39.102 57.3802L36.9106 58.4478L35.4497 58.5602L32.3031 59.8525L31.5164 59.4592L30.2803 54.8517L30.3927 53.4469L31.0107 51.8174L34.3259 51.6489L38.0906 52.267L39.3268 50.4127L40.9563 49.626L45.7324 49.008Z"
      fill="white"
      stroke="white"
      stroke-width="1.06397"/>
    <path d="M52.8695 37.4346L53.038 37.6032V38.5584L52.0828 38.727L51.0714 42.5479L46.6886 42.1545L45.0029 39.8508L49.2733 40.0193L52.5323 36.6479L52.6447 37.3222L52.8695 37.4346ZM52.8695 38.1089L52.9818 37.9965H52.8133V38.1651L52.8695 38.1089Z"
      fill="white"
      stroke="white"
      stroke-width="1.06397"/>
    <path d="M33.6522 16.2511L32.7532 14.6778L32.416 11.9807L33.7646 11.4188L34.776 12.655L35.956 12.9359L36.3493 12.8236L36.574 12.9359L38.9902 11.3064L39.1026 13.0483L40.5073 13.7788L40.7883 15.1273L42.7549 15.8016L44.2158 17.0378L45.5644 17.3187L49.1043 16.8692L48.9357 15.914L51.4643 14.4531L54.4423 14.1159L54.6671 14.6778L57.0832 15.2397L59.6679 17.2625L61.0727 17.3749L61.1851 19.173L60.0051 23.9491L60.4546 26.8709L61.9155 27.0957L62.0841 28.0509L60.5108 29.849L62.2527 32.2089L63.7136 32.7708L64.2193 35.6365L62.1403 36.367L61.747 38.165L58.9375 37.9403L54.6109 37.1536L54.1052 35.2432L52.9814 34.6251L50.3967 35.8613L44.7215 33.3327L42.5301 29.2309L40.6759 28.8376L39.9454 29.6242L38.5407 27.77L38.7654 26.3652L38.0912 25.1853L36.1807 24.1738L34.7198 22.2634L36.2931 18.8358L34.6074 18.4425L33.6522 16.2511Z"
      fill="white"
      stroke="white"
      stroke-width="1.06397"/>
    <path d="M39.7775 32.209L38.148 31.4223L36.6309 31.1976L37.5861 29.6243L38.9908 29.5681L39.2156 30.7481L39.7775 32.209Z"
      fill="white"
      stroke="white"
      stroke-width="1.06397"/>
    <path d="M36.5732 12.9346L36.3485 12.8222L35.9551 12.9346L35.3932 11.6422L33.7075 11.3051L31.8533 10.5184L31.46 8.55179L32.6961 8.32703L34.0447 8.21465L35.6742 10.2937L35.1123 10.687L36.5732 12.9346ZM34.1009 8.66417V8.60798H33.9885L34.0447 8.72035L34.1009 8.66417ZM34.438 8.83273L34.3818 8.77654V8.83273H34.438ZM34.8875 9.5632H34.9437L34.9999 9.45082H34.8875V9.5632Z"
      fill="white"
      stroke="white"
      stroke-width="1.06397"/>
    <path d="M15.5586 20.1845L15.3338 20.2969H15.1653L14.7719 19.9597L13.5919 20.0159L16.7386 19.0045L15.7271 20.2407L15.5586 20.1845ZM13.3672 20.0159L13.4796 19.9597L13.4234 20.0159H13.3672Z"
      fill="white"
      stroke="white"
      stroke-width="1.06397"/>
    <path d="M18.0874 27.6008L18.256 27.4322L18.0874 27.3198L18.0312 27.2636L18.0874 27.1512H18.3122V26.3646V24.7351L18.6493 24.5665L20.3912 25.3532L23.7064 23.3865L24.1559 25.016L24.3245 25.6903L20.6722 26.8703L22.3578 28.6684L19.155 31.0283L17.3008 30.7474L17.4132 30.4102L17.3008 30.354L17.6379 28.7807L18.0874 27.6008Z"
      fill="white"
      stroke="white"
      stroke-width="1.06397"/>
    <path d="M23.7065 23.3859L20.3913 25.3525L18.6494 24.5659L18.8742 24.1726L18.7618 23.3297L20.0542 21.8126L18.9866 20.9698L18.9304 19.565V18.6098L20.1103 16.8679L22.7513 16.6993L25.336 17.0365L29.4378 15.9127L29.6626 16.306L28.0331 17.486L27.7521 20.745L26.9093 21.5878L23.7065 23.3859Z"
      fill="white"
      stroke="white"
      stroke-width="1.06397"/>
    <path d="M15.7271 20.2402H15.5586V20.184L15.7271 20.2402ZM13.3672 20.0154H13.4234L13.4796 19.9592L13.4234 20.0716L13.3672 20.0154ZM15.1653 20.2963L15.2776 20.3525H15.2214L14.7719 20.0154H13.5919L14.7719 19.9592L15.1653 20.2963Z"
      fill="white"/>
    <path d="M15.7271 20.2402H15.7833M15.7271 20.2402H15.5586V20.184L15.7271 20.2402ZM13.5919 20.0154H13.5358M13.5919 20.0154H14.7719L15.2214 20.3525H15.2776L15.1653 20.2963L14.7719 19.9592L13.5919 20.0154ZM13.3672 20.0154H13.4234L13.4796 19.9592L13.4234 20.0716L13.3672 20.0154Z"
      stroke="white"
      stroke-width="1.06397"/>
    <path d="M43.7657 38.9519L43.6533 37.6596L45.0581 36.9853L44.44 39.1767L44.0466 39.2891L43.7657 38.9519Z"
      fill="white"
      stroke="white"
      stroke-width="1.06397"/>
    <path d="M39.9458 29.623L39.2715 29.5106L38.9906 29.5668L37.5858 29.623L36.6306 31.1963L33.5402 31.0277L29.2136 27.6002L26.4603 26.083L24.3251 25.6897L24.1565 25.0154L23.707 23.3859L26.9098 21.5879L27.7527 20.745L28.0336 17.486L29.6631 16.3061L30.2812 15.8565L33.6526 16.2499L34.6078 18.4413L36.2935 18.8346L34.7202 22.2622L36.1811 24.1726L38.0916 25.184L38.7658 26.364L38.5411 27.7687L39.9458 29.623Z"
      fill="white"
      stroke="white"
      stroke-width="1.06397"/>
    <path d="M34.0455 8.21357L32.697 8.32595L31.4608 8.55071L30.3932 7.59548L28.258 7.76405V5.51647L25.7295 3.99935L30.4494 4.44887L32.3037 5.68504L33.7646 5.29171L36.4617 6.9774L36.5741 8.66309L34.0455 8.21357Z"
      fill="white"
      stroke="white"
      stroke-width="1.06397"/>
    <path d="M17.582 23.8936L18.3687 22.3764L18.9868 20.9717L20.0544 21.8145L18.762 23.3317L18.2001 23.8936H17.582Z"
      fill="white"
      stroke="white"
      stroke-width="1.06397"/>
    <path d="M16.0645 27.2073L17.1321 25.4092L17.5816 23.8921H18.1997L18.7616 23.3302L18.8739 24.173L18.6492 24.5664L18.312 24.7349V26.3644L18.0311 26.814L18.0873 27.1511L18.0311 27.2635L18.0873 27.3197L17.9749 27.432L18.0873 27.6006L17.6378 28.7806L17.3006 30.3539L17.2444 30.5225H17.1882L17.0759 30.0729L16.0645 27.2073Z"
      fill="white"
      stroke="white"
      stroke-width="1.06397"/>
    <path d="M17.189 30.5254L16.1214 33.672L14.4357 32.1549L13.2557 29.6264L13.4243 31.4244L15.0538 33.5596L15.728 35.6948L18.2566 40.3586L18.5375 42.1566L20.5603 43.7861H11.1205H0.669243V31.0873L0.219727 29.233L0.950191 26.5359L4.60251 27.0978L7.41199 28.0531L9.65957 26.8169L11.6262 26.9293L12.5814 27.6597L16.0652 27.2102L17.0766 30.0759L17.189 30.5254Z"
      fill="white"/>
  </g>
  <defs>
    <clipPath id="clip0_764_3733">
      <rect width="64" height="64" fill="white" transform="translate(0.571289)"/>
    </clipPath>
  </defs>
</svg>