<svg width="65" height="64" viewBox="0 0 65 64" fill="none" xmlns="http://www.w3.org/2000/svg">
  <g clip-path="url(#clip0_764_3759)">
    <path d="M33.7969 47.0542L33.6894 47.1886V47.1348L33.7162 47.0676L33.7969 47.0542ZM25.8406 46.5838L25.8943 46.6107L26.0287 46.7585L25.9212 46.6913L25.8406 46.5838ZM23.7305 45.4146H23.7843L23.8381 45.4683V45.4952L23.7305 45.4146ZM23.6499 45.213L23.6365 45.2802L23.5961 45.2936L23.6365 45.1995L23.6499 45.213ZM22.4538 43.8824L22.4269 43.9093L22.3866 43.8824L22.4538 43.7749V43.8824ZM21.2442 43.533L21.2173 43.5464L21.1904 43.4389L21.2307 43.4658L21.2442 43.533ZM23.5021 43.6271L23.5289 43.4255L23.6365 43.4927L23.5961 43.6136L23.5021 43.6271ZM23.1257 43.2642L23.2467 43.3717L23.2736 43.5061L23.0854 43.318L23.1257 43.2642ZM28.0178 43.2373L28.0044 43.2911L28.0984 43.3045L28.3941 43.8152L28.7167 44.3394L28.8107 44.4469L28.8376 44.541L29.2139 44.756L29.644 44.7963L29.4424 45.4146L29.3618 46.2344L29.644 47.0273L30.1816 47.8068L30.7192 48.0487L31.754 47.8606L32.1169 47.6321L32.3588 46.8661L33.2458 46.6241L33.7969 46.772L33.5146 47.202L33.3534 48.0084L33.1652 47.9143L32.9502 48.1563L32.8292 48.1966H32.1035L31.9288 48.4251L32.3454 48.7745L31.8078 48.9089L31.5928 49.5137L30.9342 48.8954L30.5579 48.761L29.8859 49.0702L28.9989 48.7073L28.085 48.4116L27.7893 48.1563L27.1173 47.9815L26.5126 47.5649L26.2303 47.1214L26.4454 46.6913L26.19 46.1941L25.182 45.1054L24.7385 44.877V44.4738L24.295 44.1915L23.6633 43.5061L23.2736 42.7132L23.3005 42.5653L22.6957 42.2966L22.6554 42.982L23.072 43.3717L24.3084 45.2533L24.2816 45.5221L24.6041 45.5624L24.7385 45.9522L24.5638 46.1L24.3891 45.8178L23.6633 45.2533L23.623 44.7695L23.0989 44.4872L22.5075 44.0034L22.857 43.9496L22.9107 43.7346L22.2522 43.1701L22.1043 42.7132L21.6743 41.9606L22.6285 41.8799L22.6016 41.974L24.0934 42.4847H25.2358V42.2831H25.9078L26.5529 42.8207L26.7007 43.2105L27.2517 43.5061L27.5743 43.1164L28.0178 43.2373ZM29.4827 45.0114L29.4021 45.213L29.4424 45.3877L29.5365 45.0248L29.4827 45.0114Z"
      fill="white"
      stroke="white"
      stroke-width="0.254486"/>
    <path d="M3.75856 52.9941H3.74512"
      stroke="url(#paint0_linear_764_3759)"
      stroke-width="0.254486"/>
    <path d="M19.3621 34.4209L19.4024 34.4477L19.268 34.394L19.2815 34.3402L19.3621 34.4209ZM19.389 34.2999L19.4293 34.3133L19.389 34.3537L19.3218 34.3402L19.389 34.2999ZM15.4511 30.9937H15.4915L15.478 31.0744L15.4243 31.0072L15.4511 30.9937ZM15.4243 30.8459L15.478 30.9131L15.4377 30.9534L15.3974 30.9265L15.4243 30.8459ZM15.3168 30.8459L15.478 31.1281L15.2899 30.9803L15.263 30.819L15.3168 30.8459ZM16.0022 30.8728L15.9887 30.94H15.8947L15.9215 30.7921L16.0022 30.8728ZM15.2361 30.7653L15.2496 30.819L15.1824 30.8325L15.1689 30.7787L15.2361 30.7653ZM15.814 30.7115L15.8947 30.7787L15.8409 30.8728L15.8006 30.7384L15.814 30.7115ZM15.0883 30.6981L15.1689 30.6712V30.7384L15.0883 30.7921V30.6981ZM15.2361 30.6981L15.2227 30.7115L15.1689 30.6577H15.2361V30.6981ZM15.0076 30.4427L15.0748 30.3486L15.2361 30.3083L15.1824 30.3755L15.0076 30.4427ZM15.5452 30.2814L15.7065 30.3352L15.6259 30.4427L15.4915 30.3621L15.5452 30.2814ZM15.4915 30.1336V30.2277L15.3168 30.2008L15.3705 30.1336H15.4915ZM15.6796 30.1874L15.7199 30.3217L15.599 30.2277V30.1067L15.6796 30.1874ZM15.3974 29.932L15.5318 30.0664L15.4377 30.1067L15.3705 30.0933L15.3974 29.932ZM15.0345 29.7842L15.3571 29.8648L15.2899 30.1336H15.0748L15.0345 29.7842ZM14.3222 29.6901L14.2953 29.811L14.2147 29.8245L14.2685 29.7304L14.3222 29.6901ZM14.0131 29.2331L13.9728 29.3407L13.9325 29.2869L13.9593 29.1928L14.0131 29.2331ZM33.0975 34.5687L33.0437 34.6359L32.8421 34.7434L32.8018 34.7031L33.0975 34.5687ZM33.7023 35.9799L33.6754 36.1008L33.5813 36.2352L33.5275 36.1815L33.7023 35.9799ZM34.2936 35.7648V35.8455L34.2399 35.8589L34.2667 35.7783L34.2936 35.7648ZM35.0597 35.6304L35.0866 35.6976H34.9656L35.0194 35.6439L35.0597 35.6304ZM14.9001 30.4293L14.7792 29.9186L14.9404 29.8917L15.0614 30.053L14.9001 30.4293ZM2.13241 31.4372L1.94425 31.7464L1.44698 31.827L0.990031 32.1092L1.24539 31.7867H1.71577V31.5716L2.13241 31.4372ZM14.4835 29.7976L14.3894 29.5019L14.6044 29.6766L14.6851 30.2949L14.4835 29.7976ZM14.3491 29.3407L14.2685 29.6094L13.9862 29.3407L14.2281 29.0853L14.3491 29.3407ZM14.5641 29.0853L14.8598 29.1794L14.9673 29.6498L14.7657 29.596L14.5641 29.0853ZM0.788435 26.0076L1.09755 26.0479L0.680918 26.263L0.304606 25.9942L-0.152344 25.9135L0.465883 25.806L0.788435 26.0076ZM19.3218 34.1521L19.2949 34.1655V34.1521H19.3218ZM28.8371 44.541L28.8237 44.3797L28.7161 44.3394L28.3936 43.8152L28.0979 43.3045L28.0441 43.2776L28.0173 43.2373L27.5738 43.1163L27.2512 43.5061L26.7002 43.2104L26.5523 42.8207L25.9072 42.2831H25.2353V42.4847H24.0929L22.6011 41.974L22.6279 41.8799L21.6737 41.9605L21.5931 41.7052L21.1093 41.2885L20.5986 41.2751L20.276 41.0466L19.5637 39.8639L19.5234 39.5683L19.0395 39.0576L18.9858 38.6409L18.7708 38.3453L18.9052 37.8749L18.7036 37.2163L18.8783 36.7056L18.9724 35.8858L18.7036 34.4746L19.4562 34.609V34.5553L19.5906 34.6897L19.4427 34.5418V34.5284L19.4965 34.4612L19.4427 34.5149L19.4293 34.1521H30.423L31.4444 34.3805L31.9282 34.6359L32.6674 34.6628L32.0895 34.9181L31.6594 35.2676L32.1836 35.2138L32.318 35.3751L33.0437 35.0391L33.0572 35.066V35.0391L33.2722 34.9181L33.4066 34.945L33.1647 35.1332L33.5544 35.402L34.5086 35.2676L34.6968 35.4288L34.8446 35.402V35.496L34.5893 35.7379L33.6888 35.7111L33.2856 36.3696L33.5544 36.2487L33.326 37.0013L33.3663 37.4851L33.5813 37.7942L33.8232 37.6733L33.9979 37.1491L33.877 36.8266L33.9845 36.3159L34.6565 35.7514L35.0866 35.9799L35.1403 36.4906L34.9387 36.6518L35.4091 36.6922L35.5166 37.1222L35.4763 37.297L35.4225 37.3507L35.3553 37.297L35.2613 37.4717L35.1 37.7405L35.4897 37.9017L35.8123 37.8345L36.8203 37.3373L36.9144 37.1626L36.8606 37.0819V37.0013L37.7879 36.9744L38.1642 36.4099L38.3658 36.2218L38.5943 36.1546H39.8711L40.3549 35.7245L40.4624 35.3079L40.7715 34.9316L41.3495 35.1197V35.7783L41.4032 35.8589H41.4973L41.4838 36.0336L41.5914 36.0739L41.672 36.2487L41.1747 36.4637L41.2016 36.4771L41.1075 36.5712L41.0941 36.504L40.9731 36.5578L41.0269 36.5443V36.625L40.9597 36.6115L40.9328 36.5712L40.8522 36.5981L40.2474 36.9878L40.2205 37.7405L39.3201 37.9689L38.8497 38.2781L38.8362 38.6678L38.218 39.5011L37.9223 38.9097L37.9761 39.5279L37.882 39.9849H38.0702L38.1777 40.5628L37.8686 41.0332L37.6267 40.9929L37.2907 41.3692L36.8068 41.6649L36.0139 42.31L35.8929 42.7535L36.2692 43.7211L36.4708 44.4334L36.3364 45.1323L36.0408 45.1592L35.6241 44.5947L35.3553 43.9765L35.436 43.5464L34.8715 43.0223L34.4952 43.2373L34.0651 42.9282L32.9496 42.8879L32.6405 43.0088L32.8287 43.5061L32.4927 43.3045L32.2373 43.4658L31.8476 43.1835L31.5653 43.2642L30.853 43.2104L29.8988 43.7883L29.4822 44.42L29.6435 44.7963L29.2134 44.756L28.8371 44.541ZM15.2092 30.5233L15.1555 30.5502L15.1017 30.483H15.2092H15.2227L15.2764 30.2008L15.7603 30.8325L15.7468 31.1147L15.3974 30.7518L15.1958 30.5905L15.2092 30.5233ZM16.0291 30.9534L16.0156 31.0206L15.9484 30.9803L16.0291 30.9534ZM14.806 29.0987L14.8464 29.1391L14.712 29.1122V29.0584L14.6448 29.0315L13.8787 29.1122L13.2336 28.6149L12.6154 28.3461L11.4327 28.0101L10.8548 27.9832L10.1156 27.7816L10.129 27.5666H9.40328L9.48392 28.0773H8.81194L8.6641 28.2655L7.80396 28.5746L8.09963 28.3058L7.8174 28.2252L8.00555 27.6472L8.38187 27.4457L8.34155 27.2709L7.62924 27.7816L7.48141 28.1176L6.93038 28.4402L7.23949 28.709L6.82286 29.2063L6.08368 29.5557L5.64017 30.0933L5.46545 29.9992L5.03538 30.4696H4.63219L3.97364 30.7384L3.62421 31.0341L2.65655 31.276L2.76407 31.0072L3.2479 30.8862L4.0274 30.4158L4.48435 30.483L4.43059 30.2277L4.99506 29.9186L5.46545 29.5019L5.73425 28.7359L4.95474 29.0047L4.43059 28.6283L3.86613 28.924L3.89301 28.373L3.65109 28.0101L3.14038 28.1983L2.57592 27.8623L2.36088 28.0773L1.93081 28.158L1.60826 27.9564L2.30712 27.8892L2.75063 27.5666L2.13241 27.1634L2.28024 26.8409L2.92535 26.0748L3.23446 26.2226L3.62421 25.9673L4.25588 25.7657L4.00052 25.3356L4.10804 24.9996L3.32854 25.3491L2.10553 25.2281L1.3529 24.5024L2.45496 24.0185L3.08662 23.911L3.1135 24.2604L3.83925 24.3008L3.90645 23.6288L3.08662 23.5616L2.92535 23.2256L1.93081 22.7283L2.09209 22.352L2.84471 22.3251L3.32854 21.9891L3.3151 21.801L3.81237 21.3171H4.229L4.71283 20.9812L5.35793 20.9543L5.84176 20.6183L6.52719 20.7392L6.91694 20.9946L7.62924 20.9408L7.77708 21.2365L8.8657 21.1693L9.7124 21.4381L10.7204 21.5725L11.2311 21.4784L12.145 21.8144L12.1584 27.8892L12.8842 28.0236L13.5024 28.5208L13.583 28.7224L14.0131 28.3192L14.3491 28.1983L14.5641 28.4939L15.1824 29.0181L15.814 30.053L16.5398 30.4427V30.7921L16.1769 31.0609L16.1903 30.5502L16.1366 30.5368L16.0559 30.4158L15.9887 30.4965L15.8543 30.4561L15.7468 30.1874L15.3033 29.7707L14.8464 29.1256L14.806 29.0987ZM6.87662 29.8782L6.64814 29.6229L7.26637 29.2197L7.6158 28.8837L7.70988 29.4616L7.10509 29.811L6.33903 30.5099L6.87662 29.8782ZM16.0291 30.9534L16.0425 30.9131V30.9534H16.0291Z"
      fill="white"/>
    <path d="M16.0291 30.9534L16.0156 31.0206L15.9484 30.9803L16.0291 30.9534ZM16.0291 30.9534L16.0425 30.9131V30.9534H16.0291ZM19.3621 34.4209L19.4024 34.4477L19.268 34.394L19.2815 34.3402L19.3621 34.4209ZM19.389 34.2999L19.4293 34.3133L19.389 34.3537L19.3218 34.3402L19.389 34.2999ZM15.4511 30.9937H15.4915L15.478 31.0744L15.4243 31.0072L15.4511 30.9937ZM15.4243 30.8459L15.478 30.9131L15.4377 30.9534L15.3974 30.9265L15.4243 30.8459ZM15.3168 30.8459L15.478 31.1281L15.2899 30.9803L15.263 30.819L15.3168 30.8459ZM16.0022 30.8728L15.9887 30.94H15.8947L15.9215 30.7921L16.0022 30.8728ZM15.2361 30.7653L15.2496 30.819L15.1824 30.8325L15.1689 30.7787L15.2361 30.7653ZM15.814 30.7115L15.8947 30.7787L15.8409 30.8728L15.8006 30.7384L15.814 30.7115ZM15.0883 30.6981L15.1689 30.6712V30.7384L15.0883 30.7921V30.6981ZM15.2361 30.6981L15.2227 30.7115L15.1689 30.6577H15.2361V30.6981ZM15.0076 30.4427L15.0748 30.3486L15.2361 30.3083L15.1824 30.3755L15.0076 30.4427ZM15.5452 30.2814L15.7065 30.3352L15.6259 30.4427L15.4915 30.3621L15.5452 30.2814ZM15.4915 30.1336V30.2277L15.3168 30.2008L15.3705 30.1336H15.4915ZM15.6796 30.1874L15.7199 30.3217L15.599 30.2277V30.1067L15.6796 30.1874ZM15.3974 29.932L15.5318 30.0664L15.4377 30.1067L15.3705 30.0933L15.3974 29.932ZM15.0345 29.7842L15.3571 29.8648L15.2899 30.1336H15.0748L15.0345 29.7842ZM14.3222 29.6901L14.2953 29.811L14.2147 29.8245L14.2685 29.7304L14.3222 29.6901ZM14.0131 29.2331L13.9728 29.3407L13.9325 29.2869L13.9593 29.1928L14.0131 29.2331ZM33.0975 34.5687L33.0437 34.6359L32.8421 34.7434L32.8018 34.7031L33.0975 34.5687ZM33.7023 35.9799L33.6754 36.1008L33.5813 36.2352L33.5275 36.1815L33.7023 35.9799ZM34.2936 35.7648V35.8455L34.2399 35.8589L34.2667 35.7783L34.2936 35.7648ZM35.0597 35.6304L35.0866 35.6976H34.9656L35.0194 35.6439L35.0597 35.6304ZM14.9001 30.4293L14.7792 29.9186L14.9404 29.8917L15.0614 30.053L14.9001 30.4293ZM2.13241 31.4372L1.94425 31.7464L1.44698 31.827L0.990031 32.1092L1.24539 31.7867H1.71577V31.5716L2.13241 31.4372ZM14.4835 29.7976L14.3894 29.5019L14.6044 29.6766L14.6851 30.2949L14.4835 29.7976ZM14.3491 29.3407L14.2685 29.6094L13.9862 29.3407L14.2281 29.0853L14.3491 29.3407ZM14.5641 29.0853L14.8598 29.1794L14.9673 29.6498L14.7657 29.596L14.5641 29.0853ZM0.788435 26.0076L1.09755 26.0479L0.680918 26.263L0.304606 25.9942L-0.152344 25.9135L0.465883 25.806L0.788435 26.0076ZM19.3218 34.1521L19.2949 34.1655V34.1521H19.3218ZM28.8371 44.541L28.8237 44.3797L28.7161 44.3394L28.3936 43.8152L28.0979 43.3045L28.0441 43.2776L28.0173 43.2373L27.5738 43.1163L27.2512 43.5061L26.7002 43.2104L26.5523 42.8207L25.9072 42.2831H25.2353V42.4847H24.0929L22.6011 41.974L22.6279 41.8799L21.6737 41.9605L21.5931 41.7052L21.1093 41.2885L20.5986 41.2751L20.276 41.0466L19.5637 39.8639L19.5234 39.5683L19.0395 39.0576L18.9858 38.6409L18.7708 38.3453L18.9052 37.8749L18.7036 37.2163L18.8783 36.7056L18.9724 35.8858L18.7036 34.4746L19.4562 34.609V34.5553L19.5906 34.6897L19.4427 34.5418V34.5284L19.4965 34.4612L19.4427 34.5149L19.4293 34.1521H30.423L31.4444 34.3805L31.9282 34.6359L32.6674 34.6628L32.0895 34.9181L31.6594 35.2676L32.1836 35.2138L32.318 35.3751L33.0437 35.0391L33.0572 35.066V35.0391L33.2722 34.9181L33.4066 34.945L33.1647 35.1332L33.5544 35.402L34.5086 35.2676L34.6968 35.4288L34.8446 35.402V35.496L34.5893 35.7379L33.6888 35.7111L33.2856 36.3696L33.5544 36.2487L33.326 37.0013L33.3663 37.4851L33.5813 37.7942L33.8232 37.6733L33.9979 37.1491L33.877 36.8266L33.9845 36.3159L34.6565 35.7514L35.0866 35.9799L35.1403 36.4906L34.9387 36.6518L35.4091 36.6922L35.5166 37.1222L35.4763 37.297L35.4225 37.3507L35.3553 37.297L35.2613 37.4717L35.1 37.7405L35.4897 37.9017L35.8123 37.8345L36.8203 37.3373L36.9144 37.1626L36.8606 37.0819V37.0013L37.7879 36.9744L38.1642 36.4099L38.3658 36.2218L38.5943 36.1546H39.8711L40.3549 35.7245L40.4624 35.3079L40.7715 34.9316L41.3495 35.1197V35.7783L41.4032 35.8589H41.4973L41.4839 36.0336L41.5914 36.0739L41.672 36.2487L41.1747 36.4637L41.2016 36.4771L41.1075 36.5712L41.0941 36.504L40.9731 36.5578L41.0269 36.5443V36.625L40.9597 36.6115L40.9328 36.5712L40.8522 36.5981L40.2474 36.9878L40.2205 37.7405L39.3201 37.9689L38.8497 38.2781L38.8362 38.6678L38.218 39.5011L37.9223 38.9097L37.9761 39.5279L37.882 39.9849H38.0702L38.1777 40.5628L37.8686 41.0332L37.6267 40.9929L37.2907 41.3692L36.8068 41.6649L36.0139 42.31L35.8929 42.7535L36.2692 43.7211L36.4708 44.4334L36.3364 45.1323L36.0408 45.1592L35.6241 44.5947L35.3553 43.9765L35.436 43.5464L34.8715 43.0223L34.4952 43.2373L34.0651 42.9282L32.9496 42.8879L32.6405 43.0088L32.8287 43.5061L32.4927 43.3045L32.2373 43.4658L31.8476 43.1835L31.5653 43.2642L30.853 43.2104L29.8988 43.7883L29.4822 44.42L29.6435 44.7963L29.2134 44.756L28.8371 44.541ZM15.2092 30.5233L15.1555 30.5502L15.1017 30.483H15.2092H15.2227L15.2764 30.2008L15.7603 30.8325L15.7468 31.1147L15.3974 30.7518L15.1958 30.5905L15.2092 30.5233ZM14.806 29.0987L14.8464 29.1391L14.712 29.1122V29.0584L14.6448 29.0315L13.8787 29.1122L13.2336 28.6149L12.6154 28.3461L11.4327 28.0101L10.8548 27.9832L10.1156 27.7816L10.129 27.5666H9.40328L9.48392 28.0773H8.81194L8.6641 28.2655L7.80396 28.5746L8.09963 28.3058L7.8174 28.2252L8.00555 27.6472L8.38187 27.4457L8.34155 27.2709L7.62924 27.7816L7.48141 28.1176L6.93038 28.4402L7.23949 28.709L6.82286 29.2063L6.08368 29.5557L5.64017 30.0933L5.46545 29.9992L5.03538 30.4696H4.63219L3.97364 30.7384L3.62421 31.0341L2.65655 31.276L2.76407 31.0072L3.2479 30.8862L4.0274 30.4158L4.48435 30.483L4.43059 30.2277L4.99506 29.9186L5.46545 29.5019L5.73425 28.7359L4.95474 29.0047L4.43059 28.6283L3.86613 28.924L3.89301 28.373L3.65109 28.0101L3.14038 28.1983L2.57592 27.8623L2.36088 28.0773L1.93081 28.158L1.60826 27.9564L2.30712 27.8892L2.75063 27.5666L2.13241 27.1634L2.28024 26.8409L2.92535 26.0748L3.23446 26.2226L3.62421 25.9673L4.25588 25.7657L4.00052 25.3356L4.10804 24.9996L3.32854 25.3491L2.10553 25.2281L1.3529 24.5024L2.45496 24.0185L3.08662 23.911L3.1135 24.2604L3.83925 24.3008L3.90645 23.6288L3.08662 23.5616L2.92535 23.2256L1.93081 22.7283L2.09209 22.352L2.84471 22.3251L3.32854 21.9891L3.3151 21.801L3.81237 21.3171H4.229L4.71283 20.9812L5.35793 20.9543L5.84176 20.6183L6.52719 20.7392L6.91694 20.9946L7.62924 20.9408L7.77708 21.2365L8.8657 21.1693L9.7124 21.4381L10.7204 21.5725L11.2311 21.4784L12.145 21.8144L12.1584 27.8892L12.8842 28.0236L13.5024 28.5208L13.583 28.7224L14.0131 28.3192L14.3491 28.1983L14.5641 28.494L15.1824 29.0181L15.814 30.053L16.5398 30.4427V30.7921L16.1769 31.0609L16.1903 30.5502L16.1366 30.5368L16.0559 30.4158L15.9887 30.4965L15.8543 30.4561L15.7468 30.1874L15.3033 29.7707L14.8464 29.1256L14.806 29.0987ZM6.87662 29.8782L6.64814 29.6229L7.26637 29.2197L7.6158 28.8837L7.70988 29.4616L7.10509 29.811L6.33903 30.5099L6.87662 29.8782Z"
      stroke="white"
      stroke-width="0.254486"/>
    <path d="M5.59961 54.5265L5.63993 54.5937L5.70713 54.6475L5.61305 54.6206L5.59961 54.5265Z"
      fill="white"
      stroke="white"
      stroke-width="0.254486"/>
    <path d="M47.2766 22.6477L47.3035 22.6746L47.2094 22.7149L47.1557 22.6611L47.2766 22.6477ZM47.5857 22.473L47.2094 22.5671L47.2363 22.5133L47.3976 22.473H47.5857ZM46.5912 21.2903H46.4837L46.4434 21.2096L46.5374 21.2365L46.5912 21.2903ZM47.0481 20.8065L46.86 20.7527L47.0078 20.6049L47.1019 20.7527L47.0481 20.8065ZM46.4299 19.8657L46.2552 19.9866L46.2014 19.9194L46.4434 19.8119L46.4299 19.8657ZM46.188 19.5162L46.0939 19.5969L45.9595 19.57L46.067 19.5162H46.188ZM46.4568 19.4894L46.2418 19.6775L46.2149 19.5297L46.3493 19.4894H46.4568ZM46.0805 18.9115L46.2686 19.019L46.2149 19.0324L46.0133 18.9115H46.0805ZM45.9461 18.6695L46.067 18.683L45.8117 18.7099V18.6292L45.9461 18.6695ZM45.8654 18.1857H45.6235H45.4354L45.7714 18.132L45.8654 18.1857ZM40.6374 16.5192L40.4627 16.5058L40.4761 16.4789L40.6508 16.4654L40.6374 16.5192ZM39.5891 15.7666L39.9251 15.8338L39.7907 15.8741L39.4681 15.8069L39.5891 15.7666ZM40.1133 15.7397L40.3686 15.8203H40.0461L39.952 15.7531L40.1133 15.7397ZM61.4824 13.5356L61.012 13.7909L60.6491 13.6431L61.3211 13.4281L61.4824 13.5356ZM41.6991 12.8905L41.8335 12.9442L41.7529 12.9577L41.6991 12.9442V12.8905ZM47.9486 11.6406L47.6126 11.6271L47.1825 11.5196L47.3304 11.318L47.9486 11.6406ZM46.9675 22.0832L47.0885 21.9623L46.4568 21.7741L46.524 21.4112H47.1422L47.6529 21.7069L47.5992 21.9354L46.9675 22.0832ZM47.2497 24.5965H47.1825V24.5561H47.196L47.1557 24.5158L46.9944 23.9782L47.532 23.696L46.8734 23.5885L47.196 22.8224L47.9889 22.5671L48.1233 21.7741L47.868 21.586L46.9137 21.2903L46.6181 21.0484L47.4648 21.0618L48.1905 21.3306L47.868 20.9005L47.4648 20.6586L47.3841 20.7124L47.2094 20.6855L47.2632 20.5511L47.3169 20.5645L47.2497 20.5242L47.7336 20.3898L47.3304 20.3629L47.1557 20.4436L47.0616 20.3629L47.2229 20.3495H47.2766L46.8197 20.3092L46.8734 20.5242L46.3358 20.5645L46.0939 20.3361L46.2014 20.2151L46.1342 20.1748L46.2283 20.1479L46.2552 20.1613L46.4971 19.906L46.6181 19.4759L46.403 19.3818H46.4299L46.2418 19.3012L46.2283 19.3146L46.188 19.3012L46.3493 19.0459L46.0402 18.8577L46.188 18.6561L45.8923 18.5217L45.9998 18.2798L45.6235 17.8497L45.1935 17.7288L44.9919 17.4734L45.0725 17.1912L44.1183 16.8417L43.07 16.667L42.855 16.8552L41.9814 16.7477L41.8739 17.0165L41.0944 16.9089L40.6105 16.6536L41.2691 16.4117L40.3149 16.3042L39.9385 16.1429L40.1133 15.9816L41.1212 15.8203L41.7529 15.8338L41.9545 15.6187L40.7852 15.7531L40.6643 15.5515L39.952 15.4843L39.3203 15.1483L39.4413 14.8392L40.7315 14.5839L41.2556 14.342L42.0755 14.3151L42.519 13.9522L42.4518 13.4953L41.6454 13.4549L41.4841 13.1996L42.4114 12.7964L42.5458 12.5948L43.2716 12.3663L43.8495 12.5276L44.1452 12.0975L43.8764 11.8691L45.0187 11.5196L46.6718 11.2643L47.0347 11.5196L46.9406 12.0572L47.2766 11.5868L47.8948 11.7212L48.6609 11.6809L48.2174 11.4793L48.0024 11.1299L48.8491 11.1836L50.0452 11.5868L50.3812 11.8287L50.7441 11.775L50.4618 11.5868L50.5425 11.5331L49.6958 11.2777L49.1179 10.8476L49.3598 10.9955L49.9108 10.9686L50.6634 11.2374L50.5559 11.5196L50.9457 11.2239L50.1393 10.8611H52.0477L50.193 10.767L49.7092 10.6729L50.0318 10.552L50.3946 10.6595L50.5828 10.4713L51.5908 10.4041L52.5047 10.4444L52.9079 10.4713L52.9616 10.216L53.7411 10.095L55.4345 10.0009L56.1603 10.0278L58.1628 10.3369L57.9881 10.431L56.1334 10.4982L54.4534 10.7401L55.6899 10.646L56.3887 10.5116L57.4639 10.5788L58.3375 10.4713L58.6332 10.7401L59.3589 10.8342L59.8831 11.0089L59.4395 11.2911L56.4828 11.4927L55.3136 11.775L55.7571 11.7884L57.3161 11.5734L58.566 11.6406L58.5391 11.8422L57.894 12.0035L57.8671 12.1782L58.9154 11.8691L59.1439 11.6003L59.8562 11.5465L59.9099 12.0975L59.1708 12.662L59.6277 12.5679L60.9582 11.8019L61.5899 12.0438L62.0872 11.7884L62.8398 11.8153L63.5924 11.9766L63.8478 12.1513L63.0683 12.5679L62.5844 12.5948L62.692 12.783L62.235 12.9174L61.5899 12.9039L62.0872 13.1324L61.8318 13.3071L60.9045 13.4012L60.2728 13.6162L60.7298 13.7775L60.5819 14.0732L60.8238 14.2748L60.4475 14.3957L60.6491 14.678L60.2325 14.5301L59.8965 15.0543L59.8562 15.3903L60.7298 15.3499L60.676 15.5112L61.2673 15.5919L60.676 15.6994L60.0847 15.5919L60.2325 15.8203L61.0792 15.9682L60.9179 16.5326L60.9851 17.0165L60.7701 16.5864L60.9045 16.3445L60.2056 16.1832L59.7218 16.4251L59.7352 16.7611H60.4341L60.676 17.46L61.4689 17.7556L61.0389 17.796L60.6626 18.3604L59.9099 18.5083L60.1922 19.0055L59.8024 18.9652L59.4933 19.1534L58.8213 18.8846L57.9612 19.1668L58.1762 19.2206L58.1359 19.2071L58.6332 19.019L59.117 19.2878L59.6546 19.4087V19.5834L59.2514 19.5162L59.6411 19.7313L59.3589 19.7447L59.5336 20.0135L58.6735 19.6506L58.6197 19.4759H58.9423L58.6063 19.4222L58.3509 19.3012L58.1359 19.4222L58.6063 19.785L59.4127 20.1748L59.1976 20.3092L59.6949 20.6452L59.8293 21.1693L59.0767 21.25L58.7138 20.7796L58.0821 20.4167L58.1897 20.6989L57.2489 20.9274L57.1279 21.2903L57.5042 21.25H57.1951L57.3564 21.0349L58.2837 20.7796L58.2972 21.0887L57.9477 21.2365H57.6789L57.2623 21.4919L57.5042 21.5725L58.2972 21.2634L58.996 21.4784H59.4664L59.117 21.8144L58.781 21.8951L57.9074 22.4864L57.2086 22.5805L56.671 22.8224L55.6227 22.9299L55.0985 23.2659L55.112 23.4406L54.5744 24.0589L53.8755 24.4217L53.2842 24.583L53.2304 24.1529L53.0288 24.5158L52.3837 24.6636L52.6391 24.7577L52.3299 24.9593L52.1015 25.3625L52.2359 25.7791L51.5773 26.5049L51.3892 27.5397L51.0666 27.7817L51.1472 28.1042L50.7037 28.1445L50.2871 27.9564L50.2602 27.701L49.2657 27.5666L48.8356 27.2306L48.7281 26.7737L48.3249 26.5586L48.3921 26.2764L47.8948 25.9404L47.9486 25.3491L47.6126 25.5238L47.6395 24.9728L47.2497 24.5965Z"
      fill="white"
      stroke="white"
      stroke-width="0.254486"/>
    <path d="M42.3573 47.9947L41.981 48.1426L41.6182 48.1291L41.6316 47.9007L42.3573 47.9947Z"
      fill="white"
      stroke="white"
      stroke-width="0.254486"/>
    <path d="M42.5721 48.2107H42.6393L42.5049 48.251L42.5183 48.2107H42.5721Z"
      fill="white"
      stroke="white"
      stroke-width="0.254486"/>
    <path d="M34.9124 15.7264L34.2673 15.6861L34.4688 15.2291L33.9716 15.1216L33.5012 15.1754V14.8931L33.8506 14.584L34.3882 14.4899L35.208 14.584L35.7725 14.5302L34.778 14.4496L34.4823 13.8583L33.9044 13.7373L33.9178 13.2132L34.9661 13.2804L35.6112 13.6298L35.8263 13.8851L35.9069 13.5491L35.208 13.2132L37.2777 12.9578L36.4982 12.9444L37.8422 12.6756L36.6326 12.7428L35.3155 13.0116L34.9392 12.81L34.7242 13.0384L33.7969 12.9578L34.0522 12.5949L33.5818 12.9309L32.7351 12.7024L33.8103 12.5815L33.8909 12.4605L32.5604 12.5681L32.3588 12.4202L33.1383 12.0305L32.3051 12.2321L32.6545 11.9767H31.7137L32.09 11.7751L33.2593 11.5198L34.5898 11.6407L33.7969 11.4929L34.3479 11.345L34.1866 11.1703L35.3021 11.3316L36.4714 11.6542L35.3962 11.251L35.6515 10.9687L36.2429 11.0762L35.8531 10.8478L36.5251 10.8746L36.4176 10.6999L37.6272 10.7806L38.0304 10.5924L38.7964 10.6462L38.9443 10.7806L39.2803 10.5655L40.5974 10.5252L40.6242 10.6462L41.9279 10.7537L41.0274 11.009L41.4978 10.9822L42.5864 10.7268L43.2987 11.13L43.8363 11.1434L43.9304 11.4391L42.7208 11.8961L42.3176 11.8557L41.8069 12.1111L40.4495 12.4337L42.6536 12.0573L41.1618 12.81L40.2076 13.3744L39.885 13.7507L39.119 13.7104L39.1996 13.9255L38.111 14.1002L37.5197 14.0061L37.5465 14.1674L38.6889 14.2077L38.6755 14.3824L38.0304 14.3018L37.3181 14.3555L38.1648 14.4227L38.6217 14.5974L38.5545 14.7722L37.8825 14.8125L38.4336 14.9603L38.2454 15.1888L37.439 15.4441L37.1702 15.8205L36.1757 15.8608L36.8746 16.0489L36.7267 16.1968L37.3181 16.1699L37.3718 16.4252L36.7805 16.7075L36.9283 17.0838L36.5789 17.0704L36.7402 16.7209L36.0547 16.8688L36.1757 16.6268L34.9258 16.5865L34.7242 16.7209L33.5281 16.6L32.4663 16.5731L32.2647 16.3849L33.1786 16.0221L33.4206 15.8473L33.219 15.4576L33.6087 15.3769L34.106 15.5382L34.1732 15.7801L34.9124 15.7264ZM34.9258 15.7264L35.1274 15.6995L35.3693 15.2694L34.9258 15.7264ZM36.8611 37.0821V37.1224L36.9149 37.1627L35.9472 37.2971L35.4365 37.5928L35.2618 37.4718L35.5171 37.4449L35.4231 37.3509L35.4768 37.2971L35.5171 37.1224L35.7859 36.9611L35.9607 36.0338L36.4445 36.4101L36.5923 36.2622L36.1891 35.6978L34.8452 35.4962V35.4021L34.6973 35.429L34.5495 34.7032L34.1463 34.6629L33.9178 34.2597L33.2727 34.1522L32.6679 34.6629L31.9287 34.636L31.4449 34.3807L30.4235 34.1522H19.4298L19.3492 34.0985L19.3223 34.1522H19.2954L19.2148 33.9506L18.6369 33.6549L18.6906 33.5071L18.5966 33.4802L18.6234 33.4937L18.6638 33.534L18.5966 33.5743L18.5697 33.4802L18.4487 33.4533L18.4622 33.4265L18.4218 33.3996L18.4084 33.4399L18.2875 33.4265L18.2606 33.413L18.1262 33.3861L18.2337 33.4265H18.2203L18.1799 33.413L18.2337 33.4399L18.2606 33.4265L18.3412 33.4533L18.4084 33.5474V33.5609L18.4756 33.6281L18.7175 33.9506L19.1342 34.2866L19.1073 34.1791L19.2014 34.2463L19.3223 34.2597L19.1476 34.2866L19.2148 34.3404L19.1073 34.5016L18.6638 34.3672L17.9111 33.9372L17.8708 33.8162H17.8843L17.8439 33.7087L17.8305 33.6549L17.4139 33.5877L17.172 33.2249L17.387 33.1711L17.9111 33.3189L17.938 33.3055L17.8977 33.2921H18.0187L18.059 33.2383L18.0187 33.198L17.8977 33.2921L17.4273 33.0233L17.3467 32.5394L17.2795 32.7142L17.2392 32.647L17.2795 32.5529L17.3467 32.5394V32.526H17.3601L17.387 32.4857H17.3467L17.3332 32.4722H17.3736L17.3601 32.4185L17.3332 32.4454L17.2929 32.1766L17.0913 31.975L16.9838 32.2303L16.8628 32.0422L16.8763 31.9884L16.8091 31.975V31.9212L16.8763 31.8809V31.9615L16.9032 31.8809L17.051 31.9481L16.9972 31.8943L17.0913 31.4777L16.9166 31.6927L17.0107 31.6524L16.9838 31.7196L16.9032 31.7599L16.8897 31.7331L16.8091 31.8271L16.3521 31.3299L16.5403 30.9401V30.7923V30.4429L15.8145 30.0531L15.1829 29.0182L14.5647 28.4941L14.3496 28.1984L14.0136 28.3194L13.5836 28.7226L13.5029 28.521L12.8847 28.0237L12.1589 27.8893L12.1455 21.8146L12.8981 21.9086L13.6642 22.2984L14.2018 22.3387L14.2152 22.0565L15.035 21.9221L15.2501 21.9893L16.3925 21.4383L16.7419 21.5458L15.7473 21.8952L15.3979 22.2312L16.0565 21.8549L16.164 22.0834L16.4059 21.7877L17.6827 21.3845L17.8843 21.7608L18.3546 22.043L18.731 21.492L18.7713 22.0162L19.2685 21.9221L19.3492 21.6802L19.954 21.7339L20.4244 21.9893L21.3114 22.2581L22.1312 22.4059L22.1446 22.2715L22.8435 22.5672L22.9107 22.7957L22.5344 22.7688L22.3194 23.0107L22.9779 23.172L23.9052 23.1585L24.3756 22.9838L24.8595 23.1182L24.9939 23.4004L25.3164 23.4542L25.4911 23.9515L25.639 23.5617L25.3164 23.1585L26.2572 22.5269L25.4643 22.8494L24.9939 22.7688L25.2089 22.5269L26.19 22.3522L26.3781 22.715L26.7141 22.9435L27.1711 22.9569L27.8968 23.1854L28.2194 23.0645L29.1602 23.1048L29.4827 23.2392L29.0258 22.715L29.6037 22.6344L29.7784 22.9435L30.1413 22.7553L29.9128 23.3198L30.3697 23.7096L30.316 22.9166L30.5579 22.9435L31.0686 22.379L30.652 22.4462L30.7729 21.949L30.0203 21.6533L29.8859 21.3173L29.9262 20.6184L30.4101 20.1346L30.652 20.1077L30.4369 20.1212L30.4504 19.7583L30.2085 19.4895V18.8578L30.3966 18.5622L31.0283 18.4412L31.5928 18.5756L32.4126 18.6562L31.754 19.4626L31.539 19.5701L30.8401 19.5164L31.1089 19.7583L30.8536 20.0808L30.6789 20.0943L31.2164 20.4975L31.2836 20.941L31.875 21.4517L31.3508 21.7742L31.7809 21.9221L32.3185 22.3522L32.3857 22.7957L32.6276 22.2446L32.9233 22.1102L33.313 22.4597L33.1249 22.7688L33.4878 23.5617L34.1329 22.9301L34.2269 22.4597L34.6032 22.2446L34.2941 22.0699L34.2807 21.7205L34.7511 21.6667L34.9392 21.707V21.6802L35.0736 21.7205L35.0468 21.7339L35.4365 21.8146L35.9472 22.1371L35.7591 22.3253L35.9741 22.5269L35.4231 22.6478L35.9875 23.3333L35.88 23.6424L35.1408 24.0724L34.7376 23.6558L35.0064 24.18L34.3882 24.1262L34.3076 23.9246L33.77 24.0187L34.1463 24.2068L33.5415 24.7444H33.3265L32.6142 24.3412L32.883 24.7579L33.6759 24.8116L33.2996 25.4836L32.8695 25.6449L32.5067 25.497L32.426 25.8196L32.1035 25.8734L32.1169 25.8868L32.2379 25.9271L32.211 25.954L32.1975 25.9271L32.1169 25.8868L32.2379 26.2093L31.418 26.5722L30.7595 27.5533L30.5713 28.1043L30.7192 28.8301L31.2299 28.8166L31.5121 29.5693L31.4315 29.8515L32.09 29.6768L32.9367 29.9053L33.4609 30.3622L34.6436 30.8057L35.5575 30.9132L35.6381 31.5987L35.5709 32.0556L36.5789 33.0367L37.0762 32.3916L36.888 32.0287L36.8208 31.424L36.5789 31.1417L37.3718 30.7923L37.8019 30.3622L37.8825 29.9456L37.6541 29.2736L37.0493 28.8838L37.56 28.1984L37.2105 27.5533L37.4659 27.177L37.224 26.6797L37.4928 26.4916L38.568 26.7738L39.0115 26.5588L39.8044 27.0695L39.7507 27.2576L40.7183 27.5936L40.5436 27.7549L40.6914 28.7226L40.9602 28.7091L41.4037 29.1795L42.1429 28.7495L42.2504 28.2387L42.5192 27.8624L42.7074 27.9296L42.788 28.2253L42.8283 28.1581L42.8687 28.2119L42.8149 28.2522L42.788 28.2253L42.8418 28.4269L43.1106 28.4941L43.2853 28.8973L43.917 29.7574L43.6885 30.0397L44.5352 30.8864L45.5432 31.2224L45.2475 31.3702L45.6104 31.639L46.1345 31.8003L46.2151 32.4588L45.6641 32.8889L45.019 33.0098L44.5352 33.4533L43.7691 33.5743L43.5272 33.4802L41.8876 33.4937L41.5247 33.9775L40.8527 34.2597L40.5033 34.7704L39.9254 35.2946L39.2803 35.5634L38.5948 36.1547L38.3664 36.2219L38.1648 36.4101L36.888 36.7192L36.5789 36.9745L36.8611 37.0014V37.0552V37.0821ZM18.0187 33.3593L18.0052 33.3458H17.9918L18.0187 33.3593ZM19.2014 33.9372L19.1879 33.87L19.1476 33.8834V33.9237L19.2014 33.9372ZM17.5886 32.4454L17.6423 32.3513L17.4407 32.4454L17.387 32.6066L17.5886 32.4454ZM29.5634 23.1451L29.4827 23.172L29.4962 23.2257L29.5634 23.1854V23.1451ZM18.1531 34.0581L18.2203 34.0716V34.0313H18.1934L18.1531 34.0581ZM18.1127 34.0044L18.0993 33.9506H18.0455V34.0044H18.1127ZM42.6133 25.7658V26.29L42.3714 26.3841L41.8472 26.2362L41.4709 25.9674L41.4306 26.1825L42.0892 26.7335L41.9548 26.9485L41.0543 26.7066L40.6377 26.4513L39.791 26.1287L39.8447 25.8734L39.4147 25.6986L39.0921 25.2148L38.6083 25.3626L38.1513 25.2148L37.8019 25.4836L37.3449 25.3761L37.224 24.9998L37.5062 24.6638L38.1782 24.8251L38.7964 24.6235L39.0921 24.6638L38.6889 24.2068L39.2937 23.8171L39.6028 23.4542L39.2803 22.7957L38.9443 22.7285L38.2857 22.2581L37.8288 22.4865V22.2581L38.2454 22.1102L37.4121 21.6802V21.4248L36.9014 21.3307L36.9686 21.6533L35.7859 21.4651L35.6247 21.7205L33.985 21.4786L33.0174 21.2232L32.6679 20.7663L33.555 20.8738L33.2593 20.6856L32.5739 20.5916L32.4529 20.1615L32.6679 19.5029L32.9098 19.1266L33.3802 18.7906L33.8103 18.6966L34.442 18.7234L33.8103 19.4895L33.9313 20.0943L34.5495 20.6319L34.2941 19.9061L34.6839 20.0136L34.2135 19.6239L34.4151 19.1669L35.3559 18.7772L35.88 18.7906L36.3773 19.5433L36.1488 20.1212L36.552 19.718L36.9149 20.0943L37.103 19.6642L37.439 19.5298L38.3932 19.7314L38.3664 20.0136L38.783 20.0405L38.7696 20.2959L39.2534 20.6453L39.4819 20.3631L40.0329 20.6453L39.6566 20.7797L39.6297 20.8603L39.7372 20.7931L39.8716 20.8872L40.1538 20.7528L39.9926 21.1426L40.5033 20.9275L41.1215 21.1426L41.6188 21.7608L41.3365 21.7877L41.3769 21.828L41.2962 21.8818L41.3769 21.8952L41.4709 21.8414L41.5516 21.8818L41.4306 21.9086L41.5785 21.949L41.7532 22.1774L41.3769 22.2446L41.229 22.4194L41.1887 22.4059H41.1081L41.2156 22.4328L41.1215 22.5537L41.7128 22.6747L41.8338 22.8225L41.8741 22.7957H41.9682L41.9548 22.8494L41.8338 22.836L41.9548 22.9838L42.4789 22.9301L42.8955 23.4408H42.9359L43.0299 23.4139L43.124 23.4408H43.1106L43.2584 23.4542L43.124 23.723L43.6616 23.6155L43.8766 24.059L43.4466 24.1531L43.4197 24.5294L43.0031 24.6638L43.0568 25.0267L42.6402 24.9057L41.7263 23.9515L41.3231 24.0052L41.6188 24.3009L41.2828 24.5966L42.237 25.1207L42.1832 25.2954L42.6133 25.618V25.6718L42.6267 25.739L42.6939 25.8196L42.6133 25.7658ZM39.6163 20.9275L39.5894 21.0082L39.7103 20.9544L39.6431 20.9813L39.6163 20.9275ZM41.2828 21.7877L40.9737 21.8146L41.1484 21.8549L41.2828 21.7877ZM40.0598 35.2274H40.0194L40.1135 35.1467L40.127 35.1871L40.0598 35.2274ZM19.0535 34.085L19.1207 34.1656L19.2014 34.1925L19.1207 34.1791L19.0535 34.085ZM42.8149 33.6549L43.7154 33.9641L43.5675 34.1119L43.0299 33.9506L42.8149 33.6549ZM18.5428 33.6146L18.5159 33.5743L18.5428 33.534L18.5831 33.5877L18.5428 33.6146ZM17.387 32.862L17.3064 32.8486L17.2795 32.7814L17.3332 32.7276L17.387 32.862ZM36.8477 32.526L36.7536 32.5932L36.6326 32.6201V32.5663L36.8477 32.526ZM16.1371 32.526L16.1102 32.5394L16.0968 32.5798V32.4991L16.1371 32.526ZM17.2526 32.5663L17.2257 32.526L17.2392 32.4722H17.2795L17.2526 32.5663ZM17.2257 32.4454L17.2123 32.4991H17.1316L17.1585 32.4454H17.2257ZM17.0644 32.3244L17.0913 32.405L17.0644 32.4319L17.0376 32.3379L17.0644 32.3244ZM17.1316 32.2572L17.1451 32.311L17.1316 32.3379L17.051 32.2572H17.1316ZM15.8817 32.19H15.9489L15.9624 32.2303L15.9086 32.2572L15.8817 32.19ZM17.1854 32.3782L17.1585 32.2438L17.1854 32.1497L17.2257 32.311L17.1854 32.3782ZM16.8091 32.1497L16.9569 32.2438L16.9704 32.311L16.8897 32.2707L16.8091 32.1497ZM17.2392 32.2438L17.2257 32.2169L17.2123 32.1631L17.266 32.1497L17.2392 32.2438ZM16.715 32.0153L16.7284 32.0691H16.6881L16.6478 31.975L16.715 32.0153ZM16.7688 31.9615L16.8225 32.0422H16.7822L16.7419 31.9347L16.7688 31.9615ZM35.9203 31.9212L36.0413 31.9347L36.2026 32.2035L35.665 32.0287L35.9203 31.9212ZM36.5386 31.9481L36.5654 31.975L36.5117 31.9884L36.5251 31.9481H36.5386ZM16.9704 31.854L16.8897 31.8675L16.8763 31.8406L16.9435 31.7465L16.9704 31.854ZM16.3118 31.7868L16.3387 31.6927L16.594 31.8271L16.5672 31.9481L16.3118 31.7868ZM16.5 31.7196L16.4059 31.7062L16.379 31.6659L16.4597 31.6255L16.5 31.7196ZM16.6344 31.6793L16.8091 31.8406L16.715 31.9212L16.4193 31.5852L16.6344 31.6793ZM16.2849 31.4374L16.4059 31.4643L16.4462 31.518L16.2984 31.6121L16.2849 31.4374ZM16.1102 31.1686H16.2446L16.2715 31.303L16.164 31.2492L16.1102 31.1686ZM36.7805 31.0073L36.6461 31.0476L36.6192 31.0342L36.8746 30.9804L36.7805 31.0073ZM16.3656 31.0745L16.3521 31.0476L16.4731 30.9267L16.4328 31.0342L16.3656 31.0745ZM36.9014 30.3488L36.9821 30.1472L37.009 30.1337V30.2816L36.9014 30.3488ZM36.6595 30.0397L36.6461 30.1472L36.4982 30.2816L36.6326 30.1472L36.6595 30.0397ZM36.5386 29.9053L36.5117 29.9187L36.5386 29.8515L36.5923 29.9187L36.5386 29.9053ZM41.4575 29.072L41.4037 29.0586L41.4172 29.0182L41.4441 29.0048L41.4575 29.072ZM40.8527 28.6554L40.7318 28.6823V28.5882H40.8258L40.8527 28.6554ZM36.3235 28.2656L36.3907 28.2387L36.4176 28.2656L36.3773 28.2925L36.3235 28.2656ZM36.4848 28.1447L36.5251 28.1581L36.4714 28.2119L36.4176 28.2253L36.4848 28.1447ZM42.5864 27.728L42.6939 27.9027L42.573 27.849L42.5327 27.7818L42.5864 27.728ZM41.2425 27.7146L41.3365 27.7952L41.2828 27.9027L41.1081 27.8893L41.2425 27.7146ZM37.1971 27.5668L37.1434 27.6071L37.009 27.6474L37.0358 27.6071L37.1971 27.5668ZM42.5461 27.0964L42.5192 27.2711L42.2773 27.1098L42.452 27.0426L42.5461 27.0964ZM42.1564 26.962L42.1967 27.0157L42.0892 26.9888L42.1564 26.9351V26.962ZM31.3643 26.8948L31.2702 26.962L31.2164 26.9082H31.2836L31.3643 26.8948ZM42.4386 26.9082L42.5327 27.0023L42.4117 26.9888L42.358 26.9351L42.4386 26.9082ZM36.7133 26.626L36.7536 26.8679L36.5789 27.1098L36.4042 26.7738L36.7133 26.626ZM31.5524 26.626L31.5659 26.5991L31.6465 26.6125L31.6062 26.6394L31.5524 26.626ZM42.5864 26.5319H42.7074L42.6267 26.6394L42.4923 26.5991L42.5864 26.5319ZM37.3449 26.5185L37.2509 26.4916H37.439L37.3853 26.5319L37.3449 26.5185ZM42.5058 26.5185L42.4252 26.5319L42.452 26.4916H42.5058V26.5185ZM38.7024 26.4109L38.8636 26.4378L38.8905 26.4781L38.7292 26.4647L38.7024 26.4109ZM40.1538 26.3437L40.3958 26.4916L40.1807 26.5185L39.9791 26.3169L40.1538 26.3437ZM35.6381 26.2631L35.7053 26.4244L35.2349 26.7469L34.9258 26.5588L35.1677 26.2765L35.6381 26.2631ZM41.7532 26.2765V26.29L41.6322 26.1825L41.6994 26.1959L41.7532 26.2765ZM37.1165 25.9271L37.4121 25.9674L37.4525 26.1287L37.3046 26.1825L37.1165 25.9271ZM42.8015 25.8599L42.7477 25.9406L42.7611 26.0346L42.6671 25.8465L42.8015 25.8599ZM37.6137 25.8196L37.8557 25.9406L37.6809 25.9809L37.5062 25.8599L37.6137 25.8196ZM42.7611 25.7658L42.7343 25.7524V25.7121L42.8015 25.7255L42.7611 25.7658ZM37.4659 25.5911L37.3853 25.6449L37.2912 25.6314L37.3046 25.6046L37.4659 25.5911ZM42.4923 25.4702L42.4655 25.4836L42.452 25.403L42.5058 25.4433L42.4923 25.4702ZM39.0652 25.2954L39.0518 25.403H39.0115L38.998 25.2686L39.0652 25.2954ZM42.3445 25.1476L42.3848 25.2014L42.1967 25.282L42.2773 25.1745L42.3445 25.1476ZM43.4869 24.4756H43.5675L43.6078 24.5428L43.4734 24.5294L43.4869 24.4756ZM35.1677 24.4084L35.0871 24.4353L35.0736 24.395H35.1408L35.1677 24.4084ZM34.4554 24.274L34.5898 24.395L34.6167 24.5966L34.442 24.4622L34.4554 24.274ZM34.7511 24.2337L34.993 24.3412L35.1274 24.5563L34.8317 24.4622L34.7511 24.2337ZM35.2349 24.0993L35.329 24.1262L35.2887 24.18L35.1677 24.1262L35.2349 24.0993ZM43.5003 23.5214L43.5138 23.5348L43.3391 23.6289L43.4062 23.5214H43.5003ZM25.5583 23.5886H25.5046L25.4643 23.5348L25.4777 23.508L25.5583 23.5886ZM25.3567 23.3736L25.3299 23.4273L25.2627 23.3601L25.3567 23.3198V23.3736ZM25.1551 23.2661H25.1955L25.1686 23.3333L25.1148 23.2795L25.1551 23.2661ZM42.9493 23.2929L42.8552 23.2795L42.8821 23.1989L42.9493 23.2661V23.2929ZM25.3433 23.2661H25.2627L25.2761 23.1854L25.3164 23.1989L25.3433 23.2661ZM23.2198 23.0241L23.1392 23.0107L23.3408 22.9973V23.0241H23.2198ZM25.2895 23.0376H25.2223L25.2358 22.9973L25.2761 22.9838L25.2895 23.0376ZM24.846 22.9704L24.967 22.9973L24.9401 23.051L24.8595 23.0107L24.846 22.9704ZM24.7788 22.9301L24.7923 22.9704L24.7251 22.9301V22.8897L24.7788 22.9301ZM24.5772 22.8494L24.6847 22.8091L24.5504 22.9032L24.416 22.9301L24.5772 22.8494ZM38.7696 22.9032L39.1055 22.9838V23.1182H38.7158L38.7696 22.9032ZM33.9447 23.0107L33.8506 23.1451L33.7162 23.0107L33.8103 22.7553L33.9447 23.0107ZM23.8515 22.8091H23.8112L23.838 22.7553L23.9052 22.7419L23.8515 22.8091ZM38.2454 22.7419L38.4201 22.7957L38.447 23.2661L38.1244 23.4676L37.6809 23.4811L37.5465 23.1585L37.8019 22.7822L38.2454 22.7419ZM36.8746 22.836L36.8074 22.8091L36.8208 22.7285L36.9552 22.7688L36.8746 22.836ZM35.6381 22.715L35.6919 22.7285L35.6515 22.7553L35.5843 22.715H35.6381ZM38.8099 22.7957L38.7158 22.6613H38.783L38.8368 22.7285L38.8099 22.7957ZM24.2144 22.5672V22.5941L24.2412 22.6209L24.08 22.6344L24.2144 22.5672ZM26.7007 22.6881L26.4857 22.5806L26.6335 22.5672L26.7276 22.6075L26.7007 22.6881ZM37.0493 22.5269L37.0224 22.6344H36.888L37.009 22.5537L37.0493 22.5269ZM38.6755 22.5672L38.568 22.5806L38.5142 22.5269L38.5545 22.5L38.6755 22.5672ZM38.5142 22.5806L38.5545 22.7285L38.3126 22.6075L38.3798 22.4597L38.5142 22.5806ZM27.8028 22.4194L27.7759 22.5672L27.5743 22.4865L27.6952 22.3925L27.8028 22.4194ZM28.4479 22.3253L28.3403 22.4597L28.2597 22.4328V22.2715L28.4479 22.3253ZM28.5016 22.3118L28.421 22.2715L28.4479 22.164L28.4882 22.2043L28.5016 22.3118ZM14.1211 22.1774L14.148 22.2043L14.0539 22.1909L14.0674 22.1371L14.1211 22.1774ZM27.8431 22.2043L27.8565 22.1102L27.8968 22.1237L27.8834 22.1909L27.8431 22.2043ZM32.2647 22.0162L32.3185 22.1102L32.2647 22.1237L32.2244 22.0162H32.2647ZM37.103 21.9893V22.1102L36.9418 22.3387L36.7133 22.3253L37.103 21.9893ZM14.3227 21.8683L14.3899 21.8146L14.3093 21.949L14.2152 21.9221L14.3227 21.8683ZM35.7994 21.9624L35.88 21.9893L35.8935 22.0296L35.7322 21.9758L35.7994 21.9624ZM32.426 21.9893L32.3588 22.0968L32.2916 22.043L32.3588 21.9624L32.426 21.9893ZM37.6675 21.9758L37.8153 22.0027L37.6137 22.1909L37.5197 22.0834L37.6675 21.9758ZM28.0044 21.8818L28.1253 21.9355L28.0312 22.0027L27.9909 21.949L28.0044 21.8818ZM29.8456 21.8683H30.0472V22.0162L29.8859 21.9355L29.8456 21.8683ZM30.2353 21.8414L30.3429 21.8952L30.2219 22.043L30.2085 21.8818L30.2353 21.8414ZM13.0056 21.8549L12.9116 21.8952L12.8444 21.8549L12.9116 21.8146L13.0056 21.8549ZM37.2912 21.7877L37.0762 21.9221L36.9418 21.9086L37.1702 21.7474L37.2912 21.7877ZM36.6192 21.6936L36.673 21.828L36.1757 21.8011L36.3907 21.707L36.6192 21.6936ZM35.4903 21.7339L35.4634 21.7474L35.3559 21.7205L35.4231 21.6802L35.4903 21.7339ZM31.7675 21.6802L31.7943 21.6398L31.9019 21.6936L31.875 21.7608L31.7675 21.6802ZM29.5634 21.6264H29.523L29.5096 21.5995H29.5634V21.6264ZM33.6893 21.4786H33.8506L33.7834 21.5861L33.5415 21.492L33.6893 21.4786ZM23.8515 21.3442H23.6768L23.6096 21.2904L23.7708 21.3307L23.8515 21.3442ZM21.943 21.1695H22.0774L21.8893 21.2232L21.8087 21.1695H21.943ZM21.7683 21.1695H21.6339L21.6071 21.156L21.6339 21.1291L21.7683 21.1695ZM17.3064 21.1157L17.2392 21.1291L17.1988 21.1695L17.2392 21.0888L17.3064 21.1157ZM28.2328 21.0619L28.3135 21.0754L28.421 21.2232L28.2463 21.1695L28.2328 21.0619ZM39.2131 20.5244L39.3475 20.5109L39.2803 20.605L39.1727 20.5781L39.2131 20.5244ZM39.3878 20.4303H39.2803L39.3071 20.3631L39.3743 20.3496L39.3878 20.4303ZM26.6738 19.0997L26.405 19.4626L25.9078 19.0325L25.8809 18.8041L26.4453 18.7638L26.6738 19.0997ZM26.7545 16.7075L26.9023 16.4118L27.413 16.7075L27.5608 16.9628L27.0367 17.0569L26.7545 16.7075ZM32.3723 15.6054L32.6411 15.8608L32.4529 15.9683L32.0228 15.7936L32.3723 15.6054ZM26.5125 15.7936L26.7276 16.0086H26.4185L26.0825 15.5113L26.5125 15.7936ZM34.2538 34.7839L34.2001 34.7973H34.1194L34.1463 34.757L34.2538 34.7839ZM33.3937 34.2328L33.4474 34.2732H33.2996L33.313 34.2194L33.3937 34.2328ZM35.5843 35.644L35.7053 35.6709L35.7591 35.8994L35.1946 35.7247L35.5843 35.644ZM35.1677 35.6843L35.1543 35.7247L35.0871 35.7112L35.114 35.6709L35.1677 35.6843ZM34.872 35.5096L34.9796 35.5499L34.9124 35.6306L34.8586 35.5634L34.872 35.5096ZM37.9363 36.5579L37.8825 36.5848L37.9094 36.5445L38.0035 36.531L37.9363 36.5579ZM30.2488 15.4845L31.203 15.5113L31.0955 15.7533L30.1009 15.7398L30.2488 15.4845ZM44.5486 35.6575L44.0648 35.9263L43.8498 35.644L44.2261 35.1467L44.2933 35.5231L44.5486 35.6575ZM43.6616 35.0392L43.675 35.4424L43.4466 35.6843L43.1643 35.4559L43.6213 35.429L43.6616 35.0392ZM15.613 32.0556L15.5189 31.9615L15.828 31.9078L15.8549 32.2035L15.613 32.0556ZM15.3442 31.3971L15.8817 31.4105L15.7473 31.9078L15.3979 31.7868L15.3442 31.3971ZM36.673 30.3488L36.4714 30.4429L36.767 30.0128L36.8611 30.1472L36.673 30.3488ZM30.6385 17.1779L31.0955 17.5676L31.0552 18.0514L30.4638 18.0246L29.859 17.7827L30.0203 17.4198L30.6385 17.1779ZM24.7519 15.0141L24.0531 14.9469L23.3005 15.0544L23.2333 14.9469L24.3488 14.6243L24.7251 14.7722L24.7519 15.0141ZM30.1413 14.8662L30.5713 14.9738L30.5445 15.1888L29.765 15.471L29.3886 15.256L29.1467 14.8528L29.2408 14.5706L30.0337 14.7453L30.1413 14.8662ZM41.5919 36.0741L41.4844 36.0338L41.4978 35.8591L41.3903 35.8322L41.35 35.7784V35.1199L40.7721 34.9317L40.463 35.308L40.3554 35.7247L39.8716 36.1547H38.5948L39.0652 35.9531L39.2131 35.644L40.2614 35.1602L40.8527 34.542L41.9816 34.0447L42.4789 34.0313L42.7746 34.206L42.7343 34.4479L42.2908 34.6629L41.8607 34.6092L42.2101 34.8242L42.6671 34.7436L42.4117 35.0661L42.8283 35.644L43.4734 35.8591L43.7019 35.7247L44.0648 35.9934L43.245 36.316L42.909 36.3026L42.2236 36.9208L41.9816 36.6117L42.0623 36.3698L42.5192 36.0875L42.6536 35.7112L42.116 36.0472L41.5919 36.0741ZM39.0115 35.8591L39.0921 35.8053L39.0518 35.8994L39.0383 35.9397H38.8905L38.9711 35.8859H38.9308L38.9846 35.8187H39.0518L39.0115 35.8591ZM18.8519 33.87L18.6638 33.7625L18.7982 33.7893L18.8519 33.87ZM20.3437 17.1107L20.1824 16.8016L20.0077 17.0435L19.5642 17.03L19.4029 16.7747L19.9137 16.6134L21.0023 15.8339L21.9565 15.6592L22.3731 15.8742L22.0237 15.9817L22.1715 16.3984L21.7011 16.5462L21.5399 16.8956L21.0829 17.3795L20.7604 17.2988L21.4592 16.8688L21.4323 16.3312L21.1232 16.3715L20.8948 16.8956L20.3437 17.1107ZM46.914 34.7973L47.2903 34.6092L47.4113 34.9048L47.2769 35.2677L46.7796 35.2005L46.9275 34.9452L46.4839 35.0124L46.1614 35.2408L46.1883 34.8242L44.804 34.878L44.6965 34.7167L44.9787 34.3672L45.7716 32.9426L46.2017 33.1308L45.7716 33.6146L46.2689 33.6684L46.1883 33.9506L46.8199 33.7625L47.0753 34.0178L46.8871 34.3672L47.2231 34.4344L46.914 34.7973ZM34.2404 25.8196L33.6221 25.8734L33.9985 25.5508L33.9178 25.2282L34.1194 24.4622L34.2941 24.3547L34.5629 24.8251L34.657 24.6503L35.5575 25.1207L35.8666 25.4702L36.4042 25.7255L36.0816 25.954L35.0736 25.5374L35.0333 25.7524L34.3748 26.169L34.2404 25.8196ZM29.2946 21.6398L29.765 21.9221L30.1681 22.3522L30.4235 22.3656L29.8994 22.6478L29.523 22.5941L28.6629 22.2446L29.1467 22.0162L29.2946 21.6398ZM26.9157 21.0082L27.8968 21.4786L28.1522 21.7205L27.5474 21.6936L27.3727 22.0027L27.6818 21.9221L27.7624 22.2446L27.1442 22.4194L25.9481 22.1371L25.9078 21.9221L25.5852 22.2581L24.9401 22.4462L23.2198 22.6478L23.0451 22.1371L22.1312 22.0565L21.5533 21.5726L21.7415 21.4651L22.8435 21.3307L23.9052 21.3711L23.6499 21.1963L22.9241 21.0485L22.1043 21.1695L21.4995 21.1291L21.177 20.82L22.0774 20.5647L22.1984 20.4303L21.2576 20.5647L21.2979 20.3496L20.9082 20.3765L20.8948 20.1615L21.2711 19.933L21.0963 19.7852L21.5802 19.4089L22.6957 19.046L22.9376 19.2341L23.0317 19.6373L23.3139 19.3282L24.0262 19.5567L23.8515 19.8792L24.2816 19.6508L24.6041 19.718L24.2412 19.3417L24.4832 19.3551L25.0611 19.6777L25.4239 20.3765L25.6121 20.1749L25.4105 20.0002L25.2761 19.5298L25.3164 18.925L25.6524 19.1938L25.9212 19.1804L26.3647 19.5029L26.3916 19.7583L26.7679 20.4168L26.6738 20.7797L26.9157 21.0082ZM37.224 18.831L37.9766 19.2745L37.9497 19.4895L36.4848 19.4492L36.1757 19.1266L36.1354 18.7638L37.224 18.831ZM29.8994 20.1615L29.2408 20.3631L29.0123 20.6453L28.2463 19.9599L27.7759 19.8524L27.413 19.4895L27.7356 19.2745L27.9909 19.5567L28.3269 19.5433L28.421 19.2476L27.8565 18.9653L28.0716 18.7772L29.2408 18.495L29.3886 18.1993L29.308 18.6159L29.6037 18.6831L29.644 19.046L29.1602 19.3148L29.6037 19.3685L29.7784 19.1938L29.98 19.7852L29.8994 20.1615ZM19.9002 18.1321L20.4647 18.3606L21.2979 18.3471L21.7818 18.5084L22.4 18.9788L20.8679 19.6239L20.4647 19.9868L20.2765 20.484L19.2954 20.7797L18.9057 20.3228L18.1665 20.1212L18.5966 19.3013L19.0266 18.7503L18.6369 18.2934L19.9002 18.1321ZM28.3807 17.7692L28.2194 17.4332L28.5823 17.2585L27.4533 17.3795L27.1845 17.1779L27.628 16.9763L27.7893 16.6L28.5823 17.0166L28.0447 16.4924L28.1253 16.358L29.4424 16.5731L29.5365 17.4063L29.2946 17.7558L28.3807 17.7692ZM24.4966 17.0569L24.7923 16.8822L24.3622 16.7209L25.0073 16.2505L25.1148 16.936L25.6927 17.0569L25.8674 16.9225L26.311 17.0569V17.3257L27.077 17.6348L26.6738 17.7423L26.2438 17.5004L26.1094 17.7289L25.1551 17.8499L24.9939 17.7289L23.8515 18.1858L23.0451 18.2262L22.7494 18.0246L23.408 17.7961H23.8112L24.1472 17.5811L22.9376 17.7289L22.9107 17.487L22.5344 17.8095L21.5264 17.6214L22.1581 16.6806L22.5613 16.5462L22.5747 16.3312L22.7494 16.3715L22.9376 16.815L23.3273 16.7478L23.9321 17.0972L24.0128 17.366L24.9535 17.3795L24.9804 17.2182L24.4966 17.0569ZM36.7267 17.8767L36.4176 18.0783L35.7725 18.2127L35.0871 18.1186L33.434 18.2127L32.9502 18.0514L32.5201 18.159L31.6868 17.9574L31.4987 17.6079L31.6465 17.0704L31.2433 16.6672L30.867 16.7612L30.1681 16.6403L29.7784 16.1565L30.195 16.0758L31.0148 16.2102L31.2702 16.4521L31.9153 16.3984L32.7486 16.815L32.426 16.9225L33.219 17.366L34.0925 17.3526L34.993 17.1107L36.0413 17.151L36.6192 17.4063L36.6326 17.6348L36.3101 17.7558L36.7267 17.8767ZM24.4294 15.7129L23.6768 15.8608L23.2467 15.6995L23.0854 15.4441L22.8569 15.5382L22.4806 15.3232L22.7898 15.2157L23.2198 15.3635L24.2278 15.2022L24.6444 15.3097L24.4294 15.7129ZM27.0233 14.0867L27.5474 14.3958L27.8431 14.3421L28.6763 14.7722L28.5554 14.9066L28.9048 15.3904L28.0178 15.4307L28.085 15.1082H27.3996L27.413 14.9603L26.7276 15.0544L26.4991 14.8528H27.0905L26.8754 14.4227L26.2841 14.3824L26.3513 14.1136L27.0233 14.0867ZM32.1975 12.9847L32.762 13.0116L32.883 13.3341L33.1114 13.1056L33.4071 13.1325L33.7028 13.5895L33.6221 13.8986H34.2673L34.5226 14.1539L33.8909 14.3555L32.8964 15.135L31.7003 15.1082L30.7864 14.4362L31.203 14.2615H31.7406L31.4584 14.0061L30.9342 14.1808L30.195 14.0464L29.8187 13.3744L30.5579 13.4685L29.8725 13.2535L30.0875 12.9712L30.4235 12.9444L30.3025 12.7696L30.5579 12.5277L31.2299 12.4874L30.7461 12.3396L31.1896 12.2321L31.7809 12.4337L32.1975 12.9847ZM18.8519 33.87L18.8654 33.8969V33.9103L18.8519 33.87Z"
      fill="white"/>
    <path d="M34.9124 15.7264L34.2673 15.6861L34.4688 15.2291L33.9716 15.1216L33.5012 15.1754V14.8931L33.8506 14.584L34.3882 14.4899L35.208 14.584L35.7725 14.5302L34.778 14.4496L34.4823 13.8583L33.9044 13.7373L33.9178 13.2132L34.9661 13.2804L35.6112 13.6298L35.8263 13.8851L35.9069 13.5491L35.208 13.2132L37.2777 12.9578L36.4982 12.9444L37.8422 12.6756L36.6326 12.7428L35.3156 13.0116L34.9392 12.81L34.7242 13.0384L33.7969 12.9578L34.0522 12.5949L33.5818 12.9309L32.7351 12.7024L33.8103 12.5815L33.8909 12.4605L32.5604 12.5681L32.3588 12.4202L33.1383 12.0305L32.3051 12.2321L32.6545 11.9767H31.7137L32.09 11.7751L33.2593 11.5198L34.5898 11.6407L33.7969 11.4929L34.3479 11.345L34.1866 11.1703L35.3021 11.3316L36.4714 11.6542L35.3962 11.251L35.6515 10.9687L36.2429 11.0762L35.8531 10.8478L36.5251 10.8746L36.4176 10.6999L37.6272 10.7806L38.0304 10.5924L38.7964 10.6462L38.9443 10.7806L39.2803 10.5655L40.5974 10.5252L40.6242 10.6462L41.9279 10.7537L41.0274 11.009L41.4978 10.9822L42.5864 10.7268L43.2987 11.13L43.8363 11.1434L43.9304 11.4391L42.7208 11.8961L42.3176 11.8557L41.8069 12.1111L40.4495 12.4337L42.6536 12.0573L41.1618 12.81L40.2076 13.3744L39.885 13.7507L39.119 13.7104L39.1996 13.9255L38.111 14.1002L37.5197 14.0061L37.5465 14.1674L38.6889 14.2077L38.6755 14.3824L38.0304 14.3018L37.3181 14.3555L38.1648 14.4227L38.6217 14.5974L38.5545 14.7722L37.8825 14.8125L38.4336 14.9603L38.2454 15.1888L37.439 15.4441L37.1702 15.8205L36.1757 15.8608L36.8746 16.0489L36.7267 16.1968L37.3181 16.1699L37.3718 16.4252L36.7805 16.7075L36.9283 17.0838L36.5789 17.0704L36.7402 16.7209L36.0547 16.8688L36.1757 16.6268L34.9258 16.5865L34.7242 16.7209L33.5281 16.6L32.4663 16.5731L32.2647 16.3849L33.1786 16.0221L33.4206 15.8473L33.219 15.4576L33.6087 15.3769L34.106 15.5382L34.1732 15.7801L34.9124 15.7264ZM34.9124 15.7264H34.9258M34.9258 15.7264L35.1274 15.6995L35.3693 15.2694L34.9258 15.7264ZM17.8977 33.2921L17.938 33.3055L17.9111 33.3189L17.387 33.1711L17.172 33.2249L17.4139 33.5877L17.8305 33.6549L17.8439 33.7087L17.8843 33.8162H17.8708L17.9111 33.9372L18.6638 34.3672L19.1073 34.5016L19.2148 34.3404L19.1476 34.2866L19.3223 34.2597L19.2014 34.2463L19.1073 34.1791L19.1342 34.2866L18.7175 33.9506L18.4756 33.6281L18.4084 33.5609V33.5474L18.3412 33.4533L18.2606 33.4265L18.2337 33.4399L18.1799 33.413L18.2203 33.4265H18.2337L18.1262 33.3861L18.2606 33.413L18.2875 33.4265L18.4084 33.4399L18.4218 33.3996L18.4622 33.4265L18.4487 33.4533L18.5697 33.4802L18.5966 33.5743L18.6638 33.534L18.6234 33.4937L18.5966 33.4802L18.6906 33.5071L18.6369 33.6549L19.2148 33.9506L19.2954 34.1522H19.3223L19.3492 34.0985L19.4298 34.1522H30.4235L31.4449 34.3807L31.9287 34.636L32.6679 34.6629L33.2727 34.1522L33.9178 34.2597L34.1463 34.6629L34.5495 34.7032L34.6973 35.429L34.8452 35.4021V35.4962L36.1891 35.6978L36.5923 36.2622L36.4445 36.4101L35.9607 36.0338L35.7859 36.9611L35.5171 37.1224L35.4768 37.2971L35.4231 37.3509L35.5171 37.4449L35.2618 37.4718L35.4365 37.5928L35.9472 37.2971L36.9149 37.1627L36.8611 37.1224V37.0821V37.0552V37.0014L36.5789 36.9745L36.888 36.7192L38.1648 36.4101L38.3664 36.2219L38.5948 36.1547M17.8977 33.2921H18.0187L18.059 33.2383L18.0187 33.198L17.8977 33.2921ZM17.8977 33.2921L17.4273 33.0233L17.3467 32.5394M17.3467 32.5394L17.2795 32.7142L17.2392 32.647L17.2795 32.5529L17.3467 32.5394ZM17.3467 32.5394V32.526H17.3601L17.387 32.4857H17.3467L17.3332 32.4722H17.3736L17.3601 32.4185L17.3332 32.4454L17.2929 32.1766L17.0913 31.975L16.9838 32.2303L16.8628 32.0422L16.8763 31.9884L16.8091 31.975V31.9212L16.8763 31.8809V31.9615L16.9032 31.8809L17.051 31.9481L16.9972 31.8943L17.0913 31.4777L16.9166 31.6927L17.0107 31.6524L16.9838 31.7196L16.9032 31.7599L16.8897 31.7331L16.8091 31.8271L16.3521 31.3299L16.5403 30.9401V30.7923V30.4429L15.8145 30.0531L15.1829 29.0182L14.5647 28.4941L14.3496 28.1984L14.0136 28.3194L13.5836 28.7226L13.5029 28.521L12.8847 28.0237L12.1589 27.8893L12.1455 21.8146L12.8981 21.9086L13.6642 22.2984L14.2018 22.3387L14.2152 22.0565L15.035 21.9221L15.2501 21.9893L16.3925 21.4383L16.7419 21.5458L15.7473 21.8952L15.3979 22.2312L16.0565 21.8549L16.164 22.0834L16.4059 21.7877L17.6827 21.3845L17.8843 21.7608L18.3546 22.043L18.731 21.492L18.7713 22.0162L19.2685 21.9221L19.3492 21.6802L19.954 21.7339L20.4244 21.9893L21.3114 22.2581L22.1312 22.4059L22.1446 22.2715L22.8435 22.5672L22.9107 22.7957L22.5344 22.7688L22.3194 23.0107L22.9779 23.172L23.9052 23.1585L24.3756 22.9838L24.8595 23.1182L24.9939 23.4004L25.3164 23.4542L25.4911 23.9515L25.639 23.5617L25.3164 23.1585L26.2572 22.5269L25.4643 22.8494L24.9939 22.7688L25.2089 22.5269L26.19 22.3522L26.3782 22.715L26.7141 22.9435L27.1711 22.9569L27.8968 23.1854L28.2194 23.0645L29.1602 23.1048L29.4827 23.2392L29.0258 22.715L29.6037 22.6344L29.7784 22.9435L30.1413 22.7553L29.9128 23.3198L30.3697 23.7096L30.316 22.9166L30.5579 22.9435L31.0686 22.379L30.652 22.4462L30.7729 21.949L30.0203 21.6533L29.8859 21.3173L29.9262 20.6184L30.4101 20.1346L30.652 20.1077L30.4369 20.1212L30.4504 19.7583L30.2085 19.4895V18.8578L30.3966 18.5622L31.0283 18.4412L31.5928 18.5756L32.4126 18.6562L31.754 19.4626L31.539 19.5701L30.8401 19.5164L31.1089 19.7583L30.8536 20.0808L30.6789 20.0943L31.2164 20.4975L31.2836 20.941L31.875 21.4517L31.3508 21.7742L31.7809 21.9221L32.3185 22.3522L32.3857 22.7957L32.6276 22.2446L32.9233 22.1102L33.313 22.4597L33.1249 22.7688L33.4878 23.5617L34.1329 22.9301L34.2269 22.4597L34.6032 22.2446L34.2941 22.0699L34.2807 21.7205L34.7511 21.6667L34.9392 21.707V21.6802L35.0736 21.7205L35.0468 21.7339L35.4365 21.8146L35.9472 22.1371L35.7591 22.3253L35.9741 22.5269L35.4231 22.6478L35.9875 23.3333L35.88 23.6424L35.1408 24.0724L34.7376 23.6558L35.0064 24.18L34.3882 24.1262L34.3076 23.9246L33.77 24.0187L34.1463 24.2068L33.5415 24.7444H33.3265L32.6142 24.3412L32.883 24.7579L33.6759 24.8116L33.2996 25.4836L32.8695 25.6449L32.5067 25.497L32.426 25.8196L32.1035 25.8734L32.1169 25.8868M32.1169 25.8868L32.2379 25.9271L32.211 25.954L32.1975 25.9271L32.1169 25.8868ZM32.1169 25.8868L32.2379 26.2093L31.418 26.5722L30.7595 27.5533L30.5713 28.1043L30.7192 28.8301L31.2299 28.8166L31.5121 29.5693L31.4315 29.8515L32.09 29.6768L32.9367 29.9053L33.4609 30.3622L34.6436 30.8057L35.5575 30.9132L35.6381 31.5987L35.5709 32.0556L36.5789 33.0367L37.0762 32.3916L36.888 32.0287L36.8208 31.424L36.5789 31.1417L37.3718 30.7923L37.8019 30.3622L37.8825 29.9456L37.6541 29.2736L37.0493 28.8838L37.56 28.1984L37.2105 27.5533L37.4659 27.177L37.224 26.6797L37.4928 26.4916L38.568 26.7738L39.0115 26.5588L39.8044 27.0695L39.7507 27.2576L40.7183 27.5936L40.5436 27.7549L40.6914 28.7226L40.9602 28.7091L41.4037 29.1795L42.1429 28.7495L42.2504 28.2387L42.5192 27.8624L42.7074 27.9296L42.788 28.2253M42.788 28.2253L42.8283 28.1581L42.8687 28.2119L42.8149 28.2522L42.788 28.2253ZM42.788 28.2253L42.8418 28.4269L43.1106 28.4941L43.2853 28.8973L43.917 29.7574L43.6885 30.0397L44.5352 30.8864L45.5432 31.2224L45.2475 31.3702L45.6104 31.639L46.1345 31.8003L46.2151 32.4588L45.6641 32.8889L45.019 33.0098L44.5352 33.4533L43.7691 33.5743L43.5272 33.4802L41.8876 33.4937L41.5247 33.9775L40.8527 34.2597L40.5033 34.7704L39.9254 35.2946L39.2803 35.5634L38.5948 36.1547M38.5948 36.1547H39.8716L40.3554 35.7247L40.463 35.308L40.7721 34.9317L41.35 35.1199V35.7784L41.3903 35.8322L41.4978 35.8591L41.4844 36.0338L41.5919 36.0741L42.116 36.0472L42.6536 35.7112L42.5192 36.0875L42.0623 36.3698L41.9816 36.6117L42.2236 36.9208L42.909 36.3026L43.245 36.316L44.0648 35.9934L43.7019 35.7247L43.4734 35.8591L42.8283 35.644L42.4117 35.0661L42.6671 34.7436L42.2101 34.8242L41.8607 34.6092L42.2908 34.6629L42.7343 34.4479L42.7746 34.206L42.4789 34.0313L41.9816 34.0447L40.8527 34.542L40.2614 35.1602L39.2131 35.644L39.0652 35.9531L38.5948 36.1547ZM18.8519 33.87L18.6638 33.7625L18.7982 33.7893L18.8519 33.87ZM18.8519 33.87L18.8654 33.8969V33.9103L18.8519 33.87ZM18.0187 33.3593L18.0052 33.3458H17.9918L18.0187 33.3593ZM19.2014 33.9372L19.1879 33.87L19.1476 33.8834V33.9237L19.2014 33.9372ZM17.5886 32.4454L17.6423 32.3513L17.4407 32.4454L17.387 32.6066L17.5886 32.4454ZM29.5634 23.1451L29.4827 23.172L29.4962 23.2257L29.5634 23.1854V23.1451ZM18.1531 34.0581L18.2203 34.0716V34.0313H18.1934L18.1531 34.0581ZM18.1127 34.0044L18.0993 33.9506H18.0455V34.0044H18.1127ZM42.6133 25.7658V26.29L42.3714 26.3841L41.8472 26.2362L41.4709 25.9674L41.4306 26.1825L42.0892 26.7335L41.9548 26.9485L41.0543 26.7066L40.6377 26.4513L39.791 26.1287L39.8447 25.8734L39.4147 25.6986L39.0921 25.2148L38.6083 25.3626L38.1513 25.2148L37.8019 25.4836L37.3449 25.3761L37.224 24.9998L37.5062 24.6638L38.1782 24.8251L38.7964 24.6235L39.0921 24.6638L38.6889 24.2068L39.2937 23.8171L39.6028 23.4542L39.2803 22.7957L38.9443 22.7285L38.2857 22.2581L37.8288 22.4865V22.2581L38.2454 22.1102L37.4121 21.6802V21.4248L36.9014 21.3307L36.9686 21.6533L35.7859 21.4651L35.6247 21.7205L33.985 21.4786L33.0174 21.2232L32.6679 20.7663L33.5549 20.8738L33.2593 20.6856L32.5739 20.5916L32.4529 20.1615L32.6679 19.5029L32.9098 19.1266L33.3802 18.7906L33.8103 18.6966L34.442 18.7234L33.8103 19.4895L33.9313 20.0943L34.5495 20.6319L34.2941 19.9061L34.6839 20.0136L34.2135 19.6239L34.4151 19.1669L35.3559 18.7772L35.88 18.7906L36.3773 19.5433L36.1488 20.1212L36.552 19.718L36.9149 20.0943L37.103 19.6642L37.439 19.5298L38.3932 19.7314L38.3664 20.0136L38.783 20.0405L38.7696 20.2959L39.2534 20.6453L39.4819 20.3631L40.0329 20.6453L39.6566 20.7797L39.6297 20.8603L39.7372 20.7931L39.8716 20.8872L40.1538 20.7528L39.9926 21.1426L40.5033 20.9275L41.1215 21.1426L41.6188 21.7608L41.3365 21.7877L41.3769 21.828L41.2962 21.8818L41.3769 21.8952L41.4709 21.8414L41.5516 21.8818L41.4306 21.9086L41.5785 21.949L41.7532 22.1774L41.3769 22.2446L41.229 22.4194L41.1887 22.4059H41.1081L41.2156 22.4328L41.1215 22.5537L41.7128 22.6747L41.8338 22.8225L41.8741 22.7957H41.9682L41.9548 22.8494L41.8338 22.836L41.9548 22.9838L42.4789 22.9301L42.8955 23.4408H42.9359L43.0299 23.4139L43.124 23.4408H43.1106L43.2584 23.4542L43.124 23.723L43.6616 23.6155L43.8766 24.059L43.4466 24.1531L43.4197 24.5294L43.0031 24.6638L43.0568 25.0267L42.6402 24.9057L41.7263 23.9515L41.3231 24.0052L41.6188 24.3009L41.2828 24.5966L42.237 25.1207L42.1832 25.2954L42.6133 25.618V25.6718L42.6267 25.739L42.6939 25.8196L42.6133 25.7658ZM39.6163 20.9275L39.5894 21.0082L39.7103 20.9544L39.6431 20.9813L39.6163 20.9275ZM41.2828 21.7877L40.9737 21.8146L41.1484 21.8549L41.2828 21.7877ZM40.0598 35.2274H40.0194L40.1135 35.1467L40.127 35.1871L40.0598 35.2274ZM19.0535 34.085L19.1207 34.1656L19.2014 34.1925L19.1207 34.1791L19.0535 34.085ZM42.8149 33.6549L43.7154 33.9641L43.5675 34.1119L43.0299 33.9506L42.8149 33.6549ZM18.5428 33.6146L18.5159 33.5743L18.5428 33.534L18.5831 33.5877L18.5428 33.6146ZM17.387 32.862L17.3064 32.8486L17.2795 32.7814L17.3332 32.7276L17.387 32.862ZM36.8477 32.526L36.7536 32.5932L36.6326 32.6201V32.5663L36.8477 32.526ZM16.1371 32.526L16.1102 32.5394L16.0968 32.5798V32.4991L16.1371 32.526ZM17.2526 32.5663L17.2257 32.526L17.2392 32.4722H17.2795L17.2526 32.5663ZM17.2257 32.4454L17.2123 32.4991H17.1316L17.1585 32.4454H17.2257ZM17.0644 32.3244L17.0913 32.405L17.0644 32.4319L17.0376 32.3379L17.0644 32.3244ZM17.1316 32.2572L17.1451 32.311L17.1316 32.3379L17.051 32.2572H17.1316ZM15.8817 32.19H15.9489L15.9624 32.2303L15.9086 32.2572L15.8817 32.19ZM17.1854 32.3782L17.1585 32.2438L17.1854 32.1497L17.2257 32.311L17.1854 32.3782ZM16.8091 32.1497L16.9569 32.2438L16.9704 32.311L16.8897 32.2707L16.8091 32.1497ZM17.2392 32.2438L17.2257 32.2169L17.2123 32.1631L17.266 32.1497L17.2392 32.2438ZM16.715 32.0153L16.7284 32.0691H16.6881L16.6478 31.975L16.715 32.0153ZM16.7688 31.9615L16.8225 32.0422H16.7822L16.7419 31.9347L16.7688 31.9615ZM35.9203 31.9212L36.0413 31.9347L36.2026 32.2035L35.665 32.0287L35.9203 31.9212ZM36.5386 31.9481L36.5654 31.975L36.5117 31.9884L36.5251 31.9481H36.5386ZM16.9704 31.854L16.8897 31.8675L16.8763 31.8406L16.9435 31.7465L16.9704 31.854ZM16.3118 31.7868L16.3387 31.6927L16.594 31.8271L16.5672 31.9481L16.3118 31.7868ZM16.5 31.7196L16.4059 31.7062L16.379 31.6659L16.4597 31.6255L16.5 31.7196ZM16.6344 31.6793L16.8091 31.8406L16.715 31.9212L16.4193 31.5852L16.6344 31.6793ZM16.2849 31.4374L16.4059 31.4643L16.4462 31.518L16.2984 31.6121L16.2849 31.4374ZM16.1102 31.1686H16.2446L16.2715 31.303L16.164 31.2492L16.1102 31.1686ZM36.7805 31.0073L36.6461 31.0476L36.6192 31.0342L36.8746 30.9804L36.7805 31.0073ZM16.3656 31.0745L16.3521 31.0476L16.4731 30.9267L16.4328 31.0342L16.3656 31.0745ZM36.9014 30.3488L36.9821 30.1472L37.009 30.1337V30.2816L36.9014 30.3488ZM36.6595 30.0397L36.6461 30.1472L36.4982 30.2816L36.6326 30.1472L36.6595 30.0397ZM36.5386 29.9053L36.5117 29.9187L36.5386 29.8515L36.5923 29.9187L36.5386 29.9053ZM41.4575 29.072L41.4037 29.0586L41.4172 29.0182L41.4441 29.0048L41.4575 29.072ZM40.8527 28.6554L40.7317 28.6823V28.5882H40.8258L40.8527 28.6554ZM36.3235 28.2656L36.3907 28.2387L36.4176 28.2656L36.3773 28.2925L36.3235 28.2656ZM36.4848 28.1447L36.5251 28.1581L36.4714 28.2119L36.4176 28.2253L36.4848 28.1447ZM42.5864 27.728L42.6939 27.9027L42.573 27.849L42.5327 27.7818L42.5864 27.728ZM41.2425 27.7146L41.3365 27.7952L41.2828 27.9027L41.1081 27.8893L41.2425 27.7146ZM37.1971 27.5668L37.1433 27.6071L37.009 27.6474L37.0358 27.6071L37.1971 27.5668ZM42.5461 27.0964L42.5192 27.2711L42.2773 27.1098L42.452 27.0426L42.5461 27.0964ZM42.1564 26.962L42.1967 27.0157L42.0892 26.9888L42.1564 26.9351V26.962ZM31.3643 26.8948L31.2702 26.962L31.2164 26.9082H31.2836L31.3643 26.8948ZM42.4386 26.9082L42.5327 27.0023L42.4117 26.9888L42.358 26.9351L42.4386 26.9082ZM36.7133 26.626L36.7536 26.8679L36.5789 27.1098L36.4042 26.7738L36.7133 26.626ZM31.5524 26.626L31.5659 26.5991L31.6465 26.6125L31.6062 26.6394L31.5524 26.626ZM42.5864 26.5319H42.7074L42.6267 26.6394L42.4924 26.5991L42.5864 26.5319ZM37.3449 26.5185L37.2509 26.4916H37.439L37.3853 26.5319L37.3449 26.5185ZM42.5058 26.5185L42.4252 26.5319L42.452 26.4916H42.5058V26.5185ZM38.7024 26.4109L38.8636 26.4378L38.8905 26.4781L38.7292 26.4647L38.7024 26.4109ZM40.1538 26.3437L40.3958 26.4916L40.1807 26.5185L39.9791 26.3169L40.1538 26.3437ZM35.6381 26.2631L35.7053 26.4244L35.2349 26.7469L34.9258 26.5588L35.1677 26.2765L35.6381 26.2631ZM41.7532 26.2765V26.29L41.6322 26.1825L41.6994 26.1959L41.7532 26.2765ZM37.1165 25.9271L37.4121 25.9674L37.4525 26.1287L37.3046 26.1825L37.1165 25.9271ZM42.8015 25.8599L42.7477 25.9406L42.7611 26.0346L42.6671 25.8465L42.8015 25.8599ZM37.6137 25.8196L37.8557 25.9406L37.6809 25.9809L37.5062 25.8599L37.6137 25.8196ZM42.7611 25.7658L42.7343 25.7524V25.7121L42.8015 25.7255L42.7611 25.7658ZM37.4659 25.5911L37.3853 25.6449L37.2912 25.6314L37.3046 25.6046L37.4659 25.5911ZM42.4924 25.4702L42.4655 25.4836L42.452 25.403L42.5058 25.4433L42.4924 25.4702ZM39.0652 25.2954L39.0518 25.403H39.0115L38.998 25.2686L39.0652 25.2954ZM42.3445 25.1476L42.3848 25.2014L42.1967 25.282L42.2773 25.1745L42.3445 25.1476ZM43.4869 24.4756H43.5675L43.6078 24.5428L43.4734 24.5294L43.4869 24.4756ZM35.1677 24.4084L35.0871 24.4353L35.0736 24.395H35.1408L35.1677 24.4084ZM34.4554 24.274L34.5898 24.395L34.6167 24.5966L34.442 24.4622L34.4554 24.274ZM34.7511 24.2337L34.993 24.3412L35.1274 24.5563L34.8317 24.4622L34.7511 24.2337ZM35.2349 24.0993L35.329 24.1262L35.2887 24.18L35.1677 24.1262L35.2349 24.0993ZM43.5003 23.5214L43.5138 23.5348L43.3391 23.6289L43.4063 23.5214H43.5003ZM25.5583 23.5886H25.5046L25.4643 23.5348L25.4777 23.508L25.5583 23.5886ZM25.3567 23.3736L25.3299 23.4273L25.2627 23.3601L25.3567 23.3198V23.3736ZM25.1551 23.2661H25.1955L25.1686 23.3333L25.1148 23.2795L25.1551 23.2661ZM42.9493 23.2929L42.8552 23.2795L42.8821 23.1989L42.9493 23.2661V23.2929ZM25.3433 23.2661H25.2627L25.2761 23.1854L25.3164 23.1989L25.3433 23.2661ZM23.2198 23.0241L23.1392 23.0107L23.3408 22.9973V23.0241H23.2198ZM25.2895 23.0376H25.2223L25.2358 22.9973L25.2761 22.9838L25.2895 23.0376ZM24.846 22.9704L24.967 22.9973L24.9401 23.051L24.8595 23.0107L24.846 22.9704ZM24.7788 22.9301L24.7923 22.9704L24.7251 22.9301V22.8897L24.7788 22.9301ZM24.5772 22.8494L24.6847 22.8091L24.5504 22.9032L24.416 22.9301L24.5772 22.8494ZM38.7696 22.9032L39.1055 22.9838V23.1182H38.7158L38.7696 22.9032ZM33.9447 23.0107L33.8506 23.1451L33.7162 23.0107L33.8103 22.7553L33.9447 23.0107ZM23.8515 22.8091H23.8112L23.838 22.7553L23.9052 22.7419L23.8515 22.8091ZM38.2454 22.7419L38.4201 22.7957L38.447 23.2661L38.1244 23.4676L37.6809 23.4811L37.5465 23.1585L37.8019 22.7822L38.2454 22.7419ZM36.8746 22.836L36.8074 22.8091L36.8208 22.7285L36.9552 22.7688L36.8746 22.836ZM35.6381 22.715L35.6919 22.7285L35.6515 22.7553L35.5843 22.715H35.6381ZM38.8099 22.7957L38.7158 22.6613H38.783L38.8368 22.7285L38.8099 22.7957ZM24.2144 22.5672V22.5941L24.2412 22.6209L24.08 22.6344L24.2144 22.5672ZM26.7007 22.6881L26.4857 22.5806L26.6335 22.5672L26.7276 22.6075L26.7007 22.6881ZM37.0493 22.5269L37.0224 22.6344H36.888L37.009 22.5537L37.0493 22.5269ZM38.6755 22.5672L38.568 22.5806L38.5142 22.5269L38.5545 22.5L38.6755 22.5672ZM38.5142 22.5806L38.5545 22.7285L38.3126 22.6075L38.3798 22.4597L38.5142 22.5806ZM27.8028 22.4194L27.7759 22.5672L27.5743 22.4865L27.6952 22.3925L27.8028 22.4194ZM28.4479 22.3253L28.3403 22.4597L28.2597 22.4328V22.2715L28.4479 22.3253ZM28.5016 22.3118L28.421 22.2715L28.4479 22.164L28.4882 22.2043L28.5016 22.3118ZM14.1211 22.1774L14.148 22.2043L14.0539 22.1909L14.0674 22.1371L14.1211 22.1774ZM27.8431 22.2043L27.8565 22.1102L27.8968 22.1237L27.8834 22.1909L27.8431 22.2043ZM32.2647 22.0162L32.3185 22.1102L32.2647 22.1237L32.2244 22.0162H32.2647ZM37.103 21.9893V22.1102L36.9418 22.3387L36.7133 22.3253L37.103 21.9893ZM14.3227 21.8683L14.3899 21.8146L14.3093 21.949L14.2152 21.9221L14.3227 21.8683ZM35.7994 21.9624L35.88 21.9893L35.8935 22.0296L35.7322 21.9758L35.7994 21.9624ZM32.426 21.9893L32.3588 22.0968L32.2916 22.043L32.3588 21.9624L32.426 21.9893ZM37.6675 21.9758L37.8153 22.0027L37.6137 22.1909L37.5197 22.0834L37.6675 21.9758ZM28.0044 21.8818L28.1253 21.9355L28.0312 22.0027L27.9909 21.949L28.0044 21.8818ZM29.8456 21.8683H30.0472V22.0162L29.8859 21.9355L29.8456 21.8683ZM30.2353 21.8414L30.3429 21.8952L30.2219 22.043L30.2085 21.8818L30.2353 21.8414ZM13.0056 21.8549L12.9116 21.8952L12.8444 21.8549L12.9116 21.8146L13.0056 21.8549ZM37.2912 21.7877L37.0762 21.9221L36.9418 21.9086L37.1702 21.7474L37.2912 21.7877ZM36.6192 21.6936L36.673 21.828L36.1757 21.8011L36.3907 21.707L36.6192 21.6936ZM35.4903 21.7339L35.4634 21.7474L35.3559 21.7205L35.4231 21.6802L35.4903 21.7339ZM31.7675 21.6802L31.7943 21.6398L31.9019 21.6936L31.875 21.7608L31.7675 21.6802ZM29.5634 21.6264H29.523L29.5096 21.5995H29.5634V21.6264ZM33.6893 21.4786H33.8506L33.7834 21.5861L33.5415 21.492L33.6893 21.4786ZM23.8515 21.3442H23.6768L23.6096 21.2904L23.7708 21.3307L23.8515 21.3442ZM21.943 21.1695H22.0774L21.8893 21.2232L21.8087 21.1695H21.943ZM21.7683 21.1695H21.6339L21.6071 21.156L21.6339 21.1291L21.7683 21.1695ZM17.3064 21.1157L17.2392 21.1291L17.1988 21.1695L17.2392 21.0888L17.3064 21.1157ZM28.2328 21.0619L28.3135 21.0754L28.421 21.2232L28.2463 21.1695L28.2328 21.0619ZM39.2131 20.5244L39.3475 20.5109L39.2803 20.605L39.1727 20.5781L39.2131 20.5244ZM39.3878 20.4303H39.2803L39.3071 20.3631L39.3743 20.3496L39.3878 20.4303ZM26.6738 19.0997L26.405 19.4626L25.9078 19.0325L25.8809 18.8041L26.4453 18.7638L26.6738 19.0997ZM26.7545 16.7075L26.9023 16.4118L27.413 16.7075L27.5608 16.9628L27.0367 17.0569L26.7545 16.7075ZM32.3723 15.6054L32.6411 15.8608L32.4529 15.9683L32.0228 15.7936L32.3723 15.6054ZM26.5125 15.7936L26.7276 16.0086H26.4185L26.0825 15.5113L26.5125 15.7936ZM34.2538 34.7839L34.2001 34.7973H34.1194L34.1463 34.757L34.2538 34.7839ZM33.3937 34.2328L33.4474 34.2732H33.2996L33.313 34.2194L33.3937 34.2328ZM35.5843 35.644L35.7053 35.6709L35.7591 35.8994L35.1946 35.7247L35.5843 35.644ZM35.1677 35.6843L35.1543 35.7247L35.0871 35.7112L35.114 35.6709L35.1677 35.6843ZM34.872 35.5096L34.9796 35.5499L34.9124 35.6306L34.8586 35.5634L34.872 35.5096ZM37.9363 36.5579L37.8825 36.5848L37.9094 36.5445L38.0035 36.531L37.9363 36.5579ZM30.2488 15.4845L31.203 15.5113L31.0955 15.7533L30.1009 15.7398L30.2488 15.4845ZM44.5486 35.6575L44.0648 35.9263L43.8498 35.644L44.2261 35.1467L44.2933 35.5231L44.5486 35.6575ZM43.6616 35.0392L43.675 35.4424L43.4466 35.6843L43.1643 35.4559L43.6213 35.429L43.6616 35.0392ZM15.613 32.0556L15.5189 31.9615L15.828 31.9078L15.8549 32.2035L15.613 32.0556ZM15.3442 31.3971L15.8817 31.4105L15.7473 31.9078L15.3979 31.7868L15.3442 31.3971ZM36.673 30.3488L36.4714 30.4429L36.767 30.0128L36.8611 30.1472L36.673 30.3488ZM30.6385 17.1779L31.0955 17.5676L31.0552 18.0514L30.4638 18.0246L29.859 17.7827L30.0203 17.4198L30.6385 17.1779ZM24.7519 15.0141L24.0531 14.9469L23.3005 15.0544L23.2333 14.9469L24.3488 14.6243L24.7251 14.7722L24.7519 15.0141ZM30.1413 14.8662L30.5713 14.9738L30.5445 15.1888L29.765 15.471L29.3886 15.256L29.1467 14.8528L29.2408 14.5706L30.0337 14.7453L30.1413 14.8662ZM39.0115 35.8591L39.0921 35.8053L39.0518 35.8994L39.0383 35.9397H38.8905L38.9711 35.8859H38.9308L38.9846 35.8187H39.0518L39.0115 35.8591ZM20.3437 17.1107L20.1824 16.8016L20.0077 17.0435L19.5642 17.03L19.4029 16.7747L19.9137 16.6134L21.0023 15.8339L21.9565 15.6592L22.3731 15.8742L22.0237 15.9817L22.1715 16.3984L21.7011 16.5462L21.5399 16.8956L21.0829 17.3795L20.7604 17.2988L21.4592 16.8688L21.4323 16.3312L21.1232 16.3715L20.8948 16.8956L20.3437 17.1107ZM46.914 34.7973L47.2903 34.6092L47.4113 34.9048L47.2769 35.2677L46.7796 35.2005L46.9275 34.9452L46.4839 35.0124L46.1614 35.2408L46.1883 34.8242L44.804 34.878L44.6965 34.7167L44.9787 34.3672L45.7716 32.9426L46.2017 33.1308L45.7716 33.6146L46.2689 33.6684L46.1883 33.9506L46.8199 33.7625L47.0753 34.0178L46.8871 34.3672L47.2231 34.4344L46.914 34.7973ZM34.2404 25.8196L33.6221 25.8734L33.9985 25.5508L33.9178 25.2282L34.1194 24.4622L34.2941 24.3547L34.5629 24.8251L34.657 24.6503L35.5575 25.1207L35.8666 25.4702L36.4042 25.7255L36.0816 25.954L35.0736 25.5374L35.0333 25.7524L34.3748 26.169L34.2404 25.8196ZM29.2946 21.6398L29.765 21.9221L30.1681 22.3522L30.4235 22.3656L29.8994 22.6478L29.523 22.5941L28.6629 22.2446L29.1467 22.0162L29.2946 21.6398ZM26.9157 21.0082L27.8968 21.4786L28.1522 21.7205L27.5474 21.6936L27.3727 22.0027L27.6818 21.9221L27.7624 22.2446L27.1442 22.4194L25.9481 22.1371L25.9078 21.9221L25.5852 22.2581L24.9401 22.4462L23.2198 22.6478L23.0451 22.1371L22.1312 22.0565L21.5533 21.5726L21.7415 21.4651L22.8435 21.3307L23.9052 21.3711L23.6499 21.1963L22.9241 21.0485L22.1043 21.1695L21.4995 21.1291L21.177 20.82L22.0774 20.5647L22.1984 20.4303L21.2576 20.5647L21.2979 20.3496L20.9082 20.3765L20.8948 20.1615L21.2711 19.933L21.0963 19.7852L21.5802 19.4089L22.6957 19.046L22.9376 19.2341L23.0317 19.6373L23.3139 19.3282L24.0262 19.5567L23.8515 19.8792L24.2816 19.6508L24.6041 19.718L24.2412 19.3417L24.4832 19.3551L25.0611 19.6777L25.4239 20.3765L25.6121 20.1749L25.4105 20.0002L25.2761 19.5298L25.3164 18.925L25.6524 19.1938L25.9212 19.1804L26.3647 19.5029L26.3916 19.7583L26.7679 20.4168L26.6738 20.7797L26.9157 21.0082ZM37.224 18.831L37.9766 19.2745L37.9497 19.4895L36.4848 19.4492L36.1757 19.1266L36.1354 18.7638L37.224 18.831ZM29.8994 20.1615L29.2408 20.3631L29.0123 20.6453L28.2463 19.9599L27.7759 19.8524L27.413 19.4895L27.7356 19.2745L27.9909 19.5567L28.3269 19.5433L28.421 19.2476L27.8565 18.9653L28.0716 18.7772L29.2408 18.495L29.3886 18.1993L29.308 18.6159L29.6037 18.6831L29.644 19.046L29.1602 19.3148L29.6037 19.3685L29.7784 19.1938L29.98 19.7852L29.8994 20.1615ZM19.9002 18.1321L20.4647 18.3606L21.2979 18.3471L21.7818 18.5084L22.4 18.9788L20.8679 19.6239L20.4647 19.9868L20.2765 20.484L19.2954 20.7797L18.9057 20.3228L18.1665 20.1212L18.5966 19.3013L19.0266 18.7503L18.6369 18.2934L19.9002 18.1321ZM28.3807 17.7692L28.2194 17.4332L28.5823 17.2585L27.4533 17.3795L27.1845 17.1779L27.628 16.9763L27.7893 16.6L28.5823 17.0166L28.0447 16.4924L28.1253 16.358L29.4424 16.5731L29.5365 17.4063L29.2946 17.7558L28.3807 17.7692ZM24.4966 17.0569L24.7923 16.8822L24.3622 16.7209L25.0073 16.2505L25.1148 16.936L25.6927 17.0569L25.8674 16.9225L26.311 17.0569V17.3257L27.077 17.6348L26.6738 17.7423L26.2438 17.5004L26.1094 17.7289L25.1551 17.8499L24.9939 17.7289L23.8515 18.1858L23.0451 18.2262L22.7494 18.0246L23.408 17.7961H23.8112L24.1472 17.5811L22.9376 17.7289L22.9107 17.487L22.5344 17.8095L21.5264 17.6214L22.1581 16.6806L22.5613 16.5462L22.5747 16.3312L22.7494 16.3715L22.9376 16.815L23.3273 16.7478L23.9321 17.0972L24.0128 17.366L24.9535 17.3795L24.9804 17.2182L24.4966 17.0569ZM36.7267 17.8767L36.4176 18.0783L35.7725 18.2127L35.0871 18.1186L33.434 18.2127L32.9502 18.0514L32.5201 18.159L31.6868 17.9574L31.4987 17.6079L31.6465 17.0704L31.2433 16.6672L30.867 16.7612L30.1681 16.6403L29.7784 16.1565L30.195 16.0758L31.0148 16.2102L31.2702 16.4521L31.9153 16.3984L32.7486 16.815L32.426 16.9225L33.219 17.366L34.0925 17.3526L34.993 17.1107L36.0413 17.151L36.6192 17.4063L36.6326 17.6348L36.3101 17.7558L36.7267 17.8767ZM24.4294 15.7129L23.6768 15.8608L23.2467 15.6995L23.0854 15.4441L22.8569 15.5382L22.4806 15.3232L22.7898 15.2157L23.2198 15.3635L24.2278 15.2022L24.6444 15.3097L24.4294 15.7129ZM27.0233 14.0867L27.5474 14.3958L27.8431 14.3421L28.6763 14.7722L28.5554 14.9066L28.9048 15.3904L28.0178 15.4307L28.085 15.1082H27.3996L27.413 14.9603L26.7276 15.0544L26.4991 14.8528H27.0905L26.8754 14.4227L26.2841 14.3824L26.3513 14.1136L27.0233 14.0867ZM32.1975 12.9847L32.762 13.0116L32.883 13.3341L33.1114 13.1056L33.4071 13.1325L33.7028 13.5895L33.6221 13.8986H34.2673L34.5226 14.1539L33.8909 14.3555L32.8964 15.135L31.7003 15.1082L30.7864 14.4362L31.203 14.2615H31.7406L31.4584 14.0061L30.9342 14.1808L30.195 14.0464L29.8187 13.3744L30.5579 13.4685L29.8725 13.2535L30.0875 12.9712L30.4235 12.9444L30.3025 12.7696L30.5579 12.5277L31.2299 12.4874L30.7461 12.3396L31.1896 12.2321L31.7809 12.4337L32.1975 12.9847Z"
      stroke="white"
      stroke-width="0.254486"/>
    <path d="M43.9029 49.0975L43.9566 49.1782L43.9163 49.2588L43.876 49.1378L43.9029 49.0975Z"
      fill="white"
      stroke="white"
      stroke-width="0.254486"/>
    <path d="M37.5052 47.9282L38.0025 48.1432L37.5993 48.2373L37.1289 48.0088L37.5052 47.9282Z"
      fill="white"
      stroke="white"
      stroke-width="0.254486"/>
    <path d="M43.9837 50.1318L43.9434 50.0512L43.9971 49.9974L44.0106 50.0646L43.9837 50.1318Z"
      fill="white"
      stroke="white"
      stroke-width="0.254486"/>
    <path d="M44.0782 49.8496L44.0244 49.7959L44.0916 49.7018L44.1051 49.7555L44.0782 49.8496Z"
      fill="white"
      stroke="white"
      stroke-width="0.254486"/>
    <path d="M43.4193 48.4385L43.3252 48.3713L43.3386 48.3578L43.379 48.3847L43.4193 48.4385Z"
      fill="white"
      stroke="white"
      stroke-width="0.254486"/>
    <path d="M37.318 52.457L37.0626 51.9194L36.6594 51.7582L36.2966 52.121L36.4713 52.363L35.759 52.457L35.7859 52.0673L35.3289 52.1345L35.2617 52.0135H35.2752V52.0001L35.4633 51.5163L35.6515 51.7716L36.0547 51.8254L36.6326 51.5028L37.103 51.5835L37.533 51.8791L37.6137 52.1748L37.318 52.457Z"
      fill="white"
      stroke="white"
      stroke-width="0.254486"/>
    <path d="M43.8089 50.5352H43.7686V50.4814L43.8223 50.4545L43.8089 50.5352Z"
      fill="white"
      stroke="white"
      stroke-width="0.254486"/>
    <path d="M43.7549 48.4658L43.7818 48.5061L43.7281 48.5195L43.7012 48.4792L43.7549 48.4658Z"
      fill="white"
      stroke="white"
      stroke-width="0.254486"/>
    <path d="M44.6553 50.1191L44.6016 50.0923L44.615 50.0116L44.6822 50.0788L44.6553 50.1191Z"
      fill="white"
      stroke="white"
      stroke-width="0.254486"/>
    <path d="M39.7093 47.9145L39.6958 47.901L39.6689 47.8742L39.7899 47.807L39.7765 47.4172L40.0721 47.3231L40.4888 47.4306L40.6232 47.6726L41.1204 47.8473L40.9054 47.9414H40.1931L39.9109 48.2773L39.763 48.1026L39.7899 47.9817L39.7093 47.9145Z"
      fill="white"
      stroke="white"
      stroke-width="0.254486"/>
    <path d="M39.7775 47.4171L39.7909 47.8069L39.67 47.8741L39.6834 47.9144H39.7103L39.7909 47.9816L39.7641 48.1025L39.1458 48.0085L38.9174 48.1025L38.7695 47.8337L39.3878 47.9413V47.5246L39.1055 47.3768L39.7775 47.4171Z"
      fill="white"/>
    <path d="M39.7103 47.9144L39.6969 47.9009M39.7103 47.9144H39.6834L39.67 47.8741L39.7909 47.8069L39.7775 47.4171L39.1055 47.3768L39.3878 47.5246V47.9413L38.7695 47.8337L38.9174 48.1025L39.1458 48.0085L39.7641 48.1025L39.7909 47.9816L39.7103 47.9144Z"
      stroke="white"
      stroke-width="0.254486"/>
    <path d="M35.0325 50.978L35.0997 51.1527L35.4626 51.5156L35.2744 51.9994L35.2207 51.8919L34.1455 51.2064L34.2127 50.9108L34.7503 50.9511L35.0325 50.978ZM35.3282 52.1338L35.261 52.0128H35.2744L35.3282 52.1338Z"
      fill="white"
      stroke="white"
      stroke-width="0.254486"/>
    <path d="M33.366 49.9836L32.9763 50.0508L32.4521 49.8492V49.8089L32.7478 49.567L33.4064 49.8089L33.366 49.9836Z"
      fill="white"
      stroke="white"
      stroke-width="0.254486"/>
    <path d="M32.8286 48.1961L32.9496 48.1558L33.1646 47.9138L33.2049 48.5321L32.9227 48.9756H32.8018L32.8286 48.1961Z"
      fill="white"
      stroke="white"
      stroke-width="0.254486"/>
    <path d="M33.205 49.0435L34.1189 48.9225L34.764 49.0031L35.2344 49.3391L34.5758 49.4063L34.1995 49.7558L33.7963 49.8364L33.5679 50.1455L33.4872 50.0246L33.3663 49.9842L33.4066 49.8095L32.748 49.5676L32.8287 49.3122L33.205 49.0435Z"
      fill="white"
      stroke="white"
      stroke-width="0.254486"/>
    <path d="M34.2131 50.9113L33.4336 50.199L33.568 50.1453L33.7965 49.8361L34.1997 49.7555L34.576 49.4061L35.2345 49.3389L34.9388 50.7904L35.0329 50.9785L34.7507 50.9516L34.2131 50.9113Z"
      fill="white"
      stroke="white"
      stroke-width="0.254486"/>
    <path d="M32.9223 48.976L33.0433 49.0298L33.2046 49.0432L32.8282 49.312L32.7476 49.5674L32.4519 49.8093V49.8496L31.9681 49.7555L31.5918 49.5136L31.8068 48.9088L32.3444 48.7744L31.9278 48.425L32.1025 48.1965H32.8282L32.8014 48.976H32.9223Z"
      fill="white"
      stroke="white"
      stroke-width="0.254486"/>
    <path d="M38.1779 45.3747L37.9225 45.079L38.0166 45.1462L38.1779 45.3747ZM38.1779 45.3747L38.3661 45.5628L38.4467 45.9929L39.374 46.3154L38.5408 46.1004L38.0838 45.7644L38.3123 45.5359L38.1779 45.3747ZM37.9225 45.079L37.5731 44.8236L37.2909 45.1462L37.4387 45.7375L37.1699 45.3478L37.1968 45.1327L37.5866 44.7161L37.9225 45.079Z"
      fill="white"/>
    <path d="M38.1779 45.3747L37.9225 45.079M38.1779 45.3747L38.0166 45.1462L37.9225 45.079M38.1779 45.3747L38.3661 45.5628L38.4467 45.9929L39.374 46.3154L38.5408 46.1004L38.0838 45.7644L38.3123 45.5359L38.1779 45.3747ZM37.9225 45.079L37.5731 44.8236L37.2909 45.1462L37.4387 45.7375L37.1699 45.3478L37.1968 45.1327L37.5866 44.7161L37.9225 45.079Z"
      stroke="white"
      stroke-width="0.254486"/>
    <path d="M37.6403 47.0945L37.0221 47.0138L36.7936 46.651L36.3098 46.4359L35.7588 46.3822L35.7319 46.1806L35.3825 46.1671L34.6836 46.5569L34.7374 46.315L35.1943 46.0462L35.6781 45.9656L36.4576 46.0193L36.7802 46.3015L36.9818 46.2478L37.1431 46.2343L37.8688 46.7988L38.5811 47.0407L38.7693 47.2692L37.3984 47.3633L37.6403 47.0945Z"
      fill="white"
      stroke="white"
      stroke-width="0.254486"/>
  </g>
  <defs>
    <linearGradient id="paint0_linear_764_3759"
      x1="nan"
      y1="nan"
      x2="nan"
      y2="nan"
      gradientUnits="userSpaceOnUse">
      <stop stop-opacity="0"/>
      <stop offset="0.5" stop-color="#808080" stop-opacity="0.1"/>
      <stop offset="1" stop-color="#808080" stop-opacity="0.1"/>
    </linearGradient>
    <clipPath id="clip0_764_3759">
      <rect width="64" height="64" fill="white" transform="translate(0.286133)"/>
    </clipPath>
  </defs>
</svg>