<svg width="124" height="20" viewBox="0 0 124 20" fill="none" xmlns="http://www.w3.org/2000/svg">
<path d="M9.54127 1.05787C9.71535 0.656427 10.2846 0.656426 10.4587 1.05787L12.5981 5.99152C12.6706 6.15859 12.8281 6.27307 13.0094 6.29034L18.3627 6.80045C18.7983 6.84196 18.9742 7.38339 18.6462 7.673L14.6152 11.2323C14.4786 11.3528 14.4185 11.538 14.4581 11.7158L15.6272 16.9647C15.7223 17.3918 15.2617 17.7264 14.8849 17.504L10.2542 14.7701C10.0974 14.6775 9.90262 14.6775 9.7458 14.7701L5.11506 17.504C4.73827 17.7264 4.2777 17.3918 4.37283 16.9647L5.54194 11.7158C5.58153 11.538 5.52135 11.3528 5.38484 11.2323L1.35377 7.673C1.02577 7.38339 1.2017 6.84196 1.63728 6.80045L6.99057 6.29034C7.17186 6.27307 7.32942 6.15859 7.40187 5.99152L9.54127 1.05787Z" fill="#FFD88D"/>
<path d="M35.5413 1.05787C35.7154 0.656427 36.2846 0.656426 36.4587 1.05787L38.5981 5.99152C38.6706 6.15859 38.8281 6.27307 39.0094 6.29034L44.3627 6.80045C44.7983 6.84196 44.9742 7.38339 44.6462 7.673L40.6152 11.2323C40.4786 11.3528 40.4185 11.538 40.4581 11.7158L41.6272 16.9647C41.7223 17.3918 41.2617 17.7264 40.8849 17.504L36.2542 14.7701C36.0974 14.6775 35.9026 14.6775 35.7458 14.7701L31.1151 17.504C30.7383 17.7264 30.2777 17.3918 30.3728 16.9647L31.5419 11.7158C31.5815 11.538 31.5214 11.3528 31.3848 11.2323L27.3538 7.673C27.0258 7.38339 27.2017 6.84196 27.6373 6.80045L32.9906 6.29034C33.1719 6.27307 33.3294 6.15859 33.4019 5.99152L35.5413 1.05787Z" fill="#FFD88D"/>
<path d="M61.5413 1.05787C61.7154 0.656427 62.2846 0.656426 62.4587 1.05787L64.5981 5.99152C64.6706 6.15859 64.8281 6.27307 65.0094 6.29034L70.3627 6.80045C70.7983 6.84196 70.9742 7.38339 70.6462 7.673L66.6152 11.2323C66.4786 11.3528 66.4185 11.538 66.4581 11.7158L67.6272 16.9647C67.7223 17.3918 67.2617 17.7264 66.8849 17.504L62.2542 14.7701C62.0974 14.6775 61.9026 14.6775 61.7458 14.7701L57.1151 17.504C56.7383 17.7264 56.2777 17.3918 56.3728 16.9647L57.5419 11.7158C57.5815 11.538 57.5214 11.3528 57.3848 11.2323L53.3538 7.673C53.0258 7.38339 53.2017 6.84196 53.6373 6.80045L58.9906 6.29034C59.1719 6.27307 59.3294 6.15859 59.4019 5.99152L61.5413 1.05787Z" fill="#FFD88D"/>
<path d="M87.5413 1.05787C87.7154 0.656427 88.2846 0.656426 88.4587 1.05787L90.5981 5.99152C90.6706 6.15859 90.8281 6.27307 91.0094 6.29034L96.3627 6.80045C96.7983 6.84196 96.9742 7.38339 96.6462 7.673L92.6152 11.2323C92.4786 11.3528 92.4185 11.538 92.4581 11.7158L93.6272 16.9647C93.7223 17.3918 93.2617 17.7264 92.8849 17.504L88.2542 14.7701C88.0974 14.6775 87.9026 14.6775 87.7458 14.7701L83.1151 17.504C82.7383 17.7264 82.2777 17.3918 82.3728 16.9647L83.5419 11.7158C83.5815 11.538 83.5214 11.3528 83.3848 11.2323L79.3538 7.673C79.0258 7.38339 79.2017 6.84196 79.6373 6.80045L84.9906 6.29034C85.1719 6.27307 85.3294 6.15859 85.4019 5.99152L87.5413 1.05787Z" fill="#FFD88D"/>
<path d="M113.541 1.05787C113.715 0.656427 114.285 0.656426 114.459 1.05787L116.598 5.99152C116.671 6.15859 116.828 6.27307 117.009 6.29034L122.363 6.80045C122.798 6.84196 122.974 7.38339 122.646 7.673L118.615 11.2323C118.479 11.3528 118.418 11.538 118.458 11.7158L119.627 16.9647C119.722 17.3918 119.262 17.7264 118.885 17.504L114.254 14.7701C114.097 14.6775 113.903 14.6775 113.746 14.7701L109.115 17.504C108.738 17.7264 108.278 17.3918 108.373 16.9647L109.542 11.7158C109.582 11.538 109.521 11.3528 109.385 11.2323L105.354 7.673C105.026 7.38339 105.202 6.84196 105.637 6.80045L110.991 6.29034C111.172 6.27307 111.329 6.15859 111.402 5.99152L113.541 1.05787Z" fill="#FFD88D"/>
</svg>
