<svg width="48" height="48" viewBox="0 0 48 48" fill="none" xmlns="http://www.w3.org/2000/svg">
<g filter="url(#filter0_ii_71_9145)">
<path d="M45.6906 20C47.1197 22.4752 47.1197 25.5248 45.6906 28L38.3094 40.7846C36.8803 43.2598 34.2393 44.7846 31.3812 44.7846L16.6188 44.7846C13.7607 44.7846 11.1197 43.2598 9.6906 40.7846L2.3094 28C0.880336 25.5248 0.880336 22.4752 2.3094 20L9.6906 7.21539C11.1197 4.74018 13.7607 3.21539 16.6188 3.21539L31.3812 3.21539C34.2393 3.21539 36.8803 4.74018 38.3094 7.21539L45.6906 20Z" fill="white"/>
</g>
<rect x="30" y="22" width="4" height="12" rx="2" transform="rotate(90 30 22)" fill="#5BC1CB"/>
<rect x="28" y="14" width="4" height="8" rx="2" transform="rotate(90 28 14)" fill="#5BC1CB"/>
<rect x="28" y="30" width="4" height="8" rx="2" transform="rotate(90 28 30)" fill="#5BC1CB"/>
<rect x="26" y="30" width="4" height="12" rx="2" transform="rotate(-180 26 30)" fill="#5BC1CB"/>
<rect x="34" y="28" width="4" height="8" rx="2" transform="rotate(-180 34 28)" fill="#5BC1CB"/>
<rect x="18" y="28" width="4" height="8" rx="2" transform="rotate(-180 18 28)" fill="#5BC1CB"/>
<defs>
<filter id="filter0_ii_71_9145" x="1.23761" y="2.21484" width="45.5248" height="43.5703" filterUnits="userSpaceOnUse" color-interpolation-filters="sRGB">
<feFlood flood-opacity="0" result="BackgroundImageFix"/>
<feBlend mode="normal" in="SourceGraphic" in2="BackgroundImageFix" result="shape"/>
<feColorMatrix in="SourceAlpha" type="matrix" values="0 0 0 0 0 0 0 0 0 0 0 0 0 0 0 0 0 0 127 0" result="hardAlpha"/>
<feOffset dy="-1"/>
<feGaussianBlur stdDeviation="1"/>
<feComposite in2="hardAlpha" operator="arithmetic" k2="-1" k3="1"/>
<feColorMatrix type="matrix" values="0 0 0 0 0 0 0 0 0 0 0 0 0 0 0 0 0 0 0.53 0"/>
<feBlend mode="multiply" in2="shape" result="effect1_innerShadow_71_9145"/>
<feColorMatrix in="SourceAlpha" type="matrix" values="0 0 0 0 0 0 0 0 0 0 0 0 0 0 0 0 0 0 127 0" result="hardAlpha"/>
<feOffset dy="1"/>
<feGaussianBlur stdDeviation="0.5"/>
<feComposite in2="hardAlpha" operator="arithmetic" k2="-1" k3="1"/>
<feColorMatrix type="matrix" values="0 0 0 0 0.838444 0 0 0 0 0.838444 0 0 0 0 0.838444 0 0 0 0.25 0"/>
<feBlend mode="normal" in2="effect1_innerShadow_71_9145" result="effect2_innerShadow_71_9145"/>
</filter>
</defs>
</svg>
