<svg width="648" height="264" viewBox="0 0 648 264" fill="none" xmlns="http://www.w3.org/2000/svg">
<rect width="648" height="264" fill="white"/>
<path d="M39 228H647" stroke="#B3BBC9" stroke-width="0.369348"/>
<path d="M39 192H647" stroke="#B3BBC9" stroke-width="0.369348"/>
<path d="M39 154H647" stroke="#B3BBC9" stroke-width="0.369348"/>
<path d="M39 118H647" stroke="#B3BBC9" stroke-width="0.369348"/>
<path d="M39 80H647" stroke="#B3BBC9" stroke-width="0.369348"/>
<path d="M39 44H647" stroke="#B3BBC9" stroke-width="0.369348"/>
<path d="M39 6H648" stroke="#B3BBC9" stroke-width="0.369348"/>
<g clip-path="url(#clip0_180_573)">
<path d="M39 6V228" stroke="#B3BBC9" stroke-width="0.369348"/>
<path d="M106.667 6V228" stroke="#B3BBC9" stroke-width="0.369348"/>
<path d="M174.333 6V228" stroke="#B3BBC9" stroke-width="0.369348"/>
<path d="M242 6V228" stroke="#B3BBC9" stroke-width="0.369348"/>
<path d="M309.667 6V228" stroke="#B3BBC9" stroke-width="0.369348"/>
<path d="M377.333 6V228" stroke="#B3BBC9" stroke-width="0.369348"/>
<path d="M445 6V228" stroke="#B3BBC9" stroke-width="0.369348"/>
<path d="M512.667 6V228" stroke="#B3BBC9" stroke-width="0.369348"/>
<path d="M580.333 6V228" stroke="#B3BBC9" stroke-width="0.369348"/>
<path d="M648 6V228" stroke="#B3BBC9" stroke-width="0.369348"/>
</g>
<path d="M7.41037 10.3007C7.07072 10.2953 6.73106 10.2306 6.39141 10.1066C6.05176 9.98263 5.74176 9.77372 5.46141 9.47989C5.18106 9.18337 4.95598 8.78306 4.78615 8.27898C4.61632 7.77219 4.53141 7.13602 4.53141 6.37045C4.53141 5.63724 4.60015 4.98758 4.73763 4.4215C4.87511 3.85271 5.07458 3.37423 5.33606 2.98606C5.59754 2.59519 5.91293 2.29867 6.28224 2.09649C6.65424 1.89432 7.07341 1.79323 7.53976 1.79323C8.00341 1.79323 8.41585 1.88623 8.77707 2.07223C9.14098 2.25554 9.4375 2.51162 9.66663 2.84049C9.89576 3.16936 10.044 3.5481 10.1114 3.97671H9.12481C9.03315 3.60471 8.85524 3.29606 8.59107 3.05076C8.32689 2.80545 7.97646 2.6828 7.53976 2.6828C6.89819 2.6828 6.39276 2.9618 6.02345 3.5198C5.65685 4.0778 5.47219 4.86089 5.4695 5.86906H5.53419C5.68515 5.63993 5.86441 5.4445 6.07198 5.28276C6.28224 5.11832 6.51406 4.99163 6.76746 4.90267C7.02085 4.81371 7.28906 4.76923 7.57211 4.76923C8.04654 4.76923 8.48054 4.88784 8.87411 5.12506C9.26767 5.35958 9.58307 5.68441 9.82028 6.09954C10.0575 6.51198 10.1761 6.98506 10.1761 7.5188C10.1761 8.03098 10.0615 8.50002 9.83241 8.92593C9.60328 9.34915 9.28115 9.68611 8.86602 9.9368C8.45359 10.1848 7.96837 10.3061 7.41037 10.3007ZM7.41037 9.41115C7.75002 9.41115 8.05463 9.32624 8.3242 9.15641C8.59646 8.98659 8.81076 8.7588 8.96711 8.47306C9.12615 8.18732 9.20567 7.86924 9.20567 7.5188C9.20567 7.17645 9.12885 6.86511 8.9752 6.58476C8.82424 6.30171 8.61533 6.07663 8.34846 5.9095C8.08428 5.74237 7.78237 5.6588 7.44272 5.6588C7.18663 5.6588 6.94806 5.71002 6.72702 5.81245C6.50598 5.91219 6.31189 6.04967 6.14476 6.22489C5.98032 6.40011 5.85093 6.60093 5.75658 6.82737C5.66224 7.05111 5.61506 7.28698 5.61506 7.53498C5.61506 7.86385 5.69189 8.17115 5.84554 8.45689C6.00189 8.74263 6.21485 8.97311 6.48441 9.14833C6.75667 9.32354 7.06532 9.41115 7.41037 9.41115ZM14.4673 10.3007C13.858 10.3007 13.3391 10.1349 12.9105 9.80337C12.4819 9.46911 12.1544 8.98524 11.9279 8.35176C11.7015 7.71558 11.5883 6.94732 11.5883 6.04697C11.5883 5.15202 11.7015 4.3878 11.9279 3.75432C12.1571 3.11815 12.4859 2.63293 12.9146 2.29867C13.3459 1.96171 13.8634 1.79323 14.4673 1.79323C15.0711 1.79323 15.5873 1.96171 16.0159 2.29867C16.4472 2.63293 16.7761 3.11815 17.0025 3.75432C17.2316 4.3878 17.3462 5.15202 17.3462 6.04697C17.3462 6.94732 17.233 7.71558 17.0066 8.35176C16.7801 8.98524 16.4526 9.46911 16.024 9.80337C15.5954 10.1349 15.0765 10.3007 14.4673 10.3007ZM14.4673 9.41115C15.0711 9.41115 15.5401 9.12002 15.8744 8.53776C16.2086 7.9555 16.3758 7.12524 16.3758 6.04697C16.3758 5.32993 16.299 4.71936 16.1453 4.21528C15.9943 3.71119 15.776 3.32706 15.4903 3.06289C15.2072 2.79871 14.8662 2.66662 14.4673 2.66662C13.8688 2.66662 13.4011 2.9618 13.0642 3.55215C12.7272 4.1398 12.5587 4.97141 12.5587 6.04697C12.5587 6.76402 12.6342 7.37324 12.7852 7.87463C12.9361 8.37602 13.1531 8.75746 13.4362 9.01893C13.7219 9.28041 14.0656 9.41115 14.4673 9.41115Z" fill="#636B7A"/>
<path d="M4.36664 46.0791V45.2542L8.00577 39.4963H8.60421V40.774H8.19986L5.45029 45.1248V45.1895H10.351V46.0791H4.36664ZM8.26455 47.7773V45.8284V45.4443V39.4963H9.21882V47.7773H8.26455ZM14.5673 47.8906C13.9581 47.8906 13.4392 47.7248 13.0106 47.3932C12.582 47.059 12.2545 46.5751 12.028 45.9416C11.8016 45.3054 11.6884 44.5372 11.6884 43.6368C11.6884 42.7419 11.8016 41.9776 12.028 41.3442C12.2572 40.708 12.586 40.2228 13.0146 39.8885C13.4459 39.5516 13.9635 39.3831 14.5673 39.3831C15.1712 39.3831 15.6874 39.5516 16.116 39.8885C16.5473 40.2228 16.8762 40.708 17.1026 41.3442C17.3317 41.9776 17.4463 42.7419 17.4463 43.6368C17.4463 44.5372 17.3331 45.3054 17.1066 45.9416C16.8802 46.5751 16.5527 47.059 16.1241 47.3932C15.6955 47.7248 15.1765 47.8906 14.5673 47.8906ZM14.5673 47.001C15.1712 47.001 15.6402 46.7099 15.9745 46.1276C16.3087 45.5453 16.4759 44.7151 16.4759 43.6368C16.4759 42.9198 16.399 42.3092 16.2454 41.8051C16.0944 41.301 15.8761 40.9169 15.5903 40.6527C15.3073 40.3886 14.9663 40.2565 14.5673 40.2565C13.9689 40.2565 13.5012 40.5516 13.1642 41.142C12.8273 41.7296 12.6588 42.5613 12.6588 43.6368C12.6588 44.3539 12.7343 44.9631 12.8852 45.4645C13.0362 45.9659 13.2532 46.3473 13.5362 46.6088C13.822 46.8703 14.1657 47.001 14.5673 47.001Z" fill="#636B7A"/>
<path d="M4.76644 84.2305V83.5026L7.49983 80.5105C7.82061 80.16 8.08479 79.8554 8.29235 79.5966C8.49992 79.3352 8.65357 79.0899 8.75331 78.8607C8.85574 78.6289 8.90696 78.3863 8.90696 78.1329C8.90696 77.8418 8.83688 77.5897 8.6967 77.3768C8.55922 77.1638 8.37053 76.9994 8.13061 76.8835C7.8907 76.7675 7.62113 76.7096 7.32192 76.7096C7.00383 76.7096 6.72618 76.7756 6.48896 76.9077C6.25444 77.0371 6.07248 77.2191 5.94309 77.4536C5.81639 77.6881 5.75305 77.9631 5.75305 78.2785H4.79878C4.79878 77.7932 4.91065 77.3673 5.13439 77.0007C5.35813 76.6341 5.66274 76.3484 6.04822 76.1435C6.43639 75.9386 6.87174 75.8362 7.35427 75.8362C7.83948 75.8362 8.26944 75.9386 8.64414 76.1435C9.01883 76.3484 9.31266 76.6247 9.52561 76.9724C9.73857 77.3202 9.84505 77.707 9.84505 78.1329C9.84505 78.4375 9.78979 78.7354 9.67927 79.0265C9.57144 79.3149 9.38275 79.6371 9.11318 79.9929C8.84631 80.346 8.47566 80.7773 8.00122 81.2868L6.14122 83.2762V83.3409H9.99062V84.2305H4.76644ZM14.3616 84.3437C13.7524 84.3437 13.2335 84.1779 12.8049 83.8463C12.3763 83.5121 12.0487 83.0282 11.8223 82.3947C11.5959 81.7586 11.4827 80.9903 11.4827 80.0899C11.4827 79.195 11.5959 78.4308 11.8223 77.7973C12.0514 77.1611 12.3803 76.6759 12.8089 76.3416C13.2402 76.0047 13.7578 75.8362 14.3616 75.8362C14.9654 75.8362 15.4817 76.0047 15.9103 76.3416C16.3416 76.6759 16.6704 77.1611 16.8969 77.7973C17.126 78.4308 17.2406 79.195 17.2406 80.0899C17.2406 80.9903 17.1274 81.7586 16.9009 82.3947C16.6745 83.0282 16.347 83.5121 15.9184 83.8463C15.4897 84.1779 14.9708 84.3437 14.3616 84.3437ZM14.3616 83.4541C14.9654 83.4541 15.4345 83.163 15.7688 82.5807C16.103 81.9985 16.2701 81.1682 16.2701 80.0899C16.2701 79.3729 16.1933 78.7623 16.0397 78.2582C15.8887 77.7542 15.6704 77.37 15.3846 77.1059C15.1016 76.8417 14.7606 76.7096 14.3616 76.7096C13.7632 76.7096 13.2955 77.0048 12.9585 77.5951C12.6216 78.1828 12.4531 79.0144 12.4531 80.0899C12.4531 80.807 12.5286 81.4162 12.6795 81.9176C12.8305 82.419 13.0475 82.8004 13.3305 83.0619C13.6163 83.3234 13.96 83.4541 14.3616 83.4541Z" fill="#636B7A"/>
<path d="M10.8291 121.935C10.2199 121.935 9.70097 121.77 9.27236 121.438C8.84375 121.104 8.51623 120.62 8.2898 119.987C8.06336 119.35 7.95014 118.582 7.95014 117.682C7.95014 116.787 8.06336 116.023 8.2898 115.389C8.51893 114.753 8.8478 114.268 9.2764 113.933C9.70771 113.596 10.2253 113.428 10.8291 113.428C11.4329 113.428 11.9491 113.596 12.3778 113.933C12.8091 114.268 13.1379 114.753 13.3644 115.389C13.5935 116.023 13.7081 116.787 13.7081 117.682C13.7081 118.582 13.5948 119.35 13.3684 119.987C13.142 120.62 12.8145 121.104 12.3858 121.438C11.9572 121.77 11.4383 121.935 10.8291 121.935ZM10.8291 121.046C11.4329 121.046 11.902 120.755 12.2362 120.173C12.5705 119.59 12.7376 118.76 12.7376 117.682C12.7376 116.965 12.6608 116.354 12.5071 115.85C12.3562 115.346 12.1378 114.962 11.8521 114.698C11.5691 114.433 11.2281 114.301 10.8291 114.301C10.2307 114.301 9.76297 114.597 9.42601 115.187C9.08906 115.775 8.92058 116.606 8.92058 117.682C8.92058 118.399 8.99606 119.008 9.14701 119.509C9.29797 120.011 9.51497 120.392 9.79801 120.654C10.0838 120.915 10.4274 121.046 10.8291 121.046Z" fill="#636B7A"/>
<path d="M5.64044 153.688V154.578H2.01748V153.688H5.64044ZM6.91414 158.273V157.546L9.64753 154.553C9.96831 154.203 10.2325 153.898 10.4401 153.64C10.6476 153.378 10.8013 153.133 10.901 152.904C11.0034 152.672 11.0547 152.429 11.0547 152.176C11.0547 151.885 10.9846 151.633 10.8444 151.42C10.7069 151.207 10.5182 151.042 10.2783 150.926C10.0384 150.811 9.76883 150.753 9.46962 150.753C9.15153 150.753 8.87388 150.819 8.63666 150.951C8.40214 151.08 8.22018 151.262 8.09079 151.497C7.96409 151.731 7.90075 152.006 7.90075 152.321H6.94648C6.94648 151.836 7.05835 151.41 7.28209 151.044C7.50583 150.677 7.81044 150.391 8.19592 150.186C8.58409 149.982 9.01944 149.879 9.50196 149.879C9.98718 149.879 10.4171 149.982 10.7918 150.186C11.1665 150.391 11.4604 150.668 11.6733 151.015C11.8863 151.363 11.9927 151.75 11.9927 152.176C11.9927 152.48 11.9375 152.778 11.827 153.069C11.7191 153.358 11.5304 153.68 11.2609 154.036C10.994 154.389 10.6234 154.82 10.1489 155.33L8.28892 157.319V157.384H12.1383V158.273H6.91414ZM16.5093 158.387C15.9001 158.387 15.3812 158.221 14.9526 157.889C14.524 157.555 14.1964 157.071 13.97 156.438C13.7436 155.802 13.6304 155.033 13.6304 154.133C13.6304 153.238 13.7436 152.474 13.97 151.84C14.1991 151.204 14.528 150.719 14.9566 150.385C15.3879 150.048 15.9055 149.879 16.5093 149.879C17.1131 149.879 17.6294 150.048 18.058 150.385C18.4893 150.719 18.8181 151.204 19.0446 151.84C19.2737 152.474 19.3883 153.238 19.3883 154.133C19.3883 155.033 19.2751 155.802 19.0486 156.438C18.8222 157.071 18.4947 157.555 18.0661 157.889C17.6374 158.221 17.1185 158.387 16.5093 158.387ZM16.5093 157.497C17.1131 157.497 17.5822 157.206 17.9165 156.624C18.2507 156.041 18.4178 155.211 18.4178 154.133C18.4178 153.416 18.341 152.805 18.1874 152.301C18.0364 151.797 17.8181 151.413 17.5323 151.149C17.2493 150.885 16.9083 150.753 16.5093 150.753C15.9109 150.753 15.4432 151.048 15.1062 151.638C14.7693 152.226 14.6008 153.057 14.6008 154.133C14.6008 154.85 14.6763 155.459 14.8272 155.961C14.9782 156.462 15.1952 156.843 15.4782 157.105C15.764 157.366 16.1077 157.497 16.5093 157.497Z" fill="#636B7A"/>
<path d="M4.60195 191.28V192.169H0.978993V191.28H4.60195ZM6.07075 194.167V193.342L9.70988 187.584H10.3083V188.862H9.90397L7.1544 193.213V193.277H12.0551V194.167H6.07075ZM9.96866 195.865V193.916V193.532V187.584H10.9229V195.865H9.96866ZM16.2714 195.978C15.6622 195.978 15.1433 195.813 14.7147 195.481C14.2861 195.147 13.9586 194.663 13.7321 194.029C13.5057 193.393 13.3925 192.625 13.3925 191.725C13.3925 190.83 13.5057 190.066 13.7321 189.432C13.9613 188.796 14.2901 188.311 14.7187 187.976C15.15 187.639 15.6676 187.471 16.2714 187.471C16.8753 187.471 17.3915 187.639 17.8201 187.976C18.2514 188.311 18.5803 188.796 18.8067 189.432C19.0358 190.066 19.1504 190.83 19.1504 191.725C19.1504 192.625 19.0372 193.393 18.8107 194.029C18.5843 194.663 18.2568 195.147 17.8282 195.481C17.3996 195.813 16.8807 195.978 16.2714 195.978ZM16.2714 195.089C16.8753 195.089 17.3443 194.798 17.6786 194.215C18.0128 193.633 18.18 192.803 18.18 191.725C18.18 191.008 18.1031 190.397 17.9495 189.893C17.7985 189.389 17.5802 189.005 17.2944 188.741C17.0114 188.476 16.6704 188.344 16.2714 188.344C15.673 188.344 15.2053 188.64 14.8684 189.23C14.5314 189.818 14.3629 190.649 14.3629 191.725C14.3629 192.442 14.4384 193.051 14.5894 193.552C14.7403 194.054 14.9573 194.435 15.2404 194.697C15.5261 194.958 15.8698 195.089 16.2714 195.089Z" fill="#636B7A"/>
<path d="M4.70203 227.731V228.621H1.07907V227.731H4.70203ZM9.11448 232.43C8.77483 232.424 8.43517 232.36 8.09552 232.236C7.75587 232.112 7.44587 231.903 7.16552 231.609C6.88517 231.312 6.66008 230.912 6.49026 230.408C6.32043 229.901 6.23552 229.265 6.23552 228.499C6.23552 227.766 6.30426 227.116 6.44174 226.55C6.57921 225.982 6.77869 225.503 7.04017 225.115C7.30165 224.724 7.61704 224.428 7.98635 224.225C8.35835 224.023 8.77752 223.922 9.24387 223.922C9.70752 223.922 10.12 224.015 10.4812 224.201C10.8451 224.384 11.1416 224.641 11.3707 224.969C11.5999 225.298 11.7481 225.677 11.8155 226.106H10.8289C10.7373 225.734 10.5593 225.425 10.2952 225.18C10.031 224.934 9.68056 224.812 9.24387 224.812C8.6023 224.812 8.09687 225.091 7.72756 225.649C7.36095 226.207 7.1763 226.99 7.17361 227.998H7.2383C7.38926 227.769 7.56852 227.573 7.77609 227.412C7.98635 227.247 8.21817 227.121 8.47156 227.032C8.72496 226.943 8.99317 226.898 9.27622 226.898C9.75065 226.898 10.1847 227.017 10.5782 227.254C10.9718 227.488 11.2872 227.813 11.5244 228.228C11.7616 228.641 11.8802 229.114 11.8802 229.648C11.8802 230.16 11.7657 230.629 11.5365 231.055C11.3074 231.478 10.9853 231.815 10.5701 232.066C10.1577 232.314 9.67248 232.435 9.11448 232.43ZM9.11448 231.54C9.45413 231.54 9.75874 231.455 10.0283 231.285C10.3006 231.115 10.5149 230.888 10.6712 230.602C10.8303 230.316 10.9098 229.998 10.9098 229.648C10.9098 229.305 10.833 228.994 10.6793 228.714C10.5283 228.431 10.3194 228.206 10.0526 228.038C9.78839 227.871 9.48648 227.788 9.14683 227.788C8.89074 227.788 8.65217 227.839 8.43113 227.941C8.21009 228.041 8.016 228.179 7.84887 228.354C7.68443 228.529 7.55504 228.73 7.46069 228.956C7.36635 229.18 7.31917 229.416 7.31917 229.664C7.31917 229.993 7.396 230.3 7.54965 230.586C7.706 230.872 7.91895 231.102 8.18852 231.277C8.46078 231.452 8.76943 231.54 9.11448 231.54ZM16.1714 232.43C15.5621 232.43 15.0432 232.264 14.6146 231.932C14.186 231.598 13.8585 231.114 13.6321 230.481C13.4056 229.844 13.2924 229.076 13.2924 228.176C13.2924 227.281 13.4056 226.517 13.6321 225.883C13.8612 225.247 14.1901 224.762 14.6187 224.428C15.05 224.091 15.5675 223.922 16.1714 223.922C16.7752 223.922 17.2914 224.091 17.72 224.428C18.1513 224.762 18.4802 225.247 18.7066 225.883C18.9358 226.517 19.0503 227.281 19.0503 228.176C19.0503 229.076 18.9371 229.844 18.7107 230.481C18.4842 231.114 18.1567 231.598 17.7281 231.932C17.2995 232.264 16.7806 232.43 16.1714 232.43ZM16.1714 231.54C16.7752 231.54 17.2442 231.249 17.5785 230.667C17.9128 230.084 18.0799 229.254 18.0799 228.176C18.0799 227.459 18.0031 226.848 17.8494 226.344C17.6985 225.84 17.4801 225.456 17.1944 225.192C16.9113 224.928 16.5703 224.796 16.1714 224.796C15.5729 224.796 15.1052 225.091 14.7683 225.681C14.4313 226.269 14.2628 227.1 14.2628 228.176C14.2628 228.893 14.3383 229.502 14.4893 230.004C14.6402 230.505 14.8572 230.886 15.1403 231.148C15.426 231.409 15.7697 231.54 16.1714 231.54Z" fill="#636B7A"/>
<path d="M132.04 250V241.719H137.005V242.609H133.042V245.407H136.633V246.296H133.042V250H132.04ZM140.741 250.129C140.143 250.129 139.627 249.997 139.193 249.733C138.761 249.466 138.428 249.094 138.194 248.617C137.962 248.137 137.846 247.579 137.846 246.943C137.846 246.307 137.962 245.746 138.194 245.261C138.428 244.773 138.755 244.393 139.172 244.121C139.593 243.846 140.083 243.708 140.644 243.708C140.968 243.708 141.287 243.762 141.602 243.87C141.918 243.978 142.205 244.153 142.464 244.396C142.723 244.636 142.929 244.954 143.082 245.35C143.236 245.746 143.313 246.234 143.313 246.814V247.218H138.525V246.393H142.342C142.342 246.043 142.272 245.73 142.132 245.455C141.995 245.18 141.798 244.963 141.542 244.804C141.288 244.645 140.989 244.566 140.644 244.566C140.264 244.566 139.935 244.66 139.658 244.849C139.383 245.035 139.171 245.277 139.023 245.576C138.874 245.876 138.8 246.196 138.8 246.539V247.089C138.8 247.558 138.881 247.955 139.043 248.282C139.207 248.605 139.435 248.852 139.726 249.021C140.017 249.189 140.356 249.272 140.741 249.272C140.992 249.272 141.218 249.237 141.421 249.167C141.625 249.094 141.802 248.986 141.95 248.844C142.098 248.698 142.213 248.517 142.294 248.302L143.216 248.561C143.119 248.873 142.956 249.148 142.727 249.385C142.497 249.62 142.214 249.803 141.877 249.935C141.54 250.065 141.162 250.129 140.741 250.129ZM144.894 250V241.719H145.848V244.776H145.929C145.999 244.668 146.096 244.531 146.22 244.363C146.347 244.194 146.527 244.043 146.762 243.911C146.999 243.776 147.32 243.708 147.724 243.708C148.247 243.708 148.708 243.839 149.107 244.101C149.506 244.362 149.817 244.733 150.041 245.213C150.265 245.692 150.377 246.258 150.377 246.911C150.377 247.569 150.265 248.139 150.041 248.621C149.817 249.101 149.507 249.473 149.111 249.737C148.715 249.999 148.258 250.129 147.74 250.129C147.342 250.129 147.022 250.063 146.782 249.931C146.542 249.796 146.358 249.644 146.228 249.474C146.099 249.302 145.999 249.159 145.929 249.046H145.816V250H144.894ZM145.832 246.895C145.832 247.364 145.901 247.777 146.038 248.136C146.176 248.492 146.376 248.771 146.641 248.973C146.905 249.172 147.228 249.272 147.611 249.272C148.01 249.272 148.343 249.167 148.61 248.957C148.879 248.744 149.082 248.458 149.216 248.1C149.354 247.738 149.423 247.337 149.423 246.895C149.423 246.458 149.355 246.064 149.22 245.714C149.088 245.361 148.887 245.082 148.618 244.877C148.351 244.669 148.015 244.566 147.611 244.566C147.223 244.566 146.897 244.664 146.633 244.861C146.368 245.055 146.169 245.327 146.034 245.678C145.899 246.025 145.832 246.431 145.832 246.895Z" fill="#636B7A"/>
<path d="M200.112 241.719H201.308L204.123 248.593H204.22L207.034 241.719H208.231V250H207.293V243.708H207.212L204.624 250H203.718L201.13 243.708H201.05V250H200.112V241.719ZM211.94 250.146C211.546 250.146 211.189 250.071 210.868 249.923C210.547 249.772 210.293 249.555 210.104 249.272C209.915 248.986 209.821 248.641 209.821 248.237C209.821 247.881 209.891 247.593 210.031 247.372C210.171 247.148 210.359 246.973 210.593 246.846C210.828 246.719 211.087 246.625 211.37 246.563C211.655 246.498 211.942 246.447 212.231 246.409C212.608 246.361 212.914 246.324 213.149 246.3C213.386 246.273 213.558 246.229 213.666 246.167C213.777 246.105 213.832 245.997 213.832 245.843V245.811C213.832 245.412 213.723 245.102 213.505 244.881C213.289 244.66 212.961 244.549 212.522 244.549C212.066 244.549 211.709 244.649 211.45 244.849C211.192 245.048 211.01 245.261 210.905 245.487L209.999 245.164C210.161 244.787 210.376 244.493 210.646 244.283C210.918 244.07 211.215 243.921 211.535 243.838C211.859 243.751 212.177 243.708 212.49 243.708C212.689 243.708 212.918 243.733 213.177 243.781C213.439 243.827 213.691 243.923 213.933 244.068C214.178 244.214 214.382 244.433 214.544 244.727C214.705 245.021 214.786 245.415 214.786 245.908V250H213.832V249.159H213.784C213.719 249.294 213.611 249.438 213.46 249.592C213.309 249.745 213.108 249.876 212.858 249.984C212.607 250.092 212.301 250.146 211.94 250.146ZM212.085 249.288C212.463 249.288 212.781 249.214 213.04 249.066C213.301 248.918 213.498 248.726 213.63 248.492C213.765 248.257 213.832 248.011 213.832 247.752V246.878C213.792 246.927 213.703 246.971 213.565 247.012C213.43 247.05 213.274 247.083 213.096 247.113C212.921 247.14 212.75 247.164 212.583 247.186C212.418 247.205 212.285 247.221 212.182 247.234C211.934 247.267 211.703 247.319 211.487 247.392C211.274 247.462 211.101 247.569 210.969 247.711C210.84 247.852 210.775 248.043 210.775 248.286C210.775 248.617 210.898 248.868 211.143 249.038C211.391 249.205 211.705 249.288 212.085 249.288ZM216.528 250V243.789H217.45V244.727H217.515C217.628 244.42 217.833 244.171 218.129 243.979C218.426 243.788 218.76 243.692 219.132 243.692C219.202 243.692 219.29 243.694 219.395 243.696C219.5 243.699 219.58 243.703 219.633 243.708V244.679C219.601 244.671 219.527 244.659 219.411 244.642C219.298 244.624 219.178 244.614 219.051 244.614C218.749 244.614 218.48 244.677 218.243 244.804C218.008 244.928 217.822 245.101 217.685 245.322C217.55 245.54 217.482 245.789 217.482 246.07V250H216.528Z" fill="#636B7A"/>
<path d="M269.407 250H268.356L271.397 241.719H272.432L275.473 250H274.421L271.947 243.029H271.882L269.407 250ZM269.796 246.765H274.033V247.655H269.796V246.765ZM276.633 252.329V243.789H277.555V244.776H277.668C277.738 244.668 277.835 244.531 277.959 244.363C278.086 244.194 278.267 244.043 278.501 243.911C278.738 243.776 279.059 243.708 279.464 243.708C279.987 243.708 280.448 243.839 280.846 244.101C281.245 244.362 281.557 244.733 281.781 245.213C282.004 245.692 282.116 246.258 282.116 246.911C282.116 247.569 282.004 248.139 281.781 248.621C281.557 249.101 281.247 249.473 280.851 249.737C280.454 249.999 279.997 250.129 279.48 250.129C279.081 250.129 278.761 250.063 278.521 249.931C278.282 249.796 278.097 249.644 277.968 249.474C277.838 249.302 277.738 249.159 277.668 249.046H277.587V252.329H276.633ZM277.571 246.895C277.571 247.364 277.64 247.777 277.777 248.136C277.915 248.492 278.116 248.771 278.38 248.973C278.644 249.172 278.968 249.272 279.35 249.272C279.749 249.272 280.082 249.167 280.349 248.957C280.619 248.744 280.821 248.458 280.956 248.1C281.093 247.738 281.162 247.337 281.162 246.895C281.162 246.458 281.094 246.064 280.96 245.714C280.828 245.361 280.627 245.082 280.357 244.877C280.09 244.669 279.755 244.566 279.35 244.566C278.962 244.566 278.636 244.664 278.372 244.861C278.108 245.055 277.908 245.327 277.773 245.678C277.639 246.025 277.571 246.431 277.571 246.895ZM283.572 250V243.789H284.494V244.727H284.558C284.672 244.42 284.876 244.171 285.173 243.979C285.47 243.788 285.804 243.692 286.176 243.692C286.246 243.692 286.333 243.694 286.439 243.696C286.544 243.699 286.623 243.703 286.677 243.708V244.679C286.645 244.671 286.571 244.659 286.455 244.642C286.342 244.624 286.222 244.614 286.095 244.614C285.793 244.614 285.523 244.677 285.286 244.804C285.052 244.928 284.866 245.101 284.728 245.322C284.593 245.54 284.526 245.789 284.526 246.07V250H283.572Z" fill="#636B7A"/>
<path d="M335.172 241.719H336.369L339.183 248.593H339.28L342.094 241.719H343.291V250H342.353V243.708H342.272L339.684 250H338.779L336.191 243.708H336.11V250H335.172V241.719ZM347 250.146C346.607 250.146 346.249 250.071 345.929 249.923C345.608 249.772 345.353 249.555 345.164 249.272C344.976 248.986 344.881 248.641 344.881 248.237C344.881 247.881 344.951 247.593 345.092 247.372C345.232 247.148 345.419 246.973 345.654 246.846C345.888 246.719 346.147 246.625 346.43 246.563C346.716 246.498 347.003 246.447 347.291 246.409C347.669 246.361 347.975 246.324 348.209 246.3C348.446 246.273 348.619 246.229 348.727 246.167C348.837 246.105 348.892 245.997 348.892 245.843V245.811C348.892 245.412 348.783 245.102 348.565 244.881C348.349 244.66 348.022 244.549 347.582 244.549C347.127 244.549 346.77 244.649 346.511 244.849C346.252 245.048 346.07 245.261 345.965 245.487L345.059 245.164C345.221 244.787 345.437 244.493 345.706 244.283C345.978 244.07 346.275 243.921 346.596 243.838C346.919 243.751 347.237 243.708 347.55 243.708C347.75 243.708 347.979 243.733 348.237 243.781C348.499 243.827 348.751 243.923 348.994 244.068C349.239 244.214 349.442 244.433 349.604 244.727C349.766 245.021 349.847 245.415 349.847 245.908V250H348.892V249.159H348.844C348.779 249.294 348.671 249.438 348.52 249.592C348.37 249.745 348.169 249.876 347.918 249.984C347.667 250.092 347.361 250.146 347 250.146ZM347.146 249.288C347.523 249.288 347.841 249.214 348.1 249.066C348.361 248.918 348.558 248.726 348.69 248.492C348.825 248.257 348.892 248.011 348.892 247.752V246.878C348.852 246.927 348.763 246.971 348.626 247.012C348.491 247.05 348.334 247.083 348.157 247.113C347.981 247.14 347.81 247.164 347.643 247.186C347.479 247.205 347.345 247.221 347.243 247.234C346.995 247.267 346.763 247.319 346.547 247.392C346.334 247.462 346.162 247.569 346.03 247.711C345.9 247.852 345.836 248.043 345.836 248.286C345.836 248.617 345.958 248.868 346.204 249.038C346.452 249.205 346.766 249.288 347.146 249.288ZM351.981 252.329C351.819 252.329 351.675 252.316 351.548 252.289C351.421 252.264 351.334 252.24 351.285 252.216L351.528 251.375C351.76 251.434 351.965 251.456 352.142 251.439C352.32 251.423 352.478 251.344 352.616 251.201C352.756 251.061 352.884 250.833 353 250.518L353.178 250.032L350.881 243.789H351.916L353.63 248.738H353.695L355.41 243.789H356.445L353.808 250.906C353.69 251.227 353.543 251.492 353.368 251.702C353.192 251.915 352.989 252.073 352.757 252.175C352.528 252.278 352.269 252.329 351.981 252.329Z" fill="#636B7A"/>
<path d="M407.443 241.719H408.446V247.639C408.446 248.167 408.349 248.616 408.155 248.985C407.961 249.354 407.687 249.635 407.334 249.826C406.981 250.018 406.564 250.113 406.085 250.113C405.632 250.113 405.229 250.031 404.876 249.867C404.523 249.699 404.245 249.462 404.043 249.155C403.841 248.848 403.739 248.482 403.739 248.059H404.726C404.726 248.294 404.784 248.499 404.9 248.674C405.019 248.846 405.18 248.981 405.385 249.078C405.59 249.175 405.823 249.224 406.085 249.224C406.373 249.224 406.618 249.163 406.821 249.042C407.023 248.92 407.176 248.742 407.282 248.508C407.389 248.271 407.443 247.981 407.443 247.639V241.719ZM414.24 247.461V243.789H415.195V250H414.24V248.949H414.176C414.03 249.264 413.804 249.532 413.496 249.753C413.189 249.972 412.801 250.081 412.332 250.081C411.944 250.081 411.599 249.996 411.297 249.826C410.995 249.654 410.758 249.395 410.585 249.05C410.413 248.702 410.326 248.264 410.326 247.736V243.789H411.281V247.671C411.281 248.124 411.407 248.485 411.661 248.755C411.917 249.024 412.243 249.159 412.639 249.159C412.876 249.159 413.118 249.098 413.363 248.977C413.611 248.856 413.818 248.67 413.986 248.419C414.155 248.168 414.24 247.849 414.24 247.461ZM417.897 246.264V250H416.942V243.789H417.864V244.76H417.945C418.091 244.444 418.312 244.191 418.608 243.999C418.905 243.805 419.288 243.708 419.757 243.708C420.177 243.708 420.545 243.795 420.861 243.967C421.176 244.137 421.421 244.396 421.596 244.743C421.772 245.089 421.859 245.525 421.859 246.054V250H420.905V246.118C420.905 245.63 420.778 245.25 420.525 244.978C420.272 244.703 419.924 244.566 419.482 244.566C419.177 244.566 418.905 244.632 418.665 244.764C418.428 244.896 418.24 245.089 418.103 245.342C417.965 245.595 417.897 245.903 417.897 246.264Z" fill="#636B7A"/>
<path d="M477.423 241.719H478.425V247.639C478.425 248.167 478.328 248.616 478.134 248.985C477.94 249.354 477.666 249.635 477.313 249.826C476.96 250.018 476.544 250.113 476.064 250.113C475.611 250.113 475.208 250.031 474.855 249.867C474.502 249.699 474.224 249.462 474.022 249.155C473.82 248.848 473.719 248.482 473.719 248.059H474.705C474.705 248.294 474.763 248.499 474.879 248.674C474.998 248.846 475.16 248.981 475.364 249.078C475.569 249.175 475.802 249.224 476.064 249.224C476.352 249.224 476.598 249.163 476.8 249.042C477.002 248.92 477.156 248.742 477.261 248.508C477.369 248.271 477.423 247.981 477.423 247.639V241.719ZM484.22 247.461V243.789H485.174V250H484.22V248.949H484.155C484.009 249.264 483.783 249.532 483.476 249.753C483.168 249.972 482.78 250.081 482.311 250.081C481.923 250.081 481.578 249.996 481.276 249.826C480.974 249.654 480.737 249.395 480.564 249.05C480.392 248.702 480.306 248.264 480.306 247.736V243.789H481.26V247.671C481.26 248.124 481.386 248.485 481.64 248.755C481.896 249.024 482.222 249.159 482.618 249.159C482.856 249.159 483.097 249.098 483.342 248.977C483.59 248.856 483.798 248.67 483.965 248.419C484.135 248.168 484.22 247.849 484.22 247.461ZM487.876 241.719V250H486.922V241.719H487.876Z" fill="#636B7A"/>
<path d="M539.718 250H538.666L541.707 241.719H542.742L545.783 250H544.732L542.257 243.029H542.192L539.718 250ZM540.106 246.765H544.343V247.655H540.106V246.765ZM550.857 247.461V243.789H551.812V250H550.857V248.949H550.793C550.647 249.264 550.421 249.532 550.113 249.753C549.806 249.972 549.418 250.081 548.949 250.081C548.561 250.081 548.216 249.996 547.914 249.826C547.612 249.654 547.375 249.395 547.202 249.05C547.03 248.702 546.943 248.264 546.943 247.736V243.789H547.898V247.671C547.898 248.124 548.024 248.485 548.278 248.755C548.534 249.024 548.86 249.159 549.256 249.159C549.493 249.159 549.735 249.098 549.98 248.977C550.228 248.856 550.436 248.67 550.603 248.419C550.773 248.168 550.857 247.849 550.857 247.461ZM556.066 252.458C555.606 252.458 555.209 252.399 554.878 252.281C554.546 252.165 554.27 252.011 554.049 251.82C553.83 251.631 553.657 251.429 553.527 251.213L554.287 250.679C554.374 250.793 554.483 250.922 554.615 251.067C554.747 251.216 554.928 251.344 555.157 251.452C555.389 251.562 555.692 251.617 556.066 251.617C556.568 251.617 556.982 251.496 557.308 251.253C557.634 251.011 557.797 250.631 557.797 250.113V248.852H557.716C557.646 248.965 557.546 249.105 557.417 249.272C557.29 249.437 557.107 249.584 556.867 249.713C556.63 249.84 556.309 249.903 555.905 249.903C555.403 249.903 554.953 249.784 554.554 249.547C554.158 249.31 553.844 248.965 553.612 248.512C553.383 248.059 553.268 247.509 553.268 246.862C553.268 246.226 553.38 245.672 553.604 245.2C553.828 244.726 554.139 244.359 554.538 244.101C554.937 243.839 555.398 243.708 555.921 243.708C556.325 243.708 556.646 243.776 556.883 243.911C557.123 244.043 557.306 244.194 557.433 244.363C557.563 244.531 557.662 244.668 557.732 244.776H557.829V243.789H558.751V250.178C558.751 250.712 558.63 251.146 558.387 251.48C558.148 251.817 557.824 252.064 557.417 252.22C557.013 252.379 556.562 252.458 556.066 252.458ZM556.034 249.046C556.417 249.046 556.74 248.958 557.005 248.783C557.269 248.608 557.47 248.356 557.607 248.027C557.745 247.698 557.813 247.304 557.813 246.846C557.813 246.399 557.746 246.004 557.611 245.661C557.476 245.319 557.277 245.051 557.013 244.857C556.748 244.663 556.422 244.566 556.034 244.566C555.63 244.566 555.293 244.668 555.023 244.873C554.756 245.078 554.556 245.353 554.421 245.698C554.289 246.043 554.223 246.426 554.223 246.846C554.223 247.277 554.29 247.659 554.425 247.99C554.562 248.319 554.764 248.578 555.031 248.767C555.301 248.953 555.635 249.046 556.034 249.046Z" fill="#636B7A"/>
<path d="M612.618 243.789C612.569 243.379 612.373 243.061 612.028 242.835C611.683 242.609 611.259 242.495 610.758 242.495C610.391 242.495 610.071 242.555 609.796 242.673C609.523 242.792 609.31 242.955 609.157 243.162C609.006 243.37 608.93 243.606 608.93 243.87C608.93 244.091 608.983 244.281 609.088 244.44C609.196 244.597 609.333 244.727 609.5 244.832C609.668 244.935 609.843 245.02 610.026 245.087C610.209 245.152 610.378 245.204 610.532 245.245L611.373 245.471C611.588 245.528 611.828 245.606 612.092 245.706C612.359 245.806 612.614 245.942 612.857 246.114C613.102 246.284 613.304 246.502 613.463 246.769C613.622 247.036 613.702 247.364 613.702 247.752C613.702 248.199 613.584 248.604 613.35 248.965C613.118 249.326 612.778 249.613 612.331 249.826C611.886 250.039 611.346 250.146 610.709 250.146C610.116 250.146 609.603 250.05 609.169 249.858C608.738 249.667 608.398 249.4 608.15 249.058C607.905 248.716 607.766 248.318 607.733 247.865H608.769C608.796 248.178 608.901 248.437 609.084 248.641C609.27 248.844 609.505 248.995 609.788 249.094C610.073 249.191 610.381 249.24 610.709 249.24C611.092 249.24 611.436 249.178 611.741 249.054C612.045 248.927 612.286 248.752 612.464 248.528C612.642 248.302 612.731 248.038 612.731 247.736C612.731 247.461 612.654 247.237 612.501 247.064C612.347 246.892 612.145 246.752 611.894 246.644C611.644 246.536 611.373 246.442 611.081 246.361L610.063 246.07C609.416 245.884 608.903 245.618 608.526 245.273C608.149 244.928 607.96 244.477 607.96 243.919C607.96 243.455 608.085 243.051 608.336 242.706C608.589 242.358 608.929 242.088 609.355 241.897C609.784 241.703 610.262 241.606 610.79 241.606C611.324 241.606 611.799 241.701 612.214 241.893C612.629 242.082 612.958 242.34 613.2 242.669C613.446 242.998 613.575 243.371 613.588 243.789H612.618ZM617.825 250.129C617.227 250.129 616.71 249.997 616.276 249.733C615.845 249.466 615.512 249.094 615.278 248.617C615.046 248.137 614.93 247.579 614.93 246.943C614.93 246.307 615.046 245.746 615.278 245.261C615.512 244.773 615.838 244.393 616.256 244.121C616.677 243.846 617.167 243.708 617.728 243.708C618.051 243.708 618.371 243.762 618.686 243.87C619.002 243.978 619.289 244.153 619.548 244.396C619.806 244.636 620.013 244.954 620.166 245.35C620.32 245.746 620.397 246.234 620.397 246.814V247.218H615.609V246.393H619.426C619.426 246.043 619.356 245.73 619.216 245.455C619.078 245.18 618.882 244.963 618.626 244.804C618.372 244.645 618.073 244.566 617.728 244.566C617.348 244.566 617.019 244.66 616.741 244.849C616.466 245.035 616.255 245.277 616.107 245.576C615.958 245.876 615.884 246.196 615.884 246.539V247.089C615.884 247.558 615.965 247.955 616.127 248.282C616.291 248.605 616.519 248.852 616.81 249.021C617.101 249.189 617.44 249.272 617.825 249.272C618.076 249.272 618.302 249.237 618.504 249.167C618.709 249.094 618.886 248.986 619.034 248.844C619.182 248.698 619.297 248.517 619.378 248.302L620.3 248.561C620.203 248.873 620.039 249.148 619.81 249.385C619.581 249.62 619.298 249.803 618.961 249.935C618.624 250.065 618.246 250.129 617.825 250.129ZM621.848 252.329V243.789H622.77V244.776H622.883C622.953 244.668 623.051 244.531 623.175 244.363C623.301 244.194 623.482 244.043 623.716 243.911C623.954 243.776 624.274 243.708 624.679 243.708C625.202 243.708 625.663 243.839 626.062 244.101C626.461 244.362 626.772 244.733 626.996 245.213C627.219 245.692 627.331 246.258 627.331 246.911C627.331 247.569 627.219 248.139 626.996 248.621C626.772 249.101 626.462 249.473 626.066 249.737C625.669 249.999 625.212 250.129 624.695 250.129C624.296 250.129 623.976 250.063 623.737 249.931C623.497 249.796 623.312 249.644 623.183 249.474C623.053 249.302 622.953 249.159 622.883 249.046H622.803V252.329H621.848ZM622.786 246.895C622.786 247.364 622.855 247.777 622.993 248.136C623.13 248.492 623.331 248.771 623.595 248.973C623.859 249.172 624.183 249.272 624.565 249.272C624.964 249.272 625.297 249.167 625.564 248.957C625.834 248.744 626.036 248.458 626.171 248.1C626.308 247.738 626.377 247.337 626.377 246.895C626.377 246.458 626.31 246.064 626.175 245.714C626.043 245.361 625.842 245.082 625.572 244.877C625.305 244.669 624.97 244.566 624.565 244.566C624.177 244.566 623.851 244.664 623.587 244.861C623.323 245.055 623.123 245.327 622.989 245.678C622.854 246.025 622.786 246.431 622.786 246.895Z" fill="#636B7A"/>
<path d="M67.5433 241.719H68.5461V247.639C68.5461 248.167 68.4491 248.616 68.255 248.985C68.0609 249.354 67.7873 249.635 67.4341 249.826C67.081 250.018 66.6645 250.113 66.1847 250.113C65.7318 250.113 65.3288 250.031 64.9757 249.867C64.6226 249.699 64.3449 249.462 64.1428 249.155C63.9406 248.848 63.8395 248.482 63.8395 248.059H64.8261C64.8261 248.294 64.8841 248.499 65 248.674C65.1186 248.846 65.2803 248.981 65.4852 249.078C65.6901 249.175 65.9232 249.224 66.1847 249.224C66.4731 249.224 66.7185 249.163 66.9206 249.042C67.1228 248.92 67.2765 248.742 67.3816 248.508C67.4894 248.271 67.5433 247.981 67.5433 247.639V241.719ZM72.254 250.146C71.8604 250.146 71.5032 250.071 71.1825 249.923C70.8617 249.772 70.6069 249.555 70.4182 249.272C70.2295 248.986 70.1352 248.641 70.1352 248.237C70.1352 247.881 70.2053 247.593 70.3455 247.372C70.4856 247.148 70.673 246.973 70.9075 246.846C71.142 246.719 71.4008 246.625 71.6838 246.563C71.9696 246.498 72.2567 246.447 72.5451 246.409C72.9225 246.361 73.2285 246.324 73.463 246.3C73.7002 246.273 73.8727 246.229 73.9805 246.167C74.0911 246.105 74.1463 245.997 74.1463 245.843V245.811C74.1463 245.412 74.0372 245.102 73.8188 244.881C73.6032 244.66 73.2756 244.549 72.8362 244.549C72.3807 244.549 72.0235 244.649 71.7647 244.849C71.5059 245.048 71.324 245.261 71.2188 245.487L70.3131 245.164C70.4748 244.787 70.6905 244.493 70.9601 244.283C71.2323 244.07 71.5288 243.921 71.8496 243.838C72.1731 243.751 72.4912 243.708 72.8039 243.708C73.0034 243.708 73.2325 243.733 73.4913 243.781C73.7528 243.827 74.0048 243.923 74.2474 244.068C74.4927 244.214 74.6962 244.433 74.858 244.727C75.0197 245.021 75.1006 245.415 75.1006 245.908V250H74.1463V249.159H74.0978C74.0331 249.294 73.9253 249.438 73.7743 249.592C73.6234 249.745 73.4225 249.876 73.1718 249.984C72.9212 250.092 72.6152 250.146 72.254 250.146ZM72.3995 249.288C72.7769 249.288 73.095 249.214 73.3538 249.066C73.6153 248.918 73.8121 248.726 73.9442 248.492C74.0789 248.257 74.1463 248.011 74.1463 247.752V246.878C74.1059 246.927 74.0169 246.971 73.8795 247.012C73.7447 247.05 73.5883 247.083 73.4104 247.113C73.2352 247.14 73.064 247.164 72.8969 247.186C72.7325 247.205 72.599 247.221 72.4966 247.234C72.2486 247.267 72.0168 247.319 71.8011 247.392C71.5882 247.462 71.4156 247.569 71.2835 247.711C71.1542 247.852 71.0895 248.043 71.0895 248.286C71.0895 248.617 71.2121 248.868 71.4574 249.038C71.7054 249.205 72.0195 249.288 72.3995 249.288ZM77.7966 246.264V250H76.8423V243.789H77.7642V244.76H77.8451C77.9907 244.444 78.2117 244.191 78.5082 243.999C78.8048 243.805 79.1875 243.708 79.6566 243.708C80.0771 243.708 80.4451 243.795 80.7605 243.967C81.0758 244.137 81.3211 244.396 81.4964 244.743C81.6716 245.089 81.7592 245.525 81.7592 246.054V250H80.8049V246.118C80.8049 245.63 80.6782 245.25 80.4248 244.978C80.1715 244.703 79.8237 244.566 79.3816 244.566C79.077 244.566 78.8048 244.632 78.5648 244.764C78.3276 244.896 78.1403 245.089 78.0028 245.342C77.8653 245.595 77.7966 245.903 77.7966 246.264Z" fill="#636B7A"/>
<defs>
<clipPath id="clip0_180_573">
<rect width="609" height="222" fill="white" transform="translate(39 6)"/>
</clipPath>
</defs>
</svg>
