<svg width="98" height="108" viewBox="0 0 98 108" fill="none" xmlns="http://www.w3.org/2000/svg">
<path d="M46.6851 17.3786L46.3536 17.3335L46.1854 17.6227L16.0815 69.4087L15.8742 69.7654L16.1851 70.0367C17.4056 71.1019 18.2166 72.4679 18.5717 73.9859L18.662 74.372H19.0586H78.9415H79.338L79.4283 73.9859C79.7834 72.4679 80.5944 71.1019 81.815 70.0367L82.1258 69.7654L81.9185 69.4087L51.8146 17.6227L51.6465 17.3335L51.3149 17.3786L49 17.6934L46.6851 17.3786ZM19.7624 77.962H17.9298L19.5085 78.8927L42.682 92.5547L43.003 92.744L43.2761 92.4904C44.7513 91.1206 46.7946 90.302 49 90.302C51.2055 90.302 53.2487 91.1206 54.7239 92.4904L54.997 92.744L55.318 92.5547L78.4915 78.8927L80.0702 77.962H78.2376H19.7624ZM40.8848 95.9836L40.939 95.6471L40.6457 95.4736L17.3639 81.7036L17.0041 81.4908L16.7309 81.8072C15.145 83.6441 12.8455 84.766 10.2332 84.766C7.95289 84.766 5.76628 83.8626 4.1543 82.2549C2.54235 80.6472 1.63702 78.467 1.63702 76.194C1.63702 72.1593 4.34926 68.7916 8.08475 67.822L8.45912 67.7248V67.338V39.744V39.3057L8.02464 39.2483C3.77506 38.6866 0.5 35.0609 0.5 30.672C0.5 28.399 1.40534 26.2188 3.01728 24.6112C4.62927 23.0034 6.81587 22.1 9.09613 22.1C11.911 22.1 14.3674 23.4257 15.9566 25.4708L16.2229 25.8136L16.5997 25.598L40.4771 11.936L40.7689 11.769L40.7243 11.4357L40.4039 9.03919C40.4216 4.30976 44.2505 0.5 49 0.5C53.7495 0.5 57.5784 4.30976 57.5961 9.03919L57.2757 11.4357L57.2311 11.769L57.523 11.936L81.4003 25.598L81.7771 25.8136L82.0434 25.4708C83.6326 23.4257 86.0891 22.1 88.9039 22.1C91.1841 22.1 93.3707 23.0034 94.9827 24.6112C96.5947 26.2188 97.5 28.399 97.5 30.672C97.5 35.0609 94.2249 38.6866 89.9754 39.2483L89.5409 39.3057V39.744V67.338V67.7248L89.9153 67.822C93.6507 68.7916 96.363 72.1593 96.363 76.194C96.363 78.467 95.4576 80.6472 93.8457 82.2549C92.2337 83.8626 90.0471 84.766 87.7669 84.766C85.1545 84.766 82.855 83.6441 81.2691 81.8072L80.9959 81.4908L80.6361 81.7036L57.3543 95.4736L57.061 95.6471L57.1152 95.9836L57.5961 98.9675C57.5856 101.226 56.6815 103.391 55.0789 104.989C53.4669 106.597 51.2803 107.5 49 107.5C46.7197 107.5 44.5331 106.597 42.9212 104.989C41.3185 103.39 40.4144 101.226 40.404 98.9674L40.8848 95.9836ZM42.9366 15.6926L43.851 14.0971L42.2546 15.01L17.8899 28.942L17.6133 29.1001L17.6399 29.4176L17.7464 30.6926C17.7379 34.3059 15.4894 37.4118 12.3206 38.6861L12.0052 38.8129L12.0072 39.1529L12.1696 67.5029L12.1803 69.3595L13.1034 67.7486L42.9366 15.6926ZM55.7454 15.01L54.1491 14.0971L55.0634 15.6926L84.8966 67.7486L85.8197 69.3595L85.8304 67.5029L85.9928 39.1529L85.9948 38.8129L85.6794 38.6861C82.5106 37.4118 80.2621 34.306 80.2536 30.6926L80.3602 29.4176L80.3867 29.1001L80.1101 28.942L55.7454 15.01Z" stroke="white"/>
</svg>
